<svg width="1182" height="81" fill="none" xmlns="http://www.w3.org/2000/svg"><path d="M.199 15c0 5.891 4.775 10.667 10.666 10.667S21.532 20.89 21.532 15 16.756 4.333 10.865 4.333C4.975 4.333.2 9.11.2 15zm232.715 1.414a2 2 0 000-2.828L220.186.858a2 2 0 10-2.828 2.828L228.672 15l-11.314 11.314a2 2 0 002.828 2.828l12.728-12.728zM10.865 17H231.5v-4H10.865v4z" fill="#B98CFF"/><path d="M495.914 16.414a2 2 0 000-2.828L483.186.858a2 2 0 10-2.828 2.828L491.672 15l-11.314 11.314a2 2 0 002.828 2.828l12.728-12.728zM230 13a2 2 0 100 4v-4zm0 4h264.5v-4H230v4z" fill="#B98CFF"/><path d="M837.914 16.414a2 2 0 000-2.828L825.186.858a2 2 0 10-2.828 2.828L833.672 15l-11.314 11.314a2 2 0 002.828 2.828l12.728-12.728zM836.5 13H493.365v4H836.5v-4z" fill="#B98CFF"/><path d="M835 13a2 2 0 100 4v-4zm324.82 57c0 5.891 4.77 10.667 10.66 10.667 5.89 0 10.67-4.776 10.67-10.667s-4.78-10.667-10.67-10.667-10.66 4.776-10.66 10.667zm-44.34-55v2-2zM835 17h280.48v-4H835v4zm280.48 0c29.27 0 53 23.729 53 53h4c0-31.48-25.52-57-57-57v4z" fill="#B98CFF"/></svg>