<svg width="501" height="500" viewBox="0 0 501 500" fill="none" xmlns="http://www.w3.org/2000/svg">
<path d="M413.42 143.677L423.084 149.672L424.917 146.712C425.456 145.842 426.44 145.37 427.461 145.457C428.025 145.505 428.592 145.523 429.161 145.511C430.182 145.489 431.132 146.022 431.615 146.922L433.26 149.99L443.285 144.613L441.64 141.545C441.157 140.645 441.239 139.558 441.822 138.721C442.147 138.254 442.446 137.771 442.718 137.275C443.21 136.377 444.147 135.818 445.17 135.85L448.65 135.96L449.003 124.593L445.51 124.488C444.486 124.457 443.595 123.83 443.157 122.903C443.038 122.652 442.912 122.402 442.78 122.155C442.647 121.908 442.509 121.665 442.366 121.427C441.839 120.554 441.808 119.47 442.345 118.603L444.192 115.622L434.528 109.628L432.688 112.593C432.148 113.463 431.162 113.934 430.142 113.846C429.58 113.797 429.015 113.779 428.449 113.79C427.429 113.811 426.48 113.278 425.998 112.379L424.352 109.31L414.327 114.687L415.973 117.756C416.455 118.655 416.374 119.741 415.792 120.578C415.469 121.043 415.172 121.525 414.902 122.019C414.411 122.918 413.474 123.478 412.45 123.447L408.962 123.34L408.609 134.707L412.099 134.815C413.12 134.847 414.007 135.473 414.444 136.396C414.563 136.649 414.69 136.9 414.824 137.149C414.956 137.396 415.095 137.639 415.238 137.877C415.768 138.754 415.798 139.844 415.258 140.715L413.42 143.677ZM420.597 134.053C418.166 129.519 419.868 123.878 424.402 121.447C428.936 119.016 434.585 120.714 437.016 125.248C439.447 129.782 437.741 135.435 433.207 137.866C428.674 140.297 423.029 138.586 420.597 134.053Z" fill="#EBEBEB"/>
<path d="M441.801 204.564L445.783 211.465L447.895 210.245C448.516 209.886 449.28 209.921 449.881 210.312C450.213 210.529 450.558 210.728 450.913 210.908C451.551 211.232 451.961 211.876 451.961 212.592V215.031H459.93V212.592C459.93 211.877 460.34 211.233 460.978 210.908C461.333 210.727 461.678 210.528 462.01 210.312C462.611 209.92 463.375 209.886 463.996 210.245L466.108 211.465L470.09 204.564L467.969 203.343C467.347 202.985 467.005 202.302 467.041 201.585C467.051 201.39 467.056 201.195 467.056 200.998C467.056 200.802 467.051 200.606 467.041 200.412C467.004 199.698 467.344 199.019 467.963 198.662L470.09 197.433L466.108 190.532L463.99 191.753C463.369 192.111 462.604 192.076 462.004 191.683C461.673 191.467 461.331 191.268 460.977 191.088C460.34 190.763 459.931 190.12 459.931 189.405V186.966H451.962V189.405C451.962 190.12 451.553 190.763 450.916 191.088C450.562 191.268 450.22 191.467 449.889 191.683C449.288 192.076 448.524 192.111 447.903 191.753L445.785 190.532L441.803 197.433L443.922 198.655C444.542 199.013 444.883 199.693 444.846 200.408C444.836 200.603 444.831 200.8 444.831 200.999C444.831 201.195 444.836 201.391 444.846 201.586C444.883 202.303 444.541 202.986 443.919 203.344L441.801 204.564ZM449.419 200.999C449.419 197.395 452.338 194.476 455.942 194.476C459.546 194.476 462.471 197.395 462.471 200.999C462.471 204.603 459.546 207.528 455.942 207.528C452.338 207.528 449.419 204.603 449.419 200.999Z" fill="#EBEBEB"/>
<path d="M30.9102 329.586L34.8922 336.487L37.0042 335.267C37.6252 334.908 38.3892 334.943 38.9902 335.334C39.3222 335.551 39.6662 335.75 40.0222 335.93C40.6602 336.254 41.0702 336.898 41.0702 337.613V340.052H49.0402V337.613C49.0402 336.898 49.4502 336.254 50.0882 335.93C50.4432 335.749 50.7882 335.55 51.1202 335.334C51.7212 334.942 52.4852 334.908 53.1062 335.267L55.2182 336.487L59.2002 329.586L57.0782 328.365C56.4562 328.007 56.1142 327.324 56.1502 326.607C56.1602 326.412 56.1652 326.217 56.1652 326.021C56.1652 325.825 56.1602 325.629 56.1502 325.435C56.1132 324.721 56.4542 324.042 57.0722 323.685L59.1992 322.456L55.2172 315.555L53.0992 316.776C52.4772 317.134 51.7132 317.099 51.1132 316.706C50.7822 316.49 50.4392 316.291 50.0862 316.111C49.4492 315.786 49.0402 315.143 49.0402 314.428V311.989H41.0702V314.428C41.0702 315.143 40.6612 315.786 40.0242 316.111C39.6702 316.291 39.3282 316.49 38.9972 316.706C38.3962 317.099 37.6322 317.134 37.0112 316.776L34.8932 315.555L30.9112 322.456L33.0302 323.678C33.6502 324.036 33.9902 324.716 33.9542 325.431C33.9442 325.626 33.9392 325.823 33.9392 326.022C33.9392 326.218 33.9442 326.414 33.9542 326.608C33.9912 327.325 33.6492 328.008 33.0272 328.367L30.9102 329.586ZM38.5282 326.021C38.5282 322.417 41.4472 319.498 45.0512 319.498C48.6552 319.498 51.5802 322.417 51.5802 326.021C51.5802 329.625 48.6552 332.55 45.0512 332.55C41.4472 332.55 38.5282 329.625 38.5282 326.021Z" fill="#EBEBEB"/>
<path d="M77.7207 0H76.7207V83.767H77.7207V0Z" fill="#C7C7C7"/>
<path d="M106.308 111.806L103.968 116.949H50.4658L48.1328 111.806L70.9108 96.04H83.5298L106.308 111.806Z" fill="#EBEBEB"/>
<path d="M85.1111 80.8501L83.5301 96.0401H70.9111L69.3301 80.8501H85.1111Z" fill="#DBDBDB"/>
<path d="M106.305 111.808L103.966 116.951H50.4629L48.1309 111.808H106.305Z" fill="#DBDBDB"/>
<path d="M148.068 0H147.068V67.175H148.068V0Z" fill="#C7C7C7"/>
<path d="M176.655 95.2138L174.315 100.357H120.813L118.48 95.2138L141.258 79.4478H153.877L176.655 95.2138Z" fill="#EBEBEB"/>
<path d="M155.459 64.2578L153.878 79.4478H141.259L139.678 64.2578H155.459Z" fill="#DBDBDB"/>
<path d="M176.653 95.2158L174.314 100.359H120.811L118.479 95.2158H176.653Z" fill="#DBDBDB"/>
<path d="M363.57 273.675H323.578V312.105H363.57V273.675Z" fill="#EBEBEB"/>
<path d="M378.768 273.675H363.57V312.105H378.768V273.675Z" fill="#C7C7C7"/>
<path d="M323.578 292.89H363.57L332.337 293.879L323.578 292.89Z" fill="#C7C7C7"/>
<path d="M363.57 307.462H323.578L354.811 308.451L363.57 307.462Z" fill="#C7C7C7"/>
<path d="M323.578 282.148H348.91L326.391 282.956L323.578 282.148Z" fill="#C7C7C7"/>
<path d="M363.57 301.805H338.238L360.757 302.612L363.57 301.805Z" fill="#C7C7C7"/>
<path d="M333.172 277.871H361.744L356.982 278.355L333.172 277.871Z" fill="#C7C7C7"/>
<path d="M327.465 297.01H356.037L351.275 297.494L327.465 297.01Z" fill="#C7C7C7"/>
<path d="M345.037 285.807H363.571L366.882 287.099L345.037 285.807Z" fill="#EBEBEB"/>
<path d="M318.473 285.807H337.007L340.318 287.099L318.473 285.807Z" fill="#EBEBEB"/>
<path d="M342.256 303.079H323.721L320.41 304.371L342.256 303.079Z" fill="#EBEBEB"/>
<path d="M363.57 298.693H378.453L381.765 299.985L363.57 298.693Z" fill="#C7C7C7"/>
<path d="M368.766 292.89H380.308L378.77 291.834L368.766 292.89Z" fill="#C7C7C7"/>
<path d="M304.036 387.11H422.226L426.027 312.114H300.234L304.036 387.11Z" fill="#EBEBEB"/>
<path d="M308.529 320.87H414.744L413.131 345.983H309.912L308.529 320.87Z" stroke="#DBDBDB" stroke-miterlimit="10"/>
<path d="M311.783 353.355L312.907 375.934H411.72L413.131 353.355H311.783Z" stroke="#DBDBDB" stroke-miterlimit="10"/>
<path d="M373.085 335.788H351.83L351.139 330.431H373.776L373.085 335.788Z" stroke="#DBDBDB" stroke-miterlimit="10"/>
<path d="M373.085 367.324H351.83L351.139 361.967H373.776L373.085 367.324Z" stroke="#DBDBDB" stroke-miterlimit="10"/>
<path d="M320.426 387.109L319.279 395.279L316.97 411.695H312.457V387.109H320.426Z" fill="#EBEBEB"/>
<path d="M320.426 387.109L319.279 395.279H312.457V387.109H320.426Z" fill="#DBDBDB"/>
<path d="M405.836 387.109L406.983 395.279L409.292 411.695H413.805V387.109H405.836Z" fill="#EBEBEB"/>
<path d="M405.836 387.109L406.983 395.279H413.805V387.109H405.836Z" fill="#DBDBDB"/>
<path d="M250.499 470.251C362.613 470.251 453.5 459.922 453.5 447.182C453.5 434.441 362.613 424.113 250.499 424.113C138.385 424.113 47.498 434.441 47.498 447.182C47.498 459.922 138.385 470.251 250.499 470.251Z" fill="#EBEBEB"/>
<path d="M36.9688 412.478L90.3507 412.235L143.734 412.147L250.5 411.979L357.266 412.146L410.648 412.234L464.031 412.478L410.648 412.723L357.266 412.811L250.5 412.977L143.734 412.81L90.3507 412.721L36.9688 412.478Z" fill="#263238"/>
<path d="M178.799 435.722H172.094L219.094 247.415H235.799L178.799 435.722Z" fill="#455A64"/>
<path d="M219.091 247.416H235.801L222.781 290.426H208.361L219.091 247.416Z" fill="#263238"/>
<path d="M243.854 425.722H237.148L242.148 247.415H258.854L243.854 425.722Z" fill="#455A64"/>
<path d="M242.151 247.416H258.851L255.231 290.426H240.941L242.151 247.416Z" fill="#263238"/>
<path d="M309.203 435.722H315.908L278.908 247.415H262.203L309.203 435.722Z" fill="#455A64"/>
<path d="M287.361 290.426H272.931L262.201 247.416H278.911L287.361 290.426Z" fill="#263238"/>
<path d="M295.454 355.05H197.934V358.727H295.454V355.05Z" fill="#455A64"/>
<path d="M383.328 63.0493H117.674V259.065H383.328V63.0493Z" fill="#EBEBEB"/>
<path d="M393.054 55.2441H107.945V69.7691H393.054V55.2441Z" fill="#37474F"/>
<path d="M301.136 94.3882H199.861V96.6322H301.136V94.3882Z" fill="#C7C7C7"/>
<path d="M283.819 99.0742H217.178V101.318H283.819V99.0742Z" fill="#C7C7C7"/>
<path d="M167.406 118.414L254.756 118.182C283.873 118.264 304.478 118.213 333.594 118.414C304.477 118.614 283.872 118.564 254.756 118.646L167.406 118.414Z" fill="#C7C7C7"/>
<path d="M167.406 125.538L254.756 125.306C283.873 125.388 304.478 125.337 333.594 125.538C304.477 125.738 283.872 125.688 254.756 125.77L167.406 125.538Z" fill="#C7C7C7"/>
<path d="M167.406 132.662L254.756 132.43C283.873 132.512 304.478 132.461 333.594 132.662C304.477 132.862 283.872 132.812 254.756 132.894L167.406 132.662Z" fill="#C7C7C7"/>
<path d="M167.406 139.786L254.756 139.554C283.873 139.636 304.478 139.585 333.594 139.786C304.477 139.986 283.872 139.936 254.756 140.018L167.406 139.786Z" fill="#C7C7C7"/>
<path d="M167.406 146.909L254.756 146.677C283.873 146.759 304.478 146.708 333.594 146.909C304.477 147.109 283.872 147.059 254.756 147.141L167.406 146.909Z" fill="#C7C7C7"/>
<path d="M167.406 154.033L254.756 153.801C283.873 153.883 304.478 153.833 333.594 154.033C304.477 154.233 283.872 154.183 254.756 154.265L167.406 154.033Z" fill="#C7C7C7"/>
<path d="M167.406 161.157L254.756 160.925C283.873 161.007 304.478 160.956 333.594 161.157C304.477 161.357 283.872 161.307 254.756 161.389L167.406 161.157Z" fill="#C7C7C7"/>
<path d="M167.406 168.281L254.756 168.049C283.873 168.131 304.478 168.08 333.594 168.281C304.477 168.481 283.872 168.431 254.756 168.513L167.406 168.281Z" fill="#C7C7C7"/>
<path d="M167.406 175.405L254.756 175.173C283.873 175.255 304.478 175.205 333.594 175.405C304.477 175.605 283.872 175.555 254.756 175.637L167.406 175.405Z" fill="#C7C7C7"/>
<path d="M167.406 182.529L254.756 182.297C283.873 182.379 304.478 182.329 333.594 182.529C304.477 182.729 283.872 182.679 254.756 182.761L167.406 182.529Z" fill="#C7C7C7"/>
<path d="M167.406 189.653L254.756 189.421C283.873 189.503 304.478 189.453 333.594 189.653C304.477 189.853 283.872 189.803 254.756 189.885L167.406 189.653Z" fill="#C7C7C7"/>
<path d="M167.406 196.777L254.756 196.545C283.873 196.627 304.478 196.576 333.594 196.777C304.477 196.977 283.872 196.927 254.756 197.009L167.406 196.777Z" fill="#C7C7C7"/>
<path d="M167.406 203.901L254.756 203.669C283.873 203.751 304.478 203.7 333.594 203.901C304.477 204.101 283.872 204.051 254.756 204.133L167.406 203.901Z" fill="#C7C7C7"/>
<path d="M167.406 211.025L254.756 210.793C283.873 210.875 304.478 210.825 333.594 211.025C304.477 211.225 283.872 211.175 254.756 211.257L167.406 211.025Z" fill="#C7C7C7"/>
<path d="M167.406 218.148L254.756 217.916C283.873 217.998 304.478 217.947 333.594 218.148C304.477 218.348 283.872 218.298 254.756 218.38L167.406 218.148Z" fill="#C7C7C7"/>
<path d="M199.127 200.021H185.879V226.454H199.127V200.021Z" fill="#FFC727"/>
<path d="M223.703 180.027H210.455V226.453H223.703V180.027Z" fill="#FFC727"/>
<path d="M248.281 175.602H235.033V226.453H248.281V175.602Z" fill="#FFC727"/>
<path d="M272.855 162.482H259.607V226.454H272.855V162.482Z" fill="#FFC727"/>
<path d="M297.432 134.535H284.184V226.454H297.432V134.535Z" fill="#FFC727"/>
<path d="M322.008 123.193H308.76V226.453H322.008V123.193Z" fill="#FFC727"/>
<path d="M172.148 113.414L172.509 141.674L172.757 169.934C172.927 188.774 172.977 207.614 173.008 226.453L172.147 225.593L214.637 225.557L257.127 225.659L299.617 225.944L333.595 226.455L299.617 226.966L257.127 227.251L214.637 227.353L172.147 227.317L171.285 227.316L171.286 226.456C171.317 207.616 171.367 188.776 171.537 169.937L171.785 141.677L172.148 113.414Z" fill="#C7C7C7"/>
<path d="M199.127 232.426H185.879V233.624H199.127V232.426Z" fill="#C7C7C7"/>
<path d="M223.703 232.426H210.455V233.624H223.703V232.426Z" fill="#C7C7C7"/>
<path d="M248.281 232.426H235.033V233.624H248.281V232.426Z" fill="#C7C7C7"/>
<path d="M272.855 232.426H259.607V233.624H272.855V232.426Z" fill="#C7C7C7"/>
<path d="M297.432 232.426H284.184V233.624H297.432V232.426Z" fill="#C7C7C7"/>
<path d="M322.008 232.426H308.76V233.624H322.008V232.426Z" fill="#C7C7C7"/>
<path d="M185.879 198.935C185.879 198.935 258.372 186.868 316.365 120.722" stroke="#263238" stroke-miterlimit="10"/>
<path d="M317.728 122.895L318.711 118.007L313.986 119.599L317.728 122.895Z" fill="#263238"/>
<path d="M377.196 102.559H344.318V141.517H377.196V102.559Z" fill="white"/>
<path d="M361.94 105.208C361.94 105.861 361.411 106.39 360.758 106.39C360.105 106.39 359.576 105.861 359.576 105.208C359.576 104.555 360.105 104.026 360.758 104.026C361.41 104.026 361.94 104.555 361.94 105.208Z" fill="#455A64"/>
<path d="M350.574 110.362C353.898 110.106 357.222 110.09 360.547 110.053C363.871 110.089 367.195 110.104 370.52 110.362C367.196 110.62 363.872 110.635 360.547 110.671C357.222 110.634 353.898 110.618 350.574 110.362Z" fill="#EBEBEB"/>
<path d="M350.574 113.441C352.381 113.2 354.188 113.144 355.995 113.132C357.802 113.143 359.609 113.199 361.416 113.441C359.609 113.684 357.802 113.739 355.995 113.75C354.188 113.738 352.381 113.682 350.574 113.441Z" fill="#EBEBEB"/>
<path d="M350.574 116.52C352.883 116.279 355.192 116.223 357.501 116.211C359.81 116.222 362.119 116.278 364.428 116.52C362.119 116.762 359.81 116.818 357.501 116.829C355.192 116.816 352.883 116.76 350.574 116.52Z" fill="#EBEBEB"/>
<path d="M350.574 119.598C353.463 119.357 356.352 119.301 359.242 119.289C362.131 119.3 365.02 119.356 367.909 119.598C365.02 119.841 362.131 119.896 359.242 119.907C356.352 119.895 353.463 119.839 350.574 119.598Z" fill="#EBEBEB"/>
<path d="M350.574 122.677C353.084 122.436 355.594 122.38 358.104 122.368C360.614 122.379 363.124 122.435 365.634 122.677C363.124 122.92 360.614 122.975 358.104 122.986C355.594 122.974 353.084 122.918 350.574 122.677Z" fill="#EBEBEB"/>
<path d="M350.574 125.756C353.787 125.5 356.999 125.483 360.212 125.447C363.425 125.483 366.637 125.498 369.85 125.756C366.637 126.013 363.425 126.029 360.212 126.065C356.999 126.028 353.787 126.012 350.574 125.756Z" fill="#EBEBEB"/>
<path d="M350.574 128.835C352.649 128.594 354.724 128.538 356.798 128.526C358.873 128.537 360.948 128.593 363.023 128.835C360.948 129.077 358.873 129.133 356.798 129.144C354.724 129.132 352.649 129.076 350.574 128.835Z" fill="#EBEBEB"/>
<path d="M350.574 131.913C353.898 131.657 357.222 131.641 360.547 131.604C363.871 131.64 367.195 131.655 370.52 131.913C367.196 132.171 363.872 132.186 360.547 132.222C357.222 132.186 353.898 132.169 350.574 131.913Z" fill="#EBEBEB"/>
<path d="M350.574 134.992C353.898 134.736 357.222 134.719 360.547 134.683C363.871 134.719 367.195 134.734 370.52 134.992C367.196 135.25 363.872 135.265 360.547 135.301C357.222 135.265 353.898 135.248 350.574 134.992Z" fill="#EBEBEB"/>
<path d="M164.843 146.548H125.939V192.646H164.843V146.548Z" fill="white"/>
<path d="M146.573 152.767C146.573 153.42 146.044 153.949 145.391 153.949C144.738 153.949 144.209 153.42 144.209 152.767C144.209 152.114 144.738 151.585 145.391 151.585C146.044 151.585 146.573 152.114 146.573 152.767Z" fill="#455A64"/>
<path d="M131.383 158.049C132.821 157.808 134.259 157.752 135.697 157.74C137.135 157.751 138.573 157.807 140.011 158.049C138.573 158.292 137.135 158.347 135.697 158.358C134.259 158.346 132.821 158.29 131.383 158.049Z" fill="#EBEBEB"/>
<path d="M131.383 161.524C133.245 161.283 135.107 161.227 136.969 161.215C138.831 161.226 140.693 161.282 142.555 161.524C140.693 161.767 138.831 161.822 136.969 161.833C135.107 161.821 133.245 161.766 131.383 161.524Z" fill="#EBEBEB"/>
<path d="M131.383 165C133.108 164.759 134.833 164.703 136.558 164.691C138.283 164.702 140.008 164.758 141.733 165C140.008 165.242 138.283 165.298 136.558 165.309C134.833 165.297 133.108 165.241 131.383 165Z" fill="#EBEBEB"/>
<path d="M131.383 168.476C133.108 168.235 134.833 168.179 136.558 168.167C138.283 168.178 140.008 168.234 141.733 168.476C140.008 168.718 138.283 168.774 136.558 168.785C134.833 168.773 133.108 168.717 131.383 168.476Z" fill="#EBEBEB"/>
<path d="M131.383 171.952C132.882 171.711 134.38 171.655 135.878 171.643C137.377 171.654 138.875 171.71 140.373 171.952C138.875 172.195 137.376 172.25 135.878 172.261C134.38 172.249 132.882 172.193 131.383 171.952Z" fill="#EBEBEB"/>
<path d="M131.383 175.428C133.301 175.187 135.219 175.131 137.137 175.119C139.055 175.13 140.973 175.186 142.891 175.428C140.973 175.671 139.055 175.726 137.137 175.737C135.219 175.724 133.301 175.669 131.383 175.428Z" fill="#EBEBEB"/>
<path d="M131.383 178.903C132.966 178.662 134.549 178.606 136.132 178.594C137.715 178.605 139.298 178.661 140.881 178.903C139.298 179.146 137.715 179.201 136.132 179.212C134.549 179.2 132.966 179.144 131.383 178.903Z" fill="#EBEBEB"/>
<path d="M131.383 182.379C133.368 182.138 135.352 182.082 137.337 182.07C139.322 182.081 141.306 182.137 143.291 182.379C141.306 182.621 139.322 182.677 137.337 182.688C135.353 182.676 133.368 182.62 131.383 182.379Z" fill="#EBEBEB"/>
<path d="M131.383 185.855C133.368 185.614 135.352 185.558 137.337 185.546C139.322 185.557 141.306 185.613 143.291 185.855C141.306 186.098 139.322 186.153 137.337 186.164C135.353 186.152 133.368 186.096 131.383 185.855Z" fill="#EBEBEB"/>
<path d="M148.385 158.049C150.269 157.808 152.154 157.752 154.038 157.74C155.922 157.751 157.806 157.807 159.691 158.049C157.807 158.292 155.923 158.347 154.038 158.358C152.153 158.346 150.269 158.29 148.385 158.049Z" fill="#EBEBEB"/>
<path d="M148.385 161.524C149.624 161.283 150.862 161.227 152.101 161.215C153.34 161.226 154.579 161.282 155.817 161.524C154.578 161.767 153.339 161.822 152.101 161.833C150.862 161.821 149.623 161.766 148.385 161.524Z" fill="#EBEBEB"/>
<path d="M148.385 165C150.158 164.759 151.93 164.703 153.703 164.691C155.476 164.702 157.249 164.758 159.021 165C157.248 165.242 155.475 165.298 153.703 165.309C151.93 165.297 150.157 165.241 148.385 165Z" fill="#EBEBEB"/>
<path d="M148.385 168.476C150.11 168.235 151.835 168.179 153.56 168.167C155.285 168.178 157.01 168.234 158.735 168.476C157.01 168.718 155.285 168.774 153.56 168.785C151.834 168.773 150.11 168.717 148.385 168.476Z" fill="#EBEBEB"/>
<path d="M148.385 171.952C150.269 171.711 152.154 171.655 154.038 171.643C155.922 171.654 157.806 171.71 159.691 171.952C157.807 172.195 155.923 172.25 154.038 172.261C152.153 172.249 150.269 172.193 148.385 171.952Z" fill="#EBEBEB"/>
<path d="M148.385 175.428C149.883 175.187 151.382 175.131 152.88 175.119C154.378 175.13 155.877 175.186 157.375 175.428C155.876 175.671 154.378 175.726 152.88 175.737C151.382 175.724 149.883 175.669 148.385 175.428Z" fill="#EBEBEB"/>
<path d="M148.385 178.903C150.158 178.662 151.93 178.606 153.703 178.594C155.476 178.605 157.249 178.661 159.021 178.903C157.248 179.146 155.475 179.201 153.703 179.212C151.93 179.2 150.157 179.144 148.385 178.903Z" fill="#EBEBEB"/>
<path d="M148.385 182.379C149.756 182.138 151.127 182.082 152.498 182.07C153.869 182.081 155.24 182.137 156.611 182.379C155.24 182.621 153.869 182.677 152.498 182.688C151.127 182.676 149.756 182.62 148.385 182.379Z" fill="#EBEBEB"/>
<path d="M148.385 185.855C149.7 185.614 151.016 185.558 152.331 185.546C153.646 185.557 154.962 185.613 156.277 185.855C154.962 186.098 153.646 186.153 152.331 186.164C151.015 186.152 149.7 186.096 148.385 185.855Z" fill="#EBEBEB"/>
<path d="M350.573 85.313H330.791V105.095H350.573V85.313Z" fill="#FFC727"/>
<path d="M341.864 87.3212C341.864 87.9742 341.335 88.5032 340.682 88.5032C340.029 88.5032 339.5 87.9742 339.5 87.3212C339.5 86.6682 340.029 86.1392 340.682 86.1392C341.335 86.1392 341.864 86.6682 341.864 87.3212Z" fill="#455A64"/>
<path d="M155.131 308.343C154.363 313.599 154.65 319.019 155.931 324.163C156.533 326.572 157.359 328.894 158.355 331.157C159.613 334.051 160.929 336.877 160.612 340.044C160.306 340.248 161.355 340.215 161.389 339.907C169.852 335.089 180.705 334.206 187.218 326.327C190.303 322.597 191.859 317.868 192.597 313.138C193.398 307.988 193.62 302.287 192.292 297.211C191.173 292.918 188.664 288.777 184.63 286.674C180.466 284.509 175.013 284.689 170.629 286.05C161.172 288.99 156.468 299.195 155.131 308.343Z" fill="#FFC727"/>
<path d="M150.786 370.993C151.941 367.144 153.095 363.293 154.281 359.453C156.603 351.931 159.017 344.437 161.689 337.031C163.29 332.595 164.978 328.202 166.755 323.851C166.452 321.118 166.332 318.394 165.745 315.67C165.037 312.389 164.01 309.22 163.052 306.009C162.993 305.811 163.313 305.707 163.394 305.895C165.294 310.318 167.774 315.979 167.836 321.218C169.903 316.295 172.111 311.439 174.488 306.659C174.622 302.584 174.771 298.634 174.115 294.533C174.086 294.349 174.366 294.293 174.4 294.478C175.036 297.921 175.484 301.614 175.228 305.182C177.048 301.59 178.964 298.042 181.003 294.549C181.187 294.234 181.622 294.556 181.461 294.866C178.28 300.99 175.33 307.242 172.563 313.578C176.397 310.178 181.039 307.604 185.832 305.894C186.043 305.819 186.201 306.124 185.987 306.213C180.533 308.493 175.954 311.716 171.635 315.715C169.645 320.354 167.75 325.034 165.946 329.744C171.242 324.553 178.488 321.137 185.498 319.306C185.737 319.244 185.8 319.609 185.57 319.678C177.458 322.12 171.156 326.719 164.987 332.244C164.27 334.149 163.566 336.059 162.877 337.971C160.263 345.224 157.786 352.526 155.41 359.86C154.271 363.376 153.15 366.897 152.05 370.425C150.866 374.22 149.941 378.228 148.4 381.892C148.253 382.242 147.624 382.162 147.704 381.743C148.4 378.108 149.723 374.536 150.786 370.993Z" fill="#263238"/>
<path d="M164.824 300.935C166.34 303.259 167.353 305.813 167.872 308.533C167.885 308.602 167.777 308.644 167.751 308.573C166.808 306.013 165.699 303.54 164.447 301.118C164.319 300.872 164.682 300.716 164.824 300.935Z" fill="#263238"/>
<path d="M179.921 318.569C182.111 317.323 185.019 316.34 187.516 316.012C187.585 316.003 187.628 316.104 187.557 316.133C186.336 316.64 185.053 316.994 183.817 317.469C182.576 317.946 181.366 318.525 180.111 318.961C179.851 319.052 179.673 318.71 179.921 318.569Z" fill="#263238"/>
<path d="M184.177 297.357C184.947 296.847 185.766 296.194 186.62 295.849C186.754 295.795 186.871 295.961 186.76 296.063C186.083 296.687 185.139 297.15 184.352 297.625C184.197 297.718 184.024 297.458 184.177 297.357Z" fill="#263238"/>
<path d="M126.599 337.088C132.695 338.897 138.821 340.57 144.915 342.358C145.444 342.517 155.749 322.772 152.025 312.6C148.583 303.185 140.703 296.139 131.308 292.941C126.956 291.462 121.605 290.221 117.007 291.235C112.919 292.14 110.032 295.485 108.703 299.33C106.893 304.555 107.497 310.788 108.481 316.123C109.396 321.07 111.206 325.942 114.478 329.829C117.717 333.677 121.848 335.679 126.599 337.088Z" fill="#FFC727"/>
<path d="M117.761 318.323C121.642 320.28 125.574 321.698 129.712 323.028C132.303 323.861 135.206 324.613 137.69 325.916C135.116 320.177 132.292 314.559 129.293 308.99C125.355 307.85 121.214 306.073 118.245 303.286C118.083 303.134 118.291 302.906 118.467 303.03C121.715 305.325 125.297 306.703 128.89 308.255C128.078 306.757 127.262 305.26 126.427 303.767C126.195 303.352 126.767 302.939 127.046 303.343C130.241 307.953 133.115 312.839 135.707 317.888C136.35 313.433 136.582 309.093 136.334 304.561C136.328 304.445 136.494 304.437 136.511 304.548C137.265 309.341 137.229 314.412 136.361 319.192C138.498 323.459 140.446 327.83 142.195 332.255C142.891 329.596 143.794 326.979 144.397 324.298C145.265 320.44 145.672 316.51 145.273 312.564C145.261 312.449 145.431 312.441 145.45 312.551C146.632 319.546 145.554 327.445 142.892 334.09C143.911 336.754 144.883 339.429 145.772 342.107C150.323 355.822 153.129 369.962 153.862 384.398C153.879 384.731 153.385 384.765 153.347 384.435C151.691 370.274 148.767 356.178 144.264 342.642C142.496 337.328 140.462 332.168 138.229 327.105C134.629 326.041 131.043 324.598 127.506 323.373C124.056 322.178 120.52 320.796 117.623 318.528C117.512 318.441 117.636 318.259 117.761 318.323Z" fill="#263238"/>
<path d="M112.078 312.587C115.806 313.913 119.339 315.769 123.063 317.113C123.237 317.176 123.136 317.452 122.96 317.416C119.02 316.603 115.111 315.385 111.936 312.8C111.814 312.701 111.949 312.541 112.078 312.587Z" fill="#263238"/>
<path d="M142.518 304.544C142.473 304.346 142.762 304.233 142.822 304.436C143.844 307.872 144.55 311.519 143.555 315.031C143.516 315.169 143.3 315.173 143.291 315.014C143.113 311.476 143.311 308.033 142.518 304.544Z" fill="#263238"/>
<path d="M127.115 296.606C128.364 298.201 128.814 300.465 128.733 302.449C128.728 302.58 128.518 302.656 128.483 302.501C128.029 300.535 127.269 298.743 126.666 296.834C126.577 296.555 126.938 296.38 127.115 296.606Z" fill="#263238"/>
<path d="M199.101 345.797C197.314 351.468 193.068 359.308 186.344 359.37C181.985 359.411 177.595 358.895 173.225 358.833C168.546 358.761 163.856 358.771 159.187 359.05C158.805 359.071 159.747 345.038 170.994 338.205C174.145 336.291 177.998 335.684 181.572 334.91C185.663 334.021 189.877 333.422 194.071 333.608C196.653 333.711 198.802 334.259 199.721 336.903C200.681 339.672 199.958 343.101 199.101 345.797Z" fill="#FFC727"/>
<path d="M194.262 338.7C191.529 339.403 188.772 340.21 186.029 341.081C186.762 340.321 187.477 339.55 188.295 338.87C189.473 337.891 190.769 337.109 192.032 336.251C192.138 336.179 192.075 335.976 191.939 336.03C189.445 337.01 186.852 339.057 185.307 341.305C181.889 342.409 178.503 343.628 175.244 344.965C172.931 345.914 170.798 347.046 168.801 348.358C169.519 346.97 170.173 345.545 171.132 344.302C172.624 342.367 174.644 341.29 176.598 339.916C176.783 339.786 176.626 339.526 176.423 339.617C172.01 341.578 169.326 344.762 167.653 349.128C165.346 350.774 163.234 352.694 161.273 354.92C153.832 363.372 147.972 374.617 147.951 386.091C147.95 386.365 148.39 386.442 148.442 386.157C150.554 374.759 155.055 364.524 162.632 355.677C163.164 355.056 163.711 354.464 164.268 353.891C166.314 353.676 168.341 353.403 170.415 353.435C172.809 353.471 175.185 353.787 177.568 353.981C181.494 354.3 185.835 354.346 189.377 352.371C189.533 352.284 189.428 352.012 189.253 352.076C181.358 354.947 173.078 351.305 165.164 353.017C168.54 349.779 172.375 347.339 176.835 345.49C177.076 345.39 177.319 345.297 177.561 345.199C182.628 345.808 187.977 347.128 192.911 345.481C193.058 345.432 192.999 345.21 192.846 345.248C188.078 346.439 183.506 344.941 178.801 344.703C183.924 342.709 189.145 341.121 194.286 339.141C194.72 338.975 194.73 338.579 194.262 338.7Z" fill="#263238"/>
<path d="M196.499 343.688C194.026 344.095 191.611 344.108 189.124 344.247C189.068 344.25 189.049 344.336 189.11 344.35C191.535 344.895 194.188 344.559 196.55 343.875C196.672 343.839 196.619 343.668 196.499 343.688Z" fill="#263238"/>
<path d="M179.841 338.824C178.496 339.289 177.244 340.43 176.191 341.362C176.063 341.476 176.235 341.706 176.377 341.603C176.995 341.152 177.633 340.728 178.276 340.313C178.862 339.934 179.517 339.633 180.054 339.188C180.22 339.049 180.041 338.754 179.841 338.824Z" fill="#263238"/>
<path d="M140.131 357.084C140.214 357.27 139.945 357.445 139.842 357.249C139.832 357.249 139.832 357.249 139.832 357.239C139.791 357.291 139.739 357.342 139.656 357.353C135.111 358.334 130.545 359.336 125.917 359.75C122.198 360.081 117.911 360.287 114.657 358.128C110.246 355.205 107.344 347.385 109.73 342.417C112.55 336.519 121.051 339.721 125.318 341.818C131.878 345.019 137.146 350.432 140.131 357.084Z" fill="#FFC727"/>
<path d="M143.43 359.811C140.928 357.363 138.161 355.325 135.227 353.567C133.216 350.152 130.129 347.317 126.908 345.089C126.747 344.978 126.609 345.233 126.757 345.347C129.534 347.485 131.702 349.994 133.767 352.721C130.485 350.89 127.014 349.381 123.475 348.04C122.242 345.78 120.235 343.664 117.946 342.5C117.9 342.477 117.842 342.54 117.887 342.576C119.883 344.139 121.485 345.761 122.88 347.816C120.789 347.036 118.677 346.309 116.566 345.609C116.376 345.546 116.304 345.834 116.484 345.905C120.241 347.373 124.083 348.922 127.807 350.708C123.107 351.338 118.875 351.484 114.095 350.668C113.969 350.647 113.914 350.826 114.041 350.863C118.653 352.179 123.941 352.423 128.59 351.08C130.965 352.247 133.283 353.521 135.491 354.945C133.643 354.705 131.785 355.029 129.913 355.401C126.648 356.05 123.455 356.625 120.112 356.511C119.987 356.507 119.955 356.711 120.082 356.733C125.768 357.711 131.144 355.127 136.78 355.799C138.867 357.234 140.84 358.817 142.649 360.593C146.191 364.069 149.025 368.225 151.209 372.67C153.581 377.498 154.868 382.617 156.785 387.605C156.869 387.824 157.174 387.74 157.135 387.508C155.493 377.671 150.596 366.823 143.43 359.811Z" fill="#263238"/>
<path d="M126.282 346.322C125.951 345.644 125.37 345.066 124.826 344.555C124.35 344.109 123.768 343.532 123.147 343.298C123.09 343.277 123.058 343.354 123.092 343.392C123.558 343.921 124.207 344.309 124.71 344.815C125.217 345.326 125.636 345.922 126.149 346.423C126.221 346.494 126.324 346.406 126.282 346.322Z" fill="#263238"/>
<path d="M116.903 349.375C116.06 349.164 115.168 349.179 114.31 349.004C113.443 348.827 112.636 348.518 111.797 348.251C111.686 348.216 111.622 348.378 111.719 348.435C113.103 349.257 115.287 349.956 116.903 349.639C117.038 349.613 117.03 349.407 116.903 349.375Z" fill="#263238"/>
<path d="M166.861 375.385L166.115 383.862L163.582 412.478H141.17L138.006 383.862L137.072 375.385H166.861Z" fill="#455A64"/>
<path d="M166.861 375.385L166.115 383.862H138.006L137.072 375.385H166.861Z" fill="#263238"/>
<path d="M169.08 373.074H134.852V379.95H169.08V373.074Z" fill="#455A64"/>
<path d="M350.199 445.193C352.176 445.831 408.523 445.1 410.649 443.709C411.466 443.194 411.838 434.977 412.003 425.036C412.004 424.932 412.004 424.828 412.005 424.725C412.043 422.677 412.07 420.567 412.073 418.429C412.074 418.135 412.074 417.84 412.084 417.547C412.163 403.2 411.936 388.315 411.936 388.315L374.243 388.692L375.377 417.65L375.42 418.797L375.647 424.791L375.669 425.408C375.669 425.408 354.226 435.335 352.048 437.111C349.888 438.879 348.222 444.564 350.199 445.193Z" fill="#EB9481"/>
<path d="M367.131 429.261C367.278 429.218 367.355 429.175 367.364 429.132C367.364 429.132 367.278 429.174 367.131 429.261Z" fill="#FFC727"/>
<path d="M350.201 445.19C352.175 445.828 408.522 445.104 410.651 443.707C411.375 443.25 411.754 436.708 411.944 428.278C401.618 430.433 361.605 438.527 360.51 435.105C360.079 433.76 363.501 431.433 365.665 430.123C359.752 432.942 353.201 436.165 352.046 437.113C349.891 438.88 348.218 444.561 350.201 445.19Z" fill="#455A64"/>
<path d="M385.594 445.104C398.274 444.802 409.712 444.32 410.652 443.708C411.376 443.251 411.755 436.709 411.945 428.279C410.48 428.581 408.411 429.012 405.946 429.503L385.594 445.104Z" fill="#263238"/>
<path d="M423.501 226.001C423.501 226.001 415.041 321.215 413.662 328.481C413.343 330.136 413.145 339.135 413.015 350.702C412.722 375.941 412.896 421.463 412.896 421.463H373.176C373.176 421.463 374.355 342.591 376.113 328.075C377.872 313.551 389.112 226 389.112 226H423.501V226.001Z" fill="#37474F"/>
<path d="M374.972 414.543C381.17 414.414 379.389 414.364 385.588 414.304C388.621 414.275 408.555 414.101 411.389 414.57C411.452 414.58 411.452 414.686 411.389 414.696C408.555 415.165 388.622 414.992 385.588 414.963C379.389 414.903 381.17 414.853 374.972 414.724C374.856 414.722 374.856 414.546 374.972 414.543Z" fill="#263238"/>
<path d="M405.349 369.455C405.393 363.694 405.436 357.933 405.478 352.172C405.518 346.592 405.511 341.007 405.776 335.432C406.314 324.144 408.603 313.047 410.232 301.887C411.861 290.721 413.22 279.516 414.45 268.299C415.83 255.715 417.05 243.114 418.343 230.521C418.352 230.436 418.485 230.437 418.478 230.524C416.607 253.009 414.518 275.488 411.405 297.84C410.631 303.399 409.782 308.947 408.867 314.485C407.94 320.09 407.018 325.699 406.576 331.368C406.143 336.916 406.073 342.485 406.016 348.047C405.957 353.804 405.9 359.561 405.844 365.319C405.72 378.107 405.596 397.792 405.472 410.58C405.47 410.827 405.086 410.818 405.088 410.571C405.175 399.164 405.262 380.862 405.349 369.455Z" fill="#263238"/>
<path d="M431.874 226.001C431.874 226.001 415.04 321.215 413.661 328.481C413.342 330.136 413.144 339.135 413.014 350.702L413.005 350.736L394.076 226H431.874V226.001Z" fill="#263238"/>
<path d="M396.322 448.551C398.339 449.047 454.493 444.327 456.515 442.788C457.294 442.217 457.083 433.994 456.543 424.067C456.536 423.963 456.53 423.86 456.523 423.756C456.416 421.71 456.293 419.604 456.145 417.471C456.125 417.177 456.105 416.884 456.093 416.59C455.156 402.274 453.875 387.442 453.875 387.442L416.303 390.488L419.485 419.293L419.609 420.434L420.261 426.397L420.327 427.011C420.327 427.011 399.641 438.432 397.594 440.358C395.564 442.276 394.305 448.064 396.322 448.551Z" fill="#EB9481"/>
<path d="M396.325 448.553C398.342 449.053 454.491 444.329 456.517 442.786C457.181 442.303 457.129 436.226 456.758 428.288C448.061 430.512 406.143 441.054 404.858 437.589C404.591 436.856 405.479 435.77 406.685 434.71C402.341 437.227 398.427 439.571 397.591 440.356C395.567 442.277 394.308 448.061 396.325 448.553Z" fill="#455A64"/>
<path d="M418.643 423.61L458.326 421.928C458.326 421.928 447.494 334.848 447.294 329.497C446.996 321.54 443.18 288.7 439.976 262.111C439.976 262.111 446.051 247.715 434.681 225.97H389.078C389.078 225.97 392.135 246.663 397.367 259.784C397.367 259.784 401.352 261.02 407.506 264.412C407.506 264.412 412.045 323.695 412.215 331.089C412.55 345.705 418.643 423.61 418.643 423.61Z" fill="#37474F"/>
<path d="M419.699 416.336C425.886 415.945 424.105 415.97 430.295 415.647C433.325 415.489 453.233 414.472 456.084 414.821C456.147 414.829 456.152 414.934 456.089 414.947C453.277 415.536 433.354 416.207 430.323 416.306C424.127 416.509 425.904 416.383 419.706 416.517C419.59 416.52 419.582 416.344 419.699 416.336Z" fill="#263238"/>
<path d="M395.635 258.883C399.745 260.297 403.712 262.306 407.505 264.411C407.654 264.493 407.556 264.725 407.395 264.655C403.396 262.938 399.319 261.295 395.42 259.36C395.113 259.208 395.32 258.774 395.635 258.883Z" fill="#263238"/>
<path d="M394.364 231.445C394.375 231.307 394.618 231.276 394.617 231.425C394.585 236.172 394.887 240.349 395.288 244.785C395.474 246.845 397.131 258.227 400.702 257.397C401.3 257.258 401.605 256.67 401.699 255.768C401.812 254.684 401.404 253.355 401.225 252.277C400.829 249.894 400.51 247.504 400.306 245.097C399.924 240.604 399.905 236.111 400.451 231.632C400.469 231.485 400.681 231.496 400.681 231.645C400.676 237.865 400.838 244.073 401.768 250.233C402.215 253.193 403.706 257.651 400.61 258.106C397.455 258.57 395.416 251.104 395.031 249.062C393.956 243.364 393.914 237.212 394.364 231.445Z" fill="#263238"/>
<path d="M400.607 257.704C400.93 258.468 401.189 259.264 401.41 260.063C401.581 260.684 401.815 261.355 401.744 262.002C401.73 262.128 401.564 262.14 401.497 262.055C401.078 261.524 400.901 260.797 400.667 260.168C400.395 259.438 400.108 258.714 399.857 257.977C399.691 257.488 400.408 257.233 400.607 257.704Z" fill="#263238"/>
<path d="M377.197 183.529C377.18 183.744 377.305 183.97 377.513 184.005C377.991 184.054 378.566 184.104 379.212 184.163C380.912 179.947 382.696 176.608 382.211 177.917C381.509 179.811 380.936 182.546 380.882 184.31C381.631 184.373 383.368 184.501 384.238 184.565C385.869 177.111 387.796 171.601 387.62 173.311C386.91 180.208 387.201 182.438 387.552 184.82C395.653 185.411 406.284 186.061 413.983 186.355C415.043 182.238 416.005 177.778 416.127 178.094C417.081 180.457 417.227 183.854 417.144 186.467C419.596 186.542 421.558 186.553 422.756 186.497C422.756 186.497 423.472 183.032 423.601 181.889C423.945 178.981 423.765 175.987 423.099 173.154C422.403 170.235 421.098 167.641 419.869 164.985C419.86 164.963 419.85 164.941 419.838 164.927C419.841 164.919 419.833 164.916 419.829 164.905C418.989 163.067 418.384 161.312 418.001 159.46C417.996 159.449 417.992 159.438 417.989 159.418C417.726 158.103 417.573 156.748 417.525 155.258C417.377 150.14 414.868 145.658 410.435 144.204C402.307 135.465 393.665 138.858 390.83 145.349C390.557 145.982 390.287 146.708 390.021 147.501L390.013 147.526C389.023 150.458 388.088 154.272 387.248 157.217C387.253 157.228 387.243 157.233 387.243 157.233C387.248 157.244 387.245 157.252 387.233 157.266L387.23 157.274C386.819 158.676 386.44 159.868 386.082 160.671C383.722 165.953 378.702 168.867 377.197 183.529Z" fill="#263238"/>
<path d="M412.334 145.658C415.213 147.37 416.921 149.812 417.224 153.553C417.401 155.733 417.449 157.858 418.145 159.928C418.863 162.065 420.067 163.832 421.306 165.597C423.275 168.403 424.615 171.181 424.788 174.849C424.964 178.574 424.616 182.956 423.302 186.396C423.294 186.416 423.267 186.406 423.274 186.385C424.369 182.892 424.594 178.024 424.159 174.326C423.682 170.265 421.645 167.668 419.58 164.541C417.94 162.057 416.941 159.33 416.699 156.207C416.555 154.358 416.66 152.441 416.038 150.688C415.296 148.596 413.699 147.238 412.11 146.029C411.894 145.866 412.115 145.528 412.334 145.658Z" fill="#263238"/>
<path d="M380.911 166.272C383.109 163.425 385.375 161.007 386.74 157.441C387.984 154.192 388.761 150.746 390.024 147.502C390.045 147.45 390.117 147.473 390.098 147.529C388.119 153.296 387.541 159.15 383.833 163.952C381.818 166.561 379.812 168.975 378.425 172.129C376.967 175.443 376.256 178.911 376.019 182.587C376.011 182.716 375.857 182.705 375.851 182.581C375.574 176.615 377.46 170.743 380.911 166.272Z" fill="#263238"/>
<path d="M403.676 187.395C395.136 207.198 382.468 227.384 375.799 230.751C371.117 233.115 361.857 232.971 358.825 227.562C352.21 215.759 349.887 196.849 351.513 187.07C352.091 183.592 370.521 182.148 371.926 185.646C375.217 193.836 376.285 202.325 377.321 202.325C378.206 202.325 383.036 195.72 393.913 184.157C405.253 172.102 406.662 180.471 403.676 187.395Z" fill="#EB9481"/>
<path d="M351.279 190.197C351.279 190.197 351.596 179.89 355.263 173.022C357.799 168.273 364.468 158.556 380.524 157.872C384.332 157.71 389.873 160.18 383.75 162.703C379.4 164.496 376.1 164.318 373.76 165.822C373.76 165.822 380.436 169.8 380.449 173.621C380.455 175.329 380.362 179.99 379.773 183.609C379.773 183.609 378.95 183.692 377.892 183.65C377.892 183.65 377.792 187.228 373.798 190.937L351.279 190.197Z" fill="#EB9481"/>
<path d="M358.408 168.876C361.046 167.875 366.673 165.847 371.854 165.789C377.608 165.725 388.709 167.151 388.713 171.399C388.716 174.514 384.429 174.342 384.429 174.342C384.429 174.342 388.893 175.899 388.28 178.713C387.721 181.277 384.413 180.946 384.413 180.946C384.413 180.946 386.959 182.356 385.945 184.723C384.726 187.57 379.591 184.147 375.864 185.963C375.028 186.37 358.408 168.876 358.408 168.876Z" fill="#EB9481"/>
<path d="M370.908 171.879C373.543 171.344 379.841 171.666 384.371 174.237C384.474 174.295 384.485 174.404 384.38 174.371C378.791 172.599 373.268 172.033 370.909 171.934C370.877 171.932 370.878 171.885 370.908 171.879Z" fill="#263238"/>
<path d="M371.142 177.686C373.464 177.458 379.939 178.08 384.44 180.843C384.541 180.905 384.544 181.015 384.441 180.977C378.678 178.885 373.488 177.981 371.14 177.74C371.107 177.737 371.112 177.689 371.142 177.686Z" fill="#263238"/>
<path d="M382.766 226.3L376.998 200.216C376.998 200.216 386.098 190.018 395.479 181.911C404.86 173.804 409.326 174.671 403.71 189.106C398.095 203.542 389.83 220.268 382.766 226.3Z" fill="#FFC727"/>
<path d="M382.766 226.3L376.998 200.216C376.998 200.216 386.098 190.018 395.479 181.911C404.86 173.804 409.326 174.671 403.71 189.106C398.095 203.542 389.83 220.268 382.766 226.3Z" fill="#FFC727"/>
<path d="M380.261 199.656C381.256 203.22 382.118 206.797 382.86 210.423C383.233 212.243 383.582 214.066 383.906 215.895C384.236 217.76 384.442 219.642 384.724 221.513C384.738 221.605 384.597 221.617 384.581 221.527C383.908 217.872 383.097 214.23 382.356 210.587C381.617 206.953 380.873 203.321 380.136 199.686C380.122 199.615 380.242 199.586 380.261 199.656Z" fill="#263238"/>
<path d="M401.775 193.922C401.578 194.39 401.382 194.849 401.194 195.317C401.194 195.214 401.213 195.111 401.222 195.008C401.325 194.399 401.447 193.8 401.718 193.21C401.765 193.454 401.775 193.688 401.775 193.922ZM385.706 193.397C385.628 194.006 385.584 194.62 385.684 195.254C385.957 194.673 386.086 194.071 386.181 193.465C386.258 192.856 386.301 192.242 386.203 191.608C385.932 192.189 385.802 192.79 385.706 193.397ZM390.954 212.072C390.876 212.681 390.833 213.295 390.932 213.929C391.205 213.348 391.334 212.746 391.429 212.14C391.506 211.531 391.55 210.917 391.451 210.283C391.18 210.864 391.05 211.465 390.954 212.072ZM384.758 203.985C384.149 203.907 383.535 203.863 382.901 203.963C383.482 204.236 384.084 204.365 384.69 204.46C385.299 204.537 385.913 204.58 386.547 204.482C385.965 204.211 385.364 204.081 384.758 203.985ZM403.827 179.575C403.218 179.497 402.604 179.453 401.97 179.553C402.551 179.826 403.153 179.955 403.759 180.05C404.368 180.127 404.982 180.17 405.616 180.072C405.035 179.801 404.433 179.671 403.827 179.575ZM397.046 204.221C397.055 204.259 397.074 204.296 397.093 204.333C397.112 204.314 397.121 204.305 397.121 204.286C397.103 204.258 397.075 204.24 397.046 204.221ZM382.237 215.156C382.612 215.642 383.016 216.107 383.535 216.484C383.317 215.88 382.983 215.363 382.622 214.867C382.246 214.382 381.843 213.917 381.324 213.539C381.542 214.143 381.876 214.66 382.237 215.156ZM392.583 198.915C393.069 198.54 393.534 198.136 393.911 197.617C393.307 197.835 392.79 198.169 392.294 198.531C391.809 198.907 391.344 199.31 390.966 199.829C391.569 199.61 392.086 199.276 392.583 198.915ZM395.411 187.675C395.788 188.16 396.192 188.623 396.713 188.999C396.493 188.396 396.158 187.88 395.794 187.385C395.416 186.901 395.012 186.438 394.492 186.061C394.713 186.664 395.049 187.179 395.411 187.675Z" fill="white"/>
<path d="M403.711 189.11C398.091 203.54 389.831 220.27 382.771 226.3L380.391 215.56L405.731 177.59C406.691 179.11 406.161 182.82 403.711 189.11Z" fill="#263238"/>
<path d="M387.49 232.653C387.49 232.653 405.515 236.924 439.668 233.974C439.668 233.974 426.314 191.347 415.559 179.856C410.665 174.627 405.881 175.426 401.827 178.79C400.816 179.631 388.276 195.546 387.214 201.093C386.275 205.995 390.26 211.436 390.26 211.436L387.49 232.653Z" fill="#FFC727"/>
<path d="M401.722 193.214C401.821 193.848 401.777 194.462 401.7 195.071C401.605 195.677 401.476 196.279 401.203 196.86C401.103 196.226 401.147 195.612 401.225 195.003C401.321 194.397 401.45 193.795 401.722 193.214ZM400.406 225.585C400.328 226.194 400.284 226.808 400.384 227.442C400.657 226.861 400.786 226.259 400.881 225.653C400.958 225.044 401.001 224.43 400.903 223.796C400.631 224.377 400.502 224.978 400.406 225.585ZM391.56 231.104C391.482 231.713 391.438 232.327 391.538 232.961C391.811 232.38 391.94 231.778 392.035 231.172C392.112 230.563 392.155 229.949 392.057 229.315C391.785 229.896 391.656 230.498 391.56 231.104ZM420.232 205.853C420.154 206.462 420.11 207.076 420.21 207.71C420.483 207.129 420.612 206.527 420.707 205.921C420.784 205.312 420.827 204.698 420.729 204.064C420.457 204.645 420.328 205.247 420.232 205.853ZM390.954 212.072C390.876 212.681 390.833 213.295 390.932 213.929C391.205 213.348 391.334 212.746 391.429 212.14C391.506 211.531 391.55 210.917 391.451 210.283C391.18 210.864 391.05 211.465 390.954 212.072ZM410.781 198.532C410.172 198.454 409.558 198.41 408.924 198.51C409.505 198.783 410.107 198.912 410.713 199.007C411.322 199.084 411.936 199.127 412.57 199.029C411.989 198.758 411.387 198.628 410.781 198.532ZM421.407 216.575C420.798 216.497 420.184 216.453 419.55 216.553C420.131 216.826 420.733 216.955 421.339 217.05C421.948 217.127 422.562 217.17 423.196 217.072C422.614 216.801 422.013 216.671 421.407 216.575ZM403.708 215.092C403.099 215.014 402.485 214.97 401.851 215.07C402.432 215.343 403.034 215.472 403.64 215.567C404.249 215.644 404.863 215.687 405.497 215.589C404.915 215.317 404.314 215.188 403.708 215.092ZM435.817 231.67C435.208 231.592 434.594 231.548 433.96 231.648C434.541 231.921 435.143 232.05 435.749 232.145C436.358 232.222 436.972 232.265 437.606 232.167C437.025 231.896 436.423 231.766 435.817 231.67ZM403.827 179.575C403.218 179.497 402.604 179.453 401.97 179.553C402.551 179.826 403.153 179.955 403.759 180.05C404.368 180.127 404.982 180.17 405.616 180.072C405.035 179.801 404.433 179.671 403.827 179.575ZM412.541 184.957C412.916 185.443 413.32 185.908 413.839 186.285C413.621 185.681 413.287 185.164 412.926 184.668C412.55 184.183 412.146 183.718 411.628 183.34C411.847 183.943 412.18 184.46 412.541 184.957ZM428.637 207.986C429.012 208.472 429.416 208.937 429.935 209.314C429.717 208.71 429.383 208.193 429.022 207.697C428.646 207.212 428.242 206.747 427.724 206.369C427.943 206.973 428.276 207.49 428.637 207.986ZM397.959 205.839C398.334 206.325 398.738 206.79 399.257 207.167C399.039 206.563 398.705 206.046 398.344 205.55C397.968 205.065 397.565 204.6 397.046 204.222C397.265 204.826 397.599 205.342 397.959 205.839ZM413.295 223.005C413.67 223.491 414.074 223.956 414.593 224.333C414.375 223.729 414.041 223.212 413.679 222.716C413.303 222.231 412.9 221.766 412.381 221.388C412.6 221.992 412.934 222.509 413.295 223.005ZM395.158 187.306C395.25 187.426 395.333 187.545 395.416 187.665C395.793 188.153 396.189 188.622 396.714 188.999C396.493 188.392 396.162 187.876 395.794 187.379C395.674 187.223 395.555 187.075 395.426 186.928C395.342 187.048 395.25 187.177 395.158 187.306ZM392.583 198.915C393.069 198.54 393.534 198.136 393.911 197.617C393.307 197.835 392.79 198.169 392.294 198.531C391.809 198.907 391.344 199.31 390.966 199.829C391.569 199.61 392.086 199.276 392.583 198.915ZM431.608 220.311C432.094 219.936 432.559 219.533 432.936 219.013C432.332 219.231 431.815 219.565 431.319 219.927C430.834 220.303 430.369 220.706 429.991 221.225C430.594 221.006 431.111 220.672 431.608 220.311ZM391.734 220.985C392.22 220.61 392.685 220.207 393.062 219.687C392.458 219.905 391.941 220.239 391.445 220.601C390.96 220.977 390.495 221.381 390.117 221.899C390.72 221.679 391.237 221.346 391.734 220.985ZM419.274 194.34C419.76 193.965 420.225 193.561 420.602 193.042C419.998 193.26 419.481 193.594 418.985 193.955C418.5 194.331 418.035 194.735 417.657 195.253C418.26 195.034 418.777 194.701 419.274 194.34ZM407.949 232.543C408.435 232.168 408.9 231.764 409.277 231.245C408.673 231.463 408.156 231.797 407.66 232.158C407.175 232.534 406.71 232.938 406.332 233.456C406.936 233.237 407.452 232.903 407.949 232.543ZM411.315 209.055C411.801 208.68 412.266 208.276 412.643 207.757C412.039 207.975 411.522 208.309 411.026 208.67C410.541 209.046 410.076 209.449 409.698 209.968C410.301 209.749 410.818 209.415 411.315 209.055ZM424.123 227.919C424.609 227.544 425.074 227.14 425.451 226.621C424.847 226.839 424.33 227.173 423.834 227.534C423.349 227.91 422.884 228.313 422.506 228.832C423.11 228.613 423.627 228.279 424.123 227.919Z" fill="white"/>
<path d="M393.75 189.358C392.644 190.837 391.649 192.374 390.705 193.952C391.09 193.059 391.452 192.158 391.768 191.233C391.781 191.195 391.721 191.172 391.703 191.208C391.375 191.862 391.04 192.514 390.765 193.193C390.518 193.802 390.278 194.411 390.051 195.027C390.045 195.038 390.038 195.049 390.031 195.06C388.971 196.923 387.732 198.806 387.201 200.906C386.727 202.78 386.813 204.79 387.321 206.647C387.585 207.615 387.976 208.541 388.438 209.431C388.836 210.199 389.283 211.007 389.905 211.624C389.56 213.589 389.333 215.584 389.076 217.562C388.826 219.479 388.48 221.445 388.471 223.382C388.471 223.505 388.647 223.517 388.68 223.405C388.719 223.266 388.762 223.128 388.807 222.99C388.816 222.963 388.804 222.941 388.788 222.924C389.21 221.141 389.394 219.273 389.639 217.465C389.894 215.586 390.369 211.664 390.371 211.642C390.379 211.552 389.476 209.999 389.122 209.252C388.692 208.343 388.348 207.387 388.087 206.415C387.59 204.568 387.458 202.64 387.973 200.782C388.522 198.801 389.626 196.905 390.622 195.12C391.683 193.219 392.778 191.331 393.875 189.45C393.918 189.375 393.804 189.286 393.75 189.358Z" fill="#263238"/>
<path d="M411.133 178.488C410.928 179.41 406.607 185.427 402.403 185.277C401.034 185.226 400.98 177.74 400.98 177.74L400.849 177.188L399.031 169.464L408.062 163.526L409.368 162.739C409.368 162.739 409.726 164.885 410.145 167.562C410.165 167.686 410.185 167.81 410.205 167.943C410.233 168.094 410.261 168.236 410.28 168.378C410.348 168.777 410.415 169.185 410.474 169.592C410.52 169.902 410.566 170.203 410.603 170.53C410.648 170.857 410.685 171.176 410.73 171.503C411.102 174.74 411.215 178.096 411.133 178.488Z" fill="#EB9481"/>
<path d="M410.144 167.561C407.995 173.749 403.1 176.316 400.849 177.188L399.031 169.464L408.062 163.526L409.368 162.739C409.368 162.739 409.725 164.884 410.144 167.561Z" fill="#263238"/>
<path d="M387.562 155.162C383.591 168.51 391.137 172.396 394.016 173.249C396.63 174.023 405.628 176.328 410.957 163.462C416.286 150.595 411.335 144.529 405.451 142.442C399.568 140.355 391.533 141.814 387.562 155.162Z" fill="#EB9481"/>
<path d="M390.13 153.418C390.455 153.468 390.764 153.459 391.09 153.475C391.459 153.493 391.75 153.545 392.08 153.346C392.257 153.239 392.326 152.944 392.239 152.763C392.036 152.34 391.59 152.206 391.147 152.166C390.666 152.123 390.285 152.213 389.886 152.483C389.499 152.745 389.701 153.353 390.13 153.418Z" fill="#263238"/>
<path d="M399.348 155.91C399.043 155.787 398.782 155.623 398.493 155.47C398.166 155.298 397.889 155.194 397.706 154.855C397.608 154.673 397.699 154.384 397.867 154.272C398.257 154.011 398.709 154.123 399.111 154.314C399.546 154.522 399.829 154.793 400.035 155.229C400.234 155.651 399.75 156.072 399.348 155.91Z" fill="#263238"/>
<path d="M396.318 158.624C396.335 158.591 396.376 158.688 396.364 158.725C396.064 159.625 395.871 160.706 396.603 161.253C396.626 161.27 396.609 161.315 396.58 161.302C395.619 160.861 395.889 159.428 396.318 158.624Z" fill="#263238"/>
<path d="M397.414 157.918C398.908 158.244 398.147 161.209 396.762 160.907C395.4 160.609 396.161 157.645 397.414 157.918Z" fill="#263238"/>
<path d="M397.955 158.224C398.171 158.458 398.349 158.82 398.653 158.931C399.005 159.06 399.358 158.819 399.67 158.581C399.703 158.556 399.721 158.589 399.712 158.628C399.575 159.198 399.206 159.725 398.576 159.653C398 159.588 397.731 158.982 397.736 158.375C397.736 158.262 397.868 158.13 397.955 158.224Z" fill="#263238"/>
<path d="M391.264 157.119C391.265 157.082 391.181 157.145 391.173 157.183C390.973 158.11 390.589 159.139 389.68 159.237C389.652 159.24 389.643 159.287 389.675 159.29C390.726 159.4 391.223 158.03 391.264 157.119Z" fill="#263238"/>
<path d="M390.681 155.954C389.229 155.474 388.375 158.413 389.72 158.858C391.044 159.296 391.898 156.357 390.681 155.954Z" fill="#263238"/>
<path d="M390.011 155.969C389.734 156.057 389.422 156.274 389.139 156.211C388.812 156.139 388.666 155.752 388.549 155.387C388.537 155.349 388.507 155.367 388.494 155.406C388.315 155.963 388.331 156.603 388.839 156.867C389.303 157.108 389.805 156.731 390.101 156.211C390.156 156.115 390.122 155.934 390.011 155.969Z" fill="#263238"/>
<path d="M394.487 166.19C394.219 166.361 393.935 166.614 393.592 166.572C393.263 166.532 392.915 166.307 392.643 166.13C392.616 166.112 392.58 166.137 392.593 166.169C392.76 166.576 393.22 166.905 393.666 166.919C394.102 166.933 394.385 166.614 394.567 166.251C394.593 166.2 394.526 166.165 394.487 166.19Z" fill="#263238"/>
<path d="M391.348 163.742C391.348 163.742 391.685 164.786 392.431 165.374C392.705 165.592 393.027 165.749 393.411 165.774C394.199 165.828 394.442 165.169 394.501 164.556C394.551 164.052 394.47 163.576 394.47 163.576C394.47 163.576 393.078 164.209 391.348 163.742Z" fill="#263238"/>
<path d="M392.43 165.374C392.704 165.592 393.026 165.749 393.41 165.774C394.198 165.828 394.441 165.169 394.5 164.556C393.696 164.374 392.75 164.641 392.43 165.374Z" fill="#FF98B9"/>
<path d="M391.551 161.849C391.551 161.849 390.994 163.166 390.82 163.811C390.804 163.871 390.952 163.942 391.168 164.014C391.178 164.02 391.182 164.026 391.193 164.022C392.284 164.507 393.537 164.422 394.48 163.679C394.542 163.628 394.478 163.539 394.408 163.564C393.389 163.959 392.406 163.867 391.392 163.612C391.395 163.421 392.422 161.389 392.322 161.354C391.978 161.229 391.218 161.281 390.768 161.291C391.85 158.515 393.367 155.935 394.403 153.154C394.438 153.054 394.3 152.984 394.246 153.067C392.464 155.658 391.149 158.826 389.958 161.664C389.805 162.016 391.263 161.889 391.551 161.849Z" fill="#263238"/>
<path d="M409.603 163.605C407.402 163.17 408.17 158.515 408.17 158.515C408.17 158.515 403.789 157.305 404.104 150.607C404.104 150.607 403.38 153.563 404.587 156.353C404.587 156.353 397.098 153.378 395.653 146.011C395.653 146.011 396.03 149.663 396.919 151.173C396.919 151.173 393.934 149.365 393.09 146.296C393.09 146.296 390.697 149.646 389.369 150.385C389.369 150.385 393.461 136.969 405.571 141.902C405.571 141.902 413.259 144.611 414.34 151.598C415.42 158.584 409.603 163.605 409.603 163.605Z" fill="#263238"/>
<path d="M409.519 168.391C409.275 168.43 409.057 168.439 408.854 168.424C408.612 168.418 408.398 168.374 408.207 168.309C407.906 168.217 407.664 168.066 407.473 167.893C407.295 167.741 407.15 167.561 407.04 167.39C406.755 166.941 406.68 166.518 406.68 166.518L408.184 163.029C408.184 163.029 412.04 159.384 413.749 160.843C415.465 162.302 411.961 168.015 409.519 168.391Z" fill="#EB9481"/>
<path d="M412.705 162.452C412.742 162.456 412.739 162.509 412.705 162.515C410.982 162.833 409.842 164.135 408.941 165.544C409.535 165.053 410.245 164.862 410.918 165.588C410.954 165.626 410.9 165.683 410.858 165.664C410.235 165.39 409.742 165.407 409.195 165.838C408.808 166.143 408.499 166.567 408.188 166.947C408.085 167.074 407.843 166.945 407.931 166.792C407.938 166.781 407.945 166.769 407.952 166.758C408.327 164.723 410.486 162.209 412.705 162.452Z" fill="#263238"/>
<path d="M409.446 167.778C409.307 168.106 408.928 168.259 408.6 168.12C408.272 167.981 408.119 167.602 408.258 167.274C408.397 166.946 408.776 166.793 409.104 166.932C409.432 167.071 409.585 167.45 409.446 167.778Z" fill="white"/>
<path d="M410.942 167.091C410.843 167.323 410.576 167.431 410.344 167.333C410.112 167.234 410.004 166.967 410.103 166.735C410.201 166.503 410.469 166.395 410.701 166.493C410.932 166.591 411.04 166.859 410.942 167.091Z" fill="white"/>
<path d="M418.404 182.768C427.322 194.833 444.345 223.39 438.631 229.679C429.237 240.02 406.643 248.767 399.608 250.685C396.572 251.513 386.405 229.297 389.291 227.567C392.755 225.491 416.953 218.088 416.886 216.029C416.848 214.862 414.33 205.069 412.254 192.502C409.846 177.925 414.153 177.017 418.404 182.768Z" fill="#EB9481"/>
<path d="M400.307 226.307C400.307 226.307 391.19 223.386 385.139 221.755C381.763 220.846 375.835 219.803 373.049 220.269C368.882 220.967 351.899 226.546 353.163 230.693C354.307 234.447 368.289 227.801 368.289 227.801C368.289 227.801 353.588 233.26 355.796 237.526C358.005 241.792 372.803 232.183 372.803 232.183C372.803 232.183 357.824 238.131 360.797 242.17C363.044 245.222 376.938 237.274 376.938 237.274C376.938 237.274 364.098 242.475 366.274 245.714C368.678 249.293 381.963 242.761 381.963 242.761C388.88 250.063 395.16 250.71 399.682 250.639C400.779 250.621 400.307 226.307 400.307 226.307Z" fill="#EB9481"/>
<path d="M373.252 225.587C371.502 226.166 369.727 226.74 368.034 227.472C366.341 228.204 364.673 228.996 363.056 229.883C359.09 232.057 356.947 234.039 357.093 233.931C360.539 231.377 366.558 228.661 368.251 227.929C369.94 227.198 371.593 226.383 373.282 225.65C373.325 225.632 373.294 225.573 373.252 225.587Z" fill="#263238"/>
<path d="M376.008 231.651C373.805 232.487 371.588 233.236 369.421 234.169C367.265 235.098 365.301 236.168 363.215 237.242C363.054 237.325 363.152 237.384 363.316 237.307C365.443 236.317 367.487 235.565 369.626 234.6C371.758 233.638 373.868 232.585 376.032 231.702C376.065 231.688 376.041 231.638 376.008 231.651Z" fill="#263238"/>
<path d="M379.308 236.43C375.876 237.535 372.652 239.271 369.531 241.05C369.376 241.139 369.51 241.201 369.674 241.12C372.895 239.523 375.411 238.247 379.347 236.549C379.409 236.523 379.381 236.407 379.308 236.43Z" fill="#263238"/>
<path d="M381.572 220.895C380.615 220.473 379.549 220.24 378.539 220.001C377.575 219.773 376.598 219.614 375.613 219.529C373.462 219.342 371.364 219.633 369.305 220.3C365.252 221.613 361.321 223.386 357.641 225.607C357.566 225.652 357.622 225.793 357.704 225.756C361.457 224.057 365.278 222.44 369.191 221.201C371.228 220.556 373.258 220.135 375.392 220.243C376.481 220.298 377.562 220.459 378.64 220.624C379.597 220.77 380.563 221.028 381.53 221.08C381.619 221.086 381.657 220.933 381.572 220.895Z" fill="#263238"/>
<path d="M440.841 225.585L416.094 215.524C416.094 215.524 412.865 202.243 411.518 189.917C410.17 177.591 413.419 174.408 422.114 187.226C430.808 200.045 439.885 216.345 440.841 225.585Z" fill="#FFC727"/>
<path d="M420.844 185.41C420.955 185.557 421.065 185.714 421.175 185.87C421.101 186.146 421.009 186.422 420.881 186.698C420.807 186.266 420.807 185.834 420.844 185.41ZM420.235 205.853C420.157 206.462 420.113 207.076 420.213 207.71C420.486 207.129 420.615 206.527 420.71 205.921C420.787 205.312 420.83 204.698 420.732 204.064C420.46 204.645 420.331 205.247 420.235 205.853ZM421.41 216.575C420.801 216.497 420.187 216.453 419.553 216.553C420.134 216.826 420.736 216.955 421.342 217.05C421.951 217.127 422.565 217.17 423.199 217.072C422.617 216.801 422.016 216.671 421.41 216.575ZM426.77 197.235C427.35 197.511 427.948 197.64 428.555 197.732C428.647 197.741 428.739 197.75 428.831 197.76C428.73 197.594 428.629 197.42 428.527 197.254C427.948 197.171 427.368 197.143 426.77 197.235ZM412.544 184.957C412.919 185.443 413.323 185.908 413.842 186.285C413.624 185.681 413.29 185.164 412.929 184.668C412.553 184.183 412.149 183.718 411.631 183.34C411.85 183.943 412.183 184.46 412.544 184.957ZM428.64 207.986C429.015 208.472 429.419 208.937 429.938 209.314C429.72 208.71 429.386 208.193 429.025 207.697C428.649 207.212 428.245 206.747 427.727 206.369C427.946 206.973 428.279 207.49 428.64 207.986ZM431.611 220.311C432.097 219.936 432.562 219.533 432.939 219.013C432.335 219.231 431.818 219.565 431.322 219.927C430.837 220.303 430.372 220.706 429.994 221.225C430.597 221.006 431.114 220.672 431.611 220.311ZM419.277 194.34C419.763 193.965 420.228 193.561 420.605 193.042C420.001 193.26 419.484 193.594 418.988 193.955C418.503 194.331 418.038 194.735 417.66 195.253C418.263 195.034 418.78 194.701 419.277 194.34Z" fill="white"/>
<path d="M411.756 197.555C412.143 198.244 412.397 199.034 412.652 199.779C412.74 200.035 412.823 200.293 412.907 200.55C412.694 199.12 412.489 197.689 412.292 196.254C412.279 196.16 412.42 196.12 412.438 196.217C413.065 199.454 415.943 214.628 416.074 215.415C416.143 215.423 416.91 215.861 416.958 215.857C417.01 215.853 416.939 216.016 416.904 215.978C416.874 215.945 415.912 215.533 415.909 215.525C415.594 214.833 413.324 203.253 413.107 201.847C413.075 201.783 413.04 201.718 413.017 201.657C412.942 201.457 412.868 201.256 412.793 201.056C412.654 200.685 412.528 200.309 412.399 199.935C412.134 199.169 411.825 198.383 411.677 197.585C411.668 197.54 411.731 197.511 411.756 197.555Z" fill="#263238"/>
<path d="M416.552 212.737C417.529 212.915 418.502 213.304 419.449 213.6C420.411 213.9 421.377 214.183 422.334 214.498C424.179 215.104 426.004 215.757 427.825 216.433C431.475 217.79 435.114 219.213 438.609 220.934C438.682 220.97 438.627 221.091 438.55 221.064C434.818 219.763 431.151 218.285 427.45 216.901C425.631 216.221 423.808 215.551 421.987 214.873C421.076 214.534 420.173 214.173 419.26 213.839C418.354 213.507 417.38 213.246 416.514 212.822C416.462 212.796 416.504 212.728 416.552 212.737Z" fill="#263238"/>
<path d="M409.291 143.906C409.389 145.453 416.752 149.121 421.994 145.136C427.157 141.212 424.99 133.337 417.799 134.154C413.255 134.671 409.085 140.635 409.291 143.906Z" fill="#263238"/>
<path d="M424.61 138.142C423.806 136.199 422.304 134.65 420.579 133.71C418.837 132.76 416.768 132.743 415.109 133.745C413.395 134.686 412.102 136.316 411.095 138.065C410.602 138.954 410.184 139.895 409.856 140.87C409.513 141.842 409.259 142.854 409.291 143.907C408.996 142.876 409.14 141.775 409.308 140.727C409.516 139.676 409.837 138.642 410.289 137.659C411.193 135.712 412.563 133.858 414.541 132.739C415.528 132.194 416.679 131.852 417.834 131.9C418.986 131.95 420.098 132.328 421.03 132.932C422.896 134.126 424.234 136.057 424.61 138.142Z" fill="#263238"/>
<path d="M160.751 448.79C158.694 449.454 100.051 448.694 97.8387 447.245C96.9887 446.709 96.6007 438.158 96.4297 427.812C96.4287 427.704 96.4287 427.596 96.4277 427.488C96.3877 425.356 96.3597 423.16 96.3567 420.935C96.3557 420.628 96.3547 420.322 96.3457 420.017L99.1917 389.594L138.421 389.987L134.549 420.124L134.504 421.317L134.267 427.555L134.244 428.197C134.244 428.197 156.56 438.528 158.827 440.377C161.074 442.22 162.808 448.136 160.751 448.79Z" fill="#D3766A"/>
<path d="M160.751 448.79C158.694 449.454 100.051 448.694 97.8387 447.245C96.9887 446.709 96.6007 438.158 96.4297 427.812C96.4287 427.704 96.4287 427.596 96.4277 427.488C96.3877 425.356 96.3597 423.16 96.3567 420.935C96.3557 420.628 96.3547 420.322 96.3457 420.017L134.549 420.124L134.504 421.317L134.267 427.555L134.244 428.197C134.244 428.197 156.56 438.528 158.827 440.377C161.074 442.22 162.808 448.136 160.751 448.79Z" fill="#EBEBEB"/>
<path d="M160.755 448.786C159.696 449.127 143.764 449.091 128.191 448.777C125.06 448.714 121.947 448.642 118.978 448.562C107.872 448.257 98.6948 447.799 97.8428 447.243C96.9998 446.714 96.6138 438.398 96.4438 428.243C96.4438 428.1 96.4348 427.956 96.4348 427.812C96.4348 427.704 96.4348 427.588 96.4258 427.48H96.4708L134.265 427.552L134.247 428.198C134.247 428.198 156.567 438.524 158.827 440.371C161.078 442.22 162.809 448.131 160.755 448.786Z" fill="#FFC727"/>
<path d="M160.116 446.509C150.234 446.138 110.34 445.575 100.543 445.959C100.463 445.962 100.463 446.016 100.542 446.021C110.329 446.603 150.226 446.843 160.113 446.671C160.323 446.667 160.325 446.517 160.116 446.509Z" fill="#263238"/>
<path d="M138.475 427.719C134.595 426.943 129.829 427.478 126.821 430.211C126.704 430.317 126.857 430.481 126.983 430.443C130.836 429.283 134.431 428.553 138.453 428.21C138.736 428.186 138.753 427.774 138.475 427.719Z" fill="#263238"/>
<path d="M141.26 429.447C137.38 428.671 132.614 429.206 129.606 431.939C129.489 432.045 129.642 432.209 129.768 432.171C133.622 431.011 137.216 430.281 141.238 429.938C141.522 429.914 141.539 429.503 141.26 429.447Z" fill="#263238"/>
<path d="M144.047 431.176C140.166 430.399 135.401 430.935 132.393 433.668C132.276 433.774 132.429 433.938 132.555 433.9C136.409 432.74 140.003 432.01 144.025 431.667C144.308 431.643 144.324 431.232 144.047 431.176Z" fill="#263238"/>
<path d="M128.191 448.777C125.06 448.714 121.947 448.642 118.978 448.562C107.872 448.257 98.6948 447.799 97.8428 447.243C96.9998 446.714 96.6138 438.398 96.4438 428.243C96.4438 428.1 96.4348 427.956 96.4348 427.812C96.4348 427.704 96.4348 427.588 96.4258 427.48H96.4708C101.646 431.114 119.892 443.26 128.191 448.777Z" fill="#263238"/>
<path d="M136.839 427.687H94.6053C94.6053 427.687 103.11 329.043 102.778 327.321C102.356 325.114 99.8633 315.13 96.5433 302.086C95.5023 298.004 94.3813 293.626 93.2153 289.087C90.0663 276.815 86.5953 263.403 83.5713 251.732C79.0323 234.248 75.4883 220.666 75.4883 220.666H111.282C111.282 220.666 115.454 233.889 120.711 251.095C129.278 279.057 140.725 317.542 141.855 326.899C143.684 342.006 136.839 427.687 136.839 427.687Z" fill="#37474F"/>
<path d="M134.97 420.481C128.52 420.347 130.373 420.294 123.922 420.232C120.765 420.202 100.019 420.021 97.0702 420.509C97.0052 420.52 97.0052 420.63 97.0702 420.64C100.02 421.129 120.765 420.948 123.922 420.917C130.373 420.855 128.52 420.802 134.97 420.668C135.091 420.667 135.091 420.483 134.97 420.481Z" fill="#263238"/>
<path d="M110.725 321.292C109.34 315.186 107.271 309.203 105.47 303.211C101.809 291.035 98.1191 278.867 94.4221 266.701C92.5741 260.618 90.7221 254.536 88.8511 248.46C87.9061 245.392 86.9641 242.323 86.0031 239.26C85.0631 236.263 83.9931 233.291 83.1451 230.266C82.8001 229.036 82.6111 229.712 83.0531 231.274C83.9441 234.424 84.8231 237.578 85.7421 240.72C87.5611 246.943 89.3951 253.162 91.2341 259.379C94.8951 271.753 98.6061 284.112 102.314 296.471C104.173 302.668 106.044 308.861 107.905 315.057C108.794 318.018 109.665 320.996 110.188 324.048C110.734 327.231 110.762 330.45 110.561 333.667C110.156 340.129 109.407 346.581 108.811 353.028C108.213 359.488 107.615 365.949 107.017 372.409C105.827 385.266 104.636 398.122 103.479 410.981C103.332 412.611 103.19 414.24 103.064 415.872C103.022 416.418 103.847 416.376 103.905 415.851C105.296 403.138 106.363 390.384 107.556 377.652C108.744 364.982 109.932 352.312 111.116 339.642C111.413 336.461 111.752 333.274 111.754 330.076C111.755 327.109 111.381 324.183 110.725 321.292Z" fill="#263238"/>
<path d="M107.218 220.666C104.733 239.89 99.9963 275.935 96.5433 302.086C88.4693 270.401 75.4883 220.666 75.4883 220.666H107.218Z" fill="#263238"/>
<path d="M116.008 449.355C113.953 450.026 55.3084 449.48 53.0904 448.04C52.2384 447.507 51.8194 438.957 51.6104 428.612C51.6094 428.504 51.6084 428.396 51.6064 428.288C51.5584 426.156 51.5234 423.96 51.5114 421.736C51.5094 421.429 51.5074 421.123 51.4964 420.818C51.3594 405.887 52.4364 390.395 52.4364 390.395L90.7694 390.645L89.6994 420.786L89.6584 421.98L89.4444 428.219L89.4234 428.861C89.4234 428.861 111.777 439.11 114.051 440.951C116.308 442.784 118.064 448.693 116.008 449.355Z" fill="#D3766A"/>
<path d="M116.008 449.355C113.953 450.026 55.3081 449.48 53.0901 448.04C52.2381 447.507 51.8191 438.957 51.6101 428.612C51.6091 428.504 51.6081 428.396 51.6061 428.288C51.5581 426.156 51.5231 423.96 51.5111 421.736C51.5091 421.429 51.5071 421.123 51.4961 420.818L89.6991 420.786L89.6581 421.98L89.4441 428.219L89.4231 428.861C89.4231 428.861 111.777 439.11 114.051 440.951C116.308 442.784 118.064 448.693 116.008 449.355Z" fill="#EBEBEB"/>
<path d="M116.007 449.355C113.952 450.026 55.3075 449.48 53.0895 448.04C52.2375 447.507 51.8185 438.957 51.6095 428.612C51.6085 428.504 51.6075 428.396 51.6055 428.288L89.4445 428.218L89.4235 428.86C89.4235 428.86 111.777 439.109 114.051 440.95C116.307 442.784 118.063 448.693 116.007 449.355Z" fill="#FFC727"/>
<path d="M115.365 447.075C105.482 446.74 65.5856 446.322 55.7906 446.742C55.7106 446.746 55.7106 446.8 55.7896 446.804C65.5786 447.35 105.476 447.444 115.363 447.236C115.572 447.233 115.574 447.082 115.365 447.075Z" fill="#263238"/>
<path d="M93.6549 428.365C89.7719 427.603 85.0079 428.156 82.0099 430.9C81.8939 431.006 82.0469 431.17 82.1729 431.131C86.0219 429.957 89.6129 429.214 93.6349 428.856C93.9179 428.831 93.9329 428.42 93.6549 428.365Z" fill="#263238"/>
<path d="M96.4479 430.084C92.5639 429.322 87.8009 429.875 84.8029 432.619C84.6869 432.725 84.8399 432.889 84.9659 432.85C88.8149 431.676 92.4069 430.933 96.4279 430.575C96.7109 430.55 96.7259 430.138 96.4479 430.084Z" fill="#263238"/>
<path d="M99.2389 431.802C95.3559 431.04 90.5919 431.593 87.5939 434.337C87.4779 434.443 87.6309 434.607 87.7569 434.568C91.6059 433.394 95.1979 432.651 99.2189 432.294C99.5019 432.268 99.5169 431.857 99.2389 431.802Z" fill="#263238"/>
<path d="M110.124 220.666C110.124 220.666 109.299 237.791 105.378 251.355C105.064 252.476 104.723 253.58 104.355 254.638C104.355 254.638 100.273 256.118 94.039 259.94C94.039 259.94 93.626 273.719 93.214 289.086C92.756 306.265 92.281 325.427 92.38 329.491C92.739 344.697 90.478 428.305 90.478 428.305L48.252 428.476C48.252 428.476 55.886 335.107 55.832 329.536C55.751 320.583 57.877 281.013 59.519 252.153C60.524 234.373 61.349 220.665 61.349 220.665H110.124V220.666Z" fill="#37474F"/>
<path d="M89.0317 420.795C82.5807 420.688 84.4337 420.628 77.9827 420.593C74.8257 420.576 54.0797 420.483 51.1327 420.985C51.0677 420.996 51.0677 421.106 51.1327 421.116C54.0847 421.592 74.8287 421.323 77.9857 421.279C84.4367 421.189 82.5837 421.145 89.0327 420.983C89.1537 420.98 89.1527 420.797 89.0317 420.795Z" fill="#263238"/>
<path d="M64.8973 226.785C64.1203 250.343 63.2963 273.904 62.2433 297.452C61.1863 321.081 59.7613 344.701 57.7843 368.272C56.6793 381.441 55.6383 399.965 54.2173 413.103C54.2073 413.191 54.3423 413.223 54.3543 413.133C57.4293 389.764 59.1423 360.868 60.6543 337.351C62.1663 313.838 63.1903 290.284 63.9923 266.736C64.4463 253.416 64.7923 240.091 65.1913 226.769C65.1973 226.58 64.9033 226.597 64.8973 226.785Z" fill="#263238"/>
<path d="M106.112 253.619C101.908 255.289 97.8806 257.569 94.0396 259.942C93.8886 260.035 94.0016 260.27 94.1666 260.191C98.2406 258.212 102.4 256.306 106.359 254.105C106.671 253.932 106.435 253.491 106.112 253.619Z" fill="#263238"/>
<path d="M106.348 239.089C106.069 240.59 105.705 242.075 105.381 243.567C105.077 244.966 104.853 246.395 104.483 247.778C104.124 249.12 103.553 250.35 102.522 251.308C101.973 251.818 101.368 252.27 100.782 252.738C100.467 252.99 100.125 253.232 99.7972 253.487C99.8402 253.289 99.8743 253.087 99.9103 252.883C100.01 252.314 100.106 251.744 100.202 251.175C100.414 249.911 100.616 248.645 100.81 247.378C101.191 244.888 101.541 242.371 102.061 239.905C102.082 239.805 101.931 239.766 101.906 239.866C101.285 242.309 100.6 244.726 100.06 247.19C99.7953 248.399 98.8493 254.365 98.8083 254.787C98.7653 255.223 98.7283 255.66 98.7133 256.098C98.6973 256.53 98.6123 257.013 98.7113 257.438C98.7373 257.547 98.8683 257.529 98.9143 257.456C98.9163 257.457 98.9183 257.459 98.9203 257.46C99.1373 257.08 99.1913 256.584 99.3003 256.163C99.4093 255.737 99.5063 255.305 99.5823 254.872C99.6103 254.716 99.6313 254.556 99.6533 254.396C100.241 254.039 100.788 253.567 101.337 253.169C101.929 252.74 102.532 252.323 103.092 251.851C104.165 250.948 104.835 249.841 105.235 248.503C105.65 247.114 105.778 245.649 105.938 244.215C106.127 242.52 106.266 240.815 106.503 239.126C106.517 239.028 106.367 238.987 106.348 239.089Z" fill="#263238"/>
<path d="M91.2216 179.81C97.7636 192.772 114.351 219.172 122.902 219.336C133.586 219.542 154.915 203.962 160.225 197.883C162.539 195.234 144.164 176.952 141.439 179.544C137.795 183.009 125.418 193.55 124.994 193.719C124.086 194.083 108.329 181.031 98.8476 172.611C88.2306 163.185 86.2706 170.002 91.2216 179.81Z" fill="#D3766A"/>
<path d="M155.149 202.066C155.149 202.066 163.184 195.539 168.238 191.024C171.058 188.505 175.506 183.755 176.731 180.957C178.563 176.771 183.552 158.097 179.051 156.79C174.976 155.607 172.727 172.195 172.727 172.195C172.727 172.195 176.476 155.657 171.308 155.135C166.139 154.612 166.09 173.692 166.09 173.692C166.09 173.692 169.561 156.614 164.146 156.918C160.054 157.148 159.036 174.426 159.036 174.426C159.036 174.426 161.918 159.726 157.699 159.781C153.037 159.842 151.097 175.732 151.097 175.732C140.397 177.677 136.195 182.695 133.586 186.832C132.953 187.833 155.149 202.066 155.149 202.066Z" fill="#D3766A"/>
<path d="M171.795 177.997C172.306 176.071 172.836 174.124 173.174 172.158C173.512 170.192 173.781 168.214 173.934 166.226C174.31 161.35 173.782 158.238 173.794 158.434C174.069 163.064 172.969 170.119 172.631 172.085C172.294 174.046 172.055 176.025 171.72 177.987C171.711 178.037 171.783 178.043 171.795 177.997Z" fill="#263238"/>
<path d="M164.677 176.907C165.223 174.419 165.856 171.968 166.292 169.455C166.726 166.954 166.918 164.543 167.179 162.019C167.199 161.825 167.088 161.878 167.06 162.072C166.699 164.584 166.171 166.878 165.781 169.385C165.392 171.884 165.097 174.416 164.618 176.898C164.609 176.937 164.669 176.945 164.677 176.907Z" fill="#263238"/>
<path d="M158.397 177.07C159.426 173.31 159.759 169.364 159.994 165.486C160.006 165.293 159.87 165.377 159.846 165.574C159.388 169.435 159.056 172.467 158.266 177.034C158.254 177.105 158.376 177.149 158.397 177.07Z" fill="#263238"/>
<path d="M132.771 186.31L148.243 211.503C148.243 211.503 129.159 221.726 121.916 219.858C114.673 217.99 96.6465 194.789 90.5205 179.924C84.3945 165.059 92.0615 166.188 98.0555 171.247C104.048 176.307 124.715 193.042 125.026 193.003C125.337 192.965 132.771 186.31 132.771 186.31Z" fill="#FFC727"/>
<path d="M135.61 201.869C134.602 200.046 133.553 198.247 132.503 196.448C131.999 195.584 131.502 194.715 130.971 193.868C130.399 192.956 129.884 191.974 129.249 191.106C129.205 191.045 129.117 191.091 129.146 191.162C129.547 192.159 130.11 193.112 130.58 194.08C131.016 194.979 131.494 195.859 131.96 196.743C132.933 198.584 133.905 200.426 134.921 202.244C136.955 205.887 139.085 209.459 141.265 213.016C141.317 213.101 141.448 213.032 141.402 212.941C139.535 209.213 137.628 205.519 135.61 201.869Z" fill="#263238"/>
<path d="M124.856 192.956C122.944 194.357 121.55 195.57 119.853 197.221C118.999 198.052 118.168 198.91 117.369 199.793C116.544 200.705 115.799 201.679 114.989 202.599C114.923 202.674 115.031 202.778 115.102 202.706C115.935 201.858 116.858 201.081 117.724 200.264C118.592 199.445 119.455 198.621 120.311 197.79C122.02 196.134 123.404 194.912 125.046 193.189C125.162 193.068 124.999 192.851 124.856 192.956Z" fill="#263238"/>
<path d="M128.809 219.41C126.109 220.06 123.669 220.31 121.919 219.86C114.669 217.99 96.6487 194.79 90.5187 179.92C89.3187 177 88.6487 174.7 88.3887 172.92L128.809 219.41Z" fill="#263238"/>
<path d="M56.3085 244.607C56.4635 244.758 118.336 242.397 118.854 241.722C119.577 240.771 100.82 175.688 93.8785 167.861C92.3925 166.188 83.6055 164.327 79.0365 168.814C64.2345 183.352 55.7575 244.062 56.3085 244.607Z" fill="#FFC727"/>
<path d="M102.582 186.336C102.552 186.235 102.717 186.166 102.758 186.267C103.777 188.812 104.726 191.384 105.649 193.965C105.607 193.595 105.567 193.224 105.538 192.853C105.463 191.875 105.473 190.892 105.384 189.914C105.376 189.822 105.526 189.823 105.53 189.918C105.579 190.928 105.769 191.922 105.918 192.921C106.052 193.821 106.175 194.723 106.327 195.62C106.354 195.778 106.378 195.937 106.403 196.095C107.901 200.395 113.528 220.154 115.648 227.973C116.843 232.381 117.89 236.824 118.875 241.282C118.895 241.374 118.76 241.407 118.733 241.317C116.44 233.581 114.224 225.82 111.94 218.08C109.839 210.959 103.867 190.687 102.582 186.336Z" fill="#263238"/>
<path d="M95.4664 170.604C95.4594 170.575 95.4164 170.582 95.4204 170.611C95.7864 173.407 96.4514 179.901 92.0224 179.806C90.2384 179.768 88.5454 178.772 87.1204 177.78C85.6574 176.761 84.3344 175.553 83.1244 174.247C81.7814 172.798 80.3974 171.276 79.3124 169.622C79.2664 169.552 79.1604 169.636 79.2104 169.706C80.3724 171.35 81.3654 173.073 82.6854 174.607C83.9564 176.083 85.3804 177.44 87.0034 178.524C88.5244 179.539 90.3224 180.526 92.2054 180.476C93.9974 180.429 95.2214 179.237 95.6324 177.552C96.1734 175.338 95.9634 172.803 95.4664 170.604Z" fill="#263238"/>
<path d="M92.0529 176.802C88.9059 177.331 83.2439 171.808 81.3959 167.833C81.2709 167.56 81.8569 164.813 82.4109 161.442C82.7389 159.395 83.0559 157.108 83.1949 155L96.2029 159.082C96.2029 159.082 94.6129 163.415 94.3929 167.091C94.3779 167.399 94.3889 167.686 94.4269 167.962C94.4289 168.002 94.4369 168.051 94.4369 168.107C94.5959 169.767 95.0939 176.289 92.0529 176.802Z" fill="#D3766A"/>
<path d="M94.4262 167.96C94.4262 167.997 94.4352 168.054 94.4352 168.11C94.0142 168.138 93.5642 168.138 93.0682 168.091C85.3062 167.267 83.8462 158.419 83.5742 155.123L96.2052 159.083C96.2052 159.083 94.6132 163.418 94.3892 167.088C94.3792 167.398 94.3892 167.689 94.4262 167.96Z" fill="#263238"/>
<path d="M79.3868 141.143C78.5878 145.989 82.8418 159.112 86.5538 161.669C91.9348 165.376 99.8508 164.743 102.775 158.478C105.609 152.406 99.7628 135.402 95.6998 133.17C89.7158 129.884 80.5688 133.985 79.3868 141.143Z" fill="#D3766A"/>
<path d="M94.0966 147.445C94.0796 147.413 94.0396 147.508 94.0526 147.544C94.3506 148.424 94.5446 149.483 93.8306 150.023C93.8086 150.04 93.8246 150.084 93.8536 150.07C94.7926 149.634 94.5206 148.231 94.0966 147.445Z" fill="#263238"/>
<path d="M93.0207 146.758C91.5577 147.084 92.3177 149.986 93.6737 149.683C95.0077 149.386 94.2467 146.484 93.0207 146.758Z" fill="#263238"/>
<path d="M99.1426 146.108C99.1406 146.072 99.2236 146.132 99.2326 146.169C99.4396 147.075 99.8296 148.078 100.721 148.164C100.749 148.167 100.758 148.213 100.727 148.216C99.6976 148.337 99.1936 147 99.1426 146.108Z" fill="#263238"/>
<path d="M99.7005 144.959C101.117 144.471 101.99 147.34 100.677 147.793C99.3855 148.239 98.5125 145.369 99.7005 144.959Z" fill="#263238"/>
<path d="M91.5286 145.731C91.8976 145.528 92.2046 145.279 92.5486 145.041C92.9366 144.772 93.2746 144.597 93.4546 144.139C93.5516 143.893 93.3916 143.538 93.1616 143.422C92.6256 143.151 92.0676 143.362 91.5866 143.667C91.0646 143.998 90.7476 144.386 90.5516 144.971C90.3636 145.538 91.0426 145.999 91.5286 145.731Z" fill="#263238"/>
<path d="M100.439 143.204C100.02 143.244 99.6261 143.211 99.2071 143.207C98.7341 143.203 98.358 143.249 97.95 142.971C97.731 142.822 97.6641 142.439 97.7891 142.213C98.0801 141.687 98.6601 141.548 99.2291 141.53C99.8471 141.51 100.328 141.652 100.818 142.027C101.295 142.389 100.993 143.152 100.439 143.204Z" fill="#263238"/>
<path d="M95.287 155.862C95.558 156.016 95.848 156.249 96.182 156.191C96.502 156.135 96.831 155.898 97.089 155.712C97.114 155.694 97.151 155.716 97.14 155.748C96.997 156.154 96.563 156.499 96.127 156.535C95.701 156.571 95.408 156.272 95.212 155.925C95.184 155.877 95.247 155.84 95.287 155.862Z" fill="#263238"/>
<path d="M95.5276 152.923C96.2356 153.571 97.0866 153.804 97.9276 153.749C98.3036 153.727 98.6826 153.641 99.0416 153.511C99.1136 153.49 99.1836 153.463 99.2456 153.432C99.3086 153.407 99.3666 153.384 99.4346 153.35C99.5356 153.307 99.5706 153.205 99.5626 153.102L99.5606 153.095C99.5516 153.062 99.5436 153.036 99.5276 153.005C99.5276 153.005 99.5276 153.005 99.5256 152.998L99.5036 152.92C99.3416 152.223 98.9986 151.188 98.9986 151.188C99.2846 151.248 100.726 151.491 100.611 151.134C99.6476 148.188 98.5766 144.911 96.9966 142.183C96.9486 142.09 96.8036 142.153 96.8386 142.249C97.6516 145.117 98.9646 147.823 99.8276 150.691C99.3756 150.643 98.6286 150.529 98.2686 150.631C98.1776 150.685 98.9666 152.619 99.0146 152.938C99.0146 152.938 99.0186 152.951 99.0176 152.973C97.8936 153.426 96.9256 153.305 95.5916 152.82C95.5106 152.787 95.4556 152.866 95.5276 152.923Z" fill="#263238"/>
<path d="M98.5401 153.268C98.5401 153.268 98.1431 154.257 97.3811 154.776C97.1011 154.968 96.7791 155.1 96.4051 155.098C95.6381 155.097 95.4471 154.443 95.4311 153.845C95.4161 153.353 95.5271 152.898 95.5271 152.898C95.5271 152.898 96.8321 153.604 98.5401 153.268Z" fill="#263238"/>
<path d="M97.3816 154.775C97.1016 154.967 96.7796 155.099 96.4056 155.097C95.6386 155.096 95.4476 154.442 95.4316 153.844C96.2226 153.722 97.1206 154.045 97.3816 154.775Z" fill="#FF98B9"/>
<path d="M82.0204 151.691C85.3554 150.93 84.6444 144.726 84.6444 144.726C84.6444 144.726 90.1644 142.501 90.0304 138.001C90.0304 138.001 96.2484 140.253 100.177 137.743C104.106 135.232 102.123 130.597 101.417 129.669C100.711 128.741 98.7714 131.194 98.7714 131.194C98.7714 131.194 97.8864 128.518 97.0924 128.403C96.2984 128.288 95.8754 130.123 95.8754 130.123C95.8754 130.123 89.9514 129.51 84.9834 130.774C80.0154 132.038 78.6704 137.633 78.6704 137.633C78.6704 137.633 76.1244 138.8 75.6784 140.867C75.2314 142.934 79.8944 152.176 82.0204 151.691Z" fill="#263238"/>
<path d="M89.775 137.188C89.949 138.084 89.985 138.997 89.827 139.865C89.654 140.729 89.277 141.539 88.69 142.184C88.095 142.824 87.337 143.29 86.533 143.676C86.125 143.855 85.696 143.996 85.273 144.151C84.838 144.273 84.398 144.382 83.959 144.519C84.413 144.481 84.867 144.414 85.326 144.362C85.77 144.247 86.222 144.139 86.662 143.992C87.533 143.666 88.361 143.177 89.019 142.481C89.656 141.768 90.063 140.853 90.163 139.916C90.259 138.98 90.125 138.035 89.775 137.188Z" fill="#263238"/>
<path d="M78.7914 138.322C78.8124 136.841 79.1674 135.364 79.9134 134.121C80.6464 132.871 81.7874 131.898 83.1194 131.343C83.4584 131.218 83.7743 131.031 84.1303 130.954L85.1904 130.695C85.9044 130.558 86.6414 130.523 87.3704 130.449C88.1044 130.463 88.8444 130.43 89.5804 130.481C90.3164 130.543 91.0533 130.621 91.7973 130.67C91.0703 130.521 90.3353 130.401 89.6003 130.265C88.8613 130.169 88.1103 130.163 87.3633 130.108C85.8723 130.156 84.3364 130.299 82.9404 130.939C81.5544 131.554 80.3233 132.6 79.6173 133.956C78.8973 135.297 78.6304 136.844 78.7914 138.322Z" fill="#263238"/>
<path d="M92.8716 152.915C90.9536 153.195 89.0116 152.156 88.2336 150.286C87.3136 148.074 88.3646 145.527 90.5756 144.607C92.7876 143.686 95.3336 144.737 96.2546 146.948C97.1736 149.159 96.1236 151.706 93.9126 152.627C93.5706 152.768 93.2216 152.864 92.8716 152.915ZM91.6996 144.893C91.3966 144.937 91.0936 145.02 90.7986 145.142C88.8836 145.939 87.9736 148.146 88.7696 150.062C89.5676 151.977 91.7756 152.889 93.6896 152.09C95.6056 151.293 96.5146 149.086 95.7186 147.17C95.0436 145.551 93.3606 144.65 91.6996 144.893Z" fill="#FFC727"/>
<path d="M102.485 150.283C100.84 150.523 99.1034 149.057 98.5154 146.868C98.2194 145.764 98.2544 144.637 98.6154 143.697C98.9874 142.724 99.6624 142.063 100.513 141.835C101.367 141.604 102.28 141.842 103.089 142.498C103.872 143.132 104.465 144.089 104.761 145.193C105.381 147.506 104.485 149.764 102.763 150.226C102.671 150.25 102.579 150.269 102.485 150.283ZM100.881 142.352C100.809 142.363 100.737 142.377 100.665 142.396C99.9984 142.575 99.4634 143.111 99.1574 143.905C98.8414 144.731 98.8124 145.73 99.0764 146.717C99.6144 148.721 101.196 150.046 102.613 149.664C104.026 149.285 104.738 147.347 104.201 145.343C103.936 144.356 103.412 143.506 102.724 142.948C102.134 142.47 101.488 142.263 100.881 142.352Z" fill="#FFC727"/>
<path d="M96.2416 147.471L95.7656 147.138C96.2586 146.433 97.5376 145.32 98.8556 146.142L98.5486 146.634C97.3696 145.896 96.2876 147.407 96.2416 147.471Z" fill="#FFC727"/>
<path d="M78.7096 153.493L78.1426 153.369C78.2006 153.104 78.7426 150.769 79.9406 150.23C81.0616 149.729 87.8986 148.487 88.2266 148.432L88.3236 149.004C86.1136 149.378 81.0446 150.37 80.1796 150.76C79.3866 151.115 78.8496 152.853 78.7096 153.493Z" fill="#FFC727"/>
<path d="M83.7252 151.722C83.7252 151.722 80.0242 147.852 78.2232 149.236C76.4212 150.621 79.6702 156.557 82.1132 157.061C84.5562 157.565 85.0672 155.313 85.0672 155.313L83.7252 151.722Z" fill="#D3766A"/>
<path d="M79.1961 150.915C79.1591 150.917 79.1591 150.971 79.1931 150.979C80.9141 151.386 81.9981 152.757 82.8351 154.222C82.2611 153.697 81.5541 153.469 80.8391 154.166C80.8011 154.203 80.8521 154.263 80.8961 154.246C81.5381 154.002 82.0341 154.043 82.5651 154.505C82.9401 154.832 83.2301 155.275 83.5251 155.674C83.6231 155.807 83.8731 155.689 83.7921 155.531C83.7861 155.519 83.7791 155.507 83.7731 155.496C83.4961 153.425 81.4461 150.781 79.1961 150.915Z" fill="#263238"/>
<path d="M94.4888 167.878L91.2628 175.653L81.6708 165.66L78.8848 168.799C78.8848 168.799 88.1988 184.608 88.2668 183.899L91.5628 177.204L96.1558 181.941L95.9128 170.178L94.4888 167.878Z" fill="#EBEBEB"/>
<path d="M96.363 176.12C96.258 174.179 96.206 172.222 96.011 170.288C96.004 170.219 95.897 170.187 95.879 170.268C95.469 172.136 95.91 179.556 95.882 181.334C95.875 181.327 95.868 181.32 95.862 181.313C95.67 181.108 91.602 177.142 91.561 177.204C90.851 178.265 88.432 183.14 88.266 183.584C86.793 181.073 81.143 171.941 79.393 169.562C79.343 169.494 79.237 169.548 79.276 169.628C80.572 172.277 88.047 184.573 88.164 184.54C88.243 184.603 91.248 178.598 91.612 177.461C92.298 178.323 96.399 182.792 96.416 182.504C96.534 180.56 96.468 178.063 96.363 176.12Z" fill="#263238"/>
<path d="M72.5945 187.115C73.5555 203.045 77.7025 233.051 87.0835 239.443C97.0295 246.22 125.63 247.16 133.537 247.084C136.892 247.052 134.959 222.193 131.468 221.367C128.036 220.554 103.442 219.523 100.993 218.427C98.5435 217.331 90.6245 195.778 84.5435 183.216C77.3975 168.454 71.8135 174.174 72.5945 187.115Z" fill="#D3766A"/>
<path d="M147.937 223.243C146.304 222.732 146.561 221.871 149.404 220.791C152.278 219.692 164.418 217.848 163.41 213.657C162.405 209.45 145.268 212.342 140.671 214.503C136.068 216.654 129.395 221.772 129.395 221.772C132.842 221.881 141.177 222.943 147.937 223.243Z" fill="#D3766A"/>
<path d="M144.396 239.344L178.227 240.541L186.313 192.886L152.482 191.689L144.396 239.344Z" fill="#263238"/>
<path d="M146.059 239.404L179.89 240.601L187.976 192.946L154.145 191.749L146.059 239.404Z" fill="#455A64"/>
<path d="M171.534 214.236C171.311 216.048 169.656 217.464 167.839 217.4C166.022 217.336 164.729 215.815 164.953 214.003C165.176 212.191 166.831 210.775 168.648 210.839C170.466 210.903 171.758 212.424 171.534 214.236Z" fill="white"/>
<path d="M131.381 247.089C141.101 247.04 153.204 247.571 162.627 241.961C164.475 240.861 164.987 239.301 164.987 239.301C169.255 236.862 169.385 234.114 169.385 234.114C172.665 230.625 172.411 227.796 172.411 227.796C172.411 227.796 177.391 224.877 176.126 221.575C174.719 217.867 168.001 222.691 162.685 223.085C150.503 223.987 132.935 221.862 129.395 221.773L131.381 247.089Z" fill="#D3766A"/>
<path d="M150.582 233.002C154.162 232.665 157.687 232.428 161.202 231.608C165.059 230.708 168.62 229.196 172.283 227.746C172.397 227.701 172.472 227.855 172.366 227.917C166.15 231.591 157.794 233.473 150.594 233.165C150.421 233.158 150.402 233.019 150.582 233.002Z" fill="#263238"/>
<path d="M150.057 240.435C153.522 239.914 159.606 238.959 169.331 234.01C169.363 233.994 169.4 234.042 169.368 234.064C163.481 238.117 157.154 240.135 150.082 240.599C149.862 240.613 149.827 240.47 150.057 240.435Z" fill="#263238"/>
<path d="M149.85 244.433C155.708 243.323 159.261 241.881 164.953 239.288C164.985 239.273 165.02 239.325 164.986 239.345C158.827 242.971 156.182 243.588 149.861 244.639C149.643 244.676 149.621 244.476 149.85 244.433Z" fill="#263238"/>
<path d="M121.281 220.182L123.045 248.919C123.045 248.919 91.4573 247.341 83.4883 237.854C75.5193 228.367 71.3603 197.38 71.8793 184.541C72.3983 171.702 78.9883 170.405 84.5933 182.236C90.1973 194.068 100.441 216.485 100.95 217.108C101.458 217.731 121.281 220.182 121.281 220.182Z" fill="#FFC727"/>
<path d="M118.149 234.215C118.083 232.133 117.97 230.053 117.856 227.973C117.801 226.975 117.756 225.974 117.669 224.978C117.576 223.906 117.565 222.797 117.396 221.735C117.384 221.661 117.286 221.662 117.279 221.738C117.181 222.808 117.248 223.913 117.224 224.989C117.202 225.988 117.226 226.989 117.238 227.988C117.264 230.07 117.29 232.152 117.364 234.234C117.513 238.404 117.78 242.554 118.098 246.714C118.106 246.814 118.253 246.811 118.254 246.71C118.293 242.54 118.281 238.383 118.149 234.215Z" fill="#263238"/>
<path d="M92.4226 243.201C89.3756 242.519 86.6126 240.713 84.4226 238.517C81.9456 236.032 80.5736 232.931 79.4896 229.641C77.1126 222.428 75.3136 215.044 74.1036 207.546C73.4156 203.281 72.8446 198.981 72.5106 194.673C72.5046 194.593 72.3836 194.595 72.3856 194.676C72.4516 197.739 72.6316 200.789 72.9246 203.824C72.8696 203.618 72.8126 203.411 72.7626 203.205C72.4556 201.934 72.1156 200.672 71.7966 199.404C71.7516 199.224 71.4996 199.312 71.5276 199.485C71.7356 200.781 71.9806 202.069 72.3276 203.336C72.5846 204.275 72.8266 205.271 73.1786 206.199C73.6456 210.177 74.3146 214.131 75.2056 218.057C76.0806 221.912 77.1126 225.741 78.3526 229.496C79.4566 232.84 80.7686 236.066 83.2746 238.618C85.7676 241.156 88.9336 242.615 92.3846 243.352C92.4826 243.373 92.5206 243.223 92.4226 243.201Z" fill="#263238"/>
<path d="M112.077 218.93C109.548 218.352 106.99 217.894 104.429 217.473L102.597 217.171C101.911 217.058 101.322 217.028 100.981 216.345C100.381 215.141 99.8727 213.882 99.3207 212.654C97.2867 208.128 95.2277 203.61 93.0907 199.131C92.5537 197.496 92.0337 195.854 91.5437 194.206C91.5147 194.109 91.3717 194.154 91.3937 194.251C91.6317 195.298 91.9147 196.329 92.2307 197.349C91.1747 195.169 90.1007 192.998 88.9857 190.848C88.9337 190.747 88.7587 190.824 88.8017 190.931C90.8117 195.942 93.0117 200.871 95.2607 205.779C96.3967 208.259 97.5327 210.739 98.6887 213.21C99.2377 214.383 99.7447 215.59 100.342 216.739C100.912 217.835 102.058 217.813 103.158 217.979C106.115 218.425 109.077 218.858 112.055 219.122C112.167 219.132 112.182 218.954 112.077 218.93Z" fill="#263238"/>
</svg>
