<svg width="329" height="571" fill="none" xmlns="http://www.w3.org/2000/svg"><path d="M3.333 11c0 5.891 4.776 10.667 10.667 10.667S24.667 16.89 24.667 11 19.89.333 14 .333 3.333 5.11 3.333 11zm309.253 125.414a2 2 0 002.828 0l12.728-12.728a2 2 0 10-2.828-2.828L314 132.172l-11.314-11.314a2 2 0 10-2.828 2.828l12.728 12.728zM14 13h182V9H14v4zm298 116v6h4v-6h-4zM196 13c64.065 0 116 51.935 116 116h4C316 62.726 262.274 9 196 9v4z" fill="#B98CFF"/><path d="M16.414 349.414a2 2 0 01-2.828 0L.858 336.686a2 2 0 112.828-2.828L15 345.172l11.314-11.314a2 2 0 012.828 2.828l-12.728 12.728zM17 343.25V348h-4v-4.75h4zm207.75-116H133v-4h91.75v4zM317 135c0 50.948-41.302 92.25-92.25 92.25v-4c48.739 0 88.25-39.511 88.25-88.25h4zM13 343.25c0-66.274 53.726-120 120-120v4c-64.065 0-116 51.935-116 116h-4z" fill="#B98CFF"/><path d="M303.333 560c0 5.891 4.776 10.667 10.667 10.667s10.667-4.776 10.667-10.667-4.776-10.667-10.667-10.667-10.667 4.776-10.667 10.667zm8.667-4.75V560h4v-4.75h-4zm-207.75-116H196v-4h-91.75v4zM12 347c0 50.948 41.302 92.25 92.25 92.25v-4C55.51 435.25 16 395.739 16 347h-4zm304 208.25c0-66.274-53.726-120-120-120v4c64.065 0 116 51.935 116 116h4z" fill="#B98CFF"/></svg>