<svg width="500" height="500" viewBox="0 0 500 500" fill="none" xmlns="http://www.w3.org/2000/svg">
<path d="M175.36 82.8462H127.016V236.059H175.36V82.8462Z" fill="#F5F5F5"/>
<path d="M175.359 82.8462H151.188V235.637H175.359V82.8462Z" fill="#EBEBEB"/>
<path d="M149.608 67.8042H132.537V82.8462H149.608V67.8042Z" fill="#F5F5F5"/>
<path d="M149.608 67.8042H145.539V82.8462H149.608V67.8042Z" fill="#EBEBEB"/>
<path d="M122.988 82.8463V81.9683H176.775V82.8463" fill="#E0E0E0"/>
<path d="M140.651 89.4062H136.559V98.0342H140.651V89.4062Z" fill="#FAFAFA"/>
<path d="M151.188 101.421C151.188 101.512 145.776 101.586 139.103 101.586C132.427 101.586 127.016 101.512 127.016 101.421C127.016 101.33 132.426 101.256 139.103 101.256C145.777 101.256 151.188 101.33 151.188 101.421Z" fill="#E0E0E0"/>
<path d="M165.033 89.4062H160.941V98.0342H165.033V89.4062Z" fill="#E0E0E0"/>
<path d="M175.57 101.421C175.57 101.512 170.159 101.586 163.485 101.586C156.809 101.586 151.398 101.512 151.398 101.421C151.398 101.33 156.808 101.256 163.485 101.256C170.158 101.256 175.57 101.33 175.57 101.421Z" fill="#E0E0E0"/>
<path d="M165.033 106.537H160.941V115.165H165.033V106.537Z" fill="#E0E0E0"/>
<path d="M175.57 118.552C175.57 118.643 170.159 118.717 163.485 118.717C156.809 118.717 151.398 118.643 151.398 118.552C151.398 118.461 156.808 118.387 163.485 118.387C170.158 118.387 175.57 118.461 175.57 118.552Z" fill="#E0E0E0"/>
<path d="M165.033 124.185H160.941V132.813H165.033V124.185Z" fill="#E0E0E0"/>
<path d="M175.57 136.2C175.57 136.291 170.159 136.365 163.485 136.365C156.809 136.365 151.398 136.291 151.398 136.2C151.398 136.109 156.808 136.035 163.485 136.035C170.158 136.035 175.57 136.109 175.57 136.2Z" fill="#E0E0E0"/>
<path d="M165.033 141.833H160.941V150.461H165.033V141.833Z" fill="#E0E0E0"/>
<path d="M175.57 153.848C175.57 153.939 170.159 154.013 163.485 154.013C156.809 154.013 151.398 153.939 151.398 153.848C151.398 153.757 156.808 153.683 163.485 153.683C170.158 153.683 175.57 153.757 175.57 153.848Z" fill="#E0E0E0"/>
<path d="M165.033 158.976H160.941V167.604H165.033V158.976Z" fill="#E0E0E0"/>
<path d="M175.57 170.991C175.57 171.082 170.159 171.156 163.485 171.156C156.809 171.156 151.398 171.082 151.398 170.991C151.398 170.9 156.808 170.826 163.485 170.826C170.158 170.826 175.57 170.9 175.57 170.991Z" fill="#E0E0E0"/>
<path d="M165.033 176.189H160.941V184.817H165.033V176.189Z" fill="#E0E0E0"/>
<path d="M165.033 193.626H160.941V202.255H165.033V193.626Z" fill="#E0E0E0"/>
<path d="M175.57 188.204C175.57 188.295 170.159 188.369 163.485 188.369C156.809 188.369 151.398 188.295 151.398 188.204C151.398 188.113 156.808 188.039 163.485 188.039C170.158 188.039 175.57 188.113 175.57 188.204Z" fill="#E0E0E0"/>
<path d="M140.651 106.798H136.559V115.426H140.651V106.798Z" fill="#FAFAFA"/>
<path d="M151.188 118.813C151.188 118.904 145.776 118.978 139.103 118.978C132.427 118.978 127.016 118.904 127.016 118.813C127.016 118.722 132.426 118.648 139.103 118.648C145.777 118.649 151.188 118.723 151.188 118.813Z" fill="#E0E0E0"/>
<path d="M140.651 124.191H136.559V132.82H140.651V124.191Z" fill="#FAFAFA"/>
<path d="M151.188 136.206C151.188 136.297 145.776 136.371 139.103 136.371C132.427 136.371 127.016 136.297 127.016 136.206C127.016 136.115 132.426 136.041 139.103 136.041C145.777 136.041 151.188 136.115 151.188 136.206Z" fill="#E0E0E0"/>
<path d="M140.651 141.584H136.559V150.212H140.651V141.584Z" fill="#FAFAFA"/>
<path d="M151.188 153.598C151.188 153.689 145.776 153.763 139.103 153.763C132.427 153.763 127.016 153.689 127.016 153.598C127.016 153.507 132.426 153.433 139.103 153.433C145.777 153.434 151.188 153.508 151.188 153.598Z" fill="#E0E0E0"/>
<path d="M140.651 158.976H136.559V167.604H140.651V158.976Z" fill="#FAFAFA"/>
<path d="M151.188 170.991C151.188 171.082 145.776 171.156 139.103 171.156C132.427 171.156 127.016 171.082 127.016 170.991C127.016 170.9 132.426 170.826 139.103 170.826C145.777 170.826 151.188 170.9 151.188 170.991Z" fill="#E0E0E0"/>
<path d="M140.651 176.369H136.559V184.998H140.651V176.369Z" fill="#FAFAFA"/>
<path d="M151.188 188.384C151.188 188.475 145.776 188.549 139.103 188.549C132.427 188.549 127.016 188.475 127.016 188.384C127.016 188.293 132.426 188.219 139.103 188.219C145.777 188.219 151.188 188.293 151.188 188.384Z" fill="#E0E0E0"/>
<path d="M140.651 193.761H136.559V202.389H140.651V193.761Z" fill="#FAFAFA"/>
<path d="M352.408 115.332H304.064V268.545H352.408V115.332Z" fill="#F5F5F5"/>
<path d="M352.408 115.332H328.236V268.123H352.408V115.332Z" fill="#EBEBEB"/>
<path d="M326.655 100.291H309.584V115.333H326.655V100.291Z" fill="#F5F5F5"/>
<path d="M326.657 100.291H322.588V115.333H326.657V100.291Z" fill="#EBEBEB"/>
<path d="M300.035 115.332V114.455H353.822V115.332" fill="#E0E0E0"/>
<path d="M317.699 121.892H313.607V130.52H317.699V121.892Z" fill="#FAFAFA"/>
<path d="M328.236 133.907C328.236 133.998 322.824 134.072 316.151 134.072C309.475 134.072 304.064 133.998 304.064 133.907C304.064 133.816 309.474 133.742 316.151 133.742C322.824 133.742 328.236 133.816 328.236 133.907Z" fill="#E0E0E0"/>
<path d="M342.08 121.892H337.988V130.52H342.08V121.892Z" fill="#E0E0E0"/>
<path d="M352.617 133.907C352.617 133.998 347.206 134.072 340.532 134.072C333.856 134.072 328.445 133.998 328.445 133.907C328.445 133.816 333.855 133.742 340.532 133.742C347.206 133.742 352.617 133.816 352.617 133.907Z" fill="#E0E0E0"/>
<path d="M342.08 139.023H337.988V147.652H342.08V139.023Z" fill="#E0E0E0"/>
<path d="M352.617 151.038C352.617 151.129 347.206 151.203 340.532 151.203C333.856 151.203 328.445 151.129 328.445 151.038C328.445 150.947 333.855 150.873 340.532 150.873C347.206 150.874 352.617 150.947 352.617 151.038Z" fill="#E0E0E0"/>
<path d="M342.08 156.671H337.988V165.299H342.08V156.671Z" fill="#E0E0E0"/>
<path d="M352.617 168.686C352.617 168.777 347.206 168.851 340.532 168.851C333.856 168.851 328.445 168.777 328.445 168.686C328.445 168.595 333.855 168.521 340.532 168.521C347.206 168.521 352.617 168.595 352.617 168.686Z" fill="#E0E0E0"/>
<path d="M342.08 174.319H337.988V182.947H342.08V174.319Z" fill="#E0E0E0"/>
<path d="M352.617 186.334C352.617 186.425 347.206 186.499 340.532 186.499C333.856 186.499 328.445 186.425 328.445 186.334C328.445 186.243 333.855 186.169 340.532 186.169C347.206 186.169 352.617 186.243 352.617 186.334Z" fill="#E0E0E0"/>
<path d="M342.08 191.462H337.988V200.09H342.08V191.462Z" fill="#E0E0E0"/>
<path d="M352.617 203.477C352.617 203.568 347.206 203.642 340.532 203.642C333.856 203.642 328.445 203.568 328.445 203.477C328.445 203.386 333.855 203.312 340.532 203.312C347.206 203.313 352.617 203.387 352.617 203.477Z" fill="#E0E0E0"/>
<path d="M342.08 208.675H337.988V217.303H342.08V208.675Z" fill="#E0E0E0"/>
<path d="M342.08 226.113H337.988V234.741H342.08V226.113Z" fill="#E0E0E0"/>
<path d="M352.617 220.69C352.617 220.781 347.206 220.855 340.532 220.855C333.856 220.855 328.445 220.781 328.445 220.69C328.445 220.599 333.855 220.525 340.532 220.525C347.206 220.525 352.617 220.599 352.617 220.69Z" fill="#E0E0E0"/>
<path d="M317.699 139.285H313.607V147.913H317.699V139.285Z" fill="#FAFAFA"/>
<path d="M328.236 151.3C328.236 151.391 322.824 151.465 316.151 151.465C309.475 151.465 304.064 151.391 304.064 151.3C304.064 151.209 309.474 151.135 316.151 151.135C322.824 151.135 328.236 151.209 328.236 151.3Z" fill="#E0E0E0"/>
<path d="M317.699 156.677H313.607V165.306H317.699V156.677Z" fill="#FAFAFA"/>
<path d="M328.236 168.692C328.236 168.783 322.824 168.857 316.151 168.857C309.475 168.857 304.064 168.783 304.064 168.692C304.064 168.601 309.474 168.527 316.151 168.527C322.824 168.528 328.236 168.601 328.236 168.692Z" fill="#E0E0E0"/>
<path d="M317.699 174.07H313.607V182.699H317.699V174.07Z" fill="#FAFAFA"/>
<path d="M328.236 186.085C328.236 186.176 322.824 186.25 316.151 186.25C309.475 186.25 304.064 186.176 304.064 186.085C304.064 185.994 309.474 185.92 316.151 185.92C322.824 185.92 328.236 185.994 328.236 186.085Z" fill="#E0E0E0"/>
<path d="M317.699 191.462H313.607V200.09H317.699V191.462Z" fill="#FAFAFA"/>
<path d="M328.236 203.477C328.236 203.568 322.824 203.642 316.151 203.642C309.475 203.642 304.064 203.568 304.064 203.477C304.064 203.386 309.474 203.312 316.151 203.312C322.824 203.313 328.236 203.387 328.236 203.477Z" fill="#E0E0E0"/>
<path d="M317.699 208.855H313.607V217.484H317.699V208.855Z" fill="#FAFAFA"/>
<path d="M328.236 220.87C328.236 220.961 322.824 221.035 316.151 221.035C309.475 221.035 304.064 220.961 304.064 220.87C304.064 220.779 309.474 220.705 316.151 220.705C322.824 220.705 328.236 220.779 328.236 220.87Z" fill="#E0E0E0"/>
<path d="M317.699 226.248H313.607V234.876H317.699V226.248Z" fill="#FAFAFA"/>
<path d="M412.767 174.777H334.49V278.021H412.767V174.777Z" fill="#EBEBEB"/>
<path d="M412.767 174.777H376.064V278.021H412.767V174.777Z" fill="#E0E0E0"/>
<path d="M357.94 188.755H350.902V205.855H357.94V188.755Z" fill="#F5F5F5"/>
<path d="M357.94 255.679H350.902V272.779H357.94V255.679Z" fill="#F5F5F5"/>
<path d="M376.064 212.566C376.064 212.758 366.757 212.914 355.278 212.914C343.795 212.914 334.49 212.758 334.49 212.566C334.49 212.374 343.796 212.218 355.278 212.218C366.757 212.218 376.064 212.374 376.064 212.566Z" fill="#F5F5F5"/>
<path d="M357.94 222.471H350.902V239.571H357.94V222.471Z" fill="#F5F5F5"/>
<path d="M376.064 246.281C376.064 246.473 366.757 246.629 355.278 246.629C343.795 246.629 334.49 246.473 334.49 246.281C334.49 246.089 343.796 245.933 355.278 245.933C366.757 245.934 376.064 246.09 376.064 246.281Z" fill="#F5F5F5"/>
<path d="M390.897 188.755H383.859V205.855H390.897V188.755Z" fill="#F5F5F5"/>
<path d="M406.165 188.755H399.127V205.855H406.165V188.755Z" fill="#F5F5F5"/>
<path d="M390.897 221.202H383.859V238.301H390.897V221.202Z" fill="#F5F5F5"/>
<path d="M406.165 221.202H399.127V238.301H406.165V221.202Z" fill="#F5F5F5"/>
<path d="M390.897 253.649H383.859V270.748H390.897V253.649Z" fill="#F5F5F5"/>
<path d="M406.165 253.649H399.127V270.748H406.165V253.649Z" fill="#F5F5F5"/>
<path d="M418.651 171.183H328.605V174.906H418.651V171.183Z" fill="#E0E0E0"/>
<path d="M413.313 175.257C413.313 175.449 395.817 175.605 374.24 175.605C352.656 175.605 335.164 175.449 335.164 175.257C335.164 175.065 352.656 174.909 374.24 174.909C395.817 174.909 413.313 175.065 413.313 175.257Z" fill="#EBEBEB"/>
<path d="M157.428 280.085H86.2875L85.9785 167.654H157.118L157.428 280.085Z" fill="#EBEBEB"/>
<path d="M157.117 167.654H121.547V280.085H157.117V167.654Z" fill="#E0E0E0"/>
<path d="M119.223 145.52H94.1016V167.654H119.223V145.52Z" fill="#EBEBEB"/>
<path d="M119.221 145.52H113.234V167.654H119.221V145.52Z" fill="#E0E0E0"/>
<path d="M159.199 166.363H80.0488V167.654H159.199V166.363Z" fill="#E0E0E0"/>
<path d="M106.042 177.307H100.02V190.004H106.042V177.307Z" fill="white"/>
<path d="M121.547 194.988C121.547 195.122 113.584 195.23 103.763 195.23C93.9386 195.23 85.9766 195.122 85.9766 194.988C85.9766 194.854 93.9376 194.746 103.763 194.746C113.584 194.745 121.547 194.854 121.547 194.988Z" fill="#E0E0E0"/>
<path d="M141.922 177.307H135.9V190.004H141.922V177.307Z" fill="#F5F5F5"/>
<path d="M157.427 194.988C157.427 195.122 149.464 195.23 139.643 195.23C129.819 195.23 121.857 195.122 121.857 194.988C121.857 194.854 129.818 194.746 139.643 194.746C149.463 194.745 157.427 194.854 157.427 194.988Z" fill="#EBEBEB"/>
<path d="M141.922 202.516H135.9V215.213H141.922V202.516Z" fill="#F5F5F5"/>
<path d="M157.427 220.196C157.427 220.33 149.464 220.438 139.643 220.438C129.819 220.438 121.857 220.33 121.857 220.196C121.857 220.062 129.818 219.954 139.643 219.954C149.463 219.954 157.427 220.063 157.427 220.196Z" fill="#EBEBEB"/>
<path d="M141.922 228.486H135.9V241.183H141.922V228.486Z" fill="#F5F5F5"/>
<path d="M157.427 246.166C157.427 246.3 149.464 246.408 139.643 246.408C129.819 246.408 121.857 246.299 121.857 246.166C121.857 246.032 129.818 245.924 139.643 245.924C149.463 245.923 157.427 246.032 157.427 246.166Z" fill="#EBEBEB"/>
<path d="M141.922 254.455H135.9V267.152H141.922V254.455Z" fill="#F5F5F5"/>
<path d="M157.427 272.135C157.427 272.269 149.464 272.378 139.643 272.378C129.819 272.378 121.857 272.269 121.857 272.135C121.857 272.001 129.818 271.893 139.643 271.893C149.463 271.893 157.427 272.001 157.427 272.135Z" fill="#EBEBEB"/>
<path d="M106.042 202.901H100.02V215.598H106.042V202.901Z" fill="white"/>
<path d="M121.547 220.581C121.547 220.715 113.584 220.824 103.763 220.824C93.9386 220.824 85.9766 220.715 85.9766 220.581C85.9766 220.447 93.9376 220.339 103.763 220.339C113.584 220.339 121.547 220.447 121.547 220.581Z" fill="#E0E0E0"/>
<path d="M106.042 228.494H100.02V241.191H106.042V228.494Z" fill="white"/>
<path d="M121.547 246.175C121.547 246.309 113.584 246.417 103.763 246.417C93.9386 246.417 85.9766 246.308 85.9766 246.175C85.9766 246.042 93.9376 245.933 103.763 245.933C113.584 245.932 121.547 246.041 121.547 246.175Z" fill="#E0E0E0"/>
<path d="M106.042 254.088H100.02V266.785H106.042V254.088Z" fill="white"/>
<path d="M121.547 271.768C121.547 271.902 113.584 272.01 103.763 272.01C93.9386 272.01 85.9766 271.902 85.9766 271.768C85.9766 271.634 93.9376 271.526 103.763 271.526C113.584 271.526 121.547 271.634 121.547 271.768Z" fill="#E0E0E0"/>
<path d="M439.16 144.927C439.536 142.194 435.679 139.946 432.781 139.713C431.399 139.602 429.963 139.813 428.654 139.357C425.817 138.368 424.684 134.703 421.916 133.536C419.847 132.663 417.464 133.44 415.458 134.45C413.452 135.46 411.469 136.73 409.228 136.874C407.279 136.999 405.162 136.276 403.456 137.228C402.185 137.938 401.519 139.402 400.348 140.266C399.202 141.111 397.707 141.29 396.285 141.368C394.863 141.445 393.391 141.46 392.096 142.053C390.801 142.646 389.73 144.015 389.999 145.413L439.16 144.927Z" fill="#F5F5F5"/>
<path d="M318.808 67.0451C319.397 62.7681 313.36 59.2491 308.824 58.8831C306.661 58.7091 304.414 59.0391 302.365 58.3251C297.925 56.7771 296.151 51.0411 291.819 49.2141C288.58 47.8481 284.851 49.0641 281.711 50.6441C278.571 52.2241 275.468 54.2131 271.96 54.4381C268.909 54.6331 265.595 53.5021 262.925 54.9921C260.935 56.1031 259.893 58.3951 258.06 59.7481C256.266 61.0711 253.926 61.3511 251.7 61.4721C249.474 61.5931 247.17 61.6161 245.143 62.5441C243.116 63.4721 241.439 65.6151 241.86 67.8041L318.808 67.0451Z" fill="#EBEBEB"/>
<path d="M113.203 126.197C113.672 122.787 108.86 119.982 105.243 119.69C103.518 119.551 101.727 119.815 100.093 119.245C96.5528 118.011 95.1388 113.438 91.6848 111.981C89.1028 110.892 86.1298 111.861 83.6268 113.121C81.1238 114.381 78.6498 115.966 75.8528 116.145C73.4198 116.301 70.7778 115.399 68.6498 116.587C67.0638 117.473 66.2328 119.3 64.7708 120.378C63.3408 121.433 61.4748 121.656 59.7008 121.753C57.9268 121.85 56.0898 121.868 54.4738 122.607C52.8578 123.347 51.5208 125.055 51.8568 126.801L113.203 126.197Z" fill="#F5F5F5"/>
<path d="M77.8306 201.41C66.4966 201.673 57.2546 210.91 56.9846 222.244C56.8696 227.098 58.3786 231.592 60.9996 235.231L60.9936 235.233L61.2016 235.516C61.2116 235.529 61.2216 235.543 61.2306 235.556L76.3546 256.127C77.6856 257.938 80.4106 257.881 81.6646 256.016L95.3346 235.693C97.9216 231.748 99.6956 227.624 99.6956 222.763C99.6976 210.798 89.8586 201.131 77.8306 201.41ZM78.3386 238.296C69.4696 238.296 62.2806 231.107 62.2806 222.238C62.2806 213.369 69.4696 206.18 78.3386 206.18C87.2076 206.18 94.3966 213.369 94.3966 222.238C94.3966 231.107 87.2066 238.296 78.3386 238.296Z" fill="#FF725E"/>
<g opacity="0.3">
<path d="M77.8306 201.41C66.4966 201.673 57.2546 210.91 56.9846 222.244C56.8696 227.098 58.3786 231.592 60.9996 235.231L60.9936 235.233L61.2016 235.516C61.2116 235.529 61.2216 235.543 61.2306 235.556L76.3546 256.127C77.6856 257.938 80.4106 257.881 81.6646 256.016L95.3346 235.693C97.9216 231.748 99.6956 227.624 99.6956 222.763C99.6976 210.798 89.8586 201.131 77.8306 201.41ZM78.3386 238.296C69.4696 238.296 62.2806 231.107 62.2806 222.238C62.2806 213.369 69.4696 206.18 78.3386 206.18C87.2076 206.18 94.3966 213.369 94.3966 222.238C94.3966 231.107 87.2066 238.296 78.3386 238.296Z" fill="black"/>
</g>
<path d="M76.5651 201.41C65.2311 201.673 55.9891 210.91 55.7191 222.244C55.6031 227.098 57.1131 231.592 59.7341 235.231L59.7281 235.233L59.9361 235.516C59.9461 235.529 59.9561 235.543 59.9651 235.556L75.0891 256.127C76.4201 257.938 79.1451 257.881 80.3991 256.016L94.0691 235.693C96.6561 231.748 98.4301 227.624 98.4301 222.763C98.4321 210.798 88.5941 201.131 76.5651 201.41ZM77.0731 235.401C70.3561 235.401 64.9111 229.956 64.9111 223.239C64.9111 216.522 70.3561 211.077 77.0731 211.077C83.7901 211.077 89.2351 216.522 89.2351 223.239C89.2341 229.956 83.7891 235.401 77.0731 235.401Z" fill="#FF725E"/>
<path d="M412.86 181.164C404.222 181.364 397.179 188.404 396.973 197.042C396.885 200.741 398.035 204.166 400.033 206.939L400.029 206.94L400.188 207.156C400.196 207.166 400.203 207.176 400.21 207.187L411.736 222.864C412.751 224.244 414.827 224.201 415.783 222.779L426.201 207.291C428.172 204.284 429.525 201.142 429.525 197.437C429.524 188.319 422.027 180.951 412.86 181.164ZM413.246 209.275C406.487 209.275 401.008 203.796 401.008 197.037C401.008 190.278 406.487 184.799 413.246 184.799C420.005 184.799 425.484 190.278 425.484 197.037C425.484 203.796 420.005 209.275 413.246 209.275Z" fill="#FF725E"/>
<g opacity="0.3">
<path d="M412.86 181.164C404.222 181.364 397.179 188.404 396.973 197.042C396.885 200.741 398.035 204.166 400.033 206.939L400.029 206.94L400.188 207.156C400.196 207.166 400.203 207.176 400.21 207.187L411.736 222.864C412.751 224.244 414.827 224.201 415.783 222.779L426.201 207.291C428.172 204.284 429.525 201.142 429.525 197.437C429.524 188.319 422.027 180.951 412.86 181.164ZM413.246 209.275C406.487 209.275 401.008 203.796 401.008 197.037C401.008 190.278 406.487 184.799 413.246 184.799C420.005 184.799 425.484 190.278 425.484 197.037C425.484 203.796 420.005 209.275 413.246 209.275Z" fill="black"/>
</g>
<path d="M411.896 181.164C403.258 181.364 396.215 188.404 396.009 197.042C395.921 200.741 397.071 204.166 399.069 206.939L399.065 206.94L399.224 207.156C399.232 207.166 399.239 207.176 399.246 207.187L410.772 222.864C411.787 224.244 413.863 224.201 414.819 222.779L425.237 207.291C427.208 204.284 428.561 201.142 428.561 197.437C428.561 188.319 421.063 180.951 411.896 181.164ZM412.283 207.069C407.164 207.069 403.015 202.919 403.015 197.801C403.015 192.682 407.165 188.533 412.283 188.533C417.402 188.533 421.551 192.683 421.551 197.801C421.551 202.919 417.401 207.069 412.283 207.069Z" fill="#FF725E"/>
<path d="M89.5118 278.189L18.0918 455.55L152.005 433.529L250.209 455.55L350.793 433.529L485.302 459.187L413.286 278.189L332.938 257.953L251.697 273.428L168.67 257.953L89.5118 278.189Z" fill="white"/>
<path d="M89.5111 278.189C89.5111 278.189 89.9481 278.066 90.8231 277.837C91.7031 277.608 93.0091 277.269 94.7321 276.821C98.1951 275.928 103.333 274.603 110.051 272.871C123.512 269.414 143.303 264.332 168.637 257.826L168.665 257.819L168.694 257.824C191.577 262.075 219.664 267.293 251.729 273.25H251.663C275.981 268.608 303.403 263.374 332.898 257.745L332.944 257.736L332.99 257.747C357.943 264.024 384.977 270.826 413.343 277.962L413.459 277.991L413.503 278.102C435.511 333.394 459.845 394.53 485.542 459.091L485.716 459.529L485.253 459.441C463.135 455.222 439.761 450.764 416.06 446.244C393.977 442.031 372.18 437.872 350.745 433.783L350.849 433.782C316.287 441.346 282.661 448.704 250.263 455.794L250.209 455.806L250.155 455.794C215.932 448.114 183.105 440.746 151.956 433.756L152.044 433.759C102.84 441.835 57.7961 449.228 18.1241 455.739L17.7891 455.794L17.9161 455.48C40.0071 400.724 57.8951 356.386 70.2621 325.732C76.4501 310.422 81.2571 298.531 84.5181 290.462C86.1501 286.437 87.3961 283.367 88.2351 281.299C89.0721 279.235 89.5111 278.189 89.5111 278.189C89.5111 278.189 89.0961 279.263 88.2691 281.339C87.4391 283.416 86.2061 286.499 84.5901 290.541C81.3481 298.623 76.5691 310.535 70.4171 325.871C58.0961 356.526 40.2751 400.865 18.2671 455.621L18.0591 455.362C57.7271 448.826 102.767 441.406 151.966 433.3L152.011 433.293L152.055 433.303C183.207 440.283 216.037 447.639 250.262 455.307H250.154C282.551 448.211 316.176 440.846 350.736 433.277L350.788 433.266L350.84 433.276C372.276 437.365 394.073 441.522 416.156 445.734C439.857 450.256 463.23 454.715 485.349 458.935L485.06 459.284C459.379 394.716 435.061 333.574 413.068 278.276L413.228 278.416C384.866 271.265 357.835 264.45 332.885 258.159L332.976 258.162C303.477 263.769 276.051 268.982 251.729 273.605L251.696 273.611L251.663 273.605C219.605 267.611 191.524 262.36 168.646 258.083L168.702 258.081C143.373 264.526 123.587 269.561 110.129 272.986C103.397 274.692 98.2481 275.997 94.7771 276.877C93.0441 277.313 91.7311 277.643 90.8461 277.865C89.9641 278.084 89.5111 278.189 89.5111 278.189Z" fill="#263238"/>
<path d="M93.6788 282.95L30.5898 446.623L151.41 426.982L251.697 450.194L350.793 426.387L473.994 450.194L409.12 282.95L334.128 264.5L251.697 279.974L167.48 264.5L93.6788 282.95Z" fill="white"/>
<path d="M37.5996 428.436L133.633 406.195L130.087 385.507L138.066 380.483L125.653 332.167L87.2506 299.625L37.5996 428.436Z" fill="#455A64"/>
<path d="M30.5898 446.623L35.2728 434.475L196.289 397.066L205.035 421.137L202.2 425.997L171.957 431.737L151.41 426.982L30.5898 446.623Z" fill="#EBEBEB"/>
<path d="M205.033 394.736L211.422 418.552L229.963 426.612L256.35 414.888L311.694 398.767L294.424 372.753L205.033 394.736Z" fill="#EBEBEB"/>
<path d="M140.715 403.557L170.634 397.066L164.664 377.627L142.868 382.894L137.066 386.988L140.715 403.557Z" fill="#E0E0E0"/>
<path d="M134.607 339.132L145.471 374.779L162.446 371.044L159.391 357.347L196.735 348.977L134.607 339.132Z" fill="#455A64"/>
<path d="M90.0762 292.295L137.067 330.021L199.452 341.848L265.992 325.306L235.618 277.02L167.479 264.5L93.6782 282.95L90.0762 292.295Z" fill="#EBEBEB"/>
<path d="M244.703 278.69L342.259 428.436L350.791 426.387L256.371 279.097L251.695 279.974L244.703 278.69Z" fill="#EBEBEB"/>
<path d="M165.672 361.117L178.034 397.066L287.767 369.031L267.459 334.458L165.672 361.117Z" fill="#E0E0E0"/>
<path d="M226.721 444.413L227.789 442.825L234.996 432.111L252.292 426.612L264.186 417.651L315.761 403.557L331.778 430.955L251.697 450.194" fill="#E0E0E0"/>
<path d="M318.074 267.513L343.922 296.265L409.118 282.95L334.126 264.5L318.074 267.513Z" fill="#E0E0E0"/>
<path d="M422.841 318.324L374.958 331.627L350.793 299.625L410.755 287.166L422.841 318.324Z" fill="#E0E0E0"/>
<path d="M261.492 278.135L311.695 350.247L369.637 333.622L311.695 268.711L261.492 278.135Z" fill="#EBEBEB"/>
<path d="M401.85 436.253L459.782 413.56L473.993 450.194L401.85 436.253Z" fill="#E0E0E0"/>
<path d="M341.264 345.935L372.741 337.73L405.991 377.627L373.628 388.374L341.264 345.935Z" fill="#455A64"/>
<path d="M379.834 334.458L414.857 374.615L441.243 365.762L423.895 321.04L379.834 334.458Z" fill="#E0E0E0"/>
<path d="M405.991 426.875L379.834 390.592L443.056 370.437L455.903 403.557L447.664 411.854L405.991 426.875Z" fill="#455A64"/>
<path d="M314.773 355.552L362.833 428.436L392.427 434.432L398.01 431.877L337.113 348.818L314.773 355.552Z" fill="#E0E0E0"/>
<path d="M117.813 409.859L105.839 353.563L63.6166 360.94L37.5996 428.436L117.813 409.859Z" fill="#E0E0E0"/>
<path d="M156.633 267.211V292.985L165.672 294.127L190.911 323.531L212.607 321.04L222.935 336.01L199.452 341.848L137.067 330.021L90.0762 292.295L93.6782 282.95L156.633 267.211Z" fill="#455A64"/>
<path d="M288.592 273.268L324.042 325L354.577 316.75L311.695 268.711L288.592 273.268Z" fill="#E0E0E0"/>
<path d="M392.658 326.71L379.834 306.657L414.514 296.856L422.841 318.324L392.658 326.71Z" fill="#EBEBEB"/>
<path d="M341.264 395.725L358.05 389.924L390.608 434.064L362.834 428.436L341.264 395.725Z" fill="#EBEBEB"/>
<path d="M186.408 435.083L202.021 433.183L207.222 425.567L226.72 431.697L221.62 443.233L186.408 435.083Z" fill="#455A64"/>
<path d="M93.6789 282.95C93.6789 282.95 95.3229 282.518 98.5439 281.701C101.773 280.886 106.562 279.678 112.824 278.097C125.375 274.944 143.826 270.308 167.448 264.373L167.475 264.366L167.503 264.371C190.494 268.581 218.991 273.799 251.729 279.794H251.663C276.311 275.157 304.128 269.924 334.088 264.287L334.134 264.278L334.179 264.289C357.619 270.049 382.812 276.24 409.175 282.719L409.294 282.748L409.338 282.862C429.198 334.04 451.129 390.557 474.234 450.097L474.403 450.533L473.943 450.444C454.201 446.63 433.304 442.592 412.13 438.501C391.377 434.49 370.891 430.531 350.742 426.637L350.851 426.634C316.742 434.825 283.602 442.783 251.753 450.432L251.696 450.446L251.639 450.433C216.503 442.294 182.968 434.525 151.357 427.202L151.445 427.205C107.061 434.405 66.4789 440.988 30.6189 446.805L30.2949 446.858L30.4129 446.552C49.9409 395.996 65.7459 355.079 76.6699 326.797C82.1369 312.673 86.3819 301.705 89.2629 294.263C90.7049 290.552 91.8049 287.721 92.5459 285.813C93.2899 283.914 93.6789 282.95 93.6789 282.95C93.6789 282.95 93.3139 283.941 92.5849 285.856C91.8519 287.772 90.7649 290.616 89.3389 294.344C86.4769 301.799 82.2599 312.787 76.8289 326.937C65.9499 355.219 50.2119 396.135 30.7659 446.69L30.5599 446.437C66.4159 440.596 106.994 433.985 151.373 426.756L151.418 426.749L151.462 426.759C183.076 434.07 216.614 441.825 251.753 449.951H251.639C283.486 442.297 316.626 434.332 350.733 426.135L350.788 426.122L350.843 426.133C370.992 430.026 391.478 433.984 412.232 437.994C433.405 442.086 454.302 446.124 474.044 449.94L473.754 450.288C450.665 390.743 428.749 334.22 408.902 283.036L409.065 283.179C382.705 276.686 357.515 270.482 334.078 264.709L334.169 264.711C304.204 270.324 276.384 275.535 251.732 280.153L251.699 280.159L251.666 280.153C218.936 274.118 190.444 268.865 167.459 264.627L167.514 264.625C143.898 270.5 125.451 275.088 112.904 278.21C106.627 279.764 101.827 280.953 98.5909 281.754C95.3539 282.553 93.6789 282.95 93.6789 282.95Z" fill="#263238"/>
<g opacity="0.2">
<path d="M250.208 455.55L251.696 273.428L168.669 257.953L152.004 433.529L250.208 455.55Z" fill="black"/>
</g>
<g opacity="0.2">
<path d="M332.938 257.953L350.793 433.529L485.302 459.187L413.286 278.189L332.938 257.953Z" fill="black"/>
</g>
<path d="M252.339 101.092C194.329 102.438 147.03 149.715 145.649 207.724C145.058 232.567 152.783 255.567 166.2 274.193L166.171 274.202L167.236 275.651C167.287 275.719 167.336 275.788 167.386 275.856L244.792 381.141C251.606 390.409 265.549 390.118 271.97 380.572L341.935 276.557C355.175 256.365 364.256 235.26 364.256 210.382C364.256 149.142 313.902 99.6639 252.339 101.092ZM254.936 289.879C209.545 289.879 172.748 253.082 172.748 207.691C172.748 162.3 209.545 125.503 254.936 125.503C300.327 125.503 337.124 162.3 337.124 207.691C337.124 253.082 300.328 289.879 254.936 289.879Z" fill="#FF725E"/>
<g opacity="0.3">
<path d="M252.339 101.092C194.329 102.438 147.03 149.715 145.649 207.724C145.058 232.567 152.783 255.567 166.2 274.193L166.171 274.202L167.236 275.651C167.287 275.719 167.336 275.788 167.386 275.856L244.792 381.141C251.606 390.409 265.549 390.118 271.97 380.572L341.935 276.557C355.175 256.365 364.256 235.26 364.256 210.382C364.256 149.142 313.902 99.6639 252.339 101.092ZM254.936 289.879C209.545 289.879 172.748 253.082 172.748 207.691C172.748 162.3 209.545 125.503 254.936 125.503C300.327 125.503 337.124 162.3 337.124 207.691C337.124 253.082 300.328 289.879 254.936 289.879Z" fill="black"/>
</g>
<path d="M245.858 101.092C187.849 102.438 140.549 149.715 139.168 207.724C138.577 232.567 146.302 255.567 159.719 274.193L159.69 274.202L160.755 275.651C160.806 275.719 160.855 275.788 160.905 275.856L238.311 381.141C245.125 390.409 259.068 390.118 265.488 380.572L335.453 276.557C348.693 256.365 357.774 235.26 357.774 210.382C357.776 149.142 307.421 99.6639 245.858 101.092ZM248.456 289.879C203.065 289.879 166.268 253.082 166.268 207.691C166.268 162.3 203.065 125.503 248.456 125.503C293.847 125.503 330.644 162.3 330.644 207.691C330.644 253.082 293.847 289.879 248.456 289.879Z" fill="#FF725E"/>
<g opacity="0.3">
<path d="M295.738 269.68C294.423 271.169 207.51 294.117 206.195 295.606C222.863 300.689 243.225 305.114 260.622 304.106C270.432 303.537 280.66 301.789 288.415 295.755C296.17 289.719 300.459 278.297 295.738 269.68Z" fill="black"/>
</g>
<path d="M212.741 103.82C207.692 109.087 205.489 116.932 207.057 124.057C207.819 127.518 209.343 131.377 207.442 134.367C205.559 137.327 201.124 137.871 199.345 140.895C197.251 144.455 200.049 148.924 199.698 153.039C199.368 156.902 195.806 160.214 191.93 160.262C196.906 163.283 202.728 164.895 208.549 164.864C209.747 162.784 210.945 160.703 212.143 158.622C210.758 160.825 211.639 163.903 213.531 165.69C215.423 167.477 218.06 168.226 220.625 168.661C232.882 170.739 246.027 166.667 254.964 158.024" fill="#263238"/>
<path d="M282.864 125.518C281.612 122.958 279.792 120.678 278.815 118.001C276.716 112.247 278.67 105.165 275.044 100.228C272.463 96.7149 267.838 95.4649 263.534 94.7729C259.23 94.0809 254.65 93.6239 251.148 91.0269C248.58 89.1219 246.867 86.2429 244.306 84.3289C240.656 81.6019 235.773 81.1889 231.23 81.5439C226.565 81.9079 221.845 83.0229 217.971 85.6479C214.097 88.2719 211.18 92.5889 211.08 97.2679C211.031 99.5489 211.632 101.848 211.23 104.094C210.788 106.563 209.191 108.66 208.357 111.027C206.594 116.027 208.783 122.12 213.325 124.855L250.828 161.42C257.852 163.005 273.587 157.692 278.053 152.043C282.517 146.392 286.028 131.986 282.864 125.518Z" fill="#263238"/>
<path d="M213.432 119.524C213.436 110.028 218.976 98.0308 228.462 98.4378L258.356 104.033C261.238 104.156 263.546 106.465 263.67 109.347L264.965 180.507C265.036 180.518 265.1 180.528 265.171 180.538C265.171 180.538 259.766 200.984 239.924 196.132C235.989 195.17 233.956 191.066 232.91 186.778L232.713 186.816C232.672 186.301 232.635 185.822 232.596 185.331C231.63 180.366 231.849 175.596 231.849 175.596C231.423 169.871 231.277 167.522 231.276 167.575C231.276 167.575 219.067 166.326 215.576 150.716C213.84 142.954 213.428 130.074 213.432 119.524Z" fill="#FFBE9D"/>
<path d="M240.819 129.254C240.848 130.324 241.778 131.182 242.896 131.172C244.012 131.162 244.895 130.289 244.866 129.219C244.837 128.149 243.906 127.29 242.791 127.3C241.673 127.309 240.79 128.184 240.819 129.254Z" fill="#263238"/>
<path d="M220.169 130.831C220.198 131.901 221.128 132.759 222.246 132.749C223.362 132.739 224.245 131.866 224.216 130.795C224.187 129.725 223.257 128.866 222.141 128.876C221.023 128.885 220.139 129.76 220.169 130.831Z" fill="#263238"/>
<path d="M215.832 126.358C216.1 126.694 217.797 125.256 220.175 125.269C222.55 125.242 224.272 126.67 224.535 126.332C224.664 126.182 224.395 125.576 223.646 124.931C222.909 124.289 221.643 123.662 220.162 123.665C218.681 123.671 217.425 124.303 216.699 124.951C215.957 125.601 215.7 126.207 215.832 126.358Z" fill="#263238"/>
<path d="M237.805 125.822C238.127 126.12 239.773 124.535 242.293 124.291C244.809 124.008 246.79 125.214 247.032 124.856C247.152 124.696 246.804 124.134 245.936 123.586C245.084 123.038 243.675 122.565 242.104 122.728C240.534 122.894 239.271 123.646 238.571 124.357C237.858 125.07 237.649 125.689 237.805 125.822Z" fill="#263238"/>
<path d="M231.167 141.734C231.169 141.61 229.802 141.461 227.593 141.318C227.034 141.295 226.501 141.218 226.384 140.845C226.228 140.452 226.423 139.839 226.652 139.175C227.091 137.798 227.549 136.354 228.03 134.842C229.934 128.676 231.276 123.619 231.027 123.545C230.778 123.47 229.032 128.408 227.128 134.574C226.672 136.094 226.235 137.543 225.821 138.929C225.65 139.573 225.334 140.312 225.669 141.128C225.845 141.534 226.271 141.81 226.634 141.883C226.997 141.969 227.31 141.956 227.586 141.955C229.797 141.934 231.166 141.858 231.167 141.734Z" fill="#263238"/>
<path d="M231.275 167.575C231.275 167.575 241.924 167.595 252.037 160.62C252.037 160.62 247.593 171.771 231.721 171.284L231.275 167.575Z" fill="#EB996E"/>
<path d="M232.414 146.92C233.132 145.837 234.467 145.182 235.838 145.244C236.788 145.287 237.771 145.682 238.393 146.415C239.015 147.148 239.204 148.232 238.728 148.997C238.193 149.86 236.978 150.127 235.921 149.897C234.864 149.667 233.928 149.039 233.036 148.411C232.789 148.237 232.537 148.056 232.375 147.806C232.212 147.557 232.16 147.221 232.327 146.996" fill="#FF725E"/>
<path d="M237.664 142.838C237.309 142.84 237.452 145.201 235.536 147.004C233.624 148.812 231.089 148.705 231.092 149.036C231.068 149.186 231.682 149.46 232.746 149.422C233.791 149.393 235.292 148.962 236.464 147.859C237.633 146.754 238.077 145.349 238.097 144.375C238.125 143.383 237.825 142.814 237.664 142.838Z" fill="#263238"/>
<path d="M236.983 118.458C237.234 119.036 239.389 118.62 241.961 118.768C244.536 118.864 246.641 119.482 246.947 118.93C247.082 118.667 246.689 118.133 245.82 117.612C244.959 117.092 243.609 116.631 242.066 116.556C240.523 116.484 239.135 116.815 238.229 117.252C237.316 117.688 236.873 118.183 236.983 118.458Z" fill="#263238"/>
<path d="M217.054 119.689C217.522 120.156 219.203 119.536 221.262 119.382C223.315 119.166 225.087 119.476 225.456 118.934C225.616 118.672 225.31 118.194 224.519 117.774C223.739 117.355 222.459 117.053 221.045 117.179C219.633 117.307 218.434 117.831 217.749 118.383C217.053 118.936 216.846 119.46 217.054 119.689Z" fill="#263238"/>
<path d="M264.986 105.391C263.235 103.376 260.487 102.598 257.887 101.992C246.676 99.376 235.153 98.102 223.641 98.205C222.558 100.723 224.303 103.699 226.664 105.09C229.025 106.482 231.848 106.766 234.524 107.361C237.2 107.956 240.011 109.055 241.409 111.412C242.896 113.919 242.398 117.205 243.757 119.783C246.096 124.22 252.827 124.813 255.14 129.262C256.889 132.628 255.367 136.685 255.375 140.477C255.385 144.775 257.571 149.014 261.067 151.513C263.825 153.484 267.338 154.315 270.698 153.909C269.593 140.393 268.487 126.877 267.382 113.361C267.152 110.547 266.838 107.523 264.986 105.391Z" fill="#263238"/>
<path d="M296.743 135.476C294.36 133.875 291.475 132.606 290.25 130.009C288.466 126.226 290.991 121.133 288.441 117.818C286.115 114.794 280.642 115.731 278.437 112.618C276.715 110.187 277.946 107.65 277.108 105.42C276.271 103.19 272.721 101.629 270.417 102.233L255.826 131.337C255.373 140.477 254.327 145.456 256.968 150.396C258.417 153.106 260.174 155.699 261.007 158.656C261.84 161.613 261.549 165.137 259.334 167.266C270.402 166.59 279.859 159.422 288.563 152.553C291.634 150.13 294.705 147.707 297.776 145.283C298.734 144.526 299.731 143.722 300.211 142.599C301.341 139.96 299.126 137.077 296.743 135.476Z" fill="#263238"/>
<path d="M288.462 149.832C288.462 149.832 288.092 150.032 287.324 150.221C286.56 150.408 285.387 150.608 283.88 150.457C282.388 150.308 280.535 149.816 278.764 148.563C276.997 147.333 275.42 145.248 274.736 142.602C274.399 141.283 274.287 139.832 274.506 138.353C274.728 136.866 275.335 135.43 275.969 133.999C276.592 132.567 277.285 131.09 277.475 129.483C277.664 127.905 277.413 126.095 276.238 124.923C275.055 123.728 273.159 123.661 271.346 123.21C270.434 122.986 269.466 122.575 268.769 121.809C268.073 121.044 267.732 120.031 267.614 119.044C267.357 117.036 267.954 115.084 268.06 113.167C268.116 112.207 268.048 111.23 267.685 110.368C267.328 109.506 266.653 108.8 265.794 108.369C264.055 107.462 262.013 107.564 260.048 107.665C258.075 107.798 255.973 107.644 254.173 106.796C252.361 106 250.817 104.711 249.725 103.151C248.638 101.571 248.074 99.788 247.564 98.104C247.057 96.414 246.585 94.767 245.801 93.333C245.018 91.906 243.911 90.726 242.682 89.813C240.18 88.022 237.234 87.294 234.627 87.445C232.001 87.59 229.743 88.607 228.044 89.808C226.329 91.012 225.114 92.397 224.277 93.611C222.61 96.074 222.283 97.752 222.194 97.711C222.183 97.708 222.205 97.607 222.259 97.412C222.319 97.22 222.383 96.923 222.526 96.556C222.784 95.811 223.253 94.735 224.07 93.471C224.888 92.215 226.097 90.778 227.836 89.515C229.558 88.257 231.87 87.172 234.6 86.991C237.305 86.806 240.365 87.528 242.996 89.381C244.288 90.326 245.462 91.558 246.298 93.061C247.131 94.565 247.619 96.252 248.133 97.932C248.647 99.609 249.207 101.326 250.23 102.8C251.261 104.261 252.721 105.474 254.429 106.219C256.138 107.012 258.052 107.155 260.021 107.025C261.966 106.929 264.147 106.789 266.093 107.798C267.056 108.276 267.87 109.117 268.279 110.118C268.698 111.119 268.759 112.193 268.701 113.202C268.576 115.234 268 117.123 268.242 118.968C268.349 119.876 268.652 120.748 269.233 121.39C269.815 122.031 270.636 122.399 271.503 122.615C272.369 122.846 273.282 122.959 274.18 123.2C275.071 123.428 275.987 123.818 276.658 124.502C278.021 125.891 278.244 127.877 278.039 129.551C277.82 131.282 277.089 132.789 276.459 134.216C275.814 135.641 275.221 137.025 274.999 138.43C274.779 139.834 274.871 141.223 275.18 142.491C275.809 145.036 277.295 147.06 278.977 148.271C280.664 149.507 282.456 150.025 283.909 150.207C286.871 150.534 288.454 149.717 288.462 149.832Z" fill="#455A64"/>
<path d="M300.422 128.919C300.422 128.919 300.679 129.156 300.908 129.763C301.138 130.358 301.263 131.377 300.819 132.544C300.586 133.114 300.216 133.725 299.624 134.213C299.037 134.698 298.254 135.055 297.373 135.164C295.632 135.427 293.432 134.665 292.151 132.791C291.507 131.879 291.072 130.765 290.903 129.563C290.736 128.354 290.875 127.085 291.166 125.837C291.703 123.346 292.956 120.817 292.602 118.043C292.444 116.697 291.925 115.283 290.804 114.457C289.69 113.605 288.149 113.575 286.65 113.772C285.143 113.932 283.534 114.353 281.841 113.945C281.009 113.736 280.217 113.253 279.662 112.577C279.1 111.906 278.742 111.1 278.523 110.274C278.082 108.595 278.255 106.924 278.237 105.35C278.261 103.771 277.952 102.262 277.351 100.875C276.143 98.1078 273.875 95.9598 271.319 94.9028C268.745 93.8048 265.978 94.0348 263.484 94.2338C260.976 94.4508 258.548 94.6318 256.401 94.1128C254.26 93.6378 252.465 92.7208 251.063 91.7138C249.646 90.7138 248.627 89.6038 247.892 88.6398C246.434 86.6818 246.102 85.3478 246.102 85.3478C246.175 85.3078 246.596 86.6098 248.089 88.4848C248.841 89.4078 249.866 90.4698 251.269 91.4178C252.658 92.3738 254.419 93.2358 256.496 93.6658C258.571 94.1398 260.922 93.9418 263.438 93.7008C265.929 93.4828 268.794 93.2048 271.545 94.3538C274.253 95.4578 276.644 97.7008 277.93 100.623C278.57 102.076 278.903 103.721 278.878 105.346C278.893 106.958 278.74 108.585 279.146 110.109C279.519 111.63 280.523 112.988 282.002 113.325C283.463 113.691 285.032 113.316 286.577 113.145C288.098 112.949 289.858 112.955 291.174 113.965C292.487 114.951 293.03 116.536 293.192 117.974C293.368 119.439 293.129 120.889 292.761 122.193C292.404 123.508 291.974 124.743 291.686 125.958C291.391 127.168 291.252 128.37 291.395 129.498C291.541 130.625 291.937 131.674 292.524 132.53C293.689 134.283 295.698 135.013 297.329 134.806C298.149 134.722 298.88 134.406 299.431 133.974C299.985 133.54 300.35 132.979 300.587 132.448C301.041 131.361 300.968 130.388 300.785 129.803C300.604 129.206 300.39 128.938 300.422 128.919Z" fill="#263238"/>
<path d="M185.954 151.631C186.055 151.61 185.509 152.764 186.391 154.489C186.826 155.297 187.685 156.237 188.99 156.478C190.261 156.723 191.905 156.165 192.854 154.817C193.331 154.154 193.542 153.292 193.474 152.392C193.408 151.493 193.099 150.575 192.667 149.68C191.826 147.908 190.357 146.057 190.2 143.616C190.004 141.254 190.856 138.689 192.643 136.822C193.525 135.885 194.604 135.111 195.803 134.547C197.003 133.966 198.331 133.689 199.624 133.44C200.921 133.189 202.202 132.974 203.354 132.514C204.5 132.063 205.492 131.304 206.043 130.27C206.597 129.238 206.734 128.032 206.654 126.881C206.575 125.72 206.278 124.61 205.897 123.544C205.142 121.419 204.189 119.384 204.018 117.276C203.836 115.182 204.367 113.224 205.228 111.683C206.088 110.114 207.336 109.053 208.373 108.169C209.427 107.284 210.323 106.522 210.95 105.798C212.24 104.358 212.335 103.202 212.421 103.242C212.432 103.244 212.425 103.311 212.401 103.441C212.371 103.568 212.353 103.768 212.257 104.008C212.107 104.5 211.767 105.203 211.141 105.96C210.528 106.728 209.637 107.533 208.609 108.441C207.591 109.353 206.417 110.399 205.627 111.903C204.831 113.385 204.354 115.256 204.549 117.228C204.729 119.212 205.666 121.184 206.456 123.347C206.851 124.43 207.177 125.605 207.267 126.838C207.358 128.063 207.225 129.389 206.598 130.57C205.975 131.757 204.829 132.625 203.592 133.11C202.349 133.607 201.035 133.823 199.744 134.074C198.452 134.323 197.198 134.586 196.073 135.129C194.944 135.657 193.928 136.383 193.1 137.257C191.425 138.994 190.624 141.376 190.789 143.573C190.905 145.81 192.274 147.59 193.146 149.454C193.586 150.392 193.908 151.373 193.967 152.364C194.032 153.349 193.775 154.344 193.223 155.083C192.13 156.573 190.326 157.136 188.918 156.834C187.473 156.525 186.592 155.477 186.165 154.607C185.722 153.708 185.696 152.902 185.747 152.393C185.819 151.873 185.954 151.631 185.954 151.631Z" fill="#263238"/>
<path d="M189.65 212.606C189.65 212.606 191.33 199.162 197.812 192.44C204.294 185.718 231.412 177.301 231.412 177.301C231.412 177.301 232.532 186.891 239.026 189.203C245.915 191.657 253.697 190.735 258.741 184.883C263.619 179.225 265.043 171.949 265.043 171.949C265.043 171.949 297.43 174.929 302.711 183.812C307.993 192.695 314.823 227.099 314.823 227.099L284.543 233.526L288.66 292.794H208.195L209.77 237.175L187.865 240.303L189.65 212.606Z" fill="#455A64"/>
<path d="M278.53 235.484C278.482 235.483 278.446 235.007 278.422 234.147C278.398 233.287 278.386 232.043 278.387 230.507C278.387 227.434 278.436 223.19 278.534 218.504C278.631 213.816 278.758 209.573 278.885 206.501C278.948 204.965 279.012 203.722 279.071 202.863C279.131 202.004 279.186 201.529 279.234 201.529C279.282 201.529 279.318 202.004 279.342 202.863C279.366 203.722 279.378 204.965 279.377 206.502C279.376 209.575 279.327 213.821 279.23 218.511C279.133 223.2 279.006 227.444 278.879 230.516C278.816 232.052 278.752 233.294 278.693 234.153C278.634 235.011 278.578 235.485 278.53 235.484Z" fill="#263238"/>
<path d="M202.31 211.083C202.495 211.03 204.385 217.04 206.53 224.506C208.676 231.974 210.265 238.069 210.08 238.123C209.895 238.176 208.006 232.167 205.86 224.699C203.714 217.232 202.125 211.136 202.31 211.083Z" fill="#263238"/>
<path d="M299.328 181.679C299.352 181.803 297.892 182.071 295.682 182.912C293.473 183.743 290.548 185.272 287.823 187.631C285.108 190.003 283.188 192.689 282.059 194.761C280.92 196.834 280.452 198.242 280.333 198.201C280.287 198.186 280.37 197.825 280.561 197.179C280.739 196.53 281.097 195.619 281.621 194.533C282.66 192.359 284.573 189.543 287.365 187.105C290.166 184.679 293.22 183.175 295.516 182.447C296.664 182.078 297.616 181.85 298.284 181.764C298.951 181.664 299.32 181.632 299.328 181.679Z" fill="#263238"/>
<path d="M197.323 195.155C197.51 195.108 198.146 196.977 198.744 199.329C199.342 201.683 199.676 203.628 199.489 203.675C199.302 203.722 198.666 201.854 198.068 199.5C197.47 197.148 197.137 195.202 197.323 195.155Z" fill="#263238"/>
<path d="M309.436 228.244C309.436 228.244 300.366 274.303 299.328 278.244C298.29 282.185 296.614 292.794 285.631 294.988C270.803 297.95 212.57 295.882 212.57 295.882L223.555 281.976L274.505 267.689L281.468 234.178L309.436 228.244Z" fill="#FFBE9D"/>
<path d="M222.595 274.202C222.636 274.189 222.808 274.559 223.03 275.263C223.252 275.966 223.49 277.015 223.614 278.335C223.878 280.95 223.512 284.773 221.533 288.367C220.555 290.127 219.455 291.735 218.199 292.986C216.955 294.248 215.559 295.1 214.31 295.576C213.06 296.061 211.981 296.204 211.248 296.266C210.508 296.298 210.102 296.273 210.1 296.228C210.077 296.079 211.758 296.131 214.121 295.12C215.29 294.608 216.577 293.764 217.74 292.536C218.913 291.32 219.965 289.753 220.922 288.029C222.817 284.587 223.254 280.923 223.121 278.367C223.005 275.784 222.47 274.235 222.595 274.202Z" fill="#EB996E"/>
<path d="M173.836 219.69C173.836 219.69 182.047 247.318 185.454 259.256C189.074 271.941 196.983 300.744 213.845 295.627C226.671 291.735 222.896 275.113 222.896 275.113L209.771 237.175L199.564 238.878L189.652 213.295L173.836 219.69Z" fill="#FFBE9D"/>
<path d="M218.411 276.306C218.251 276.298 219.302 273.893 218.416 270.056C217.986 268.166 217.092 265.996 215.682 263.845C214.275 261.685 212.379 259.55 210.363 257.32C208.339 255.098 206.458 252.884 205.023 250.681C203.565 248.495 202.479 246.386 201.669 244.577C200.864 242.765 200.346 241.245 200.025 240.186C199.704 239.127 199.587 238.525 199.627 238.513C199.68 238.497 199.884 239.072 200.282 240.098C200.679 241.123 201.263 242.603 202.116 244.369C202.973 246.131 204.09 248.187 205.555 250.321C206.999 252.472 208.855 254.628 210.881 256.853C212.896 259.082 214.809 261.261 216.222 263.496C217.642 265.728 218.517 267.986 218.898 269.953C219.299 271.922 219.168 273.576 218.954 274.666C218.829 275.211 218.717 275.628 218.602 275.9C218.499 276.175 218.434 276.314 218.411 276.306Z" fill="#EB996E"/>
<path d="M189.651 213.293C189.651 213.293 189.709 202.26 188.739 199.149L180.943 181.727C180.943 181.727 178.935 180.496 177.976 183.97C177.032 187.389 180.059 191.014 180.059 191.014L180.296 195.575L177.14 193.009L171.067 181.628C171.067 181.628 166.884 173.342 165.797 174.657C164.71 175.972 165.069 178.636 166.874 182.212C168.679 185.788 170.969 190.323 170.969 190.323C170.969 190.323 171.586 191.762 169.437 189.673C167.288 187.584 162.618 177.465 161.652 176.201C160.686 174.938 159.361 171.229 157.267 172.067C155.173 172.905 157.855 177.352 157.855 177.352L164.554 192.357C164.554 192.357 160.671 186.674 159.969 185.716C159.266 184.758 157.653 181.504 156.38 179.848C155.107 178.193 153.719 177.546 152.796 177.945C151.133 178.664 151.637 180.232 151.637 180.232L158.788 192.641C158.788 192.641 162.364 198.207 162.358 198.628C162.352 199.05 159.241 196.79 159.241 196.79L156.243 192.969C156.243 192.969 153 187.245 151.297 187.557C149.594 187.87 149.905 189.135 149.905 189.135L155.931 199.555L164.669 210.795L174.014 220.079L179.412 218.339L189.651 213.293Z" fill="#FFBE9D"/>
<path d="M172.46 211.429C172.601 211.437 172.688 210.079 173.019 207.952C173.368 205.885 174.082 202.802 176.611 200.807C177.717 199.919 179.029 199.419 180.243 199.422L180.69 199.423L180.659 198.938C180.521 196.799 180.598 194.763 180.52 193.409C180.477 192.031 180.329 191.206 180.22 191.224C180.141 191.24 180.109 192.026 180.007 193.402C179.945 194.799 179.739 196.66 179.834 199.071L180.249 198.587C178.826 198.542 177.291 199.112 176.056 200.107C174.674 201.197 173.751 202.657 173.231 204.052C172.7 205.45 172.497 206.774 172.393 207.871C172.216 210.076 172.355 211.425 172.46 211.429Z" fill="#EB996E"/>
<path d="M315.953 354.587H186.737C184.055 354.587 181.881 352.413 181.881 349.731V314.49C181.881 311.808 184.055 309.635 186.737 309.635H315.953C318.635 309.635 320.809 311.809 320.809 314.49V349.731C320.809 352.413 318.635 354.587 315.953 354.587Z" fill="white"/>
<path d="M315.953 354.587C315.951 354.562 316.271 354.59 316.87 354.471C317.458 354.349 318.363 354.053 319.231 353.235C320.1 352.441 320.851 351.034 320.731 349.277C320.724 347.524 320.716 345.505 320.707 343.234C320.695 338.683 320.68 333.12 320.663 326.665C320.657 323.435 320.65 319.981 320.643 316.32C320.618 315.41 320.703 314.457 320.547 313.573C320.366 312.682 319.917 311.838 319.258 311.177C318.592 310.525 317.727 310.056 316.784 309.894C315.855 309.753 314.814 309.846 313.808 309.82C281.277 309.84 236.358 309.867 186.746 309.896C185.272 309.891 183.831 310.633 182.992 311.835C182.56 312.424 182.298 313.127 182.193 313.844C182.103 314.547 182.157 315.35 182.142 316.106C182.142 319.169 182.141 322.213 182.141 325.234C182.14 331.276 182.138 337.23 182.137 343.08C182.137 344.542 182.136 345.999 182.136 347.448C182.136 348.173 182.135 348.896 182.135 349.617C182.127 350.313 182.252 350.991 182.539 351.612C183.095 352.854 184.216 353.829 185.525 354.17C186.174 354.359 186.851 354.339 187.57 354.338C188.277 354.338 188.983 354.339 189.686 354.339C195.314 354.342 200.823 354.345 206.198 354.348C227.697 354.369 247.058 354.388 263.322 354.404C279.574 354.439 292.727 354.467 301.833 354.487C306.37 354.508 309.896 354.525 312.303 354.536C313.491 354.547 314.399 354.556 315.026 354.562C315.639 354.569 315.953 354.587 315.953 354.587C315.953 354.587 315.639 354.605 315.025 354.614C314.398 354.62 313.49 354.628 312.302 354.64C309.895 354.651 306.369 354.668 301.832 354.689C292.726 354.709 279.573 354.737 263.321 354.772C247.057 354.788 227.696 354.807 206.197 354.828C200.821 354.831 195.312 354.834 189.685 354.837C188.982 354.837 188.276 354.838 187.569 354.838C186.879 354.839 186.117 354.864 185.392 354.654C183.94 354.276 182.696 353.198 182.078 351.819C181.76 351.135 181.62 350.364 181.629 349.618C181.629 348.897 181.628 348.174 181.628 347.449C181.627 346 181.627 344.544 181.627 343.081C181.626 337.231 181.624 331.277 181.623 325.235C181.623 322.214 181.622 319.171 181.622 316.107C181.64 315.334 181.578 314.595 181.678 313.772C181.795 312.973 182.088 312.19 182.568 311.534C183.5 310.197 185.108 309.368 186.746 309.376C236.358 309.406 281.278 309.433 313.808 309.452C314.83 309.483 315.811 309.385 316.847 309.54C317.863 309.719 318.792 310.226 319.505 310.929C320.211 311.642 320.691 312.549 320.882 313.507C321.047 314.484 320.95 315.404 320.975 316.32C320.968 319.982 320.961 323.435 320.955 326.665C320.938 333.121 320.923 338.683 320.911 343.234C320.902 345.506 320.894 347.525 320.887 349.277C320.909 350.151 320.786 350.989 320.476 351.672C320.172 352.358 319.747 352.903 319.304 353.312C318.406 354.135 317.479 354.417 316.881 354.523C316.576 354.571 316.344 354.593 316.188 354.588C316.032 354.592 315.953 354.587 315.953 354.587Z" fill="#263238"/>
<path d="M195.744 328.533C195.744 326.355 197.411 324.811 199.68 324.811C200.999 324.811 202.062 325.291 202.757 326.161L201.469 327.327C201.019 326.785 200.467 326.488 199.782 326.488C198.606 326.488 197.788 327.306 197.788 328.533C197.788 329.76 198.606 330.578 199.782 330.578C200.467 330.578 201.019 330.281 201.469 329.739L202.757 330.905C202.062 331.774 200.999 332.255 199.68 332.255C197.41 332.254 195.744 330.71 195.744 328.533Z" fill="#263238"/>
<path d="M203.512 328.921V324.954H205.536V328.859C205.536 330.086 206.047 330.577 206.895 330.577C207.733 330.577 208.245 330.086 208.245 328.859V324.954H210.239V328.921C210.239 331.058 208.991 332.254 206.875 332.254C204.759 332.254 203.512 331.058 203.512 328.921Z" fill="#263238"/>
<path d="M214.735 330.209H213.631V332.11H211.607V324.954H214.878C216.831 324.954 218.057 325.966 218.057 327.601C218.057 328.655 217.546 329.431 216.657 329.861L218.2 332.11H216.033L214.735 330.209ZM214.755 326.549H213.631V328.645H214.755C215.593 328.645 216.013 328.256 216.013 327.602C216.013 326.938 215.593 326.549 214.755 326.549Z" fill="#263238"/>
<path d="M222.298 330.209H221.194V332.11H219.17V324.954H222.441C224.394 324.954 225.62 325.966 225.62 327.601C225.62 328.655 225.109 329.431 224.22 329.861L225.763 332.11H223.596L222.298 330.209ZM222.318 326.549H221.194V328.645H222.318C223.156 328.645 223.576 328.256 223.576 327.602C223.576 326.938 223.157 326.549 222.318 326.549Z" fill="#263238"/>
<path d="M232.477 330.546V332.11H226.732V324.954H232.344V326.518H228.735V327.724H231.915V329.237H228.735V330.546H232.477Z" fill="#263238"/>
<path d="M240.411 324.954V332.11H238.744L235.585 328.297V332.11H233.602V324.954H235.268L238.427 328.768V324.954H240.411Z" fill="#263238"/>
<path d="M243.362 326.559H241.164V324.955H247.574V326.559H245.386V332.111H243.362V326.559Z" fill="#263238"/>
<path d="M251.303 324.954H253.328V330.505H256.742V332.11H251.303V324.954Z" fill="#263238"/>
<path d="M257.057 328.533C257.057 326.387 258.744 324.811 261.034 324.811C263.324 324.811 265.012 326.386 265.012 328.533C265.012 330.679 263.324 332.255 261.034 332.255C258.744 332.255 257.057 330.679 257.057 328.533ZM262.966 328.533C262.966 327.296 262.117 326.488 261.033 326.488C259.95 326.488 259.101 327.296 259.101 328.533C259.101 329.77 259.95 330.578 261.033 330.578C262.118 330.578 262.966 329.77 262.966 328.533Z" fill="#263238"/>
<path d="M265.705 328.533C265.705 326.355 267.371 324.811 269.641 324.811C270.96 324.811 272.024 325.291 272.718 326.161L271.43 327.327C270.981 326.785 270.429 326.488 269.744 326.488C268.568 326.488 267.751 327.306 267.751 328.533C267.751 329.76 268.568 330.578 269.744 330.578C270.429 330.578 270.981 330.281 271.43 329.739L272.718 330.905C272.024 331.774 270.96 332.255 269.641 332.255C267.371 332.254 265.705 330.71 265.705 328.533Z" fill="#263238"/>
<path d="M278.289 330.72H275.263L274.7 332.111H272.635L275.794 324.955H277.788L280.957 332.111H278.85L278.289 330.72ZM277.695 329.228L276.775 326.938L275.855 329.228H277.695Z" fill="#263238"/>
<path d="M282.692 326.559H280.494V324.955H286.904V326.559H284.716V332.111H282.693V326.559H282.692Z" fill="#263238"/>
<path d="M287.658 324.954H289.682V332.11H287.658V324.954Z" fill="#263238"/>
<path d="M290.756 328.533C290.756 326.387 292.442 324.811 294.733 324.811C297.023 324.811 298.711 326.386 298.711 328.533C298.711 330.679 297.023 332.255 294.733 332.255C292.442 332.254 290.756 330.679 290.756 328.533ZM296.665 328.533C296.665 327.296 295.816 326.488 294.732 326.488C293.649 326.488 292.8 327.296 292.8 328.533C292.8 329.77 293.649 330.578 294.732 330.578C295.816 330.578 296.665 329.77 296.665 328.533Z" fill="#263238"/>
<path d="M306.579 324.954V332.11H304.913L301.754 328.297V332.11H299.771V324.954H301.437L304.596 328.768V324.954H306.579Z" fill="#263238"/>
<path d="M211.365 340.47C211.365 338.419 212.94 336.952 215.059 336.952C216.235 336.952 217.217 337.38 217.858 338.158L216.847 339.091C216.391 338.566 215.817 338.294 215.137 338.294C213.864 338.294 212.96 339.189 212.96 340.471C212.96 341.754 213.864 342.649 215.137 342.649C215.817 342.649 216.391 342.377 216.847 341.842L217.858 342.775C217.216 343.563 216.234 343.99 215.049 343.99C212.94 343.989 211.365 342.522 211.365 340.47Z" fill="#E0E0E0"/>
<path d="M218.914 337.069H220.489V343.873H218.914V337.069Z" fill="#E0E0E0"/>
<path d="M223.509 338.352H221.332V337.069H227.261V338.352H225.084V343.873H223.51V338.352H223.509Z" fill="#E0E0E0"/>
<path d="M231.244 341.462V343.872H229.669V341.442L227.035 337.068H228.707L230.525 340.09L232.342 337.068H233.887L231.244 341.462Z" fill="#E0E0E0"/>
<path d="M235.585 342.997C235.585 343.25 235.546 343.435 235.322 343.97L234.768 345.37H233.806L234.234 343.824C233.913 343.698 233.709 343.396 233.709 342.998C233.709 342.434 234.117 342.065 234.652 342.065C235.195 342.065 235.585 342.444 235.585 342.997Z" fill="#E0E0E0"/>
<path d="M239.043 340.47C239.043 338.419 240.618 336.952 242.737 336.952C243.913 336.952 244.895 337.38 245.536 338.158L244.525 339.091C244.068 338.566 243.494 338.294 242.814 338.294C241.541 338.294 240.637 339.189 240.637 340.471C240.637 341.754 241.541 342.649 242.814 342.649C243.494 342.649 244.068 342.377 244.525 341.842L245.536 342.775C244.894 343.563 243.912 343.99 242.727 343.99C240.617 343.989 239.043 342.522 239.043 340.47Z" fill="#E0E0E0"/>
<path d="M246.016 340.47C246.016 338.449 247.591 336.952 249.739 336.952C251.878 336.952 253.462 338.439 253.462 340.47C253.462 342.502 251.878 343.989 249.739 343.989C247.591 343.989 246.016 342.492 246.016 340.47ZM251.868 340.47C251.868 339.178 250.954 338.293 249.739 338.293C248.524 338.293 247.61 339.178 247.61 340.47C247.61 341.763 248.524 342.648 249.739 342.648C250.954 342.648 251.868 341.763 251.868 340.47Z" fill="#E0E0E0"/>
<path d="M254.586 340.878V337.068H256.161V340.82C256.161 342.112 256.725 342.647 257.677 342.647C258.64 342.647 259.194 342.112 259.194 340.82V337.068H260.75V340.878C260.75 342.881 259.603 343.988 257.669 343.988C255.733 343.989 254.586 342.881 254.586 340.878Z" fill="#E0E0E0"/>
<path d="M268.54 337.069V343.873H267.247L263.855 339.742V343.873H262.299V337.069H263.602L266.985 341.2V337.069H268.54Z" fill="#E0E0E0"/>
<path d="M271.558 338.352H269.381V337.069H275.31V338.352H273.133V343.873H271.558V338.352Z" fill="#E0E0E0"/>
<path d="M280.485 343.872L279.173 341.976H279.095H277.725V343.872H276.15V337.068H279.095C280.912 337.068 282.05 338.01 282.05 339.537C282.05 340.557 281.534 341.306 280.65 341.685L282.176 343.871H280.485V343.872ZM279.007 338.352H277.725V340.723H279.007C279.97 340.723 280.455 340.276 280.455 339.537C280.456 338.789 279.97 338.352 279.007 338.352Z" fill="#E0E0E0"/>
<path d="M286.46 341.462V343.872H284.886V341.442L282.252 337.068H283.924L285.741 340.09L287.558 337.068H289.104L286.46 341.462Z" fill="#E0E0E0"/>
</svg>
