<svg width="751" height="500" viewBox="0 0 751 500" fill="none" xmlns="http://www.w3.org/2000/svg">
<g clip-path="url(#clip0_1406_1471)">
<path d="M673.505 296.908C659.865 269.016 629.592 255.11 608.277 233.009C583.806 207.625 571.993 172.416 557.22 139.946C542.447 107.488 521.398 74.4869 488.721 63.1009C459.742 52.9979 428.198 62.1989 397.832 59.2059C350.382 54.5479 308.769 26.9209 263.885 54.0269C208.517 87.4679 162.546 136.524 128.389 192.644C114.101 216.11 96.6809 246.152 85.5959 277.512C73.7829 310.941 69.1709 345.861 83.2259 375.915C105.743 424.036 150.477 431.248 195.743 421.423C247.701 410.141 301.474 406.477 354.323 414.73C394.663 421.033 434.402 433.566 474.336 440.091C457.033 441.963 446.365 444.513 446.365 447.325C446.365 453.069 490.808 457.726 545.631 457.726C600.454 457.726 644.897 453.069 644.897 447.325C644.897 442.583 614.596 438.584 573.183 437.333C577.784 436.036 582.396 434.543 587.02 432.82C598.649 428.485 610.901 422.752 622.599 415.747C625.292 414.129 627.951 412.453 630.563 410.707C630.563 410.695 630.563 410.695 630.575 410.695C630.714 410.614 630.852 410.522 630.98 410.429C631.766 409.909 632.54 409.377 633.315 408.834C635.673 407.204 637.997 405.516 640.262 403.771C641.741 402.638 643.186 401.482 644.62 400.292C645.429 399.633 646.227 398.963 647.024 398.269C648.423 397.078 649.787 395.853 651.128 394.605C651.902 393.9 652.654 393.172 653.405 392.444C655.833 390.098 658.144 387.67 660.329 385.162C661.277 384.087 662.202 383 663.092 381.902C669.473 374.042 674.605 365.511 677.957 356.356C684.405 338.717 684.209 318.778 673.505 296.908Z" fill="url(#paint0_linear_1406_1471)"/>
<path d="M219.879 443.015C243.335 443.015 262.35 440.222 262.35 436.777C262.35 433.332 243.335 430.539 219.879 430.539C196.423 430.539 177.408 433.332 177.408 436.777C177.408 440.222 196.423 443.015 219.879 443.015Z" fill="url(#paint1_linear_1406_1471)"/>
<path d="M346.827 441.287C380.308 441.287 407.449 437.07 407.449 431.869C407.449 426.667 380.308 422.451 346.827 422.451C313.346 422.451 286.205 426.667 286.205 431.869C286.205 437.07 313.346 441.287 346.827 441.287Z" fill="url(#paint2_linear_1406_1471)"/>
<path d="M285.573 76.2148H252.77V91.5708H285.573V76.2148Z" fill="#C1BED7"/>
<path d="M305.139 97.1138H272.336V112.47H305.139V97.1138Z" fill="#C1BED7"/>
<path d="M235.985 112.954C221.448 112.954 209.621 124.781 209.621 139.318C209.621 153.855 221.448 165.682 235.985 165.682C250.524 165.682 262.351 153.855 262.351 139.318C262.351 124.781 250.523 112.954 235.985 112.954ZM238.04 117.491C240.892 118.658 243.385 122.181 244.988 126.995C242.797 127.426 240.443 127.693 238.04 127.788V117.491ZM233.93 127.788C231.533 127.692 229.18 127.425 226.984 126.993C228.586 122.18 231.079 118.658 233.93 117.491V127.788ZM233.93 131.902V137.262H225.154C225.258 135.068 225.526 132.957 225.931 130.978C228.453 131.493 231.134 131.8 233.93 131.902ZM233.93 141.373V146.744C231.164 146.846 228.448 147.152 225.933 147.667C225.527 145.685 225.258 143.571 225.154 141.373H233.93ZM233.93 150.853V161.144C231.08 159.977 228.589 156.459 226.986 151.65C229.18 151.217 231.531 150.949 233.93 150.853ZM238.04 150.853C240.434 150.949 242.784 151.217 244.985 151.649C243.382 156.458 240.89 159.977 238.04 161.143V150.853ZM238.04 146.744V141.373H246.818C246.714 143.57 246.446 145.684 246.039 147.666C243.516 147.151 240.8 146.846 238.04 146.744ZM238.04 137.262V131.902C240.842 131.8 243.527 131.493 246.041 130.979C246.446 132.958 246.714 135.068 246.818 137.262H238.04ZM221.048 137.262H213.836C214.147 133.883 215.228 130.732 216.884 127.958C218.384 128.736 220.085 129.413 221.944 129.978C221.464 132.266 221.156 134.705 221.048 137.262ZM221.048 141.373C221.156 143.934 221.465 146.376 221.945 148.666C220.085 149.231 218.384 149.907 216.886 150.682C215.228 147.907 214.146 144.754 213.835 141.373H221.048ZM250.924 141.373H258.136C257.825 144.753 256.743 147.905 255.086 150.679C253.586 149.902 251.885 149.227 250.027 148.663C250.507 146.374 250.816 143.933 250.924 141.373ZM250.924 137.262C250.816 134.705 250.508 132.266 250.029 129.98C251.89 129.414 253.591 128.738 255.09 127.961C256.745 130.734 257.826 133.884 258.137 137.262H250.924ZM252.637 124.605C251.542 125.131 250.304 125.593 248.974 126.004C248.16 123.515 247.123 121.299 245.905 119.427C248.473 120.712 250.753 122.475 252.637 124.605ZM226.066 119.426C224.848 121.298 223.811 123.514 222.997 126.003C221.669 125.593 220.431 125.13 219.335 124.603C221.219 122.473 223.499 120.711 226.066 119.426ZM219.339 154.036C220.433 153.511 221.671 153.05 223 152.64C223.813 155.126 224.849 157.339 226.066 159.209C223.501 157.925 221.223 156.164 219.339 154.036ZM245.906 159.208C247.123 157.338 248.159 155.124 248.973 152.637C250.301 153.046 251.539 153.508 252.634 154.033C250.75 156.163 248.471 157.924 245.906 159.208Z" fill="white"/>
<path d="M146.209 373.634H179.012V358.278H146.209V373.634Z" fill="#DFDEEE"/>
<path d="M107.076 373.634H139.879V358.278H107.076V373.634Z" fill="#DFDEEE"/>
<path d="M126.642 394.534H159.445V379.178H126.642V394.534Z" fill="#DFDEEE"/>
<path d="M543.207 359.118L528.072 360.054L539.25 363.266C535.282 367.212 532.084 370.221 527.334 374.328L505.289 372.455L522.097 378.852C516.621 383.338 513.764 385.754 507.757 389.489C498.084 386.868 487.642 384.63 487.642 384.63L500.558 393.92C493.242 398.066 485.747 401.261 478.374 402.768C477.185 403.006 478.325 402.806 477.185 403.006L463.671 398.538L469.417 404.312C438.296 408.517 429.746 397.038 429.746 397.038C429.746 397.038 429.798 396.446 430.056 395.308C430.26 394.454 430.577 393.267 431.109 391.811C433.133 386.096 438.168 376.071 450.541 363.454L451.363 374.08L455.565 360.372C456.699 359.532 457.863 358.679 459.092 357.839C463.013 355.103 462.247 355.027 467.024 353.092L468.021 367.911L473.871 350.204C476.704 349.113 479.647 348.148 482.656 347.293L480.371 361.461L489.665 345.687C495.368 344.225 497.44 343.869 503.31 343.039L500.777 357.757L511.094 342.265C519.934 341.203 519.576 341.339 527.205 341.189L523.463 353.46L533.287 340.645C546.038 340.623 558.929 341.577 558.929 341.577C558.929 341.577 553.71 348.404 543.207 359.118Z" fill="#0797A7"/>
<path d="M509.849 297.532L500.159 305.376L509.177 302.197C508.402 306.732 507.695 310.272 506.472 315.288L490.814 324.547L505.121 320.816C503.593 326.432 502.832 329.413 500.589 334.778C492.861 337.635 484.801 341.116 484.801 341.116L497.881 341.179C494.958 347.444 491.462 353.158 487.244 357.684C486.561 358.411 487.229 357.732 486.561 358.411L475.38 361.863L481.981 362.99C463.144 380.647 451.944 377.037 451.944 377.037C451.944 377.037 451.696 376.616 451.327 375.731C451.056 375.062 450.703 374.116 450.365 372.887C448.995 368.094 447.586 358.979 449.856 344.629L455.474 351.354L451.751 340.17C452.11 339.067 452.482 337.94 452.905 336.792C454.226 333.09 453.677 333.404 455.954 329.83L463.688 339.279L459.162 324.63C460.539 322.548 462.05 320.498 463.657 318.491L468.883 329.069L467.585 314.072C470.708 310.373 471.925 309.146 475.46 305.792L480.782 316.857L480.304 301.561C485.718 296.634 485.543 296.896 490.581 293.158L493.927 303.161L494.395 289.894C502.924 283.799 512.012 278.29 512.012 278.29C512.012 278.29 511.774 285.347 509.849 297.532Z" fill="#0CC3BE"/>
<path d="M76.2038 289.767L89.7287 296.623L78.1927 295.143C80.2717 300.339 82.0157 304.368 84.7497 310.021L105.733 317.036L87.7657 316.249C91.0157 322.538 92.6818 325.889 96.7178 331.698C106.638 333.124 117.111 335.207 117.111 335.207L101.571 338.619C106.645 345.324 112.261 351.227 118.433 355.533C119.431 356.223 118.463 355.587 119.431 356.223L133.609 357.475L126.046 360.5C152.953 376.692 165.352 369.541 165.352 369.541C165.352 369.541 165.539 368.977 165.753 367.83C165.904 366.965 166.083 365.75 166.171 364.202C166.577 358.153 165.927 346.953 159.566 330.467L154.601 339.898L156.175 325.647C155.467 324.427 154.736 323.182 153.94 321.924C151.425 317.858 152.157 318.092 148.538 314.423L141.751 327.634L143.396 309.058C141.227 306.933 138.907 304.881 136.484 302.904L132.968 316.818L130.685 298.652C126.028 295.05 124.267 293.902 119.206 290.814L115.7 305.331L112.366 287.019C104.67 282.542 104.945 282.808 97.9997 279.648L96.5727 292.397L92.6307 276.739C80.9327 271.666 68.7188 267.435 68.7188 267.435C68.7188 267.435 70.8058 275.768 76.2038 289.767Z" fill="#0797A7"/>
<path d="M93.4665 196.351C97.5205 201.809 99.4166 209.249 98.5256 215.923C98.8966 217.077 99.3205 218.398 99.7985 219.882C102.313 213.739 106.72 208.458 112.001 204.504C110.437 211.173 105.921 217.468 100.187 221.082C100.979 223.526 101.897 226.328 102.952 229.451C103.441 230.888 103.954 232.393 104.488 233.961C104.747 234.702 105.02 235.455 105.297 236.219C109.666 227.566 116.983 220.673 125.443 216.058C122.118 225.228 114.435 233.174 105.494 236.765C105.737 237.435 105.983 238.108 106.231 238.799C107.406 242.16 108.791 245.658 110.198 249.369C110.855 251.03 111.537 252.726 112.238 254.442C116.576 243.685 124.529 234.695 134.126 228.221C131.385 239.788 123.237 250.364 112.873 255.986C114.522 259.986 116.285 264.107 118.158 268.288C118.213 268.324 118.271 268.356 118.325 268.393C118.288 268.4 118.25 268.405 118.213 268.413C118.857 269.848 119.508 271.288 120.177 272.733C120.244 272.875 120.31 273.013 120.377 273.155C124.728 260.74 134.57 249.897 146.431 244.681C141.562 257.201 132.345 267.531 121.194 274.882C124.617 282.075 128.038 288.7 131.258 294.615C131.531 295.097 131.797 295.572 132.065 296.05C134.72 280.136 144.641 265.012 158.132 256.568C154.463 272.53 145.03 286.57 132.74 297.25C133.996 299.493 135.206 301.652 136.398 303.61C137.218 304.985 138 306.343 138.767 307.606C139.542 308.85 140.286 310.044 140.996 311.184C141.016 311.216 141.035 311.245 141.055 311.277C145.412 296.546 156.45 283.38 170.114 276.844C164.941 291.515 154.596 303.785 141.91 312.631C147.087 320.811 150.407 325.446 150.3 325.961C150.238 326.301 147.587 323.457 143.331 317.623C131.863 323.194 118.721 324.424 106.208 322.272C116.723 315.469 130.629 313.358 142.613 316.631C141.94 315.695 141.231 314.689 140.489 313.615C140.458 313.636 140.427 313.659 140.396 313.68C140.407 313.632 140.423 313.585 140.435 313.538C140.393 313.478 140.354 313.422 140.312 313.361C139.567 312.261 138.786 311.108 137.973 309.908C137.168 308.68 136.348 307.35 135.49 305.996C135.181 305.518 134.869 305.014 134.558 304.512C119.178 309.217 102.557 308.287 87.3215 303.304C101.512 296.823 118.947 296.566 133.294 302.437C132.264 300.713 131.213 298.905 130.122 297.047C128.749 294.619 127.343 292.057 125.92 289.374C109.759 291.268 93.4025 287.245 79.2135 279.414C94.4915 275.67 111.834 278.752 124.868 287.366C122.806 283.412 120.718 279.216 118.648 274.794C117.722 272.793 116.824 270.797 115.951 268.812C102.845 270.851 89.3665 268.239 77.4355 262.52C89.6225 258.782 103.718 260.299 114.879 266.341C112.862 261.659 111 257.062 109.297 252.648C97.5425 252.003 85.7745 246.151 78.4296 237.171C89.4376 238.271 99.7226 243.036 108.276 249.954C106.976 246.392 105.717 243.006 104.658 239.755C104.08 238.024 103.507 236.362 102.989 234.748C102.779 234.067 102.574 233.404 102.371 232.746C94.7956 233.591 87.1245 230.425 82.2815 224.36C89.4775 223.995 96.2375 226.611 101.863 231.098C101.759 230.761 101.652 230.414 101.55 230.084C100.607 226.967 99.8065 224.163 99.1385 221.707C99.1275 221.713 99.1165 221.721 99.1045 221.727C99.1115 221.706 99.1195 221.686 99.1265 221.666C99.0215 221.28 98.9185 220.899 98.8205 220.531C92.2025 218.796 86.0176 214.259 82.5796 208.534C88.6566 210.362 94.0486 214.034 98.3306 218.666C98.1166 217.838 97.9285 217.081 97.7545 216.371C94.3725 210.311 93.0605 203.227 93.4665 196.351Z" fill="#0CC3BE"/>
<path d="M147.037 128.135C151.985 132.797 159.155 135.547 165.887 135.44C166.99 135.943 168.253 136.517 169.67 137.165C163.276 138.946 157.517 142.708 152.976 147.492C159.781 146.715 166.559 142.964 170.817 137.69C173.152 138.761 175.828 139.999 178.807 141.411C180.177 142.064 181.612 142.749 183.108 143.462C183.814 143.806 184.53 144.164 185.256 144.528C176.153 147.86 168.455 154.324 162.886 162.188C172.381 159.954 181.167 153.249 185.776 144.788C186.413 145.108 187.053 145.43 187.711 145.756C190.912 147.314 194.225 149.098 197.747 150.928C199.32 151.774 200.925 152.649 202.548 153.545C191.359 156.6 181.504 163.452 173.956 172.229C185.763 170.854 197.216 163.993 204.008 154.355C207.788 156.458 211.677 158.69 215.611 161.037C215.64 161.096 215.665 161.157 215.695 161.215C215.707 161.179 215.716 161.142 215.728 161.106C217.079 161.912 218.432 162.727 219.79 163.56C219.923 163.643 220.053 163.725 220.186 163.808C207.348 166.684 195.433 175.195 188.871 186.368C201.873 182.991 213.206 175.04 221.806 164.821C228.551 169.058 234.733 173.228 240.232 177.115C240.679 177.442 241.12 177.761 241.563 178.083C225.448 178.866 209.271 186.958 199.314 199.373C215.595 197.588 230.638 189.855 242.677 178.893C244.758 180.402 246.762 181.855 248.568 183.267C249.838 184.241 251.096 185.176 252.261 186.086C253.406 187.001 254.505 187.878 255.555 188.716C255.584 188.74 255.611 188.762 255.641 188.785C240.502 191.396 226.14 200.826 218.058 213.635C233.232 210.206 246.623 201.361 256.887 189.791C264.408 195.886 268.625 199.723 269.149 199.677C269.494 199.655 266.978 196.69 261.68 191.784C268.549 181.043 271.301 168.134 270.621 155.455C262.639 165.106 258.923 178.671 260.777 190.955C259.925 190.177 259.009 189.356 258.029 188.494C258.054 188.465 258.079 188.438 258.104 188.409C258.055 188.415 258.007 188.425 257.958 188.431C257.903 188.382 257.852 188.337 257.797 188.288C256.791 187.42 255.737 186.51 254.64 185.562C253.514 184.62 252.289 183.65 251.044 182.641C250.606 182.278 250.141 181.91 249.678 181.542C256.143 166.815 257.155 150.198 253.98 134.487C245.89 147.825 243.604 165.112 247.764 180.045C246.172 178.821 244.499 177.567 242.78 176.266C240.529 174.62 238.148 172.925 235.648 171.199C239.412 155.369 237.321 138.655 231.197 123.65C225.699 138.388 226.74 155.971 233.776 169.919C230.089 167.411 226.165 164.848 222.014 162.277C220.135 161.124 218.257 160 216.387 158.902C219.939 146.123 218.915 132.432 214.625 119.916C209.493 131.584 209.358 145.76 214.059 157.549C209.643 155.001 205.296 152.615 201.109 150.41C201.838 138.661 197.396 126.291 189.333 117.95C189.144 129.012 192.678 139.781 198.552 149.082C195.165 147.375 191.95 145.731 188.844 144.3C187.193 143.524 185.608 142.762 184.066 142.06C183.414 141.772 182.779 141.492 182.15 141.214C183.871 133.789 181.621 125.801 176.162 120.285C174.961 127.389 176.771 134.409 180.573 140.518C180.25 140.375 179.918 140.229 179.602 140.089C176.616 138.789 173.924 137.668 171.563 136.718C171.571 136.708 171.579 136.698 171.586 136.687C171.565 136.692 171.544 136.697 171.523 136.702C171.152 136.553 170.786 136.406 170.432 136.266C169.48 129.491 165.695 122.819 160.409 118.738C161.517 124.987 164.536 130.769 168.637 135.562C167.839 135.254 167.11 134.978 166.425 134.723C160.796 130.661 153.913 128.533 147.037 128.135Z" fill="#0CC3BE"/>
<path d="M470.494 197.512V393.536C470.494 394.53 470.377 395.492 470.142 396.411C468.859 401.53 464.222 405.323 458.708 405.323H146.014C139.506 405.323 134.238 400.044 134.238 393.536V197.512C134.238 191.004 139.506 185.736 146.014 185.736H458.708C465.216 185.736 470.494 191.004 470.494 197.512Z" fill="#FD7658"/>
<path d="M470.495 197.512V362.728C449.647 360.217 429.033 353.346 413.079 339.839C395.426 324.9 384.494 300.867 389.217 278.234C377.27 310.078 338.522 326.695 305.214 319.792C271.906 312.889 244.956 286.762 229.728 256.338C221.671 240.245 209.585 211.222 207.875 185.736H458.708C465.217 185.736 470.495 191.004 470.495 197.512Z" fill="#F88859"/>
<path d="M470.142 396.41C468.859 401.529 464.222 405.322 458.708 405.322H146.014C139.506 405.322 134.238 400.043 134.238 393.535V369.032C136.311 372.099 138.769 374.909 141.526 377.324C153.868 388.16 170.944 392.21 187.369 392.124C203.783 392.038 219.919 388.234 236.033 385.125C287.636 375.176 340.585 372.249 392.957 376.437C419.437 378.565 447.552 383.534 470.142 396.41Z" fill="#DE624C"/>
<path d="M206.639 264.587H167.511C164.447 264.587 161.963 262.103 161.963 259.039V219.911C161.963 216.847 164.447 214.363 167.511 214.363H206.639C209.703 214.363 212.187 216.847 212.187 219.911V259.039C212.187 262.103 209.703 264.587 206.639 264.587Z" fill="#FDA859"/>
<path d="M205.575 262.45H168.575C166.104 262.45 164.1 260.447 164.1 257.975V220.975C164.1 218.504 166.103 216.5 168.575 216.5H205.575C208.046 216.5 210.05 218.503 210.05 220.975V257.975C210.05 260.447 208.046 262.45 205.575 262.45Z" fill="#FCC700"/>
<path d="M195.302 255.504H178.846C176.165 255.504 173.984 253.323 173.984 250.642V228.308C173.984 225.627 176.165 223.446 178.846 223.446H195.302C197.983 223.446 200.164 225.627 200.164 228.308V250.642C200.164 253.323 197.983 255.504 195.302 255.504ZM178.846 227.721C178.522 227.721 178.258 227.985 178.258 228.308V250.642C178.258 250.966 178.522 251.23 178.846 251.23H195.302C195.626 251.23 195.89 250.966 195.89 250.642V228.308C195.89 227.984 195.626 227.721 195.302 227.721H178.846Z" fill="#FDA859"/>
<path d="M176.122 229.323H164.1V233.597H176.122V229.323Z" fill="#FDA859"/>
<path d="M176.122 237.338H164.1V241.612H176.122V237.338Z" fill="#FDA859"/>
<path d="M176.122 245.352H164.1V249.626H176.122V245.352Z" fill="#FDA859"/>
<path d="M210.049 229.323H198.027V233.597H210.049V229.323Z" fill="#FDA859"/>
<path d="M210.049 237.338H198.027V241.612H210.049V237.338Z" fill="#FDA859"/>
<path d="M210.049 245.352H198.027V249.626H210.049V245.352Z" fill="#FDA859"/>
<path d="M168.299 288.017V301.985H164.653V291.006H161.963V288.017H168.299Z" fill="white"/>
<path d="M183.797 297.581C183.797 300.271 181.585 302.144 178.118 302.144C176.086 302.144 173.974 301.467 172.619 300.43L174.094 297.62C175.19 298.757 176.505 299.354 177.84 299.354C179.374 299.354 180.231 298.716 180.231 297.62C180.231 296.505 179.374 295.926 177.82 295.926H175.469V293.974L178.736 290.846H173.356L173.336 288.036H183.1V290.148L179.334 293.655L180.032 293.754C182.242 294.095 183.797 295.449 183.797 297.581Z" fill="white"/>
<path d="M196.328 294.991C196.328 299.554 194.376 302.084 190.869 302.084C187.322 302.084 185.389 299.554 185.389 294.991C185.389 290.428 187.322 287.918 190.869 287.918C194.376 287.918 196.328 290.429 196.328 294.991ZM188.876 294.991C188.876 298.179 189.454 299.514 190.869 299.514C192.264 299.514 192.841 298.179 192.841 294.991C192.841 291.783 192.263 290.468 190.869 290.468C189.454 290.468 188.876 291.783 188.876 294.991Z" fill="white"/>
<path d="M208.876 287.997V290.528L203.615 301.985H199.769L204.87 290.946H200.964V292.899H197.736V287.997H208.876Z" fill="white"/>
<path d="M237.2 299.375C239.372 299.375 240.428 297.98 240.388 295.688C239.731 296.625 238.655 297.202 237.14 297.202C234.43 297.202 232.717 295.389 232.717 292.659C232.717 289.71 234.749 287.858 237.838 287.858C241.524 287.858 243.756 290.488 243.756 294.772C243.756 299.235 241.285 302.145 237.42 302.145C235.886 302.145 234.152 301.687 232.976 300.989L234.331 298.478C235.128 299.056 236.144 299.375 237.2 299.375ZM235.985 292.68C235.985 293.876 236.682 294.593 237.918 294.593C239.273 294.593 240.01 293.756 239.99 292.621C240.01 291.605 239.373 290.708 237.978 290.708C236.742 290.707 235.985 291.424 235.985 292.68Z" fill="white"/>
<path d="M252.658 288.017V301.985H249.012V291.006H246.322V288.017H252.658Z" fill="white"/>
<path d="M264.949 288.017V301.985H261.303V291.006H258.613V288.017H264.949Z" fill="white"/>
<path d="M280.448 297.581C280.448 300.271 278.236 302.144 274.77 302.144C272.738 302.144 270.625 301.467 269.27 300.43L270.745 297.62C271.841 298.757 273.156 299.354 274.491 299.354C276.025 299.354 276.882 298.716 276.882 297.62C276.882 296.505 276.025 295.926 274.471 295.926H272.12V293.974L275.387 290.846H270.008L269.988 288.036H279.751V290.148L275.985 293.655L276.683 293.754C278.893 294.095 280.448 295.449 280.448 297.581Z" fill="white"/>
<path d="M315.884 294.991C315.884 299.554 313.932 302.084 310.425 302.084C306.878 302.084 304.945 299.554 304.945 294.991C304.945 290.428 306.878 287.918 310.425 287.918C313.932 287.918 315.884 290.429 315.884 294.991ZM308.432 294.991C308.432 298.179 309.01 299.514 310.425 299.514C311.82 299.514 312.397 298.179 312.397 294.991C312.397 291.783 311.819 290.468 310.425 290.468C309.01 290.468 308.432 291.783 308.432 294.991Z" fill="white"/>
<path d="M322.714 293.058C326.002 293.058 328.134 294.791 328.134 297.282C328.134 300.231 325.882 302.144 322.435 302.144C320.562 302.144 318.41 301.446 316.896 300.391L318.351 297.561C319.447 298.717 320.722 299.314 321.997 299.314C323.412 299.314 324.209 298.676 324.209 297.541C324.209 296.485 323.412 295.887 322.017 295.887C321.28 295.887 318.989 295.907 318.112 295.967V287.996H327.497V290.945H321.46V293.077C321.758 293.058 322.435 293.058 322.714 293.058Z" fill="white"/>
<path d="M333.85 299.375C336.022 299.375 337.078 297.98 337.038 295.688C336.381 296.625 335.305 297.202 333.79 297.202C331.08 297.202 329.367 295.389 329.367 292.659C329.367 289.71 331.399 287.858 334.488 287.858C338.174 287.858 340.406 290.488 340.406 294.772C340.406 299.235 337.935 302.145 334.069 302.145C332.535 302.145 330.801 301.687 329.626 300.989L330.981 298.478C331.778 299.056 332.794 299.375 333.85 299.375ZM332.635 292.68C332.635 293.876 333.332 294.593 334.568 294.593C335.923 294.593 336.66 293.756 336.64 292.621C336.66 291.605 336.023 290.708 334.627 290.708C333.392 290.707 332.635 291.424 332.635 292.68Z" fill="white"/>
<path d="M348.473 292.062C348.473 291.305 347.895 290.867 346.879 290.867C345.743 290.867 344.309 291.544 343.014 292.64L341.639 289.95C343.432 288.635 345.385 287.838 347.417 287.838C350.247 287.838 352.299 289.313 352.299 291.525C352.299 293.039 351.143 294.613 349.589 296.188L346.72 299.057H352.698V301.986H342.058L342.038 299.575L347.119 294.354C347.895 293.556 348.473 292.66 348.473 292.062Z" fill="white"/>
<path d="M383.67 292.062C383.67 291.305 383.092 290.867 382.076 290.867C380.94 290.867 379.506 291.544 378.211 292.64L376.836 289.95C378.629 288.635 380.582 287.838 382.614 287.838C385.444 287.838 387.496 289.313 387.496 291.525C387.496 293.039 386.34 294.613 384.786 296.188L381.917 299.057H387.895V301.986H377.255L377.235 299.575L382.316 294.354C383.092 293.556 383.67 292.66 383.67 292.062Z" fill="white"/>
<path d="M400.502 287.997V290.528L395.242 301.985H391.396L396.497 290.946H392.591V292.899H389.363V287.997H400.502Z" fill="white"/>
<path d="M409.086 288.017V301.985H405.44V291.006H402.75V288.017H409.086Z" fill="white"/>
<path d="M421.377 288.017V301.985H417.731V291.006H415.041V288.017H421.377Z" fill="white"/>
<path d="M166.04 327.388V336.372H163.695V329.31H161.965V327.388H166.04Z" fill="white"/>
<path d="M173.952 327.388V336.372H171.607V329.31H169.877V327.388H173.952Z" fill="white"/>
<path d="M182.197 325.991L178.045 337.782H176.123L180.275 325.991H182.197Z" fill="white"/>
<path d="M185.877 329.99C185.877 329.503 185.505 329.221 184.852 329.221C184.122 329.221 183.198 329.657 182.366 330.362L181.482 328.632C182.636 327.787 183.892 327.273 185.199 327.273C187.019 327.273 188.339 328.222 188.339 329.644C188.339 330.619 187.596 331.631 186.596 332.643L184.75 334.489H188.595V336.373H181.751L181.738 334.822L185.006 331.464C185.505 330.951 185.877 330.374 185.877 329.99Z" fill="white"/>
<path d="M196.39 333.54C196.39 335.27 194.968 336.475 192.738 336.475C191.431 336.475 190.072 336.04 189.201 335.373L190.149 333.566C190.854 334.296 191.7 334.682 192.559 334.682C193.546 334.682 194.097 334.272 194.097 333.566C194.097 332.849 193.546 332.477 192.546 332.477H191.034V331.222L193.136 329.21H189.676L189.664 327.403H195.944V328.762L193.521 331.017L193.97 331.082C195.39 331.297 196.39 332.169 196.39 333.54Z" fill="white"/>
<path d="M163.018 319.005L163.954 321.717L164.895 319.005H165.9L164.435 322.755H163.418L161.963 319.005H163.018Z" fill="white"/>
<path d="M168.454 322.092H166.833L166.571 322.755H165.566L167.176 319.005H168.181L169.753 322.755H168.71L168.454 322.092ZM168.165 321.343L167.652 320.006L167.128 321.343H168.165Z" fill="white"/>
<path d="M171.065 319.005V321.921H172.653V322.755H170.086V319.005H171.065Z" fill="white"/>
<path d="M174.073 319.005V322.755H173.094V319.005H174.073Z" fill="white"/>
<path d="M178.409 320.878C178.409 321.996 177.591 322.755 176.377 322.755H174.799V319.005H176.414C177.602 319.005 178.409 319.765 178.409 320.878ZM177.409 320.888C177.409 320.241 176.986 319.803 176.393 319.803H175.778V321.963H176.441C177.008 321.963 177.409 321.53 177.409 320.888Z" fill="white"/>
<path d="M182.921 319.005L182.916 319.787H181.098V320.621H182.777V321.402H181.098V322.756H180.119V319.006H182.921V319.005Z" fill="white"/>
<path d="M185.614 322.755L185.069 321.718H185.048H184.342V322.755H183.363V319.005H185.048C186.043 319.005 186.61 319.487 186.61 320.321C186.61 320.888 186.375 321.305 185.941 321.529L186.722 322.754H185.614V322.755ZM184.342 320.936H185.053C185.449 320.936 185.679 320.733 185.679 320.354C185.679 319.984 185.449 319.787 185.053 319.787H184.342V320.936Z" fill="white"/>
<path d="M191.044 320.878C191.044 321.975 190.178 322.798 189.017 322.798C187.856 322.798 186.99 321.975 186.99 320.878C186.99 319.787 187.856 318.98 189.017 318.98C190.177 318.979 191.044 319.792 191.044 320.878ZM187.995 320.883C187.995 321.494 188.471 321.963 189.027 321.963C189.588 321.963 190.038 321.493 190.038 320.883C190.038 320.274 189.589 319.813 189.027 319.813C188.466 319.813 187.995 320.273 187.995 320.883Z" fill="white"/>
<path d="M192.596 319.005L193.591 321.192L194.586 319.005H195.656V322.755H194.789L194.784 320.381L193.913 322.38H193.271L192.399 320.381V322.755H191.527V319.005H192.596Z" fill="white"/>
<path d="M320.028 360.19H161.963V370.041H320.028V360.19Z" fill="white"/>
<path d="M370.184 412.225H306.749H302.943V419.312C302.943 428.004 318.847 435.05 338.474 435.05C358.087 435.05 373.991 428.005 373.991 419.312V412.225H370.184Z" fill="#FDA859"/>
<path d="M374.001 412.217C374.001 412.314 374.001 412.397 373.987 412.494C373.669 421.062 357.876 427.955 338.47 427.955C318.843 427.955 302.939 420.91 302.939 412.218C302.939 411.263 303.133 410.322 303.52 409.408C306.496 402.058 321.015 396.48 338.469 396.48C355.909 396.48 370.442 402.058 373.418 409.408C373.764 410.225 373.958 411.083 373.986 411.941C374.001 412.038 374.001 412.121 374.001 412.217Z" fill="#FCC700"/>
<path d="M338.471 425.019C354.428 425.019 367.364 419.288 367.364 412.219C367.364 405.15 354.428 399.419 338.471 399.419C322.514 399.419 309.578 405.15 309.578 412.219C309.578 419.288 322.514 425.019 338.471 425.019Z" fill="#FDA859"/>
<path d="M341.742 416.982V419.669H336.468V416.964C332.742 416.735 329.134 416.05 326.477 415.084L329.292 412.572C332.148 413.661 336.468 414.434 339.363 414.434C341.504 414.434 342.852 414.082 342.852 413.433C342.852 411.343 328.222 412.607 328.222 408.252C328.222 406.302 331.393 404.95 336.467 404.581V402H341.741V404.564C344.992 404.722 348.084 405.214 350.422 405.882L347.687 408.429C344.753 407.691 341.027 407.112 338.726 407.112C336.982 407.112 335.833 407.393 335.833 407.955C335.833 409.992 350.463 408.833 350.463 413.259C350.464 415.418 346.737 416.683 341.742 416.982Z" fill="#FCC700"/>
<path d="M382.647 404.197H319.212H315.406V411.284C315.406 419.976 331.31 427.022 350.937 427.022C370.55 427.022 386.454 419.977 386.454 411.284V404.197H382.647Z" fill="#FDA859"/>
<path d="M386.464 404.19C386.464 404.287 386.464 404.37 386.45 404.467C386.132 413.035 370.339 419.928 350.933 419.928C331.306 419.928 315.402 412.883 315.402 404.19C315.402 403.235 315.596 402.294 315.983 401.38C318.959 394.03 333.478 388.452 350.932 388.452C368.372 388.452 382.905 394.03 385.881 401.38C386.227 402.197 386.421 403.055 386.448 403.913C386.464 404.01 386.464 404.093 386.464 404.19Z" fill="#FCC700"/>
<path d="M350.934 416.992C366.891 416.992 379.827 411.261 379.827 404.192C379.827 397.123 366.891 391.392 350.934 391.392C334.977 391.392 322.041 397.123 322.041 404.192C322.041 411.261 334.977 416.992 350.934 416.992Z" fill="#FDA859"/>
<path d="M354.204 408.954V411.641H348.93V408.936C345.204 408.707 341.596 408.022 338.939 407.056L341.754 404.544C344.61 405.633 348.93 406.406 351.825 406.406C353.966 406.406 355.314 406.054 355.314 405.405C355.314 403.315 340.684 404.579 340.684 400.224C340.684 398.274 343.855 396.922 348.929 396.553V393.971H354.203V396.535C357.454 396.693 360.546 397.185 362.884 397.853L360.149 400.399C357.215 399.662 353.489 399.082 351.188 399.082C349.444 399.082 348.295 399.363 348.295 399.925C348.295 401.962 362.925 400.803 362.925 405.229C362.926 407.391 359.198 408.656 354.204 408.954Z" fill="#FCC700"/>
<path d="M365.011 387.852H301.576H297.77V394.939C297.77 403.631 313.674 410.677 333.301 410.677C352.914 410.677 368.818 403.632 368.818 394.939V387.852H365.011Z" fill="#FDA859"/>
<path d="M368.829 387.844C368.829 387.941 368.829 388.024 368.815 388.121C368.497 396.689 352.704 403.582 333.298 403.582C313.671 403.582 297.768 396.537 297.768 387.844C297.768 386.889 297.962 385.948 298.349 385.034C301.325 377.684 315.844 372.106 333.298 372.106C350.738 372.106 365.271 377.684 368.247 385.034C368.593 385.851 368.787 386.709 368.814 387.567C368.829 387.664 368.829 387.747 368.829 387.844Z" fill="#FCC700"/>
<path d="M333.297 400.646C349.254 400.646 362.19 394.915 362.19 387.846C362.19 380.777 349.254 375.046 333.297 375.046C317.34 375.046 304.404 380.777 304.404 387.846C304.404 394.915 317.34 400.646 333.297 400.646Z" fill="#FDA859"/>
<path d="M336.568 392.608V395.295H331.294V392.59C327.568 392.361 323.96 391.676 321.303 390.71L324.118 388.198C326.974 389.287 331.294 390.06 334.189 390.06C336.33 390.06 337.678 389.708 337.678 389.059C337.678 386.969 323.048 388.233 323.048 383.878C323.048 381.928 326.219 380.576 331.293 380.207V377.625H336.567V380.189C339.818 380.347 342.91 380.839 345.248 381.507L342.513 384.054C339.579 383.317 335.853 382.737 333.552 382.737C331.808 382.737 330.659 383.018 330.659 383.58C330.659 385.617 345.289 384.458 345.289 388.884C345.29 391.045 341.563 392.31 336.568 392.608Z" fill="#FCC700"/>
<path d="M389.284 372.471H325.849H322.043V379.557C322.043 388.249 337.947 395.295 357.574 395.295C377.187 395.295 393.091 388.25 393.091 379.557V372.471H389.284Z" fill="#FDA859"/>
<path d="M393.101 372.464C393.101 372.561 393.101 372.644 393.087 372.741C392.769 381.309 376.976 388.202 357.57 388.202C337.943 388.202 322.039 381.157 322.039 372.464C322.039 371.509 322.233 370.568 322.62 369.654C325.596 362.304 340.115 356.726 357.569 356.726C375.009 356.726 389.542 362.304 392.518 369.654C392.864 370.471 393.058 371.329 393.085 372.187C393.101 372.284 393.101 372.367 393.101 372.464Z" fill="#FCC700"/>
<path d="M357.571 385.266C373.528 385.266 386.464 379.535 386.464 372.466C386.464 365.397 373.528 359.666 357.571 359.666C341.614 359.666 328.678 365.397 328.678 372.466C328.678 379.535 341.614 385.266 357.571 385.266Z" fill="#FDA859"/>
<path d="M360.841 377.228V379.915H355.567V377.21C351.841 376.981 348.233 376.296 345.576 375.33L348.391 372.818C351.247 373.907 355.567 374.68 358.462 374.68C360.602 374.68 361.951 374.328 361.951 373.679C361.951 371.589 347.321 372.853 347.321 368.498C347.321 366.548 350.492 365.196 355.566 364.827V362.245H360.84V364.809C364.091 364.967 367.183 365.459 369.521 366.127L366.786 368.673C363.852 367.936 360.126 367.356 357.825 367.356C356.081 367.356 354.932 367.637 354.932 368.199C354.932 370.236 369.562 369.077 369.562 373.503C369.564 375.665 365.836 376.93 360.841 377.228Z" fill="#FCC700"/>
<path d="M239.015 428.609C255.665 418.176 260.704 396.221 250.271 379.571C239.838 362.921 217.883 357.882 201.233 368.315C184.583 378.748 179.544 400.703 189.977 417.353C200.41 434.002 222.365 439.042 239.015 428.609Z" fill="#FCC700"/>
<path d="M224.914 427.005C240.67 424.341 251.283 409.408 248.619 393.652C245.956 377.896 231.023 367.283 215.267 369.947C199.511 372.611 188.898 387.543 191.562 403.299C194.225 419.055 209.158 429.668 224.914 427.005Z" fill="#FDA859"/>
<path d="M229.052 409.594L231.669 415.075L226.903 417.351L224.269 411.834C220.679 412.975 216.751 413.135 213.41 412.311L213.508 405.974C217.149 406.963 221.806 406.676 224.422 405.426C226.356 404.502 227.233 403.203 226.6 401.878C224.564 397.615 212.575 406.506 208.333 397.622C206.434 393.645 207.982 389.518 212.209 386.576L209.694 381.309L214.46 379.033L216.958 384.264C220.05 383.184 223.323 382.853 226.086 383.206L226.095 389.58C222.725 389.342 218.794 389.767 216.715 390.76C215.139 391.513 214.374 392.582 214.922 393.728C216.906 397.884 228.998 389.207 233.309 398.235C235.411 402.642 233.275 406.831 229.052 409.594Z" fill="#FCC700"/>
<path d="M411.096 115.324C389.959 94.1869 355.566 94.1869 334.43 115.324C333.221 116.533 333.221 118.494 334.43 119.703C335.639 120.912 337.599 120.912 338.809 119.703C357.532 100.98 387.995 100.98 406.718 119.703C407.927 120.912 409.888 120.912 411.097 119.703C412.306 118.493 412.305 116.533 411.096 115.324Z" fill="#C1BED7"/>
<path d="M344.167 125.06C342.958 126.269 342.958 128.23 344.167 129.439C345.376 130.648 347.337 130.648 348.546 129.439C361.9 116.085 383.628 116.085 396.982 129.439C398.191 130.648 400.151 130.648 401.361 129.439C402.57 128.23 402.57 126.269 401.361 125.06C385.593 109.292 359.936 109.292 344.167 125.06Z" fill="#C1BED7"/>
<path d="M353.961 134.855C352.752 136.064 352.752 138.025 353.961 139.234C355.17 140.443 357.13 140.443 358.34 139.234C366.293 131.281 379.233 131.281 387.187 139.234C388.396 140.443 390.356 140.443 391.566 139.234C392.775 138.025 392.775 136.064 391.566 134.855C381.198 124.487 364.329 124.487 353.961 134.855Z" fill="#C1BED7"/>
<path d="M367.979 141.828C364.634 145.173 364.634 150.597 367.979 153.943C371.324 157.288 376.748 157.288 380.094 153.943C383.439 150.598 383.439 145.174 380.094 141.828C376.748 138.483 371.324 138.483 367.979 141.828Z" fill="#C1BED7"/>
<path d="M583.388 120.166L582.071 116.267L580.754 120.166C579.058 125.186 575.536 129.384 570.887 131.927C575.536 134.469 579.058 138.668 580.754 143.688L582.071 147.587L583.388 143.688C585.084 138.668 588.606 134.469 593.255 131.927C588.606 129.384 585.084 125.186 583.388 120.166Z" fill="#FCC700"/>
<path d="M599.889 153.533L598.975 150.829L598.061 153.533C596.885 157.015 594.442 159.927 591.217 161.691C594.441 163.455 596.884 166.367 598.061 169.849L598.975 172.553L599.889 169.849C601.065 166.367 603.508 163.455 606.733 161.691C603.508 159.927 601.065 157.015 599.889 153.533Z" fill="#FCC700"/>
<path d="M589.671 213.846C588.296 218.539 585.984 222.885 583.649 227.185C583.476 225.671 582.99 224.261 582.297 222.943C580.528 219.614 577.384 216.909 574.136 214.84C570.032 212.205 565.617 210.112 562.068 206.702C557.629 202.437 555.456 196.588 554.924 190.542C554.485 185.444 554.774 179.942 557.386 175.573C557.767 174.903 558.218 174.267 558.727 173.666C559.247 173.042 559.825 172.452 560.472 171.897C560.229 172.105 560.38 172.625 560.761 173.296C561.836 175.215 564.703 178.336 565.177 178.798C568.148 181.653 571.87 183.063 575.442 184.763C581.626 187.71 587.637 192.762 589.868 199.408C591.428 204.044 591.047 209.153 589.671 213.846Z" fill="#343C4B"/>
<path d="M565.628 158.709C565.593 162.142 565.524 165.702 564.114 168.823C563.339 170.545 562.172 172.048 560.762 173.296C560.138 173.851 559.456 174.348 558.751 174.799C558.312 175.088 557.861 175.342 557.387 175.574C556.208 176.175 554.948 176.637 553.665 176.961C549.226 178.059 544.522 177.527 540.129 176.267C536.187 175.134 532.303 173.331 529.483 170.337C527.079 167.759 525.576 164.442 524.686 161.02C523.576 156.824 523.368 152.339 524.201 148.097C524.548 146.247 525.103 144.456 525.865 142.745C526.015 142.41 526.177 142.075 526.339 141.739C526.582 141.265 526.836 140.803 527.102 140.352C527.634 139.462 528.212 138.641 528.859 137.855C532.327 133.59 537.274 131.047 542.811 130.272C544.764 129.995 546.683 130.076 548.521 130.457C552.44 131.243 556.034 133.393 559.005 136.387C561.49 138.895 563.409 141.982 564.426 145.38C565.721 149.669 565.686 154.235 565.628 158.709Z" fill="#343C4B"/>
<path d="M476.14 202.824C475.455 202.454 474.588 202.57 473.897 202.928C473.205 203.286 472.652 203.856 472.11 204.415C470.708 205.864 469.305 207.314 467.903 208.763C467.693 208.98 467.476 209.207 467.373 209.491C467.096 210.254 467.791 211.089 468.582 211.271C469.373 211.453 470.19 211.18 470.955 210.91C470.256 211.67 469.438 212.432 468.739 213.192C468.6 213.343 468.452 213.519 468.468 213.723C468.485 213.941 468.679 214.097 468.867 214.209C469.952 214.856 471.354 214.939 472.507 214.424C471.95 214.968 471.517 215.568 470.96 216.112C470.769 216.299 470.56 216.537 470.619 216.797C470.665 217.001 470.862 217.132 471.046 217.231C472.354 217.931 473.949 218.073 475.36 217.614C475.578 219.811 476.385 222.062 478.481 222.755L489.021 214.639L484.319 205.543L476.14 202.824Z" fill="#FF7D6F"/>
<path d="M475.99 203.781C475.99 203.781 480.683 208.162 482.579 208.277C482.579 208.277 480.186 216.692 482.336 219.778L486.971 216.206L489.017 214.634C489.017 214.634 487.803 205.884 486.428 204.566C485.064 203.248 472.765 198.37 472.546 198.509C472.511 198.521 472.465 198.613 472.407 198.74V198.752C472.083 199.62 471.725 202.498 475.99 203.781Z" fill="#FFA07F"/>
<path d="M468.413 197.199L483.376 208.721L482.255 211.322L466.82 198.837L468.413 197.199Z" fill="#343C4B"/>
<path d="M484.088 218.438C484.088 218.438 481.136 208.628 480.664 208.317C480.192 208.006 478.158 204.169 477.174 203.853C476.19 203.536 474.299 204.079 474.178 204.996C474.057 205.913 475.741 208.966 475.741 208.966C475.741 208.966 477.638 216.761 477.808 217.578C477.979 218.394 478.48 222.757 478.48 222.757L484.088 218.438Z" fill="#FFA07F"/>
<path d="M478.475 222.762C478.475 222.762 478.891 224.161 480.556 225.467C482.209 226.773 484.683 228.461 484.683 228.461L490.659 223.525L492.104 222.334L490.139 219.779L489.018 214.635L486.972 216.207L482.337 219.779L478.475 222.762Z" fill="#FFA07F"/>
<path d="M472.408 198.742V198.754C475.899 200.661 484.938 205.609 485.296 205.747C485.585 205.862 486.417 211.885 486.972 216.208C487.284 218.635 487.515 220.531 487.515 220.531L490.659 223.525L492.104 222.334L490.139 219.779L489.018 214.635C489.018 214.635 487.804 205.885 486.429 204.567C485.065 203.249 472.766 198.371 472.547 198.51C472.512 198.522 472.465 198.614 472.408 198.742Z" fill="#FFBF90"/>
<path d="M529.567 427.01H541.922C541.922 427.01 547.253 374.336 546.306 369.452C545.837 367.027 544.971 363.81 544.059 360.694L525.064 361.571C526.882 379.288 529.567 427.01 529.567 427.01Z" fill="#FFA07F"/>
<path d="M585.319 421.021C585.319 421.021 582.961 377.031 582.664 373.116C582.357 369.041 579.375 361.703 576.705 355.83L559.1 360.525C562.894 372.089 572.812 422.451 572.812 422.451L585.319 421.021Z" fill="#FFA07F"/>
<path d="M503.992 441.888C504.113 441.14 504.468 440.268 505.421 439.844C508.202 438.605 518.408 434.768 521.176 432.575C523.325 430.872 525.223 427.16 525.964 425.586L544.927 426.58C546.012 431.517 546.703 441.025 546.84 443.015L503.992 441.888Z" fill="#456997"/>
<path d="M503.863 446.199L546.711 447.326L546.84 443.015L503.991 441.888L503.863 446.199Z" fill="white"/>
<path d="M524.749 433.877C524.778 433.927 524.805 433.978 524.832 434.029C525.03 434.412 525.148 434.996 524.644 435.21C524.387 435.319 524.093 435.277 523.821 435.217C522.884 435.009 522.027 434.58 521.211 434.087C520.333 433.556 519.398 432.982 518.841 432.09C518.265 431.167 519.116 430.342 520.13 430.58C521.882 430.991 523.842 432.275 524.749 433.877Z" fill="white"/>
<path d="M521.463 436.102C521.492 436.152 521.519 436.203 521.545 436.254C521.743 436.637 521.861 437.221 521.357 437.435C521.1 437.544 520.806 437.502 520.534 437.442C519.597 437.234 518.74 436.805 517.924 436.312C517.046 435.781 516.111 435.207 515.554 434.315C514.978 433.392 515.829 432.567 516.843 432.805C518.596 433.216 520.556 434.5 521.463 436.102Z" fill="white"/>
<path d="M517.451 437.52C517.48 437.57 517.507 437.621 517.533 437.672C517.731 438.055 517.849 438.639 517.345 438.853C517.088 438.962 516.794 438.92 516.522 438.86C515.585 438.652 514.728 438.223 513.912 437.73C513.034 437.199 512.099 436.625 511.542 435.733C510.966 434.81 511.817 433.985 512.831 434.223C514.583 434.634 516.544 435.918 517.451 437.52Z" fill="white"/>
<path d="M566.684 447.098C566.684 448.826 579.989 452.281 582.533 452.062C585.068 451.851 594.365 445.159 594.365 445.159C594.365 445.159 593.996 443.791 593.418 441.668C591.796 435.748 588.463 423.995 586.516 419.75L571.546 421.787C570.75 424.28 568.132 436.985 567.378 441.774C566.973 444.352 566.684 446.492 566.684 447.098Z" fill="#456997"/>
<path d="M594.363 445.161C594.363 445.161 585.064 451.85 582.528 452.066C579.992 452.279 566.682 448.828 566.682 447.101C566.682 446.496 566.969 444.355 567.375 441.773C571.707 443.507 580.984 446.94 584.044 445.817C586.12 445.054 590.071 443.243 593.418 441.666C594 443.79 594.363 445.161 594.363 445.161Z" fill="white"/>
<path d="M582.501 432.047C582.553 432.07 582.605 432.093 582.656 432.118C583.04 432.302 583.479 432.696 583.203 433.176C583.062 433.421 582.803 433.568 582.55 433.687C581.679 434.097 580.742 434.281 579.799 434.389C578.785 434.505 577.7 434.622 576.729 434.252C575.725 433.87 575.918 432.687 576.867 432.255C578.509 431.506 580.832 431.326 582.501 432.047Z" fill="white"/>
<path d="M582.501 435.786C582.553 435.809 582.605 435.832 582.656 435.857C583.04 436.041 583.479 436.435 583.203 436.915C583.062 437.16 582.803 437.307 582.55 437.426C581.679 437.836 580.742 438.02 579.799 438.128C578.785 438.244 577.7 438.361 576.729 437.991C575.725 437.608 575.918 436.426 576.867 435.994C578.509 435.246 580.832 435.065 582.501 435.786Z" fill="white"/>
<path d="M582.86 439.21C582.912 439.233 582.964 439.256 583.016 439.281C583.4 439.465 583.839 439.859 583.563 440.339C583.422 440.584 583.163 440.731 582.91 440.85C582.039 441.26 581.102 441.444 580.159 441.552C579.145 441.668 578.06 441.785 577.089 441.415C576.085 441.032 576.278 439.85 577.227 439.418C578.869 438.669 581.191 438.489 582.86 439.21Z" fill="white"/>
<path d="M589.914 402.294L518.652 406.536C518.652 406.536 518.351 403.623 517.889 399.023C516.525 385.464 513.797 357.202 513.462 345.678C512.976 329.437 515.427 281.12 515.427 281.12L564.334 280.6L570.264 280.542L572.217 286.946L574.136 319.843C574.136 319.843 585.672 356.832 585.314 360.693C584.967 364.565 589.914 402.294 589.914 402.294Z" fill="#414C5B"/>
<path d="M589.914 402.294L518.652 406.536C518.652 406.536 518.351 403.623 517.889 399.023L580.528 393.856C580.528 393.856 579.511 370.31 576.413 360.693C573.327 351.076 564.935 320.999 564.935 320.999L564.334 280.6L570.264 280.542L572.217 286.946L574.136 319.843C574.136 319.843 585.672 356.832 585.314 360.693C584.967 364.565 589.914 402.294 589.914 402.294Z" fill="#343C4B"/>
<path d="M610.107 188.476C610.107 188.476 608.521 184.719 606.498 184.575C604.475 184.43 607.365 194.113 607.365 194.113L610.107 188.476Z" fill="#FFA07F"/>
<path d="M611.998 211.121L620.297 203.069L610.743 195.484L607.944 204.023L605.475 206.777L611.998 211.121Z" fill="#FFA07F"/>
<path d="M630.631 184.77C629.919 180.768 620.842 174.632 619.574 174.79C618.307 174.948 604.018 193.64 603.86 195.7C603.702 197.759 612.388 205.464 614.79 205.454C616.019 205.169 631.264 188.334 630.631 184.77Z" fill="#456997"/>
<path d="M620.297 203.069C620.297 203.069 623.091 201.817 621.983 199.746C620.875 197.675 618.483 195.46 617.632 196.037C616.781 196.615 617.632 203.016 617.632 203.016L620.297 203.069Z" fill="#FFA07F"/>
<path d="M622.242 201.143C622.242 201.143 625.584 199.217 624.477 197.146C623.369 195.075 620.977 192.86 620.126 193.437C619.275 194.015 620.126 200.416 620.126 200.416L622.242 201.143Z" fill="#FFA07F"/>
<path d="M624.506 198.012C624.506 198.012 627.848 196.086 626.741 194.015C625.633 191.944 623.241 189.729 622.39 190.306C621.539 190.884 622.39 197.285 622.39 197.285L624.506 198.012Z" fill="#FFA07F"/>
<path d="M626.741 194.014C626.741 194.014 630.215 190.794 629.851 189.27C629.487 187.746 627.016 185.802 626.366 186.308C625.716 186.814 626.966 191.924 626.966 191.924L625.924 193.343L626.741 194.014Z" fill="#FFA07F"/>
<path d="M606.177 191.221C605.854 191.949 612.465 197.579 613.587 197.717C614.616 197.856 624.256 186.932 626.036 184.898L626.059 184.875C626.232 184.678 626.325 184.574 626.325 184.574C626.325 184.574 617.806 176.772 617.228 176.922C617.112 176.945 616.604 177.523 615.864 178.436C612.939 181.985 606.431 190.655 606.177 191.221Z" fill="#DFDEEE"/>
<path d="M615.863 178.437L624.706 186.089L626.035 184.898L626.058 184.875C626.231 184.678 626.324 184.574 626.324 184.574C626.324 184.574 617.805 176.772 617.227 176.922C617.112 176.945 616.603 177.523 615.863 178.437Z" fill="#C1BED7"/>
<path d="M606.177 191.221C605.854 191.949 612.465 197.579 613.587 197.717C614.165 197.798 617.413 194.423 620.488 191.082L612.131 183.176C611.911 183.453 611.692 183.742 611.472 184.031C611.137 184.47 610.813 184.886 610.478 185.326V185.337C610.351 185.499 610.235 185.661 610.108 185.823C609.773 186.274 609.437 186.713 609.125 187.129C608.998 187.302 608.871 187.464 608.755 187.626C608.397 188.1 608.073 188.551 607.784 188.944C607.657 189.117 607.53 189.279 607.414 189.441C607.01 189.996 606.686 190.458 606.466 190.77C606.304 191.001 606.2 191.163 606.177 191.221Z" fill="#C1BED7"/>
<path d="M625.065 180.384L620.673 176.917L620.08 177.603L624.489 180.962L625.065 180.384Z" fill="#698BB1"/>
<path d="M615.518 190.079L617.604 192.027L618.713 190.839L616.627 188.891L615.518 190.079Z" fill="#DFDEEE"/>
<path d="M612.922 187.629L615.008 189.577L616.118 188.389L614.032 186.441L612.922 187.629Z" fill="#DFDEEE"/>
<path d="M610.479 185.326V185.337L612.41 187.129L613.52 185.95L611.474 184.031C611.137 184.47 610.814 184.887 610.479 185.326Z" fill="#DFDEEE"/>
<path d="M613.992 191.715L616.078 193.663L617.187 192.475L615.101 190.527L613.992 191.715Z" fill="#DFDEEE"/>
<path d="M611.379 189.275L613.465 191.223L614.574 190.035L612.488 188.087L611.379 189.275Z" fill="#DFDEEE"/>
<path d="M609.125 187.129L610.882 188.77L611.992 187.579L610.108 185.822C609.772 186.274 609.437 186.713 609.125 187.129Z" fill="#DFDEEE"/>
<path d="M612.461 193.353L614.547 195.301L615.656 194.113L613.57 192.165L612.461 193.353Z" fill="#DFDEEE"/>
<path d="M609.848 190.912L611.934 192.86L613.043 191.672L610.957 189.724L609.848 190.912Z" fill="#DFDEEE"/>
<path d="M607.783 188.944L609.355 190.412L610.465 189.221L608.754 187.626C608.396 188.1 608.072 188.551 607.783 188.944Z" fill="#DFDEEE"/>
<path d="M610.934 194.989L613.02 196.937L614.129 195.748L612.043 193.8L610.934 194.989Z" fill="#FCC700"/>
<path d="M608.32 192.549L610.406 194.497L611.515 193.309L609.429 191.361L608.32 192.549Z" fill="#DFDEEE"/>
<path d="M606.467 190.77L607.831 192.041L608.941 190.85L607.415 189.44C607.01 189.996 606.686 190.458 606.467 190.77Z" fill="#FD7658"/>
<path d="M613.194 199.999L611.086 198.156L609.951 199.507L611.998 201.299L613.194 199.999Z" fill="#FD7658"/>
<path d="M610.304 197.514L608.196 195.672L607.061 197.022L609.108 198.814L610.304 197.514Z" fill="#FCC700"/>
<path d="M607.786 195.186L605.678 193.343L604.543 194.693L606.589 196.486L607.786 195.186Z" fill="#0CC3BE"/>
<path d="M629.58 184.573C629.58 184.573 627 184.683 626.321 185.297C625.642 185.911 615.492 197.831 615.348 198.156C615.203 198.481 614.917 204.029 614.536 204.163C614.155 204.297 613.783 197.664 613.783 197.664C613.783 197.664 625.266 184.286 626.321 184.177C627.377 184.069 630.339 184.138 629.58 184.573Z" fill="#254F79"/>
<path d="M616.338 186.178L615.986 186.562L615.652 186.255L616.007 185.869C615.801 185.62 615.663 185.312 615.621 185.02L616.129 184.825C616.166 185.147 616.339 185.508 616.522 185.676C616.657 185.801 616.789 185.829 616.874 185.736C617.148 185.437 616.057 184.768 616.629 184.146C616.885 183.868 617.263 183.859 617.632 184.101L617.971 183.732L618.305 184.039L617.968 184.405C618.153 184.616 618.284 184.866 618.345 185.098L617.838 185.303C617.749 185.027 617.589 184.728 617.444 184.594C617.334 184.493 617.224 184.466 617.15 184.546C616.883 184.837 617.96 185.522 617.379 186.154C617.094 186.462 616.693 186.426 616.338 186.178Z" fill="#343C4B"/>
<path d="M619.026 186.337C619.114 186.242 619.091 186.12 618.963 186.002C618.82 185.871 618.561 185.79 618.272 185.778L618.41 185.281C618.788 185.323 619.126 185.448 619.381 185.683C619.737 186.01 619.825 186.433 619.569 186.712C619.394 186.903 619.066 186.967 618.689 186.985L617.996 187.014L618.748 187.705L618.409 188.074L617.07 186.843L617.346 186.537L618.589 186.467C618.781 186.458 618.957 186.412 619.026 186.337Z" fill="#343C4B"/>
<path d="M620.31 187.748C620.724 188.128 620.792 188.593 620.504 188.907C620.163 189.278 619.658 189.258 619.224 188.86C618.988 188.643 618.798 188.307 618.73 187.999L619.24 187.811C619.244 188.083 619.336 188.306 619.496 188.453C619.674 188.616 619.848 188.629 619.98 188.486C620.102 188.353 620.071 188.186 619.895 188.024C619.802 187.939 619.511 187.676 619.394 187.583L620.316 186.58L621.497 187.665L621.156 188.036L620.396 187.338L620.149 187.606C620.19 187.637 620.275 187.716 620.31 187.748Z" fill="#343C4B"/>
<path d="M625.065 184.412L620.785 180.619L620.279 181.161L624.541 184.99L625.065 184.412Z" fill="#DFDEEE"/>
<path d="M508.638 226.775C507.322 223.012 505.05 216.418 500.049 216.836C495.15 217.245 491.405 223.389 489.598 227.354C486.481 234.196 486.199 241.843 485.936 249.23C485.892 250.47 487.818 250.412 487.862 249.177C488.057 243.709 488.242 238.171 489.68 232.861C491.035 227.859 494.684 219.053 500.631 219.315C503.441 219.438 503.39 220.24 504.663 222.493C505.399 223.795 505.987 225.201 506.519 226.597C507.365 228.819 507.956 231.143 508.381 233.481C509.326 238.677 509.329 243.987 509.089 249.244C509.033 250.483 510.959 250.425 511.015 249.191C511.358 241.684 511.145 233.944 508.638 226.775Z" fill="#343C4B"/>
<path d="M572.212 286.946C565.327 281.848 517.884 287.422 517.884 287.422C517.884 287.422 516.952 285.247 515.427 281.12C515.281 280.722 515.213 280.198 515.213 279.586C515.213 273.828 521.068 259.758 521.068 259.758C520.563 249.999 518.679 240.561 518.378 238.755C517.737 234.871 513.63 213.839 516.329 208.333C517.689 205.585 520.806 200.895 523.592 196.895C526.379 192.904 528.826 189.593 528.826 189.593L539.429 183.816L551.101 184.243L558.374 187.952C558.374 187.952 558.383 187.962 558.413 187.971L566.579 192.146C566.579 192.146 566.88 196.428 567.278 203.235C567.87 213.266 568.676 228.783 569.036 244.173C569.172 249.456 569.24 254.728 569.24 259.758C569.24 259.768 573.27 269.954 573.998 273.595C574.727 277.226 572.212 286.946 572.212 286.946Z" fill="#0CC3BE"/>
<path d="M553.383 185.416C553.383 185.416 542.67 187.582 541.075 186.897C539.479 186.221 537.291 185.104 537.291 185.104C537.65 184.705 540.125 180.959 540.07 179.687C539.94 176.755 539.075 172.634 539.075 172.634L549.033 169.751C549.033 169.751 549.298 172.572 549.716 175.565C550.136 178.597 552.785 184.926 553.383 185.416Z" fill="#FFA07F"/>
<path d="M538.662 183.019L529.914 188.999C529.914 188.999 532.109 197.841 535.339 196.685C538.569 195.529 542.157 191.339 542.157 191.339C542.157 191.339 545.605 199.142 549.239 198.708C552.873 198.274 558.375 187.95 558.375 187.95L552.484 183.813C552.484 183.813 540.923 190.592 538.662 183.019Z" fill="white"/>
<path d="M549.713 175.561C546.922 177.435 543.498 179.648 542.399 179.962C541.502 180.216 540.688 179.996 540.072 179.687C539.937 176.752 539.072 172.636 539.072 172.636L549.03 169.753C549.03 169.753 549.299 172.578 549.713 175.561Z" fill="#FF7D6F"/>
<path d="M555.797 142.572C550.733 136.158 541.824 133.863 534.552 137.592C532.88 138.449 531.528 139.45 530.885 140.593C528.316 145.168 524.128 162.263 527.291 170.738C530.455 179.213 536.143 178.357 538.178 177.873C540.213 177.389 549.834 173.93 552.167 170.964C554.499 167.999 559.963 152.368 559.128 148.182C558.849 146.786 557.487 144.713 555.797 142.572Z" fill="#FFBF90"/>
<path d="M556.502 141.36C551.438 134.946 542.529 132.652 535.257 136.38C533.585 137.237 532.234 138.238 531.591 139.381C529.022 143.956 524.832 161.051 527.996 169.526C531.16 178.001 536.848 177.145 538.883 176.661C540.918 176.177 550.539 172.717 552.872 169.752C555.204 166.787 560.668 151.156 559.833 146.97C559.554 145.574 558.192 143.501 556.502 141.36Z" fill="#FFA07F"/>
<path d="M562.403 160.986C562.264 161.344 562.114 161.703 561.952 162.061C559.629 160.258 555.93 160.558 553.93 162.732C552.994 159.149 553.711 155.172 555.849 152.155C552.532 150.259 549.885 147.208 548.474 143.648C545.388 146.179 541.307 147.451 537.331 147.151C538.637 145.394 539.493 143.313 539.793 141.152C535.343 144.816 529.887 147.232 524.2 148.099C522.813 148.319 521.403 148.446 519.992 148.469C520.535 146.4 521.298 144.273 522.269 142.204C525.321 135.777 530.488 130.009 537.666 129.119C541.261 128.68 545.041 129.188 548.52 130.46C551.78 131.651 554.797 133.523 557.166 135.916C563.501 142.329 565.605 152.571 562.403 160.986Z" fill="#343C4B"/>
<path d="M589.742 213.58C589.719 213.673 589.696 213.753 589.673 213.846C588.298 218.539 585.986 222.885 583.651 227.185C583.478 225.671 582.992 224.261 582.299 222.943C584.518 217.753 585.42 211.996 584.645 206.39C583.466 208.008 582.287 209.615 581.119 211.233C581.35 205.153 578.714 199.281 575.096 194.391C571.489 189.501 566.924 185.421 562.635 181.121C560.855 179.329 559.018 177.214 558.752 174.798C558.694 174.428 558.683 174.047 558.729 173.665V173.63C559.064 170.255 562.601 167.885 563.006 164.522C563.156 163.297 562.867 162.129 562.405 160.985C561.839 159.575 560.995 158.211 560.359 156.835C559.192 154.338 558.995 150.732 561.422 149.437C555.446 148.061 550.533 142.871 549.504 136.837C546.718 137.912 543.921 138.998 541.135 140.073C541.644 138.12 542.14 136.166 542.648 134.201C538.001 138.096 532.304 140.697 526.339 141.737C524.998 141.98 523.634 142.13 522.27 142.199C523.773 139.02 525.807 136.015 528.327 133.657C530.916 131.264 534.037 129.565 537.667 129.114C540.291 128.79 543.008 128.975 545.631 129.588C545.92 129.657 546.198 129.727 546.475 129.808C547.168 129.993 547.85 130.212 548.521 130.455C550.012 130.756 551.444 131.241 552.82 131.912C553.097 132.039 553.376 132.189 553.653 132.34C555.583 133.38 557.387 134.756 559.005 136.386C561.49 138.894 563.409 141.981 564.426 145.379C564.472 145.518 564.507 145.668 564.541 145.807C564.853 146.882 565.073 147.968 565.223 149.067C565.697 152.234 565.674 155.494 565.627 158.707C565.592 162.14 565.523 165.7 564.113 168.821C563.674 169.803 563.107 170.705 562.437 171.537C561.928 172.173 561.373 172.751 560.76 173.294C561.835 175.213 564.703 178.334 565.177 178.796C565.674 179.27 566.194 179.709 566.726 180.114C569.385 182.125 572.471 183.35 575.442 184.761C581.626 187.708 587.637 192.76 589.868 199.406C591.394 203.951 591.059 208.956 589.742 213.58Z" fill="#414C5B"/>
<path d="M545.632 129.591C540.569 132.885 534.327 134.33 528.328 133.66C530.917 131.267 534.038 129.568 537.668 129.117C540.291 128.794 543.008 128.979 545.632 129.591Z" fill="#495969"/>
<path d="M548.521 130.458C550.012 130.759 551.445 131.244 552.821 131.915C550.139 133.522 547.041 134.423 543.92 134.481C544.775 132.92 545.619 131.372 546.475 129.811C547.168 129.996 547.85 130.215 548.521 130.458Z" fill="#495969"/>
<path d="M564.541 145.809C561.524 145.173 558.611 144.064 556.357 141.983C553.768 139.567 552.45 135.544 553.652 132.343C555.582 133.383 557.386 134.759 559.004 136.389C561.489 138.897 563.408 141.984 564.425 145.382C564.472 145.52 564.507 145.67 564.541 145.809Z" fill="#495969"/>
<path d="M565.224 149.068C565.698 152.235 565.675 155.495 565.628 158.708C565.593 162.141 565.524 165.701 564.114 168.822C563.675 169.804 563.108 170.706 562.438 171.538C562.311 170.694 562.276 169.839 562.346 168.972C562.566 166.394 563.675 163.979 564.034 161.412C564.427 158.719 563.965 155.968 564.149 153.24C564.241 151.819 564.576 150.328 565.224 149.068Z" fill="#495969"/>
<path d="M589.742 213.58C590.042 207.789 589.395 201.94 587.719 199.871C586.806 200.669 585.881 201.466 584.956 202.264C584.794 197.617 581.881 193.502 578.483 190.323C575.085 187.156 571.108 184.624 567.837 181.318C567.455 180.937 567.086 180.532 566.727 180.116C569.386 182.127 572.472 183.352 575.443 184.763C581.627 187.71 587.638 192.762 589.869 199.408C591.394 203.951 591.059 208.956 589.742 213.58Z" fill="#495969"/>
<path d="M537.363 162.103C537.798 162.056 538.25 161.937 538.662 162.084C538.004 162.944 536.995 163.528 535.922 163.671C535.839 163.682 535.754 163.691 535.673 163.668C535.575 163.64 535.495 163.569 535.422 163.497C534.959 163.046 534.586 162.502 534.331 161.907C534.28 161.786 534.232 161.66 534.234 161.529C534.239 161.095 534.498 161.254 534.718 161.411C534.973 161.592 535.252 161.74 535.543 161.854C536.119 162.079 536.748 162.169 537.363 162.103Z" fill="#FF7D6F"/>
<path d="M535.892 163.414C535.697 163.129 535.463 162.87 535.261 162.589C535.011 162.242 534.789 161.875 534.611 161.486C536.17 160.897 536.5 159.502 536.826 157.908C536.973 157.189 536.948 156.438 536.755 155.73C536.654 155.358 536.508 154.999 536.32 154.662C536.225 154.491 536.118 154.326 536.003 154.168C535.89 154.014 535.759 153.911 535.605 153.798C535.664 153.912 535.693 154.035 535.743 154.15C535.875 154.45 536.019 154.735 536.119 155.049C536.219 155.363 536.291 155.686 536.336 156.012C536.426 156.664 536.409 157.334 536.273 157.979C536.14 158.612 535.891 159.222 535.517 159.751C535.09 160.354 534.462 160.903 533.758 161.142C533.752 161.144 534.407 162.428 534.475 162.537C534.652 162.817 534.854 163.081 535.083 163.32C535.307 163.554 535.564 163.83 535.893 163.897C535.996 163.918 536.106 163.921 536.204 163.883C536.157 163.832 536.115 163.777 536.079 163.718C536.063 163.692 536.048 163.666 536.033 163.64C535.989 163.562 535.942 163.487 535.892 163.414Z" fill="#FC5B68"/>
<path d="M553.511 162.428C554.026 162.214 556.738 159.025 558.41 161.142C560.082 163.26 560.38 166.626 558.599 168.41C556.973 170.038 554.738 171.769 552.168 170.965L553.511 162.428Z" fill="#FFA07F"/>
<path d="M558.216 163.691C558.295 164.143 558.198 164.601 558.032 165.032C557.329 166.861 555.486 168.174 553.725 169.39C554.288 168.517 554.539 167.507 554.499 166.505C554.485 166.156 554.437 165.808 554.456 165.46C554.532 164.059 557.749 161.021 558.216 163.691Z" fill="#FF7D6F"/>
<path d="M552.85 169.867C552.85 169.867 552.884 169.849 552.949 169.816C553.012 169.781 553.114 169.735 553.23 169.662C553.465 169.517 553.792 169.28 554.108 168.919C554.423 168.559 554.719 168.071 554.883 167.48C555.034 166.891 555.055 166.195 554.796 165.506C554.769 165.419 554.73 165.336 554.689 165.253L554.659 165.191C554.652 165.175 554.655 165.184 554.655 165.184V165.186L554.653 165.185C554.653 165.185 554.651 165.188 554.658 165.176L554.689 165.124L554.752 165.021C554.795 164.954 554.838 164.886 554.882 164.821C555.058 164.558 555.245 164.312 555.436 164.084C555.627 163.857 555.824 163.648 556.017 163.459C556.212 163.271 556.398 163.095 556.581 162.968C556.763 162.839 556.96 162.761 557.14 162.747C557.32 162.737 557.487 162.791 557.597 162.858C557.709 162.927 557.767 163.009 557.79 163.069C557.815 163.129 557.811 163.165 557.814 163.165C557.811 163.165 557.825 163.132 557.815 163.065C557.807 162.999 557.767 162.898 557.658 162.8C557.549 162.705 557.376 162.61 557.14 162.589C556.903 162.572 556.643 162.64 556.407 162.762C556.168 162.885 555.951 163.044 555.722 163.219C555.494 163.396 555.262 163.596 555.037 163.822C554.812 164.048 554.593 164.297 554.391 164.571C554.34 164.639 554.292 164.709 554.243 164.78L554.171 164.888L554.076 165.041L554.01 165.148C554.023 165.186 554.044 165.224 554.061 165.262L554.136 165.426C554.17 165.498 554.205 165.57 554.227 165.645C554.452 166.242 554.472 166.854 554.388 167.396C554.292 167.938 554.089 168.412 553.855 168.783C553.62 169.155 553.36 169.426 553.167 169.603C553.071 169.693 552.986 169.753 552.933 169.799C552.879 169.844 552.85 169.867 552.85 169.867Z" fill="#CF4A57"/>
<path d="M528.943 149.087C528.943 149.087 531.528 147.303 533.072 147.533C534.616 147.763 535.008 149.212 534.382 149.462C533.756 149.713 528.943 149.087 528.943 149.087Z" fill="#343C4B"/>
<path d="M550.756 152.664C550.756 152.664 547.343 149.327 544.958 148.741C542.573 148.156 541.597 149.516 542.473 150.127C543.349 150.739 550.756 152.664 550.756 152.664Z" fill="#343C4B"/>
<path d="M543.859 163.331C543.918 164.074 545.557 164.551 547.52 164.396C549.483 164.241 551.027 163.513 550.969 162.769C550.91 162.026 549.271 161.549 547.308 161.704C545.345 161.86 543.801 162.588 543.859 163.331Z" fill="#FF7D6F"/>
<path d="M525.057 158.545C524.79 159.042 525.788 160.099 527.287 160.905C528.786 161.711 530.218 161.96 530.485 161.463C530.752 160.965 529.754 159.909 528.255 159.103C526.756 158.298 525.325 158.048 525.057 158.545Z" fill="#FF7D6F"/>
<path d="M549.114 154.724C548.732 155.279 547.823 155.568 547.201 155.707C546.993 155.312 546.691 155.035 546.313 154.945C545.35 154.717 544.273 155.785 543.906 157.331C543.539 158.877 544.023 160.315 544.985 160.544C545.948 160.772 547.025 159.704 547.392 158.158C547.505 157.679 547.537 157.211 547.499 156.786C548.388 156.314 549.114 154.724 549.114 154.724Z" fill="#343C4B"/>
<path d="M533.399 167.086L545.051 166.479C545.051 166.479 543.859 172.399 538.663 172.366C532.283 172.326 533.399 167.086 533.399 167.086Z" fill="white"/>
<path d="M529.695 151.892C529.787 152.426 530.355 152.945 530.762 153.255C531.047 153.036 531.362 152.935 531.668 152.997C532.449 153.155 532.877 154.299 532.624 155.553C532.371 156.807 531.533 157.696 530.752 157.538C529.971 157.38 529.543 156.236 529.796 154.982C529.874 154.594 530.009 154.241 530.18 153.943C529.691 153.299 529.695 151.892 529.695 151.892Z" fill="#343C4B"/>
<path d="M531.147 155.422C531.147 155.422 530.301 155.53 529.621 155.095C528.941 154.66 528.684 153.847 528.684 153.847C528.684 153.847 529.53 153.739 530.21 154.173C530.89 154.608 531.147 155.422 531.147 155.422Z" fill="white"/>
<path d="M545.643 157.951C545.643 157.951 546.541 158.513 547.534 158.376C548.527 158.239 549.24 157.455 549.24 157.455C549.24 157.455 548.342 156.893 547.349 157.03C546.355 157.167 545.643 157.951 545.643 157.951Z" fill="white"/>
<path d="M492.919 218.489L482.602 228.927L486.023 233.175C486.023 233.175 488.186 240.7 491.463 246.284C494.74 251.867 507.363 251.856 511.611 251.128L522.049 261.456L531.638 194.699L528.827 189.595C528.827 189.595 520.35 194.699 519.985 196.155C519.621 197.611 510.518 226.135 510.882 226.863C511.246 227.591 504.328 220.789 501.779 220.063C499.23 219.338 494.982 220.063 494.982 220.063L492.919 218.489Z" fill="#0CC3BE"/>
<path d="M522.204 203.218C522.489 202.532 521.371 202.232 521.089 202.911C516.556 213.814 511.745 227.486 520.335 237.725C520.157 242.641 520.227 247.547 520.551 252.456C520.6 253.194 521.756 253.2 521.707 252.456C521.376 247.447 521.306 242.442 521.498 237.425C521.509 237.144 521.35 236.97 521.148 236.902C512.881 227.024 517.865 213.652 522.204 203.218Z" fill="#0797A7"/>
<path d="M495.805 222.417C495.766 222.208 495.448 222.12 495.31 222.287C494.879 222.81 494.561 223.416 494.273 224.047C494.226 224.021 494.178 223.995 494.131 223.968C493.617 223.669 493.1 223.401 492.563 223.146C492.123 222.936 491.812 223.5 492.188 223.788C492.661 224.151 493.137 224.49 493.638 224.812C493.716 224.862 493.793 224.914 493.87 224.966C493.707 225.347 493.541 225.727 493.356 226.097C493.182 225.997 493.008 225.902 492.857 225.812C492.291 225.472 491.708 225.189 491.103 224.927C490.673 224.741 490.313 225.306 490.728 225.569C491.28 225.92 491.827 226.282 492.371 226.645C492.529 226.75 492.685 226.871 492.842 226.99C492.793 227.064 492.75 227.141 492.698 227.213C492.448 227.559 492.174 227.886 491.89 228.205C491.654 227.993 491.315 227.849 491.071 227.704C490.57 227.407 490.104 227.065 489.666 226.681C489.229 226.298 488.594 226.917 489.022 227.325C489.48 227.762 489.973 228.162 490.501 228.511C490.7 228.643 490.944 228.817 491.199 228.929C490.695 229.417 490.157 229.872 489.592 230.291C489.459 230.044 489.177 229.914 488.917 229.732C488.473 229.421 488.028 229.11 487.584 228.798C487.195 228.526 486.849 229.151 487.216 229.427C487.626 229.735 488.035 230.042 488.445 230.349C488.627 230.486 488.796 230.645 488.982 230.745C488.474 231.086 487.951 231.401 487.413 231.68C487.21 231.785 487.35 232.132 487.571 232.054C489.879 231.243 491.786 229.962 493.356 228.07C494.05 227.234 494.615 226.304 495.185 225.382C495.671 224.596 495.982 223.365 495.805 222.417Z" fill="#0797A7"/>
<path d="M512.476 229.831C512.205 229.272 511.866 228.561 511.147 228.558C510.353 228.553 510.042 229.419 509.743 230.011C509.182 231.123 508.64 232.246 508.089 233.363C507.832 233.885 508.601 234.345 508.875 233.822C509.222 233.161 509.568 232.5 509.915 231.838C510.138 231.412 510.712 229.835 511.155 229.818C511.53 229.803 511.542 230.154 511.688 230.486C511.825 230.798 511.956 231.112 512.101 231.421C512.353 231.96 512.544 232.455 513.046 232.783C513.234 232.905 513.422 232.737 513.445 232.554C513.562 231.66 512.858 230.618 512.476 229.831Z" fill="#0797A7"/>
<path d="M521.329 248.857L524.627 294.126L525.225 302.434C516.789 304.332 508.198 305.261 499.614 305.191C491.022 305.132 482.45 304.09 474.037 302.069L474.246 299.646L478.701 248.546L516.091 248.819L521.329 248.857Z" fill="#FCC700"/>
<path d="M521.329 248.857L524.627 294.126L525.225 302.434C516.789 304.332 508.198 305.261 499.614 305.191C491.022 305.132 482.45 304.09 474.037 302.069L474.246 299.646C486.509 301.792 499.97 298.618 508.021 289.27C513.225 283.234 515.745 275.26 516.503 267.325C517.088 261.173 516.698 254.99 516.092 248.818L521.329 248.857Z" fill="#FDA859"/>
<path d="M508.634 226.778C508.372 226.021 508.071 225.156 507.712 224.253C506.304 220.651 504.051 216.504 500.051 216.835C498.012 217 496.167 218.175 494.584 219.758L494.982 220.069C494.982 220.069 496.419 219.826 498.119 219.758C498.905 219.438 499.741 219.272 500.634 219.311C502.887 219.408 503.304 219.952 504.033 221.331C504.218 221.671 504.412 222.049 504.664 222.496C505.402 223.797 505.994 225.205 506.519 226.594C507.364 228.818 507.956 231.138 508.384 233.479C509.326 238.674 509.336 243.985 509.093 249.248C509.035 250.481 510.967 250.423 511.016 249.19C511.362 241.683 511.149 233.944 508.634 226.778Z" fill="#343C4B"/>
<path d="M488.128 169.867L499.323 175.09L486.129 193.716L488.128 169.867Z" fill="white"/>
<path d="M504.43 185.4L506.373 192.321L493.148 193.566L504.43 185.4Z" fill="white"/>
<path d="M473.84 175.516L480.56 172.96L482.985 186.02L473.84 175.516Z" fill="white"/>
<path d="M541.778 200.637C541.742 201.656 540.887 202.452 539.869 202.416C538.85 202.38 538.054 201.525 538.089 200.507C538.125 199.488 538.98 198.692 539.998 198.727C541.017 198.763 541.813 199.618 541.778 200.637Z" fill="white"/>
<path d="M541.488 208.842C541.452 209.861 540.597 210.657 539.579 210.621C538.56 210.585 537.764 209.73 537.8 208.712C537.836 207.693 538.691 206.897 539.709 206.932C540.727 206.968 541.524 207.823 541.488 208.842Z" fill="white"/>
<path d="M541.778 217.111C541.742 218.13 540.887 218.926 539.869 218.891C538.85 218.855 538.054 218 538.089 216.982C538.125 215.963 538.98 215.167 539.998 215.202C541.017 215.237 541.813 216.092 541.778 217.111Z" fill="white"/>
<path d="M565.55 276.913C561.955 276.175 558.294 275.676 554.643 275.325C546.694 274.562 538.702 274.694 530.773 275.611C530.043 275.695 530.034 276.852 530.773 276.767C537.079 276.038 543.422 275.795 549.764 276.122C553.15 276.297 556.53 276.623 559.885 277.112C561.499 277.347 563.107 277.619 564.709 277.926C565.215 278.023 566.447 278.047 566.825 278.426C567.559 278.512 567.534 278.767 566.752 279.19C566.371 279.859 565.804 280.024 565.054 279.687C562.007 279.94 558.671 279.316 555.602 279.26C552.448 279.204 549.293 279.233 546.141 279.347C539.781 279.578 533.447 280.184 527.149 281.086C526.415 281.191 526.728 282.305 527.456 282.201C535.858 280.997 544.331 280.371 552.819 280.387C556.906 280.395 560.976 280.597 565.054 280.842C566.31 280.917 568.746 281.257 569.005 279.431C569.263 277.608 566.798 277.169 565.55 276.913Z" fill="#0797A7"/>
<path d="M566.58 192.146C566.58 192.146 571.994 195.38 573.15 197.406C574.306 199.432 577.966 214.522 577.966 214.522L585.479 224.477C585.479 224.477 591.066 209.955 594.919 207.68C598.772 205.405 603.588 204.59 603.588 204.59L607.248 202.168L615.929 208.483L614.569 213.519C614.569 213.519 610.957 232.064 608.645 236.276C607.499 238.363 594.052 256.515 585.093 256.505C582.148 256.501 568.901 239.075 568.901 239.075L561.975 203.121L566.58 192.146Z" fill="#0CC3BE"/>
<path d="M567.899 194.943C566.079 196.39 564.813 198.346 564.208 200.589C564.014 201.308 565.129 201.615 565.323 200.896C565.881 198.829 567.043 197.091 568.717 195.76C569.299 195.298 568.476 194.485 567.899 194.943Z" fill="#0797A7"/>
<path d="M564.115 208.953C564.022 208.225 562.865 208.216 562.959 208.953C564.121 218.067 565.284 227.182 566.446 236.296C566.539 237.024 567.696 237.033 567.602 236.296C566.44 227.182 565.278 218.067 564.115 208.953Z" fill="#0797A7"/>
<path d="M588.779 231.95C588.082 229.861 587.384 227.773 586.687 225.684C586.52 225.184 585.925 225.146 585.631 225.546C584.344 227.298 583.361 229.202 582.652 231.256C582.409 231.961 583.525 232.263 583.767 231.563C584.312 229.982 585.048 228.513 585.952 227.125C586.523 228.836 587.095 230.546 587.666 232.257C587.898 232.959 589.015 232.658 588.779 231.95Z" fill="#0797A7"/>
<path d="M612.978 211.857C612.336 211.278 611.674 210.726 610.997 210.197C611.603 209.636 612.21 209.076 612.816 208.515C613.363 208.009 612.545 207.193 611.999 207.698C611.373 208.276 610.748 208.855 610.122 209.433C610.094 209.459 610.084 209.488 610.063 209.515C609.656 209.216 609.256 208.908 608.839 208.625C608.999 208.655 609.171 208.625 609.324 208.488C609.807 208.056 610.291 207.625 610.774 207.193C611.33 206.696 610.51 205.881 609.957 206.376C609.474 206.808 608.99 207.239 608.507 207.671C608.278 207.876 608.289 208.131 608.412 208.329C607.867 207.97 607.313 207.625 606.749 207.294C607.423 206.739 608.098 206.183 608.772 205.628C609.347 205.155 608.525 204.341 607.955 204.811C607.191 205.44 606.428 206.068 605.664 206.697C605.353 206.528 605.05 206.345 604.734 206.185C604.072 205.849 603.486 206.846 604.15 207.183C607.061 208.662 609.735 210.488 612.161 212.675C612.712 213.171 613.532 212.356 612.978 211.857Z" fill="#0797A7"/>
<path d="M564.242 176.169C562.563 176.859 560.847 177.397 559.097 177.81C560.701 176.639 562.021 175.118 562.976 173.289C563.236 172.789 562.702 172.194 562.185 172.498C559.999 173.784 557.704 174.738 555.25 175.379C554.531 175.567 554.836 176.682 555.557 176.494C557.385 176.016 559.129 175.362 560.808 174.541C559.442 176.329 557.63 177.677 555.445 178.477C554.883 178.683 554.905 179.698 555.599 179.612C555.651 179.606 555.701 179.595 555.752 179.588V179.591C555.757 179.589 555.761 179.587 555.765 179.586C558.802 179.196 561.712 178.449 564.549 177.283C565.228 177.005 564.93 175.886 564.242 176.169Z" fill="white"/>
<path d="M494.892 137.432H430.986C428.232 137.432 426 135.2 426 132.446V88.7878C426 86.0338 428.233 83.8018 430.986 83.8018H494.892C497.646 83.8018 499.878 86.0338 499.878 88.7878V132.446C499.878 135.199 497.646 137.432 494.892 137.432Z" fill="white"/>
<path d="M442.611 112.287V115.842H439.521V112.263C437.337 111.961 435.223 111.055 433.666 109.778L435.316 106.456C436.989 107.896 439.521 108.918 441.217 108.918C442.472 108.918 443.261 108.453 443.261 107.594C443.261 104.829 434.688 106.502 434.688 100.74C434.688 98.1617 436.547 96.3718 439.52 95.8848V92.4688H442.61V95.8617C444.515 96.0707 446.327 96.7207 447.698 97.6037L446.095 100.973C444.376 99.9957 442.192 99.2298 440.845 99.2298C439.823 99.2298 439.149 99.6017 439.149 100.345C439.149 103.04 447.722 101.507 447.722 107.361C447.722 110.219 445.538 111.892 442.611 112.287Z" fill="#0CC3BE"/>
<path d="M492.212 92.4688H452.84V96.2147H492.212V92.4688Z" fill="#C1BED7"/>
<path d="M492.212 99.0376H452.84V102.784H492.212V99.0376Z" fill="#C1BED7"/>
<path d="M492.212 105.607H452.84V109.353H492.212V105.607Z" fill="#C1BED7"/>
<path d="M473.454 112.176H452.84V115.922H473.454V112.176Z" fill="#C1BED7"/>
<path d="M440.478 125.358C440.478 127.239 438.953 128.763 437.073 128.763C435.193 128.763 433.668 127.238 433.668 125.358C433.668 123.477 435.193 121.953 437.073 121.953C438.953 121.953 440.478 123.477 440.478 125.358Z" fill="#FD7658"/>
<path d="M452.042 125.358C452.042 127.239 450.517 128.763 448.637 128.763C446.756 128.763 445.232 127.238 445.232 125.358C445.232 123.477 446.757 121.953 448.637 121.953C450.518 121.953 452.042 123.477 452.042 125.358Z" fill="#FD7658"/>
<path d="M463.611 125.358C463.611 127.239 462.086 128.763 460.206 128.763C458.325 128.763 456.801 127.238 456.801 125.358C456.801 123.477 458.326 121.953 460.206 121.953C462.086 121.953 463.611 123.477 463.611 125.358Z" fill="#FD7658"/>
<path d="M499.878 125.358L506.907 148.842L481.109 137.202L499.878 125.358Z" fill="white"/>
<path d="M607.783 313.955C621.999 313.955 633.523 302.431 633.523 288.215C633.523 273.999 621.999 262.475 607.783 262.475C593.567 262.475 582.043 273.999 582.043 288.215C582.043 302.431 593.567 313.955 607.783 313.955Z" fill="#C1BED7"/>
<path d="M600.502 287.639C596.806 287.639 593.799 284.632 593.799 280.936C593.799 277.24 596.806 274.232 600.502 274.232C604.198 274.232 607.205 277.24 607.205 280.936C607.206 284.632 604.199 287.639 600.502 287.639ZM600.502 277.883C598.82 277.883 597.451 279.253 597.451 280.935C597.451 282.617 598.819 283.986 600.502 283.986C602.184 283.986 603.553 282.618 603.553 280.935C603.553 279.252 602.185 277.883 600.502 277.883Z" fill="white"/>
<path d="M597.341 300.483C596.874 300.483 596.406 300.305 596.05 299.948C595.337 299.235 595.337 298.079 596.05 297.366L616.933 276.483C617.646 275.77 618.802 275.77 619.515 276.483C620.228 277.196 620.228 278.352 619.515 279.065L598.632 299.948C598.276 300.305 597.808 300.483 597.341 300.483Z" fill="white"/>
<path d="M615.062 302.2C611.366 302.2 608.359 299.193 608.359 295.497C608.359 291.801 611.366 288.793 615.062 288.793C618.758 288.793 621.766 291.801 621.766 295.497C621.767 299.193 618.759 302.2 615.062 302.2ZM615.062 292.444C613.38 292.444 612.011 293.814 612.011 295.496C612.011 297.178 613.379 298.547 615.062 298.547C616.744 298.547 618.114 297.179 618.114 295.496C618.114 293.814 616.745 292.444 615.062 292.444Z" fill="white"/>
<path d="M677.955 356.357C674.603 365.512 669.471 374.042 663.09 381.903C662.2 383.001 661.275 384.088 660.327 385.163C658.142 387.671 655.831 390.099 653.403 392.445C652.652 393.173 651.9 393.901 651.126 394.606C649.785 395.855 648.421 397.08 647.022 398.27C646.225 398.964 645.427 399.634 644.618 400.293C643.184 401.483 641.74 402.639 640.26 403.772C637.994 405.518 635.671 407.205 633.313 408.835C632.758 409.32 632.215 409.794 631.66 410.257C631.429 410.269 631.197 410.327 630.978 410.43C630.851 410.523 630.712 410.615 630.573 410.696C630.562 410.696 630.562 410.696 630.562 410.707C627.95 412.452 625.291 414.129 622.598 415.747C618.876 415.493 615.166 415.065 611.478 414.475C608.022 413.92 604.45 413.169 601.63 411.111C598.786 409.065 596.867 405.366 597.885 402.014C598.798 399.055 601.642 397.159 604.404 395.737C611.906 391.888 620.275 389.738 628.701 389.484C615.685 383.959 604.172 374.942 595.653 363.638C592.983 360.078 590.544 356.194 589.527 351.859C588.498 347.513 589.053 342.623 591.862 339.156C597.145 332.613 607.513 333.712 615.131 337.237C626.447 342.485 635.845 351.778 641.208 363.037C636.492 348.842 634.538 333.735 635.486 318.8C635.786 314.119 636.48 309.183 639.474 305.576C644.445 299.565 654.293 299.704 660.72 304.108C667.17 308.477 670.788 315.956 673.238 323.366C676.719 333.967 678.302 345.191 677.955 356.357Z" fill="#0CC3BE"/>
<path d="M627.882 402.674C632.008 403.032 636.135 403.402 640.262 403.772C637.996 405.518 635.673 407.205 633.315 408.835C634.217 408.072 635.118 407.297 636.02 406.523L619.167 405.02C617.156 404.858 617.838 401.795 619.826 401.968C621.109 402.072 622.392 402.176 623.675 402.303C622.669 400.951 621.652 399.61 620.646 398.257C619.421 396.639 622.045 394.928 623.27 396.523C624.796 398.582 626.345 400.617 627.882 402.674Z" fill="#0797A7"/>
<path d="M644.087 395.323C645.058 396.306 646.04 397.288 647.023 398.271C646.226 398.965 645.428 399.635 644.619 400.294C643.752 399.416 642.885 398.549 642.018 397.67C640.585 396.247 642.677 393.889 644.087 395.323Z" fill="#0797A7"/>
<path d="M650.839 389.855C651.694 390.722 652.55 391.577 653.405 392.444C652.654 393.172 651.902 393.9 651.128 394.605C646.308 389.739 641.488 384.884 636.667 380.017C632.448 380.456 628.24 380.895 624.033 381.346C622.022 381.566 621.871 378.422 623.883 378.213L633.835 377.161C627.547 370.803 621.259 364.457 614.959 358.111C610.879 358.285 606.81 358.446 602.729 358.608C600.718 358.712 600.556 355.556 602.579 355.487C605.711 355.348 608.833 355.221 611.954 355.094C611.596 354.724 611.237 354.366 610.879 353.996C609.457 352.586 611.538 350.216 612.971 351.65C616.439 355.164 619.918 358.666 623.397 362.169C623.016 359.51 622.634 356.84 622.253 354.17C621.976 352.182 625.108 352.032 625.397 354.02C625.94 357.823 626.472 361.626 627.004 365.417C627.039 365.567 627.016 365.683 626.981 365.81C633.87 372.746 640.759 379.693 647.649 386.639L647.106 373.878C647.013 371.855 650.146 371.693 650.239 373.728C650.47 378.953 650.678 384.189 650.909 389.414C650.92 389.601 650.885 389.728 650.839 389.855Z" fill="#0797A7"/>
<path d="M669.575 371.511C667.575 374.528 665.575 377.568 663.576 380.585C663.414 380.839 663.206 381.001 662.998 381.128L663.091 381.902C662.201 383 661.276 384.087 660.328 385.162C659.449 377.914 658.571 370.667 657.693 363.419C657.508 363.373 657.311 363.292 657.138 363.165L645.926 355.49C644.262 354.357 646.365 352.011 648.007 353.144C651.082 355.236 654.145 357.34 657.208 359.444L654.006 333.043C650.527 331.436 647.024 329.83 643.522 328.234C641.684 327.39 643.106 324.593 644.956 325.425C647.811 326.754 650.689 328.072 653.568 329.39L652.944 324.212C652.701 322.201 655.845 322.05 656.088 324.05C656.978 331.459 657.891 338.869 658.781 346.255L666.664 335.956C667.901 334.338 670.236 336.43 669.011 338.025C665.797 342.232 662.584 346.44 659.359 350.648C659.347 350.659 659.324 350.683 659.313 350.706C660.365 359.352 661.405 367.998 662.457 376.645C663.902 374.472 665.335 372.276 666.78 370.091C667.876 368.413 670.685 369.823 669.575 371.511Z" fill="#0797A7"/>
<path d="M340.407 67.8057C332.226 67.8057 332.212 80.5207 340.407 80.5207C348.589 80.5207 348.603 67.8057 340.407 67.8057Z" fill="white"/>
<path d="M436.438 155.656C428.257 155.656 428.243 168.371 436.438 168.371C444.62 168.37 444.633 155.656 436.438 155.656Z" fill="white"/>
<path d="M281.256 155.077C273.075 155.077 273.061 167.792 281.256 167.792C289.438 167.793 289.452 155.077 281.256 155.077Z" fill="white"/>
<path d="M314.778 143.229C311.803 143.229 311.798 147.853 314.778 147.853C317.753 147.853 317.758 143.229 314.778 143.229Z" fill="white"/>
<path d="M404.135 81.0708C401.16 81.0708 401.155 85.6948 404.135 85.6948C407.11 85.6938 407.115 81.0708 404.135 81.0708Z" fill="white"/>
<path d="M468.514 154.788C465.539 154.788 465.534 159.412 468.514 159.412C471.489 159.412 471.494 154.788 468.514 154.788Z" fill="white"/>
<path d="M515.907 103.928C512.932 103.928 512.927 108.552 515.907 108.552C518.882 108.552 518.887 103.928 515.907 103.928Z" fill="white"/>
<path d="M407.449 210.673L376.59 270.46C374.021 275.437 367.931 277.381 362.983 274.827L310.098 247.53C305.15 244.976 303.206 238.886 305.775 233.909L346.084 155.813C348.638 150.865 354.728 148.921 359.676 151.475L394.223 169.307L407.449 210.673Z" fill="url(#paint3_linear_1406_1471)"/>
<path d="M414.078 208.463L383.219 268.25C380.65 273.227 374.56 275.171 369.612 272.617L316.727 245.32C311.779 242.766 309.835 236.676 312.404 231.699L352.713 153.603C355.267 148.655 361.357 146.711 366.305 149.265L400.852 167.096L414.078 208.463Z" fill="white"/>
<path d="M414.078 208.463L386.775 194.371L400.853 167.097L414.078 208.463Z" fill="#DFDEEE"/>
<path d="M376.976 190.409L351.811 177.419L343.953 192.64L369.119 205.63L376.976 190.409Z" fill="#456997"/>
<path d="M393.952 225.365L341.135 198.1L338.411 203.376L391.229 230.64L393.952 225.365Z" fill="#DFDEEE"/>
<path d="M388.786 235.37L335.969 208.105L333.245 213.381L386.063 240.646L388.786 235.37Z" fill="#DFDEEE"/>
<path d="M383.622 245.376L330.805 218.111L328.081 223.387L380.899 250.652L383.622 245.376Z" fill="#DFDEEE"/>
<path d="M378.458 255.38L325.641 228.116L322.917 233.391L375.735 260.656L378.458 255.38Z" fill="#DFDEEE"/>
</g>
<defs>
<linearGradient id="paint0_linear_1406_1471" x1="378.409" y1="192.006" x2="378.409" y2="514.509" gradientUnits="userSpaceOnUse">
<stop stop-color="#DFDEEE"/>
<stop offset="1" stop-color="#C1BED7"/>
</linearGradient>
<linearGradient id="paint1_linear_1406_1471" x1="219.88" y1="192.006" x2="219.88" y2="514.51" gradientUnits="userSpaceOnUse">
<stop stop-color="#DFDEEE"/>
<stop offset="1" stop-color="#C1BED7"/>
</linearGradient>
<linearGradient id="paint2_linear_1406_1471" x1="346.827" y1="192.005" x2="346.827" y2="514.508" gradientUnits="userSpaceOnUse">
<stop stop-color="#DFDEEE"/>
<stop offset="1" stop-color="#C1BED7"/>
</linearGradient>
<linearGradient id="paint3_linear_1406_1471" x1="356.045" y1="199.778" x2="356.045" y2="271.919" gradientUnits="userSpaceOnUse">
<stop stop-color="#E1E0F0" stop-opacity="0"/>
<stop offset="1" stop-color="#C3C0D9"/>
</linearGradient>
<clipPath id="clip0_1406_1471">
<rect width="750" height="500" fill="white" transform="translate(0.5)"/>
</clipPath>
</defs>
</svg>
