<svg width="2476" height="1650" fill="none" xmlns="http://www.w3.org/2000/svg"><g clip-path="url(#clip0_1406_2213)"><path d="M1971.1 620.01c-117.37-61.103 82.02-239.53-89.66-351.677-271.31-177.231-502.03 29.811-581.38 119.51-146.58 165.673-172.04 342.165-578.599 80.098-406.558-262.068-557.137 205.942-434.268 334.008 122.868 128.067 61.123 130.44-15.783 353.091-76.906 222.66 223.776 380.25 484.924 241.64 261.146-138.61 225.149-152.96 571.216-8.07 346.07 144.89 596.66-28.99 815.08-186.01 435.23-312.859-54.15-521.488-171.53-582.59z" fill="url(#paint0_linear_1406_2213)"/><path d="M2247.46 1393.4c-.42 0-.84-.18-1.13-.53a1.47 1.47 0 01.2-2.06c1.5-1.24 2.97-2.5 4.42-3.77.6-.54 1.53-.48 2.07.13.53.6.47 1.53-.13 2.06-1.48 1.3-2.98 2.58-4.49 3.83-.28.23-.61.34-.94.34zm-109.55 41.5c-.78 0-1.43-.62-1.46-1.42-.03-.8.61-1.48 1.41-1.51 3.74-.12 7.52-.37 11.24-.74.8-.08 1.52.52 1.6 1.32.08.81-.51 1.52-1.31 1.6-3.79.37-7.63.62-11.43.75h-.05zm-18.44-.32h-.11c-3.79-.26-7.62-.64-11.39-1.14-.8-.1-1.37-.84-1.26-1.64.11-.8.81-1.37 1.64-1.26 3.71.49 7.48.86 11.22 1.12.8.05 1.41.75 1.36 1.56-.06.77-.7 1.36-1.46 1.36zm48.02-3.15c-.68 0-1.3-.48-1.44-1.17-.16-.8.36-1.57 1.15-1.73 3.66-.74 7.35-1.6 10.97-2.57.78-.21 1.58.25 1.79 1.03.21.78-.25 1.59-1.03 1.8-3.68.98-7.43 1.86-11.15 2.61-.1.02-.19.03-.29.03zm-77.47-1.31c-.12 0-.23-.01-.34-.04-3.69-.87-7.41-1.88-11.06-2.98a1.468 1.468 0 01-.97-1.83c.23-.77 1.05-1.21 1.83-.98 3.58 1.09 7.24 2.08 10.87 2.94.79.19 1.28.98 1.09 1.76a1.46 1.46 0 01-1.42 1.13zm106.09-6.95c-.59 0-1.15-.36-1.37-.94-.29-.76.09-1.61.85-1.89l.98-.38c3.16-1.22 6.34-2.54 9.43-3.94.73-.33 1.6 0 1.93.73.34.74.01 1.61-.73 1.94-3.14 1.42-6.36 2.76-9.58 4l-.99.38c-.17.07-.35.1-.52.1zm-134.42-2.25c-.19 0-.38-.04-.56-.12-3.51-1.47-7.02-3.06-10.42-4.74a1.458 1.458 0 01-.67-1.96 1.47 1.47 0 011.96-.67c3.35 1.65 6.8 3.22 10.26 4.67.74.31 1.09 1.17.78 1.92-.23.56-.78.9-1.35.9zm161.32-10.52c-.5 0-.99-.26-1.27-.73-.4-.7-.16-1.6.54-2 3.24-1.88 6.46-3.88 9.56-5.95a1.46 1.46 0 012.03.4c.45.68.27 1.59-.4 2.04-3.16 2.1-6.43 4.13-9.72 6.04-.23.13-.49.2-.74.2zm-187.77-3.16c-.26 0-.53-.08-.77-.23-3.23-2.02-6.43-4.16-9.51-6.36-.66-.48-.81-1.39-.34-2.05a1.46 1.46 0 012.04-.34c3.03 2.17 6.18 4.28 9.36 6.27.69.43.89 1.33.46 2.02-.27.44-.75.69-1.24.69zm-23.86-17.8c-.34 0-.69-.12-.97-.37-2.85-2.51-5.66-5.15-8.34-7.83a1.467 1.467 0 112.08-2.07c2.63 2.64 5.39 5.23 8.2 7.71.61.53.66 1.46.13 2.06-.29.33-.69.5-1.1.5zm-20.62-21.46c-.42 0-.85-.18-1.13-.54-2.4-2.94-4.73-6-6.94-9.09a1.46 1.46 0 01.34-2.04 1.46 1.46 0 012.04.34c2.18 3.04 4.47 6.05 6.83 8.94.51.63.41 1.56-.22 2.06-.27.23-.59.33-.92.33zm-16.82-24.56c-.51 0-1-.26-1.27-.74-1.88-3.3-3.68-6.7-5.36-10.11-.35-.73-.05-1.6.68-1.96.72-.36 1.6-.06 1.96.67 1.64 3.36 3.41 6.71 5.26 9.95a1.457 1.457 0 01-1.27 2.19zm-12.58-26.98c-.6 0-1.16-.37-1.38-.96-1.33-3.58-2.55-7.23-3.65-10.85a1.468 1.468 0 012.81-.85c1.07 3.56 2.28 7.16 3.59 10.68.28.76-.11 1.6-.87 1.88-.16.07-.34.1-.5.1zm-8.07-28.68c-.69 0-1.3-.48-1.43-1.18-.73-3.71-1.34-7.52-1.84-11.3-.11-.8.46-1.54 1.26-1.64.8-.1 1.54.46 1.64 1.26.49 3.72 1.1 7.46 1.81 11.12.15.79-.36 1.56-1.16 1.72-.09.01-.19.02-.28.02zm-3.26-29.6c-.79 0-1.44-.63-1.46-1.43a175.612 175.612 0 01.05-11.44c.03-.79.68-1.42 1.46-1.42.02 0 .04 0 .06.01.81.03 1.44.7 1.4 1.51-.07 2.12-.11 4.28-.11 6.42 0 1.61.02 3.23.06 4.85.03.81-.61 1.48-1.42 1.5h-.04zm1.67-29.84c-.07 0-.14-.01-.2-.02-.81-.11-1.36-.85-1.25-1.65.27-1.95.57-3.89.9-5.83.14-.8.9-1.33 1.7-1.2.79.14 1.33.9 1.19 1.7-.33 1.9-.63 3.82-.89 5.73-.1.74-.73 1.27-1.45 1.27zm71.8-121.11c-.45 0-.89-.21-1.18-.6-.48-.65-.34-1.56.31-2.04 1.58-1.17 3.18-2.32 4.8-3.44.66-.46 1.58-.29 2.04.37.46.67.29 1.58-.37 2.04-1.6 1.11-3.17 2.23-4.73 3.38-.26.2-.57.29-.87.29zm289.47 159.83h-.11c-.81-.06-1.41-.77-1.35-1.57.3-3.94.47-7.93.51-11.89.01-.8.67-1.45 1.47-1.45h.02c.8.01 1.45.67 1.45 1.48-.05 4.02-.22 8.09-.53 12.08-.06.77-.7 1.35-1.46 1.35zm-.33-31.45c-.75 0-1.39-.56-1.46-1.32-.38-3.92-.91-7.89-1.55-11.79-.14-.8.4-1.56 1.2-1.69.79-.13 1.55.41 1.69 1.21.65 3.96 1.18 8 1.58 11.99.07.8-.51 1.52-1.32 1.6h-.14zm-5.79-30.91c-.64 0-1.22-.43-1.4-1.08a186.21 186.21 0 00-3.57-11.35c-.27-.76.13-1.6.89-1.87.77-.26 1.6.14 1.87.9 1.33 3.8 2.55 7.68 3.63 11.54.21.78-.24 1.58-1.02 1.8-.13.04-.27.06-.4.06zm-10.99-29.47c-.55 0-1.08-.31-1.33-.84-1.69-3.57-3.53-7.13-5.45-10.58a1.464 1.464 0 012.56-1.42c1.95 3.5 3.82 7.12 5.54 10.75.34.73.03 1.6-.7 1.95-.2.09-.41.14-.62.14zm-15.88-27.15c-.46 0-.91-.21-1.2-.62-2.28-3.22-4.7-6.4-7.19-9.46-.51-.63-.42-1.55.21-2.06s1.55-.42 2.06.21c2.53 3.11 4.99 6.35 7.31 9.62.47.66.31 1.58-.35 2.04-.25.18-.55.27-.84.27zm-20.34-23.96c-.37 0-.74-.14-1.03-.42-2.8-2.78-5.74-5.49-8.72-8.08-.62-.53-.68-1.46-.15-2.07a1.46 1.46 0 012.06-.15c3.04 2.63 6.03 5.39 8.87 8.21.58.57.58 1.5.01 2.08-.28.28-.66.43-1.04.43zm-24.18-20.09c-.29 0-.58-.08-.83-.26-3.25-2.25-6.61-4.42-9.99-6.45-.7-.42-.92-1.32-.51-2.01.42-.7 1.32-.93 2.01-.51 3.44 2.07 6.86 4.27 10.16 6.56.66.46.83 1.38.37 2.04-.29.41-.75.63-1.21.63zm-190.59-10.41c-.52 0-1.03-.28-1.29-.77-.39-.71-.12-1.6.59-1.98 3.52-1.91 7.16-3.73 10.81-5.41.74-.34 1.6-.02 1.94.72.34.73.02 1.6-.72 1.94-3.59 1.65-7.17 3.44-10.64 5.32-.22.12-.46.18-.69.18zm163.3-5.22c-.2 0-.41-.04-.61-.14-3.59-1.66-7.27-3.22-10.96-4.64a1.461 1.461 0 01-.83-1.9c.29-.75 1.14-1.12 1.89-.84 3.74 1.45 7.49 3.04 11.13 4.73.74.34 1.05 1.21.71 1.94-.25.54-.77.85-1.33.85zm-134.47-7.35c-.61 0-1.18-.38-1.39-.99-.26-.77.15-1.6.92-1.86 3.81-1.29 7.7-2.46 11.58-3.49.77-.21 1.58.25 1.79 1.03.21.78-.26 1.59-1.04 1.8-3.81 1.01-7.65 2.17-11.39 3.43-.16.06-.31.08-.47.08zm104.91-3.37c-.13 0-.25-.02-.38-.05a178.48 178.48 0 00-11.59-2.7c-.79-.16-1.31-.93-1.15-1.72.16-.8.92-1.32 1.72-1.15 3.94.78 7.9 1.7 11.78 2.74.78.21 1.24 1.01 1.03 1.79a1.46 1.46 0 01-1.41 1.09zm-74.36-4.09c-.71 0-1.33-.52-1.44-1.24-.12-.8.42-1.55 1.22-1.67 3.97-.61 8.01-1.1 12.01-1.44.83-.09 1.52.52 1.59 1.33.07.8-.53 1.52-1.34 1.58-3.93.34-7.91.82-11.81 1.42-.08.01-.15.02-.23.02zm43.38-1.4h-.13c-3.93-.35-7.93-.57-11.88-.66-.81-.02-1.45-.69-1.43-1.49.02-.81.66-1.4 1.49-1.44 4.02.09 8.08.32 12.08.67.81.07 1.4.78 1.33 1.59-.07.76-.71 1.33-1.46 1.33zm161.61 220.04c-.1 0-.21-.01-.31-.04-.79-.17-1.29-.95-1.12-1.74.42-1.89.81-3.79 1.16-5.69.15-.8.92-1.32 1.71-1.17.8.15 1.32.91 1.17 1.71-.36 1.93-.75 3.86-1.18 5.78-.15.68-.75 1.15-1.43 1.15z" fill="#91B3FA"/><path d="M2263.22 1298.66c.41-.84.24-1.84-.42-2.5l-18.85-18.69c2.7-12.1 3.48-24.72 2.14-37.41l20.82-16.43c.73-.58 1.01-1.55.71-2.43l-10.5-30.06a2.175 2.175 0 00-2.07-1.46l-26.53.1a115.411 115.411 0 00-24.96-27.94l3.11-26.36c.11-.92-.38-1.82-1.22-2.22l-28.68-13.83a2.18 2.18 0 00-2.5.43l-18.69 18.84c-12.1-2.7-24.72-3.48-37.4-2.13l-16.44-20.83a2.188 2.188 0 00-2.43-.71l-30.06 10.5c-.88.31-1.47 1.14-1.46 2.07l.1 26.53a115.364 115.364 0 00-27.93 24.96l-26.37-3.11c-.92-.11-1.81.38-2.22 1.22l-13.83 28.68c-.4.84-.23 1.84.43 2.5l18.84 18.69c-2.69 12.1-3.48 24.72-2.13 37.41l-20.82 16.43c-.73.58-1.02 1.55-.71 2.43l10.5 30.06c.3.88 1.13 1.47 2.07 1.46l26.52-.1a116.016 116.016 0 0024.96 27.94l-3.1 26.36c-.11.92.38 1.82 1.21 2.22l28.68 13.83c.84.41 1.84.23 2.5-.43l18.7-18.84c12.1 2.7 24.71 3.48 37.4 2.13l16.43 20.83c.58.73 1.56 1.01 2.43.7l30.06-10.5c.88-.3 1.47-1.13 1.47-2.06l-.11-26.53a115.62 115.62 0 0027.94-24.96l26.36 3.11c.93.11 1.82-.38 2.22-1.22l13.83-28.68z" fill="#BDD0FB"/><path d="M2130.43 1282c-9.67 0-19.16-4.7-24.87-13.35-4.37-6.63-5.9-14.57-4.31-22.35 1.59-7.78 6.12-14.48 12.75-18.85 6.63-4.38 14.57-5.91 22.35-4.32 7.78 1.6 14.48 6.13 18.85 12.76 9.03 13.68 5.25 32.16-8.44 41.2a29.56 29.56 0 01-16.33 4.91zm-.1-56.55c-5.2 0-10.28 1.52-14.71 4.44-5.98 3.95-10.06 9.98-11.5 17-1.44 7.01-.06 14.17 3.89 20.14 8.14 12.34 24.8 15.75 37.14 7.61s15.75-24.8 7.61-37.14c-3.95-5.97-9.98-10.06-17-11.49-1.81-.38-3.63-.56-5.43-.56z" fill="#91B3FA"/><path d="M2129.82 1330.33c-32.37 0-62.72-20.24-73.99-52.48a78.131 78.131 0 01-4.38-25.76c0-32.37 20.24-62.72 52.48-73.98 19.74-6.9 40.99-5.69 59.83 3.39 18.84 9.09 33.01 24.96 39.91 44.71a79.026 79.026 0 013.8 16.23c.01.06.01.12.01.18 0 .73-.54 1.36-1.28 1.45-.78.1-1.54-.47-1.63-1.27-.66-5.3-1.9-10.55-3.67-15.63-6.64-19-20.28-34.28-38.41-43.03-18.14-8.74-38.59-9.9-57.59-3.26-31.04 10.84-50.52 40.05-50.52 71.2 0 8.23 1.36 16.6 4.22 24.8 13.7 39.23 56.77 60 96 46.3 12.9-4.51 24.32-12.41 33.01-22.85.52-.62 1.45-.7 2.07-.19a1.465 1.465 0 01.19 2.07c-9.04 10.84-20.9 19.05-34.3 23.73a77.787 77.787 0 01-25.75 4.39z" fill="#91B3FA"/><path d="M145.247 1041.81c-3.316-2.79-1.029-8.21 3.291-7.85 43.867 3.65 160.353 26.41 243.332 161.88 104.11 169.96 181.272 200.89 248.832 203.49 0 0-68.06 27.58-148.321-2.25-197.057-73.23-288.174-305.63-347.134-355.27z" fill="#BDD0FB"/><path opacity=".47" d="M204.032 1073.1c8.507 4.09 16.363 9.05 24.025 14.37l2.886 1.97 2.816 2.07 5.635 4.13c3.676 2.85 7.337 5.73 10.977 8.64 14.394 11.83 27.838 24.76 40.707 38.21 13.016 13.34 24.814 27.76 36.539 42.22l8.456 11.1 4.229 5.56 2.114 2.78 2.018 2.84 16.109 22.72c20.937 30.15 44.997 58.11 71.421 83.62 13.142 12.83 26.857 25.09 41.131 36.65 3.538 2.92 7.171 5.73 10.752 8.6 3.623 2.82 7.288 5.59 10.953 8.35 3.709 2.69 7.398 5.42 11.167 8.02 3.718 2.65 7.562 5.23 11.299 7.64l.107.06a4.329 4.329 0 011.297 5.98 4.337 4.337 0 01-5.9 1.35c-8.127-4.98-15.743-10.24-23.344-15.71-3.76-2.77-7.518-5.53-11.233-8.36-3.671-2.87-7.396-5.69-11.023-8.62-14.548-11.68-28.464-24.13-41.84-37.13-6.776-6.41-13.184-13.2-19.627-19.95-3.186-3.41-6.236-6.94-9.36-10.4l-4.658-5.23c-1.559-1.73-2.996-3.57-4.5-5.36l-8.926-10.78c-2.94-3.62-5.692-7.4-8.546-11.09l-4.244-5.57c-.699-.93-1.433-1.84-2.104-2.79l-2.001-2.88-8.003-11.49c-2.702-3.84-5.249-7.63-7.843-11.44l-7.763-11.43-1.941-2.85-2.036-2.79-4.073-5.57-8.147-11.15-8.514-10.87c-2.856-3.61-5.628-7.29-8.647-10.76l-8.895-10.56c-1.458-1.78-3.001-3.49-4.536-5.2l-4.599-5.14c-12.306-13.68-25.206-26.87-39.06-38.99-3.473-3.01-6.971-6-10.487-8.97l-5.394-4.3-2.698-2.16-2.765-2.06c-1.853-1.36-3.674-2.77-5.554-4.09l-5.669-3.93c-3.831-2.5-7.708-5.07-11.697-7.17l-.053-.02c-.567-.3-.785-1-.487-1.57.29-.55.969-.77 1.529-.5z" fill="#fff"/><path d="M267.434 890.447c18.763 67.196 143.709 477.683 405.74 515.793 7.933 1.15 14.3-6.49 11.75-14.09-16.227-48.37-76.474-198.44-236.245-338.49C333.403 952.613 286.674 904.871 271.3 888.283c-1.627-1.756-4.51-.142-3.866 2.164z" fill="#91B3FA"/><path opacity=".47" d="M684.985 1394.65a2.484 2.484 0 01-1.626-.55c-98.6-79.19-183.61-175.54-237.561-242.43-57.963-71.87-96.564-130.19-96.945-134.28a2.505 2.505 0 012.259-2.72 2.517 2.517 0 012.678 1.98c3.422 8.91 145.428 223.15 332.701 373.55a2.508 2.508 0 01.384 3.52c-.482.6-1.18.91-1.89.93zm-331.154-377.73l.001.01-.001-.01z" fill="#fff"/><path d="M1839.14 730.685s117.91-17.479 181.23-145.836c61.55-124.76 117.36-308.581 281.08-317.831 5.52-.312 8.76 6.115 5.23 10.361-20.89 25.105-72.33 91.578-102.26 170.269-38.2 100.448-180.35 322.668-365.28 283.037z" fill="#91B3FA"/><path opacity=".47" d="M2256.6 310.176l-.32.106-.44.159c-.29.103-.6.22-.91.346-.61.236-1.24.501-1.86.767-1.24.536-2.48 1.1-3.71 1.703a128.67 128.67 0 00-7.29 3.831c-4.79 2.715-9.44 5.718-13.94 8.938-4.51 3.202-8.82 6.689-13 10.312-4.22 3.593-8.2 7.456-12.09 11.41-15.41 15.965-28.17 34.452-38.31 54.28-5.06 9.923-9.46 20.193-13.3 30.676l-2.78 7.903-2.51 7.997-2.53 8.109c-.84 2.718-1.69 5.432-2.62 8.117-7.18 21.584-15.89 42.628-25.85 63.036l-3.78 7.631-3.94 7.548c-1.29 2.526-2.67 5.009-4.04 7.492-1.39 2.476-2.71 4.99-4.15 7.435-5.6 9.872-11.6 19.51-17.81 29.008-6.27 9.455-12.9 18.67-19.77 27.698a494.024 494.024 0 01-21.71 26.189 429.214 429.214 0 01-23.72 24.357c-8.23 7.796-16.92 15.1-25.88 22.018a273.862 273.862 0 01-28.1 19.057c-9.73 5.764-19.83 10.918-30.26 15.264 10.32-4.607 20.26-10.005 29.82-15.992a272.773 272.773 0 0027.48-19.67 359.728 359.728 0 0025.21-22.478 424.259 424.259 0 0023.08-24.642 490.627 490.627 0 0021.03-26.403c6.63-9.086 13.02-18.356 19.07-27.838 6.01-9.506 11.81-19.143 17.22-29.003 1.39-2.441 2.66-4.952 4-7.424 1.32-2.479 2.65-4.957 3.89-7.478l3.79-7.53 3.64-7.608c9.55-20.341 17.85-41.273 24.62-62.67.89-2.663 1.68-5.352 2.47-8.044.81-2.703 1.56-5.347 2.41-8.098l2.51-8.19 2.77-8.107c3.85-10.761 8.28-21.33 13.4-31.574 5.13-10.236 10.92-20.173 17.52-29.573a218.92 218.92 0 0121.91-26.57c8.02-8.236 16.74-15.839 26.19-22.451 4.72-3.312 9.61-6.401 14.67-9.204 1.26-.717 2.56-1.364 3.84-2.048 1.3-.639 2.59-1.3 3.92-1.897a94.058 94.058 0 014.02-1.76c.68-.278 1.37-.554 2.08-.813.34-.133.7-.263 1.07-.388l.56-.192.7-.208a3.34 3.34 0 012.02 6.366l-.29.1z" fill="#fff"/><path d="M2300.19 566.059c2.9-1.685 1.88-6.118-1.46-6.419-33.9-3.054-125.65-1.227-206.89 90.914-101.93 115.604-164.82 128.892-216.63 121.882 0 0 48.18 30.064 113.28 18.028 159.85-29.551 260.19-194.44 311.7-224.405z" fill="#BDD0FB"/><path opacity=".47" d="M2251.73 583.796c-3.32 1.065-6.62 2.511-9.87 3.904l-4.84 2.236c-1.61.756-3.18 1.588-4.77 2.378l-2.38 1.201-2.34 1.281-4.69 2.56a850.878 850.878 0 00-9.18 5.44c-12.16 7.387-23.74 15.714-34.94 24.493l-4.19 3.307c-1.39 1.1-2.8 2.193-4.14 3.357l-8.18 6.858c-2.76 2.243-5.37 4.678-8.02 7.046l-7.93 7.143-7.69 7.409-3.85 3.703-1.92 1.851-1.86 1.917-7.43 7.667c-2.48 2.556-4.93 5.106-7.5 7.673l-7.63 7.689-1.9 1.922c-.64.638-1.32 1.232-1.98 1.85l-3.97 3.675c-2.67 2.432-5.27 4.941-7.99 7.309l-8.23 7.025c-1.38 1.158-2.72 2.37-4.14 3.484l-4.24 3.357c-2.85 2.223-5.64 4.51-8.52 6.681-5.81 4.281-11.59 8.599-17.6 12.581-11.92 8.122-24.18 15.754-36.82 22.715-3.15 1.751-6.36 3.397-9.54 5.1-3.2 1.656-6.44 3.263-9.67 4.868-6.52 3.156-13.02 6.148-19.87 8.862a3.342 3.342 0 01-4.34-1.879 3.347 3.347 0 011.81-4.313l.09-.04c3.17-1.335 6.44-2.79 9.62-4.312 3.22-1.477 6.39-3.066 9.58-4.626 3.16-1.614 6.32-3.231 9.45-4.895 3.11-1.712 6.25-3.367 9.34-5.126 12.41-6.905 24.49-14.415 36.2-22.435 23.53-15.916 45.58-34.013 65.54-54.187l15.29-15.163 1.92-1.899 1.98-1.834 3.96-3.668 7.92-7.334c10.85-9.452 21.76-18.868 33.45-27.295 11.59-8.531 23.55-16.59 36.09-23.686 3.16-1.73 6.33-3.435 9.51-5.12l4.84-2.396 2.42-1.197 2.46-1.118c6.55-3.03 13.19-5.766 20.22-7.752a.89.89 0 011.1.619c.14.466-.13.95-.58 1.097l-.05.017z" fill="#fff"/><path d="M1913.14 1354.52c0 13.07-10.7 23.76-23.78 23.76H603.128c-13.082 0-23.786-10.69-23.786-23.76l-10.703-739.161c0-13.069 15.398-38.585 43.618-36.667L1869.3 546.166a59.987 59.987 0 0143.91 17.479 59.927 59.927 0 0117.6 43.825l-17.67 747.05z" fill="url(#paint1_linear_1406_2213)"/><path d="M1889.66 1331.72c0 12.38-10.13 22.51-22.5 22.51H634.146c-12.376 0-22.503-10.13-22.503-22.51l-10.1-671.014c1.19-40.38 36.592-54.893 58.052-54.036l1204.765-32.322a42.1 42.1 0 0130.85 12.28c8.17 8.146 12.66 19.296 12.37 30.828l-17.92 714.264z" fill="url(#paint2_linear_1406_2213)"/><path opacity=".37" d="M624.968 1011.34c-.927 0-1.684-.74-1.698-1.67l-.799-54.421a1.7 1.7 0 011.674-1.724h.026a1.7 1.7 0 011.698 1.674l.799 54.421c.013.94-.736 1.71-1.674 1.72h-.026z" fill="#fff"/><path d="M623.009 877.989a1.7 1.7 0 01-1.698-1.674l-3.061-208.421c.063-13.884 4.339-24.976 12.71-32.997 15.238-14.601 39.077-13.858 40.094-13.826l384.746-10.325c.97.028 1.72.715 1.74 1.654.03.938-.71 1.717-1.65 1.744l-384.842 10.325c-1.076-.05-23.53-.73-37.737 12.882-7.68 7.359-11.604 17.63-11.663 30.526l3.061 208.388a1.7 1.7 0 01-1.674 1.724h-.026z" fill="#fff"/><path opacity=".37" d="M665.965 1294.5c1.291-55.46.81-546.578-2.372-588.993-3.182-42.415 62.876-50.37 164.296-55.144 101.42-4.773 957.141-23.671 979.171-25.458 49.52-4.016 59.78 70.009 54.82 230.711-3.72 120.734-9.89 319.624-12.73 411.084-.85 27.24-23.1 48.84-50.35 48.92-205.92.56-995.157 2.83-1047.697 4.39-60.461 1.8-85.65-3.52-85.138-25.51z" fill="#fff"/><path d="M2007.22 1439.64H511.336c-5.645 0-10.264-4.62-10.264-10.26v-44.42c0-5.65 4.619-10.26 10.264-10.26H2007.22c5.65 0 10.27 4.61 10.27 10.26v44.42c0 5.64-4.62 10.26-10.27 10.26z" fill="url(#paint3_linear_1406_2213)"/><path d="M864.925 821.577H372.547c-23.954 0-43.373-19.419-43.373-43.373V262.989c0-23.954 19.419-43.373 43.373-43.373h492.378c23.954 0 43.373 19.419 43.373 43.373v515.215c0 23.954-19.419 43.373-43.373 43.373z" fill="url(#paint4_linear_1406_2213)"/><path d="M838.032 805.637H400.445c-23.954 0-43.373-19.419-43.373-43.373V280.628c0-23.954 19.419-43.373 43.373-43.373h437.587c23.954 0 43.373 19.419 43.373 43.373v481.636c0 23.954-19.419 43.373-43.373 43.373z" fill="#BDD0FB"/><path d="M704.193 289.279H391.237c-9.132 0-16.534-7.403-16.534-16.534v-3c0-9.132 7.403-16.534 16.534-16.534h312.956c9.132 0 16.534 7.403 16.534 16.534v3c.001 9.131-7.402 16.534-16.534 16.534z" fill="url(#paint5_linear_1406_2213)"/><path d="M752.547 285.646c-8.139 0-14.76-6.239-14.76-13.907s6.622-13.907 14.76-13.907c8.139 0 14.76 6.239 14.76 13.907s-6.622 13.907-14.76 13.907zm0-23.947c-6.007 0-10.894 4.504-10.894 10.04s4.887 10.04 10.894 10.04c6.007 0 10.894-4.504 10.894-10.04s-4.888-10.04-10.894-10.04z" fill="url(#paint6_linear_1406_2213)"/><path d="M802.506 285.646c-8.139 0-14.76-6.239-14.76-13.907s6.622-13.907 14.76-13.907c8.139 0 14.76 6.239 14.76 13.907s-6.621 13.907-14.76 13.907zm0-23.947c-6.007 0-10.894 4.504-10.894 10.04s4.887 10.04 10.894 10.04c6.007 0 10.894-4.504 10.894-10.04s-4.887-10.04-10.894-10.04z" fill="url(#paint7_linear_1406_2213)"/><path d="M852.463 285.646c-8.139 0-14.76-6.239-14.76-13.907s6.622-13.907 14.76-13.907c8.139 0 14.76 6.239 14.76 13.907.001 7.668-6.621 13.907-14.76 13.907zm0-23.947c-6.007 0-10.894 4.504-10.894 10.04s4.887 10.04 10.894 10.04c6.007 0 10.894-4.504 10.894-10.04s-4.887-10.04-10.894-10.04z" fill="url(#paint8_linear_1406_2213)"/><path opacity=".43" d="M701.533 279.179H394.426a7.588 7.588 0 01-7.588-7.588 7.588 7.588 0 017.588-7.588h307.107a7.588 7.588 0 110 15.176z" fill="#fff"/><path d="M392.834 290.304l-34.711 35.337a3.564 3.564 0 00.25 5.227l.261.219a3.313 3.313 0 004.681-.422l31.784-38.336-2.265-2.025z" fill="url(#paint9_linear_1406_2213)"/><path opacity=".2" d="M428.492 261.995c5.367 11.246.434 24.794-11.019 30.26-11.453 5.466-25.088.78-30.456-10.466-5.367-11.246-.434-24.794 11.019-30.26 11.453-5.466 25.088-.78 30.456 10.466z" fill="url(#paint10_linear_1406_2213)"/><path d="M396.941 249.233c-12.744 6.082-18.233 21.157-12.261 33.671 5.972 12.514 21.145 17.728 33.889 11.646 12.744-6.082 18.234-21.156 12.261-33.67-5.973-12.514-21.145-17.729-33.889-11.647zm20.038 41.989c-10.872 5.189-23.816.74-28.91-9.935-5.095-10.676-.412-23.535 10.46-28.724 10.872-5.189 23.816-.741 28.91 9.934 5.096 10.676.412 23.536-10.46 28.725z" fill="url(#paint11_linear_1406_2213)"/><path d="M833.456 383.915H407.031a8.86 8.86 0 01-8.861-8.861 8.86 8.86 0 018.861-8.861h426.425a8.86 8.86 0 018.861 8.861 8.86 8.86 0 01-8.861 8.861z" fill="url(#paint12_linear_1406_2213)"/><path d="M765.634 348.914H468.871a8.86 8.86 0 01-8.861-8.861 8.86 8.86 0 018.861-8.861h296.762a8.86 8.86 0 018.861 8.861 8.86 8.86 0 01-8.86 8.861z" fill="url(#paint13_linear_1406_2213)"/><path d="M809.267 768.435H433.176c-13.883 0-25.137-11.253-25.137-25.136V437.637c0-13.883 11.254-25.137 25.137-25.137h376.091c13.883 0 25.137 11.254 25.137 25.137v305.662c-.001 13.883-11.254 25.136-25.137 25.136z" fill="#91B3FA"/><path opacity=".43" d="M796.515 446.968H444.709a8.86 8.86 0 01-8.861-8.861 8.86 8.86 0 018.861-8.861h351.806a8.86 8.86 0 018.861 8.861 8.86 8.86 0 01-8.861 8.861zm-.323 33.833H444.386a8.86 8.86 0 01-8.861-8.861 8.86 8.86 0 018.861-8.861h351.806a8.86 8.86 0 018.861 8.861 8.86 8.86 0 01-8.861 8.861zm1.012 35.967H445.398a8.86 8.86 0 01-8.861-8.861 8.86 8.86 0 018.861-8.861h351.806a8.86 8.86 0 018.861 8.861 8.86 8.86 0 01-8.861 8.861zm-.322 33.833H445.076a8.86 8.86 0 01-8.861-8.861 8.86 8.86 0 018.861-8.861h351.806a8.86 8.86 0 018.861 8.861 8.86 8.86 0 01-8.861 8.861zm-.541 30.933H444.535a8.862 8.862 0 010-17.722h351.806a8.862 8.862 0 010 17.722zm-.32 33.833H444.215a8.86 8.86 0 110-17.721h351.806a8.86 8.86 0 110 17.721zm1.009 35.969H445.224a8.86 8.86 0 01-8.861-8.861 8.86 8.86 0 018.861-8.861H797.03a8.86 8.86 0 018.861 8.861 8.86 8.86 0 01-8.861 8.861zm-.32 33.833H444.904a8.86 8.86 0 01-8.861-8.861 8.86 8.86 0 018.861-8.861H796.71a8.86 8.86 0 018.861 8.861 8.86 8.86 0 01-8.861 8.861zm-.701 31.971H444.203a8.86 8.86 0 01-8.861-8.861 8.86 8.86 0 018.861-8.861h351.806a8.86 8.86 0 018.861 8.861 8.86 8.86 0 01-8.861 8.861zm1.011 35.969H445.213a8.86 8.86 0 01-8.861-8.861 8.86 8.86 0 018.861-8.861H797.02a8.861 8.861 0 010 17.722z" fill="#BDD0FB"/><path opacity=".57" d="M1899.79 672.529c-1.32 0-2.4-1.067-2.42-2.393a2.42 2.42 0 012.4-2.44c2.21-.021 4.47-.073 6.69-.153 1.35-.059 2.45.993 2.5 2.327a2.413 2.413 0 01-2.32 2.503c-2.27.082-4.57.135-6.83.157l-.02-.001zm-6.76-.028h-.05a253.51 253.51 0 01-6.82-.213 2.415 2.415 0 01-2.31-2.522c.06-1.334 1.19-2.396 2.52-2.305 2.21.098 4.46.169 6.7.208a2.412 2.412 0 012.37 2.459 2.413 2.413 0 01-2.41 2.373zm20.27-.464a2.42 2.42 0 01-2.41-2.264 2.423 2.423 0 012.26-2.565c2.22-.141 4.46-.314 6.68-.515 1.33-.115 2.51.86 2.63 2.189a2.418 2.418 0 01-2.19 2.625c-2.26.205-4.55.381-6.81.525a2.85 2.85 0 01-.16.005zm-33.79-.138c-.05 0-.11-.002-.17-.007-2.28-.162-4.57-.359-6.81-.582a2.406 2.406 0 01-2.16-2.644 2.412 2.412 0 012.64-2.165c2.19.218 4.44.41 6.67.57a2.415 2.415 0 012.24 2.583 2.415 2.415 0 01-2.41 2.245zm47.27-1.084a2.416 2.416 0 01-.29-4.817c2.24-.266 4.47-.562 6.64-.88 1.32-.186 2.55.72 2.75 2.041a2.425 2.425 0 01-2.05 2.741c-2.21.324-4.49.626-6.77.897-.09.012-.19.018-.28.018zm-60.73-.249c-.1 0-.2-.006-.31-.019-2.26-.287-4.54-.608-6.76-.953a2.423 2.423 0 01-2.02-2.759 2.424 2.424 0 012.76-2.017c2.18.339 4.41.653 6.63.935a2.423 2.423 0 012.1 2.702 2.426 2.426 0 01-2.4 2.111zm74.11-1.71c-1.15 0-2.17-.827-2.38-2a2.417 2.417 0 011.97-2.797c2.19-.383 4.41-.802 6.58-1.242a2.42 2.42 0 012.85 1.888 2.42 2.42 0 01-1.89 2.849c-2.21.449-4.47.876-6.71 1.267a2.48 2.48 0 01-.42.035zm-87.48-.361c-.14 0-.29-.012-.44-.04-2.22-.407-4.47-.852-6.7-1.323a2.416 2.416 0 01-1.86-2.864 2.407 2.407 0 012.86-1.863c2.18.462 4.39.898 6.57 1.297a2.417 2.417 0 011.95 2.812 2.423 2.423 0 01-2.38 1.981zm100.74-2.328c-1.1 0-2.09-.755-2.35-1.871-.3-1.301.5-2.599 1.81-2.901 2.16-.501 4.34-1.04 6.5-1.603a2.419 2.419 0 012.95 1.729 2.424 2.424 0 01-1.73 2.948c-2.2.574-4.43 1.123-6.63 1.635-.19.042-.37.063-.55.063zm-113.97-.472c-.19 0-.38-.023-.57-.068-2.21-.531-4.44-1.1-6.62-1.691a2.412 2.412 0 01-1.7-2.963 2.41 2.41 0 012.96-1.702c2.14.579 4.33 1.136 6.49 1.657a2.42 2.42 0 011.79 2.915 2.424 2.424 0 01-2.35 1.852zm127.06-2.947c-1.05 0-2.01-.686-2.32-1.743a2.422 2.422 0 011.65-2.995c2.13-.619 4.28-1.278 6.4-1.96a2.422 2.422 0 013.04 1.563 2.414 2.414 0 01-1.56 3.039c-2.16.695-4.36 1.367-6.53 1.998-.23.067-.46.098-.68.098zm-140.12-.579c-.23 0-.47-.033-.7-.103a246.31 246.31 0 01-6.52-2.053 2.418 2.418 0 011.52-4.59c2.11.697 4.26 1.375 6.39 2.014a2.417 2.417 0 01-.69 4.732zm153-3.555a2.416 2.416 0 01-.8-4.697c2.09-.735 4.21-1.513 6.29-2.31a2.418 2.418 0 011.73 4.514c-2.13.812-4.28 1.605-6.42 2.355a2.37 2.37 0 01-.8.138zm-165.87-.695c-.28 0-.55-.046-.83-.144-2.15-.777-4.3-1.591-6.41-2.419a2.414 2.414 0 01-1.36-3.133 2.414 2.414 0 013.13-1.364c2.06.811 4.18 1.608 6.29 2.369a2.423 2.423 0 011.45 3.094 2.428 2.428 0 01-2.27 1.597zm178.48-4.135c-.94 0-1.84-.562-2.23-1.492a2.414 2.414 0 011.31-3.158c2.04-.847 4.1-1.736 6.13-2.644a2.414 2.414 0 013.19 1.22c.55 1.218 0 2.648-1.22 3.193-2.07.925-4.17 1.832-6.25 2.695-.3.127-.62.186-.93.186zm-191.11-.827c-.32 0-.64-.062-.95-.194-2.1-.895-4.21-1.826-6.26-2.767a2.408 2.408 0 01-1.19-3.204 2.41 2.41 0 013.2-1.189c2.01.922 4.08 1.835 6.14 2.712a2.418 2.418 0 01-.94 4.642zm203.43-4.681c-.9 0-1.77-.505-2.18-1.37a2.41 2.41 0 011.13-3.226c2-.963 4.01-1.965 5.98-2.978a2.411 2.411 0 013.25 1.042 2.414 2.414 0 01-1.04 3.255 262.234 262.234 0 01-6.1 3.037c-.34.162-.69.24-1.04.24zm-215.76-.967c-.36 0-.73-.08-1.07-.249a255.704 255.704 0 01-6.1-3.107 2.417 2.417 0 012.25-4.276c1.96 1.029 3.97 2.054 5.99 3.046a2.418 2.418 0 01-1.07 4.586zm227.75-5.214c-.85 0-1.68-.451-2.12-1.252a2.421 2.421 0 01.96-3.282c1.93-1.065 3.89-2.176 5.81-3.302a2.42 2.42 0 013.31.862 2.424 2.424 0 01-.87 3.307 239.202 239.202 0 01-5.92 3.368 2.43 2.43 0 01-1.17.299zm-239.75-1.102c-.4 0-.81-.1-1.18-.311-1.98-1.115-3.97-2.27-5.92-3.433a2.426 2.426 0 01-.83-3.315 2.424 2.424 0 013.32-.833c1.9 1.141 3.86 2.275 5.8 3.369a2.414 2.414 0 01.92 3.291 2.409 2.409 0 01-2.11 1.232zm251.4-5.728c-.81 0-1.6-.403-2.05-1.137a2.416 2.416 0 01.77-3.33c1.87-1.171 3.77-2.387 5.62-3.617a2.417 2.417 0 012.67 4.029 245.854 245.854 0 01-5.73 3.688c-.4.249-.84.367-1.28.367zm-263.02-1.235c-.45 0-.89-.122-1.3-.379-1.9-1.209-3.82-2.472-5.71-3.752a2.41 2.41 0 01-.65-3.355 2.408 2.408 0 013.35-.649c1.86 1.255 3.75 2.494 5.61 3.681a2.42 2.42 0 01.74 3.337 2.412 2.412 0 01-2.04 1.117zm274.28-6.226a2.415 2.415 0 01-1.39-4.394 250.5 250.5 0 005.42-3.919 2.412 2.412 0 013.38.497c.8 1.07.58 2.585-.49 3.381a276.606 276.606 0 01-5.53 3.997c-.42.296-.91.438-1.39.438zm-285.5-1.361c-.49 0-.98-.146-1.41-.452a272.063 272.063 0 01-5.5-4.058 2.416 2.416 0 012.92-3.849c1.77 1.344 3.59 2.683 5.4 3.979a2.428 2.428 0 01.56 3.372 2.435 2.435 0 01-1.97 1.008zm296.34-6.705c-.71 0-1.42-.316-1.9-.922a2.422 2.422 0 01.41-3.394c1.74-1.373 3.49-2.789 5.2-4.21a2.412 2.412 0 013.4.311c.86 1.026.72 2.55-.31 3.403a265.13 265.13 0 01-5.3 4.295c-.45.348-.97.517-1.5.517zm-307.13-1.478c-.53 0-1.06-.174-1.51-.532a292.506 292.506 0 01-5.27-4.35 2.426 2.426 0 01-.28-3.406 2.423 2.423 0 013.41-.28 254.77 254.77 0 005.17 4.268 2.413 2.413 0 01.37 3.397c-.48.594-1.18.903-1.89.903zm317.52-7.17a2.39 2.39 0 01-1.81-.821 2.411 2.411 0 01.22-3.411c1.67-1.469 3.34-2.98 4.96-4.489a2.422 2.422 0 013.42.126c.91.977.85 2.506-.13 3.414-1.65 1.54-3.36 3.08-5.06 4.578a2.41 2.41 0 01-1.6.603zm-327.83-1.589c-.58 0-1.15-.204-1.62-.617a248.432 248.432 0 01-5.02-4.629 2.413 2.413 0 01-.09-3.416 2.407 2.407 0 013.41-.094c1.61 1.526 3.27 3.054 4.93 4.541.99.891 1.08 2.419.19 3.413-.48.531-1.14.802-1.8.802zm337.74-7.615a2.414 2.414 0 01-1.69-4.142 254.47 254.47 0 004.71-4.755 2.42 2.42 0 013.42-.06c.96.927.99 2.456.06 3.417a233.896 233.896 0 01-4.81 4.849c-.47.461-1.08.691-1.69.691zm-347.57-1.688a2.4 2.4 0 01-1.7-.708c-1.6-1.596-3.2-3.244-4.77-4.895a2.423 2.423 0 01.1-3.416 2.41 2.41 0 013.41.093 291.46 291.46 0 004.67 4.8c.95.944.95 2.474 0 3.417-.47.473-1.09.709-1.71.709zm356.97-8.046c-.59 0-1.17-.21-1.63-.633a2.412 2.412 0 01-.16-3.413c1.49-1.629 2.99-3.314 4.46-5.007a2.417 2.417 0 013.41-.246c1 .874 1.11 2.4.24 3.409a237.183 237.183 0 01-4.54 5.106c-.48.52-1.13.784-1.78.784zm-366.26-1.774c-.67 0-1.33-.271-1.8-.803-1.52-1.689-3.03-3.42-4.49-5.145a2.409 2.409 0 01.28-3.406 2.409 2.409 0 013.4.279c1.44 1.691 2.92 3.388 4.4 5.045.89.993.81 2.521-.18 3.413a2.41 2.41 0 01-1.61.617zm375.11-8.46c-.54 0-1.08-.179-1.53-.547a2.423 2.423 0 01-.34-3.4c1.41-1.718 2.81-3.481 4.18-5.243a2.416 2.416 0 113.82 2.959 232.032 232.032 0 01-4.26 5.347c-.48.581-1.17.884-1.87.884zm-383.86-1.849c-.71 0-1.41-.309-1.89-.903a295.315 295.315 0 01-4.2-5.379 2.418 2.418 0 013.85-2.922c1.35 1.774 2.73 3.548 4.12 5.275a2.414 2.414 0 01-1.88 3.929zm392.15-8.856a2.414 2.414 0 01-1.95-3.844c1.31-1.788 2.61-3.627 3.88-5.464a2.418 2.418 0 013.98 2.745 253.063 253.063 0 01-3.96 5.573 2.41 2.41 0 01-1.95.99zm-400.32-1.909c-.75 0-1.5-.35-1.97-1.008a294.763 294.763 0 01-3.9-5.597 2.43 2.43 0 01.65-3.356 2.421 2.421 0 013.36.647c1.25 1.846 2.53 3.693 3.82 5.489a2.41 2.41 0 01-.56 3.372c-.42.306-.91.453-1.4.453zm408.01-9.237c-.45 0-.91-.126-1.32-.391a2.421 2.421 0 01-.7-3.344 257.32 257.32 0 003.58-5.673 2.41 2.41 0 013.32-.799c1.14.697 1.5 2.184.8 3.323a237.396 237.396 0 01-3.65 5.784c-.47.713-1.24 1.1-2.03 1.1zm-415.58-1.953c-.8 0-1.58-.395-2.04-1.118a258.71 258.71 0 01-3.59-5.801 2.42 2.42 0 01.84-3.315 2.412 2.412 0 013.31.831c1.14 1.895 2.32 3.809 3.52 5.689a2.427 2.427 0 01-.74 3.336c-.41.256-.85.378-1.3.378zm422.65-9.603a2.42 2.42 0 01-2.09-3.622c1.11-1.922 2.21-3.894 3.27-5.861a2.412 2.412 0 013.27-.98 2.423 2.423 0 01.98 3.274c-1.08 2.006-2.2 4.017-3.33 5.978a2.42 2.42 0 01-2.1 1.211zm-429.59-1.978c-.85 0-1.67-.443-2.11-1.231a239.56 239.56 0 01-3.26-5.986 2.42 2.42 0 011.01-3.265c1.18-.62 2.64-.17 3.26 1.011 1.04 1.96 2.11 3.935 3.2 5.869a2.407 2.407 0 01-.92 3.292c-.37.21-.78.31-1.18.31zm436.02-9.95a2.418 2.418 0 01-2.15-3.505c1-1.988 1.99-4.019 2.94-6.037.56-1.206 2-1.724 3.21-1.159a2.413 2.413 0 011.16 3.215c-.97 2.058-1.97 4.129-3 6.156a2.405 2.405 0 01-2.16 1.33zm-442.32-1.987a2.42 2.42 0 01-2.17-1.349c-1-2.031-1.98-4.101-2.92-6.152a2.41 2.41 0 011.19-3.205 2.415 2.415 0 013.2 1.189 233.7 233.7 0 002.87 6.031c.59 1.198.1 2.646-1.1 3.236-.34.17-.71.25-1.07.25zm448.09-10.287c-.32 0-.65-.065-.96-.203a2.406 2.406 0 01-1.25-3.181 227.24 227.24 0 002.6-6.192 2.422 2.422 0 013.15-1.335 2.42 2.42 0 011.33 3.145c-.85 2.11-1.74 4.234-2.65 6.314-.4.91-1.29 1.452-2.22 1.452zm-453.72-1.972a2.42 2.42 0 01-2.22-1.47c-.89-2.081-1.76-4.201-2.58-6.3a2.416 2.416 0 011.36-3.134c1.24-.484 2.65.12 3.13 1.363.82 2.058 1.67 4.136 2.54 6.176a2.42 2.42 0 01-2.23 3.365zm458.81-10.605a2.42 2.42 0 01-2.27-3.261c.78-2.099 1.54-4.229 2.26-6.33a2.42 2.42 0 013.07-1.508 2.416 2.416 0 011.5 3.067c-.73 2.143-1.5 4.316-2.3 6.457a2.409 2.409 0 01-2.26 1.575zm-463.76-1.959c-.99 0-1.91-.611-2.27-1.594a263.79 263.79 0 01-2.24-6.454 2.419 2.419 0 014.59-1.522c.7 2.103 1.43 4.232 2.19 6.329a2.411 2.411 0 01-2.27 3.241zm468.14-10.889a2.417 2.417 0 01-2.31-3.134c.66-2.115 1.3-4.275 1.9-6.424a2.413 2.413 0 012.98-1.675 2.418 2.418 0 011.67 2.979c-.61 2.192-1.26 4.396-1.93 6.552a2.43 2.43 0 01-2.31 1.702zm-472.4-1.953c-1.04 0-2-.675-2.31-1.72-.65-2.161-1.28-4.371-1.88-6.567a2.416 2.416 0 114.66-1.267c.59 2.154 1.21 4.321 1.85 6.439a2.42 2.42 0 01-2.32 3.115zm476.05-11.074a2.411 2.411 0 01-2.34-3.005c.54-2.168 1.06-4.362 1.54-6.52a2.413 2.413 0 012.88-1.836 2.428 2.428 0 011.84 2.882c-.49 2.201-1.02 4.438-1.57 6.649a2.424 2.424 0 01-2.35 1.83zm-479.59-1.981c-1.09 0-2.08-.743-2.35-1.849-.53-2.206-1.04-4.447-1.52-6.662a2.425 2.425 0 011.87-2.867c1.3-.281 2.58.555 2.86 1.861.46 2.171.96 4.368 1.49 6.531a2.425 2.425 0 01-2.35 2.986zm482.52-11.228a2.409 2.409 0 01-2.37-2.874c.42-2.182.81-4.401 1.17-6.595a2.424 2.424 0 012.78-1.992 2.41 2.41 0 011.99 2.777c-.37 2.237-.77 4.5-1.2 6.725a2.41 2.41 0 01-2.37 1.959zm-485.34-2.005a2.43 2.43 0 01-2.38-1.979c-.41-2.23-.79-4.495-1.14-6.734a2.408 2.408 0 012.01-2.76 2.408 2.408 0 012.76 2.014c.35 2.196.73 4.418 1.13 6.604a2.422 2.422 0 01-2.38 2.855zm487.54-11.343a2.42 2.42 0 01-2.4-2.744c.3-2.202.58-4.44.82-6.65a2.405 2.405 0 012.66-2.141 2.41 2.41 0 012.14 2.664c-.24 2.253-.52 4.535-.83 6.78a2.41 2.41 0 01-2.39 2.091zm-489.63-2.023c-1.2 0-2.24-.89-2.39-2.109-.29-2.255-.55-4.539-.78-6.788a2.422 2.422 0 012.16-2.645 2.414 2.414 0 012.65 2.164c.22 2.205.48 4.444.76 6.654a2.419 2.419 0 01-2.4 2.724zm491.09-11.426a2.413 2.413 0 01-2.41-2.612c.18-2.211.33-4.46.45-6.685a2.414 2.414 0 012.55-2.283 2.417 2.417 0 012.28 2.543c-.12 2.268-.28 4.561-.46 6.815a2.416 2.416 0 01-2.41 2.222zm-492.44-2.034c-1.25 0-2.31-.97-2.41-2.241-.16-2.248-.3-4.542-.4-6.818a2.416 2.416 0 012.3-2.525c1.33-.06 2.46.969 2.53 2.302.1 2.233.23 4.484.39 6.689a2.413 2.413 0 01-2.41 2.593zm493.17-11.475l-.07-.001a2.423 2.423 0 01-2.35-2.481c.06-2.215.09-4.468.09-6.699 0-.487.15-.941.4-1.321a2.306 2.306 0 01-.41-1.316c-.02-2.221-.08-4.473-.16-6.691a2.415 2.415 0 012.32-2.505c1.36-.059 2.46.99 2.51 2.324.08 2.262.14 4.557.16 6.821.01.496-.14.959-.39 1.346.26.384.41.845.41 1.341 0 2.273-.04 4.571-.1 6.829a2.412 2.412 0 01-2.41 2.353zm-493.79-2.041a2.412 2.412 0 01-2.41-2.371c-.03-1.586-.05-3.176-.05-4.767 0-.689.01-1.376.01-2.064.01-1.336 1.13-2.446 2.44-2.397a2.415 2.415 0 012.39 2.436c0 .674-.01 1.348-.01 2.023 0 1.562.02 3.122.05 4.677a2.423 2.423 0 01-2.37 2.462l-.05.001zm.11-13.528c-.02 0-.05 0-.08-.002a2.41 2.41 0 01-2.33-2.5c.08-2.266.19-4.561.33-6.821a2.413 2.413 0 012.56-2.262 2.41 2.41 0 012.26 2.562c-.13 2.217-.24 4.468-.32 6.691a2.422 2.422 0 01-2.42 2.332zm493.25-7.368c-1.27 0-2.33-.982-2.41-2.261-.15-2.226-.32-4.473-.53-6.679a2.421 2.421 0 012.19-2.628c1.34-.125 2.5.855 2.63 2.184.2 2.25.38 4.542.53 6.811a2.412 2.412 0 01-2.41 2.573zm-492.4-6.134a2.429 2.429 0 01-2.42-2.631c.21-2.257.44-4.544.71-6.795.15-1.325 1.35-2.266 2.68-2.119a2.426 2.426 0 012.12 2.682c-.26 2.208-.49 4.449-.69 6.663a2.416 2.416 0 01-2.4 2.2zm491.16-7.338a2.42 2.42 0 01-2.4-2.13c-.26-2.203-.56-4.437-.89-6.639a2.422 2.422 0 012.04-2.744 2.41 2.41 0 012.74 2.038c.34 2.247.64 4.524.91 6.771a2.418 2.418 0 01-2.4 2.704zm-489.59-6.099a2.424 2.424 0 01-2.4-2.764c.33-2.236.69-4.507 1.08-6.747a2.416 2.416 0 114.76.825c-.38 2.196-.73 4.422-1.05 6.615a2.424 2.424 0 01-2.39 2.071zm487.61-7.284c-1.15 0-2.17-.825-2.38-1.998-.38-2.184-.8-4.397-1.25-6.582a2.424 2.424 0 011.89-2.851c1.3-.274 2.58.576 2.85 1.884.45 2.228.88 4.486 1.27 6.712a2.418 2.418 0 01-2.38 2.835zm-485.3-6.044a2.409 2.409 0 01-2.37-2.894c.44-2.215.93-4.461 1.44-6.677a2.415 2.415 0 012.9-1.813 2.415 2.415 0 011.81 2.897c-.5 2.173-.98 4.376-1.41 6.549a2.434 2.434 0 01-2.37 1.938zm482.6-7.21c-1.1 0-2.1-.753-2.36-1.869-.5-2.165-1.04-4.354-1.61-6.501a2.42 2.42 0 014.68-1.227 248.67 248.67 0 011.64 6.632 2.415 2.415 0 01-2.35 2.965zm-479.57-5.973a2.42 2.42 0 01-2.34-3.025c.57-2.192 1.18-4.409 1.81-6.588a2.419 2.419 0 013-1.65 2.42 2.42 0 011.65 2.993 246.38 246.38 0 00-1.78 6.461 2.414 2.414 0 01-2.34 1.809zm476.13-7.111c-1.04 0-2.01-.685-2.32-1.74a235.39 235.39 0 00-1.96-6.404 2.417 2.417 0 014.6-1.483c.69 2.156 1.37 4.353 2 6.531a2.411 2.411 0 01-1.64 2.997c-.23.067-.45.099-.68.099zm-472.37-5.885a2.424 2.424 0 01-2.3-3.153 251.53 251.53 0 012.18-6.5 2.416 2.416 0 114.56 1.597c-.74 2.107-1.46 4.252-2.13 6.374a2.424 2.424 0 01-2.31 1.682zm468.22-6.992c-.99 0-1.92-.62-2.28-1.613a215.01 215.01 0 00-2.31-6.284 2.415 2.415 0 011.39-3.124 2.417 2.417 0 013.12 1.39c.82 2.121 1.61 4.278 2.36 6.41a2.409 2.409 0 01-2.28 3.221zm-463.73-5.817a2.421 2.421 0 01-2.26-3.28 229.17 229.17 0 012.54-6.367 2.41 2.41 0 013.15-1.309 2.413 2.413 0 011.31 3.158c-.85 2.066-1.69 4.167-2.48 6.243a2.427 2.427 0 01-2.26 1.555zm458.89-6.789c-.95 0-1.85-.56-2.23-1.489-.85-2.047-1.75-4.109-2.65-6.129a2.409 2.409 0 011.21-3.194 2.425 2.425 0 013.2 1.216c.92 2.06 1.83 4.162 2.7 6.25a2.42 2.42 0 01-2.23 3.346zm-453.7-5.747c-.33 0-.67-.068-.99-.211-1.22-.544-1.76-1.973-1.22-3.192.93-2.077 1.9-4.167 2.88-6.213a2.417 2.417 0 114.36 2.092c-.96 2.006-1.91 4.056-2.82 6.093a2.434 2.434 0 01-2.21 1.431zm448.18-6.557c-.9 0-1.77-.504-2.18-1.368-.97-1.999-1.97-4.009-2.99-5.977a2.419 2.419 0 014.3-2.218c1.03 2.007 2.06 4.058 3.04 6.096a2.412 2.412 0 01-1.13 3.227c-.33.163-.69.24-1.04.24zm-442.31-5.666a2.413 2.413 0 01-2.15-3.523c1.04-2.021 2.12-4.054 3.21-6.043a2.422 2.422 0 013.28-.954c1.17.644 1.6 2.113.96 3.282-1.07 1.95-2.13 3.944-3.15 5.926a2.425 2.425 0 01-2.15 1.312zm436.11-6.324c-.85 0-1.67-.451-2.12-1.25a229.45 229.45 0 00-3.3-5.807 2.413 2.413 0 01.85-3.309 2.418 2.418 0 013.31.858c1.16 1.962 2.29 3.954 3.38 5.925a2.42 2.42 0 01-2.12 3.583zm-429.59-5.554c-.41 0-.83-.107-1.22-.331a2.423 2.423 0 01-.86-3.308c1.15-1.955 2.34-3.924 3.54-5.853a2.417 2.417 0 114.1 2.556 235.255 235.255 0 00-3.47 5.741 2.419 2.419 0 01-2.09 1.195zm422.75-6.085c-.81 0-1.59-.402-2.05-1.135a222.96 222.96 0 00-3.63-5.622 2.417 2.417 0 01.68-3.349 2.417 2.417 0 013.35.676c1.25 1.878 2.49 3.806 3.69 5.731a2.414 2.414 0 01-2.04 3.699zm-415.58-5.41a2.415 2.415 0 01-2.01-3.75c1.25-1.896 2.55-3.798 3.85-5.65a2.42 2.42 0 013.96 2.779c-1.28 1.816-2.55 3.68-3.78 5.538a2.416 2.416 0 01-2.02 1.083zm408.11-5.844c-.76 0-1.51-.357-1.98-1.024a278.317 278.317 0 00-3.93-5.417c-.8-1.07-.58-2.585.49-3.382a2.427 2.427 0 013.39.492c1.34 1.807 2.69 3.665 4 5.522a2.415 2.415 0 01-1.97 3.809zm-400.32-5.237c-.5 0-1.01-.156-1.44-.478a2.406 2.406 0 01-.5-3.381c1.35-1.821 2.75-3.647 4.15-5.428a2.425 2.425 0 013.4-.403 2.411 2.411 0 01.4 3.394 269.781 269.781 0 00-4.07 5.322c-.48.636-1.21.974-1.94.974zm392.23-5.594c-.71 0-1.42-.315-1.89-.919a276.849 276.849 0 00-4.22-5.198 2.407 2.407 0 01.31-3.403 2.413 2.413 0 013.4.307c1.44 1.727 2.89 3.51 4.3 5.3a2.413 2.413 0 01-1.9 3.913zm-383.86-5.043c-.54 0-1.09-.183-1.54-.56a2.407 2.407 0 01-.31-3.403c1.45-1.751 2.95-3.497 4.44-5.191a2.415 2.415 0 013.41-.218c1 .882 1.1 2.409.22 3.411a250.18 250.18 0 00-4.36 5.091c-.48.573-1.17.87-1.86.87zm375.2-5.338c-.67 0-1.33-.277-1.81-.819a234.116 234.116 0 00-4.5-4.962 2.413 2.413 0 01.13-3.415 2.41 2.41 0 013.41.121c1.54 1.653 3.08 3.355 4.58 5.06a2.41 2.41 0 01-.21 3.411c-.46.405-1.03.604-1.6.604zm-366.26-4.823c-.59 0-1.18-.214-1.64-.647a2.413 2.413 0 01-.13-3.415c1.55-1.669 3.14-3.331 4.72-4.94a2.42 2.42 0 013.42-.031c.95.936.96 2.466.03 3.417a237.1 237.1 0 00-4.63 4.845c-.47.512-1.12.771-1.77.771zm357.05-5.075c-.63 0-1.25-.241-1.73-.722a232.78 232.78 0 00-4.76-4.712 2.42 2.42 0 013.36-3.481c1.63 1.577 3.27 3.194 4.85 4.804.94.951.92 2.482-.03 3.417-.47.464-1.08.694-1.69.694zm-347.57-4.58a2.39 2.39 0 01-1.74-.739c-.93-.96-.9-2.49.06-3.416 1.63-1.576 3.31-3.149 4.98-4.675a2.41 2.41 0 013.41.154c.9.986.83 2.514-.15 3.415a266.157 266.157 0 00-4.89 4.584c-.46.452-1.07.677-1.67.677zm337.82-4.804a2.43 2.43 0 01-1.63-.631 231.23 231.23 0 00-5.01-4.447 2.42 2.42 0 01-.25-3.409 2.42 2.42 0 013.41-.25c1.71 1.479 3.43 3.005 5.11 4.534.99.899 1.06 2.427.16 3.413a2.41 2.41 0 01-1.79.79zm-327.84-4.319a2.414 2.414 0 01-1.58-4.244c1.71-1.485 3.47-2.963 5.22-4.394a2.415 2.415 0 013.4.34 2.414 2.414 0 01-.34 3.4 255.889 255.889 0 00-5.12 4.309 2.41 2.41 0 01-1.58.589zm317.59-4.524c-.53 0-1.07-.178-1.52-.545-1.74-1.415-3.5-2.818-5.25-4.169a2.416 2.416 0 112.95-3.825c1.79 1.377 3.59 2.806 5.35 4.25a2.415 2.415 0 01-1.53 4.289zm-307.13-4.038a2.416 2.416 0 01-1.48-4.327c1.8-1.393 3.64-2.773 5.45-4.103a2.42 2.42 0 012.86 3.903 220.964 220.964 0 00-5.35 4.022c-.44.34-.96.505-1.48.505zm296.42-4.237c-.5 0-.99-.15-1.42-.464a258.426 258.426 0 00-5.47-3.878 2.413 2.413 0 01-.62-3.361 2.41 2.41 0 013.36-.619c1.85 1.278 3.73 2.607 5.57 3.952a2.413 2.413 0 01.53 3.377 2.41 2.41 0 01-1.95.993zm-285.51-3.741a2.415 2.415 0 01-1.37-4.406c1.85-1.281 3.76-2.558 5.66-3.797a2.41 2.41 0 013.34.706 2.412 2.412 0 01-.7 3.344 244.515 244.515 0 00-5.56 3.725c-.42.29-.9.428-1.37.428zm274.35-3.937c-.45 0-.9-.126-1.31-.39a259.055 259.055 0 00-5.68-3.573 2.411 2.411 0 01-.8-3.322 2.413 2.413 0 013.32-.803c1.95 1.189 3.9 2.416 5.79 3.645a2.413 2.413 0 01.71 3.343c-.46.712-1.24 1.1-2.03 1.1zm-263.03-3.428c-.81 0-1.61-.411-2.06-1.154a2.413 2.413 0 01.8-3.323c1.92-1.175 3.89-2.346 5.86-3.481a2.418 2.418 0 013.3.887 2.419 2.419 0 01-.89 3.3 256.146 256.146 0 00-5.75 3.415 2.39 2.39 0 01-1.26.356zm251.47-3.634c-.41 0-.82-.103-1.2-.319a245.476 245.476 0 00-5.87-3.258 2.422 2.422 0 01-.98-3.273 2.414 2.414 0 013.27-.985c1.98 1.066 4 2.184 5.98 3.321a2.417 2.417 0 01-1.2 4.514zm-239.77-3.099c-.86 0-1.69-.46-2.13-1.27a2.425 2.425 0 01.98-3.275c1.99-1.071 4.02-2.132 6.04-3.154a2.418 2.418 0 013.25 1.068 2.42 2.42 0 01-1.07 3.246 255.524 255.524 0 00-5.92 3.094 2.43 2.43 0 01-1.15.291zm227.83-3.314c-.36 0-.74-.083-1.08-.259-1.97-.988-4-1.975-6.04-2.932a2.41 2.41 0 01-1.16-3.213c.56-1.209 2-1.732 3.21-1.163 2.08.976 4.15 1.981 6.16 2.991a2.416 2.416 0 01-1.09 4.576zm-215.78-2.765c-.91 0-1.78-.514-2.19-1.389a2.414 2.414 0 011.16-3.215c2.04-.96 4.12-1.908 6.2-2.817a2.414 2.414 0 013.18 1.244 2.414 2.414 0 01-1.24 3.183 239.51 239.51 0 00-6.08 2.762c-.34.158-.69.232-1.03.232zm203.5-2.987c-.32 0-.65-.065-.96-.202-2.03-.884-4.12-1.756-6.2-2.594a2.423 2.423 0 01-1.34-3.145 2.422 2.422 0 013.15-1.339c2.12.855 4.25 1.745 6.32 2.647a2.421 2.421 0 011.25 3.18 2.43 2.43 0 01-2.22 1.453zm-191.15-2.419c-.95 0-1.86-.57-2.24-1.509-.5-1.238.1-2.647 1.33-3.148 2.11-.851 4.25-1.685 6.37-2.478a2.418 2.418 0 013.11 1.418 2.415 2.415 0 01-1.42 3.109c-2.08.777-4.18 1.595-6.24 2.431-.3.12-.6.177-.91.177zm178.57-2.649c-.28 0-.57-.049-.84-.152-2.08-.77-4.21-1.527-6.34-2.25a2.418 2.418 0 01-1.51-3.065 2.423 2.423 0 013.07-1.511c2.17.736 4.34 1.508 6.46 2.295a2.41 2.41 0 011.42 3.107 2.41 2.41 0 01-2.26 1.576zm-165.89-2.084a2.419 2.419 0 01-.79-4.704c2.15-.737 4.34-1.452 6.5-2.124 1.27-.4 2.63.313 3.02 1.588a2.41 2.41 0 01-1.59 3.026c-2.11.659-4.25 1.359-6.36 2.082-.26.09-.52.132-.78.132zm153.04-2.283c-.24 0-.48-.035-.72-.109a240.3 240.3 0 00-6.43-1.889 2.415 2.415 0 01-1.67-2.977 2.41 2.41 0 012.97-1.678c2.18.608 4.39 1.256 6.56 1.927a2.413 2.413 0 011.59 3.023 2.409 2.409 0 01-2.3 1.703zm-140.13-1.744c-1.05 0-2.02-.697-2.32-1.762a2.406 2.406 0 011.67-2.981 234.43 234.43 0 016.6-1.762 2.415 2.415 0 011.18 4.686 238 238 0 00-6.47 1.727c-.22.062-.44.092-.66.092zm127.1-1.89c-.2 0-.4-.024-.59-.074-2.13-.533-4.33-1.049-6.52-1.532a2.41 2.41 0 01-1.84-2.88 2.412 2.412 0 012.88-1.84c2.24.494 4.47 1.02 6.65 1.564a2.425 2.425 0 011.76 2.931 2.422 2.422 0 01-2.34 1.831zm-113.98-1.417a2.418 2.418 0 01-.53-4.777c2.21-.492 4.46-.961 6.69-1.395a2.41 2.41 0 012.83 1.911c.26 1.31-.6 2.579-1.91 2.834-2.18.426-4.39.885-6.55 1.369-.18.038-.36.058-.53.058zm100.76-1.497c-.15 0-.3-.014-.45-.044-2.19-.42-4.41-.814-6.6-1.172a2.406 2.406 0 01-1.99-2.774 2.41 2.41 0 012.77-1.996c2.23.365 4.49.766 6.73 1.195a2.405 2.405 0 011.91 2.828 2.411 2.411 0 01-2.37 1.963zm-87.48-1.085c-1.16 0-2.19-.838-2.38-2.021a2.413 2.413 0 011.98-2.779c2.25-.373 4.52-.717 6.76-1.026a2.416 2.416 0 01.66 4.788c-2.2.303-4.42.641-6.62 1.005-.14.023-.27.033-.4.033zm74.13-1.096c-.1 0-.21-.007-.32-.022-2.2-.297-4.44-.569-6.65-.808a2.42 2.42 0 01-2.15-2.661 2.42 2.42 0 012.66-2.144c2.26.243 4.54.52 6.78.823a2.41 2.41 0 012.07 2.72 2.412 2.412 0 01-2.39 2.092zm-60.73-.749a2.41 2.41 0 01-2.4-2.152 2.414 2.414 0 012.14-2.667c2.24-.247 4.53-.467 6.79-.654a2.416 2.416 0 11.4 4.816c-2.22.184-4.46.4-6.67.643-.08.009-.17.014-.26.014zm47.28-.697c-.06 0-.13-.003-.19-.008-2.2-.177-4.45-.327-6.69-.445a2.413 2.413 0 01-2.28-2.54c.07-1.333 1.23-2.373 2.54-2.285 2.28.12 4.57.272 6.81.452a2.417 2.417 0 01-.19 4.826zm-33.8-.416c-1.27 0-2.34-.996-2.41-2.283a2.42 2.42 0 012.28-2.546c2.23-.123 4.53-.219 6.82-.285a2.424 2.424 0 012.49 2.346 2.416 2.416 0 01-2.35 2.486c-2.25.065-4.5.159-6.69.279a3.27 3.27 0 01-.14.003zm20.29-.297l-.06-.001c-2.11-.055-4.26-.082-6.4-.082l-.3.001a2.416 2.416 0 110-4.834l.28-.001h.01c2.2 0 4.39.028 6.53.084a2.42 2.42 0 012.36 2.478 2.423 2.423 0 01-2.42 2.355z" fill="#fff"/><path d="M1897.43 633.933c116.4 0 210.77-94.366 210.77-210.771 0-116.406-94.37-210.771-210.77-210.771-116.41 0-210.77 94.365-210.77 210.771 0 116.405 94.36 210.771 210.77 210.771z" fill="url(#paint14_linear_1406_2213)"/><path opacity=".83" d="M1897.43 638.767c-57.59 0-111.73-22.427-152.46-63.15-40.72-40.722-63.15-94.865-63.15-152.456 0-57.59 22.43-111.732 63.15-152.456 40.73-40.722 94.87-63.149 152.46-63.149s111.73 22.426 152.45 63.149c40.73 40.723 63.15 94.866 63.15 152.456 0 57.59-22.42 111.733-63.15 152.456-40.72 40.724-94.86 63.15-152.45 63.15zm0-421.543c-113.56 0-205.94 92.383-205.94 205.938 0 113.555 92.38 205.939 205.94 205.939 113.55 0 205.94-92.383 205.94-205.939 0-113.554-92.39-205.938-205.94-205.938z" fill="#fff"/><path d="M1897.43 551.658c70.97 0 128.5-57.53 128.5-128.496 0-70.967-57.53-128.496-128.5-128.496s-128.5 57.529-128.5 128.496c0 70.966 57.53 128.496 128.5 128.496z" fill="url(#paint15_linear_1406_2213)"/><path opacity=".83" d="M1897.43 556.491c-73.52 0-133.33-59.813-133.33-133.33 0-73.517 59.81-133.328 133.33-133.328 73.52 0 133.33 59.812 133.33 133.328 0 73.517-59.81 133.33-133.33 133.33zm0-256.992c-68.19 0-123.66 55.474-123.66 123.662 0 68.189 55.47 123.664 123.66 123.664s123.66-55.475 123.66-123.664c0-68.188-55.47-123.662-123.66-123.662z" fill="#fff"/><path d="M1897.43 472.945c27.49 0 49.78-22.289 49.78-49.783s-22.29-49.783-49.78-49.783c-27.49 0-49.78 22.289-49.78 49.783s22.29 49.783 49.78 49.783z" fill="url(#paint16_linear_1406_2213)"/><path opacity=".83" d="M1897.43 477.779c-30.12 0-54.62-24.501-54.62-54.617 0-30.115 24.5-54.616 54.62-54.616 30.11 0 54.62 24.5 54.62 54.616 0 30.115-24.51 54.617-54.62 54.617zm0-99.567c-24.79 0-44.95 20.164-44.95 44.949 0 24.786 20.16 44.95 44.95 44.95 24.78 0 44.95-20.165 44.95-44.95 0-24.785-20.17-44.949-44.95-44.949z" fill="#fff"/><path d="M2196.82 122.998l6.65 6.656-252.04 252.041-6.65-6.656 252.04-252.041z" fill="url(#paint17_linear_1406_2213)"/><path d="M1949.49 358.979c3.82-3.819 21.82 14.183 18 18.001l-66.76 52.489c-2.47 1.939-5.67-1.257-3.73-3.724l52.49-66.766z" fill="url(#paint18_linear_1406_2213)"/><path d="M2203.33 129.797l33.91 3.37-46.55 46.548a71.96 71.96 0 01-58 20.724l70.64-70.642z" fill="url(#paint19_linear_1406_2213)"/><path d="M2196.67 123.142l-3.37-33.908-46.54 46.548a71.946 71.946 0 00-20.73 58.001l70.64-70.641z" fill="url(#paint20_linear_1406_2213)"/><path d="M609.96 761.388l-20.505 3.067a90.325 90.325 0 00-22.419-18.804l-.563-20.712a1.702 1.702 0 00-1.191-1.579l-23.722-7.465a1.705 1.705 0 00-1.881.612l-12.323 16.657a90.315 90.315 0 00-29.147 2.577l-15.054-14.257a1.703 1.703 0 00-1.959-.274l-22.053 11.495a1.702 1.702 0 00-.897 1.763l3.067 20.505a90.307 90.307 0 00-18.804 22.419l-20.713.563c-.726.02-1.36.498-1.579 1.191l-7.465 23.723a1.705 1.705 0 00.612 1.881l16.657 12.323a90.29 90.29 0 002.576 29.147l-14.257 15.054a1.705 1.705 0 00-.274 1.958l11.496 22.053a1.702 1.702 0 001.762.897l20.505-3.067a90.307 90.307 0 0022.419 18.804l.563 20.713c.02.726.498 1.36 1.191 1.578l23.723 7.465a1.703 1.703 0 001.881-.612l12.323-16.657a90.29 90.29 0 0029.147-2.576l15.053 14.257c.528.5 1.315.61 1.959.274l22.053-11.495a1.704 1.704 0 00.897-1.763l-3.067-20.505a90.307 90.307 0 0018.804-22.419l20.713-.563a1.702 1.702 0 001.578-1.192l7.465-23.722a1.704 1.704 0 00-.611-1.881l-16.657-12.323a90.346 90.346 0 00-2.576-29.147l14.257-15.054c.5-.528.61-1.314.274-1.959l-11.495-22.053a1.704 1.704 0 00-1.763-.897z" fill="#7D97F4"/><path d="M538.784 839.67c-4.737 5.398-11.822 8.644-19.53 8.198-13.281-.765-23.462-12.193-22.696-25.473.764-13.278 12.191-23.461 25.473-22.696 13.281.765 23.462 12.193 22.695 25.474a24.002 24.002 0 01-5.942 14.497zm-33.235-29.075c-2.93 3.339-4.655 7.531-4.915 12.036-.636 11.032 7.823 20.525 18.854 21.162 11.035.638 20.523-7.826 21.16-18.854a19.904 19.904 0 00-5.044-14.485 19.913 19.913 0 00-13.809-6.677 19.917 19.917 0 00-14.487 5.045 20.573 20.573 0 00-1.759 1.773z" fill="#91B3FA"/><path d="M651.826 794.02a2.042 2.042 0 01-3.52-.873 129.94 129.94 0 00-2.112-7.753 2.042 2.042 0 013.904-1.196 133.656 133.656 0 012.18 7.999 2.04 2.04 0 01-.452 1.823zm-26.488 115.571a2.041 2.041 0 01-3.112-2.644 131.723 131.723 0 009.022-12.419 2.044 2.044 0 012.821-.618 2.04 2.04 0 01.619 2.819 136.182 136.182 0 01-9.35 12.862zm-17.819 17.968a1.937 1.937 0 01-.229.223 136.75 136.75 0 01-12.723 9.413 2.043 2.043 0 01-2.234-3.42 132.498 132.498 0 0012.343-9.13 2.043 2.043 0 012.843 2.914zm38.546-53.104a2.046 2.046 0 01-2.29.551 2.044 2.044 0 01-1.142-2.653 131.122 131.122 0 004.822-14.574 2.042 2.042 0 113.946 1.054 134.897 134.897 0 01-4.975 15.029 2.023 2.023 0 01-.361.593zm-73.485 74.149a2.015 2.015 0 01-.76.54 134.508 134.508 0 01-14.975 5.123 2.042 2.042 0 01-1.091-3.935 130.553 130.553 0 0014.519-4.966 2.041 2.041 0 012.307 3.238zm82.557-113.92a2.042 2.042 0 01-3.573-1.491 133.06 133.06 0 00.21-15.361 2.041 2.041 0 114.08-.181 137.25 137.25 0 01-.216 15.833 2.042 2.042 0 01-.501 1.2zM532.911 958.052a2.037 2.037 0 01-1.373.689 137.01 137.01 0 01-15.823.336 2.043 2.043 0 01-1.966-2.115 2.045 2.045 0 012.115-1.966c5.118.188 10.283.078 15.35-.326a2.04 2.04 0 012.196 1.874 2.021 2.021 0 01-.499 1.508zm-40.683-2.964a2.04 2.04 0 01-1.992.645 134.553 134.553 0 01-15.198-4.437 2.041 2.041 0 011.374-3.846 130.558 130.558 0 0014.736 4.301 2.042 2.042 0 011.08 3.337zm-37.951-15.16a2.04 2.04 0 01-2.573.408 135.611 135.611 0 01-6.997-4.44 2.042 2.042 0 01-.544-2.836 2.031 2.031 0 012.836-.544c2.217 1.503 4.5 2.952 6.785 4.307a2.04 2.04 0 01.493 3.105zm-62.478-86.679a2.043 2.043 0 01-3.53-.92 134.03 134.03 0 01-1.491-8.156 2.037 2.037 0 011.714-2.324 2.04 2.04 0 012.324 1.713 130.22 130.22 0 001.445 7.908c.142.659-.05 1.31-.462 1.779zm181.415-151.295a2.043 2.043 0 01-2.317.54 130.504 130.504 0 00-14.263-4.961 2.042 2.042 0 011.116-3.929 135.154 135.154 0 0114.711 5.115 2.042 2.042 0 01.753 3.235zm-38.97-9.576a2.038 2.038 0 01-1.718.689 133.745 133.745 0 00-15.1-.507 2.042 2.042 0 01-.094-4.083 137.28 137.28 0 0115.558.522 2.04 2.04 0 011.354 3.379zM388.928 820.35a2.04 2.04 0 01-3.575-1.419 137.642 137.642 0 011.446-15.504 2.045 2.045 0 012.324-1.714 2.043 2.043 0 011.714 2.324 133.242 133.242 0 00-1.405 15.042 2.024 2.024 0 01-.504 1.271zm105.257-125.581a2.033 2.033 0 01-1.106.648 131.035 131.035 0 00-14.556 4.008 2.04 2.04 0 01-2.589-1.277 2.039 2.039 0 011.279-2.589 134.796 134.796 0 0115.011-4.134 2.04 2.04 0 011.961 3.344zm-97.826 86.145a2.044 2.044 0 01-3.462-2.025 134.158 134.158 0 016.002-14.369 2.044 2.044 0 012.731-.94 2.042 2.042 0 01.94 2.73 130.37 130.37 0 00-5.821 13.934 2.025 2.025 0 01-.39.67zm60.322-71.911a2.037 2.037 0 01-.531.43 132.056 132.056 0 00-12.7 8.17 2.04 2.04 0 11-2.402-3.302 135.93 135.93 0 0113.094-8.424 2.042 2.042 0 012.539 3.126zM415.23 745.5a2.043 2.043 0 01-3.17-2.57 136.044 136.044 0 016.734-8.315l.025-.029a137.71 137.71 0 013.256-3.581 2.04 2.04 0 012.885-.084c.823.773.829 2.112.085 2.887-1.08 1.146-2.188 2.327-3.183 3.5a131.232 131.232 0 00-6.53 8.064 1.468 1.468 0 01-.102.128zm186.731-27.161a2.042 2.042 0 01-2.757.287 132.812 132.812 0 00-6.578-4.619 2.04 2.04 0 01-.585-2.827 2.031 2.031 0 012.828-.585 137.403 137.403 0 016.782 4.761 2.043 2.043 0 01.31 2.983z" fill="#7D97F4"/><path d="M566.891 864.927c-15.73 17.926-41.15 25.935-65.322 18.329a61.708 61.708 0 01-22.229-12.49c-17.931-15.73-25.941-41.152-18.335-65.326 10.267-32.636 45.179-50.83 77.816-40.562a62.26 62.26 0 014.225 1.498 62.085 62.085 0 017.887 3.775 2.041 2.041 0 01.765 2.783 2.033 2.033 0 01-2.785.766 58.507 58.507 0 00-11.319-4.927c-25.245-7.943-51.94 2.332-65.83 23.427a57.764 57.764 0 00-6.865 14.466c-7.106 22.582.379 46.33 17.129 61.026a57.63 57.63 0 0020.766 11.668c30.488 9.594 63.094-7.405 72.694-37.894a57.89 57.89 0 001.099-30.856 2.04 2.04 0 011.51-2.461 2.04 2.04 0 012.461 1.51 61.97 61.97 0 01-1.174 33.034 61.7 61.7 0 01-12.493 22.234z" fill="#91B3FA"/><path d="M1118.19 952.075H625.81c-23.954 0-43.372-19.419-43.372-43.373V393.487c0-23.954 19.418-43.373 43.372-43.373h492.38c23.95 0 43.37 19.419 43.37 43.373v515.215c0 23.954-19.42 43.373-43.37 43.373z" fill="url(#paint21_linear_1406_2213)"/><path d="M1091.3 936.135H653.709c-23.954 0-43.373-19.419-43.373-43.373V411.126c0-23.954 19.419-43.373 43.373-43.373H1091.3c23.95 0 43.37 19.419 43.37 43.373v481.636c0 23.954-19.42 43.373-43.37 43.373z" fill="#91B3FA"/><path d="M957.457 419.777H644.501c-9.132 0-16.534-7.403-16.534-16.534v-3c0-9.132 7.403-16.534 16.534-16.534h312.956c9.132 0 16.534 7.403 16.534 16.534v3c.001 9.132-7.402 16.534-16.534 16.534z" fill="#BDD0FB"/><path d="M1005.81 416.144c-8.138 0-14.759-6.239-14.759-13.907s6.622-13.907 14.759-13.907c8.14 0 14.76 6.239 14.76 13.907s-6.62 13.907-14.76 13.907zm0-23.947c-6.006 0-10.893 4.504-10.893 10.04s4.887 10.04 10.893 10.04c6.01 0 10.89-4.504 10.89-10.04s-4.88-10.04-10.89-10.04z" fill="url(#paint22_linear_1406_2213)"/><path d="M1055.77 416.144c-8.14 0-14.76-6.239-14.76-13.907s6.62-13.907 14.76-13.907 14.76 6.239 14.76 13.907-6.62 13.907-14.76 13.907zm0-23.947c-6.01 0-10.89 4.504-10.89 10.04s4.88 10.04 10.89 10.04c6.01 0 10.89-4.504 10.89-10.04s-4.88-10.04-10.89-10.04z" fill="url(#paint23_linear_1406_2213)"/><path d="M1105.73 416.144c-8.14 0-14.76-6.239-14.76-13.907s6.62-13.907 14.76-13.907 14.76 6.239 14.76 13.907-6.62 13.907-14.76 13.907zm0-23.947c-6.01 0-10.9 4.504-10.9 10.04s4.89 10.04 10.9 10.04c6 0 10.89-4.504 10.89-10.04s-4.89-10.04-10.89-10.04z" fill="url(#paint24_linear_1406_2213)"/><path opacity=".43" d="M954.798 409.677H647.69a7.588 7.588 0 110-15.176h307.107a7.588 7.588 0 017.588 7.588 7.587 7.587 0 01-7.587 7.588z" fill="#fff"/><path d="M646.098 420.803l-34.711 35.337a3.564 3.564 0 00.25 5.227l.261.219a3.313 3.313 0 004.681-.422l31.784-38.336-2.265-2.025z" fill="url(#paint25_linear_1406_2213)"/><path opacity=".2" d="M681.754 392.494c5.367 11.246.434 24.794-11.019 30.26-11.453 5.466-25.088.78-30.456-10.466-5.367-11.246-.434-24.794 11.019-30.26 11.453-5.466 25.088-.78 30.456 10.466z" fill="url(#paint26_linear_1406_2213)"/><path d="M650.204 379.732c-12.744 6.082-18.233 21.157-12.261 33.671 5.972 12.514 21.145 17.728 33.889 11.646 12.744-6.082 18.233-21.157 12.261-33.671-5.973-12.513-21.145-17.728-33.889-11.646zm20.039 41.989c-10.872 5.189-23.816.74-28.91-9.935-5.095-10.676-.412-23.536 10.46-28.725 10.872-5.189 23.816-.74 28.911 9.935 5.094 10.676.411 23.537-10.461 28.725z" fill="url(#paint27_linear_1406_2213)"/><path d="M942.697 915.392H663.832c-13.882 0-25.137-11.254-25.137-25.137V752.973c0-13.883 11.254-25.137 25.137-25.137h278.865c13.883 0 25.137 11.254 25.137 25.137v137.282c0 13.883-11.254 25.137-25.137 25.137z" fill="#7D97F4"/><path opacity=".43" d="M950.487 762.459H666.605a8.86 8.86 0 01-8.861-8.861 8.86 8.86 0 018.861-8.861h283.882a8.86 8.86 0 018.861 8.861 8.86 8.86 0 01-8.861 8.861z" fill="url(#paint28_linear_1406_2213)"/><path opacity=".43" d="M950.224 796.292H666.343a8.86 8.86 0 01-8.861-8.861 8.86 8.86 0 018.861-8.861h283.882a8.86 8.86 0 11-.001 17.722z" fill="url(#paint29_linear_1406_2213)"/><path opacity=".43" d="M951.049 832.26H667.168a8.86 8.86 0 01-8.861-8.861 8.86 8.86 0 018.861-8.861h283.881a8.861 8.861 0 010 17.722z" fill="url(#paint30_linear_1406_2213)"/><path opacity=".43" d="M950.787 866.093H666.906a8.86 8.86 0 01-8.861-8.861 8.86 8.86 0 018.861-8.861h283.882a8.86 8.86 0 11-.001 17.722z" fill="url(#paint31_linear_1406_2213)"/><path opacity=".43" d="M950.344 897.025H666.463a8.86 8.86 0 01-8.861-8.861 8.86 8.86 0 018.861-8.861h283.882a8.86 8.86 0 11-.001 17.722z" fill="url(#paint32_linear_1406_2213)"/><path d="M1097.56 634.439h-98.459c-11.105 0-20.107-9.002-20.107-20.107v-147.88c0-11.105 9.002-20.107 20.107-20.107h98.459c11.1 0 20.11 9.002 20.11 20.107v147.88c0 11.105-9.01 20.107-20.11 20.107zm0 280.953h-98.459c-11.105 0-20.107-9.002-20.107-20.107V671.202c0-11.105 9.002-20.107 20.107-20.107h98.459c11.1 0 20.11 9.002 20.11 20.107v224.083c0 11.105-9.01 20.107-20.11 20.107z" fill="#BDD0FB"/><path d="M947.183 716.076H665.045a8.86 8.86 0 01-8.861-8.861 8.86 8.86 0 018.861-8.861h282.138a8.86 8.86 0 018.861 8.861 8.86 8.86 0 01-8.861 8.861z" fill="url(#paint33_linear_1406_2213)"/><path d="M930.617 683.161H676.776c-14.043 0-25.426-11.384-25.426-25.426V471.772c0-14.042 11.384-25.426 25.426-25.426h253.841c14.042 0 25.426 11.384 25.426 25.426v185.963c.001 14.043-11.383 25.426-25.426 25.426z" fill="url(#paint34_linear_1406_2213)"/><path d="M700.006 647.74H890.29c5.923 0 9.605-6.436 6.601-11.542L821.56 508.134c-3.142-5.341-10.996-4.934-13.569.703l-36.374 79.702c-2.16 4.732-8.308 5.981-12.143 2.466l-14.714-13.488c-3.419-3.134-8.816-2.534-11.463 1.273l-39.579 56.918c-3.531 5.079.103 12.032 6.288 12.032z" fill="url(#paint35_linear_1406_2213)"/><path d="M887.706 531.62c15.107 0 27.354-12.247 27.354-27.354 0-15.108-12.247-27.354-27.354-27.354-15.108 0-27.354 12.246-27.354 27.354 0 15.107 12.246 27.354 27.354 27.354z" fill="url(#paint36_linear_1406_2213)"/><path d="M1363.72 1148.31H871.34c-23.954 0-43.373-19.42-43.373-43.38V589.718c0-23.954 19.419-43.373 43.373-43.373h492.38c23.95 0 43.37 19.419 43.37 43.373v515.212c0 23.96-19.42 43.38-43.37 43.38z" fill="url(#paint37_linear_1406_2213)"/><path d="M1336.83 1132.36H899.238c-23.954 0-43.373-19.41-43.373-43.37V607.356c0-23.954 19.419-43.373 43.373-43.373h437.592c23.95 0 43.37 19.419 43.37 43.373v481.634c0 23.96-19.42 43.37-43.37 43.37z" fill="#BDD0FB"/><path opacity=".43" d="M1202.99 616.008H890.03c-9.132 0-16.534-7.403-16.534-16.534v-3c0-9.132 7.403-16.534 16.534-16.534h312.96c9.13 0 16.53 7.403 16.53 16.534v3c0 9.131-7.4 16.534-16.53 16.534z" fill="#fff"/><path d="M1251.34 612.375c-8.14 0-14.76-6.239-14.76-13.907s6.62-13.907 14.76-13.907 14.76 6.239 14.76 13.907-6.62 13.907-14.76 13.907zm0-23.948c-6.01 0-10.89 4.504-10.89 10.04s4.88 10.04 10.89 10.04c6.01 0 10.89-4.504 10.89-10.04s-4.88-10.04-10.89-10.04z" fill="url(#paint38_linear_1406_2213)"/><path d="M1301.3 612.375c-8.14 0-14.76-6.239-14.76-13.907s6.62-13.907 14.76-13.907 14.76 6.239 14.76 13.907-6.62 13.907-14.76 13.907zm0-23.948c-6.01 0-10.89 4.504-10.89 10.04s4.88 10.04 10.89 10.04c6.01 0 10.89-4.504 10.89-10.04s-4.88-10.04-10.89-10.04z" fill="url(#paint39_linear_1406_2213)"/><path d="M1351.26 612.375c-8.14 0-14.76-6.239-14.76-13.907s6.62-13.907 14.76-13.907 14.76 6.239 14.76 13.907-6.62 13.907-14.76 13.907zm0-23.948c-6.01 0-10.9 4.504-10.9 10.04s4.89 10.04 10.9 10.04c6 0 10.89-4.504 10.89-10.04s-4.89-10.04-10.89-10.04z" fill="url(#paint40_linear_1406_2213)"/><path opacity=".43" d="M1200.33 605.908H893.219a7.588 7.588 0 010-15.176h307.111c4.19 0 7.58 3.397 7.58 7.588 0 4.19-3.39 7.588-7.58 7.588z" fill="#fff"/><path d="M891.627 617.033l-34.711 35.337a3.564 3.564 0 00.25 5.227l.261.219a3.313 3.313 0 004.681-.422l31.784-38.336-2.265-2.025z" fill="url(#paint41_linear_1406_2213)"/><path opacity=".2" d="M927.285 588.725c5.367 11.246.434 24.794-11.019 30.26-11.453 5.466-25.088.78-30.456-10.466-5.367-11.246-.434-24.794 11.019-30.26 11.453-5.466 25.089-.78 30.456 10.466z" fill="url(#paint42_linear_1406_2213)"/><path d="M895.734 575.963c-12.744 6.082-18.233 21.157-12.261 33.671 5.972 12.514 21.145 17.728 33.889 11.646 12.744-6.082 18.233-21.157 12.261-33.671-5.973-12.514-21.145-17.728-33.889-11.646zm20.038 41.988c-10.872 5.189-23.816.74-28.91-9.935-5.095-10.676-.412-23.536 10.46-28.725 10.872-5.189 23.816-.74 28.911 9.935 5.095 10.677.411 23.537-10.461 28.725z" fill="url(#paint43_linear_1406_2213)"/><path d="M1307.93 716.076H928.131a8.86 8.86 0 01-8.861-8.861 8.86 8.86 0 018.861-8.861h379.799c4.9 0 8.86 3.967 8.86 8.861a8.856 8.856 0 01-8.86 8.861zm-45.01-33.968H966.152a8.86 8.86 0 01-8.861-8.861 8.86 8.86 0 018.861-8.861h296.768c4.89 0 8.86 3.967 8.86 8.861a8.862 8.862 0 01-8.86 8.861z" fill="#7D97F4"/><path d="M1082.86 1095.16H908.77c-13.883 0-25.137-11.25-25.137-25.13V764.366c0-13.883 11.254-25.137 25.137-25.137h174.09c13.88 0 25.14 11.254 25.14 25.137v305.664c0 13.88-11.26 25.13-25.14 25.13z" fill="#91B3FA"/><path opacity=".43" d="M1086.2 773.697H904.234a8.86 8.86 0 01-8.861-8.861 8.86 8.86 0 018.861-8.861H1086.2c4.89 0 8.86 3.967 8.86 8.861a8.862 8.862 0 01-8.86 8.861zm-.18 33.833H904.06a8.86 8.86 0 01-8.861-8.861 8.86 8.86 0 018.861-8.861h181.96c4.9 0 8.87 3.967 8.87 8.861s-3.97 8.861-8.87 8.861zm.55 35.967H904.607a8.86 8.86 0 01-8.861-8.861 8.86 8.86 0 018.861-8.861h181.963c4.9 0 8.86 3.967 8.86 8.861a8.856 8.856 0 01-8.86 8.861zm-.17 33.833H904.433a8.86 8.86 0 01-8.861-8.861 8.86 8.86 0 018.861-8.861H1086.4c4.89 0 8.86 3.967 8.86 8.861a8.862 8.862 0 01-8.86 8.861zm-.3 30.933H904.14a8.86 8.86 0 110-17.721h181.96c4.9 0 8.87 3.967 8.87 8.861s-3.97 8.86-8.87 8.86zm-.17 33.833H903.968a8.862 8.862 0 010-17.722h181.962c4.9 0 8.86 3.966 8.86 8.86a8.857 8.857 0 01-8.86 8.862zm.55 35.969H904.513a8.86 8.86 0 01-8.861-8.861 8.86 8.86 0 018.861-8.861h181.967c4.89 0 8.86 3.967 8.86 8.861a8.862 8.862 0 01-8.86 8.861zm-.18 33.835H904.34a8.862 8.862 0 01-8.861-8.86 8.862 8.862 0 018.861-8.865h181.96c4.9 0 8.86 3.967 8.86 8.865 0 4.89-3.96 8.86-8.86 8.86zm-.38 31.97H903.961a8.862 8.862 0 01-8.861-8.86c0-4.9 3.967-8.86 8.861-8.86h181.959c4.9 0 8.87 3.96 8.87 8.86 0 4.89-3.97 8.86-8.87 8.86zm.55 35.97H904.508c-4.894 0-8.862-3.97-8.862-8.86 0-4.9 3.968-8.86 8.862-8.86h181.962c4.9 0 8.86 3.96 8.86 8.86 0 4.89-3.97 8.86-8.86 8.86z" fill="#BDD0FB"/><path d="M1326.46 1093.23h-174.09c-13.89 0-25.14-11.25-25.14-25.14V762.432c0-13.883 11.25-25.137 25.14-25.137h174.09c13.88 0 25.14 11.254 25.14 25.137v305.658c0 13.89-11.26 25.14-25.14 25.14z" fill="#91B3FA"/><path opacity=".43" d="M1329.8 771.764h-181.97a8.862 8.862 0 01-8.86-8.861 8.862 8.862 0 018.86-8.861h181.97c4.89 0 8.86 3.967 8.86 8.861a8.862 8.862 0 01-8.86 8.861zm-.18 33.833h-181.96c-4.9 0-8.86-3.967-8.86-8.861a8.856 8.856 0 018.86-8.861h181.96c4.9 0 8.86 3.967 8.86 8.861a8.857 8.857 0 01-8.86 8.861zm.55 35.968H1148.2a8.862 8.862 0 01-8.86-8.861 8.862 8.862 0 018.86-8.861h181.97c4.89 0 8.86 3.967 8.86 8.861a8.862 8.862 0 01-8.86 8.861zm-.18 33.833h-181.96a8.862 8.862 0 01-8.86-8.861 8.862 8.862 0 018.86-8.861h181.96c4.9 0 8.87 3.967 8.87 8.861s-3.97 8.861-8.87 8.861zm-.29 30.932h-181.96c-4.9 0-8.86-3.967-8.86-8.861a8.856 8.856 0 018.86-8.861h181.96c4.9 0 8.86 3.967 8.86 8.861a8.856 8.856 0 01-8.86 8.861zm-.17 33.833h-181.97a8.862 8.862 0 01-8.86-8.861 8.862 8.862 0 018.86-8.861h181.97c4.89 0 8.86 3.967 8.86 8.861a8.862 8.862 0 01-8.86 8.861zm.54 35.968h-181.96a8.862 8.862 0 01-8.86-8.861 8.862 8.862 0 018.86-8.861h181.96c4.9 0 8.87 3.967 8.87 8.861s-3.97 8.861-8.87 8.861zm-.17 33.829h-181.96c-4.9 0-8.86-3.96-8.86-8.86a8.855 8.855 0 018.86-8.858h181.96c4.9 0 8.86 3.967 8.86 8.858 0 4.9-3.97 8.86-8.86 8.86zm-.38 31.98h-181.96c-4.9 0-8.86-3.97-8.86-8.87 0-4.89 3.96-8.86 8.86-8.86h181.96c4.9 0 8.86 3.97 8.86 8.86 0 4.9-3.96 8.87-8.86 8.87zm.55 35.96h-181.96c-4.9 0-8.87-3.96-8.87-8.86 0-4.89 3.97-8.86 8.87-8.86h181.96c4.89 0 8.86 3.97 8.86 8.86 0 4.9-3.97 8.86-8.86 8.86z" fill="#BDD0FB"/><path d="M1691.42 1308.33h-492.38c-23.96 0-43.38-19.42-43.38-43.38V740.516c0-23.954 19.42-43.373 43.38-43.373h492.38c23.95 0 43.37 19.419 43.37 43.373v524.434c0 23.96-19.42 43.38-43.37 43.38z" fill="url(#paint44_linear_1406_2213)"/><path d="M1664.52 1292.14h-437.59c-23.95 0-43.37-19.42-43.37-43.37V758.424c0-23.954 19.42-43.373 43.37-43.373h437.59c23.95 0 43.37 19.419 43.37 43.373v490.346c0 23.95-19.42 43.37-43.37 43.37z" fill="#91B3FA"/><path d="M1501.39 1051.46h-253.84c-14.04 0-25.43-11.39-25.43-25.43V840.067c0-14.043 11.39-25.426 25.43-25.426h253.84c14.04 0 25.43 11.384 25.43 25.426v185.963c0 14.04-11.39 25.43-25.43 25.43z" fill="url(#paint45_linear_1406_2213)"/><path d="M1270.78 1016.04h190.28c5.93 0 9.61-6.44 6.6-11.55l-75.33-128.061c-3.14-5.341-10.99-4.934-13.57.703l-36.37 79.702c-2.16 4.732-8.31 5.981-12.14 2.466l-14.72-13.488c-3.41-3.133-8.81-2.534-11.46 1.273L1264.49 1004c-3.53 5.08.1 12.04 6.29 12.04z" fill="url(#paint46_linear_1406_2213)"/><path d="M1458.48 899.915c15.1 0 27.35-12.247 27.35-27.354s-12.25-27.354-27.35-27.354c-15.11 0-27.36 12.247-27.36 27.354s12.25 27.354 27.36 27.354z" fill="url(#paint47_linear_1406_2213)"/><path opacity=".43" d="M1530.68 766.806h-312.95c-9.13 0-16.54-7.403-16.54-16.534v-3c0-9.132 7.41-16.534 16.54-16.534h312.95c9.14 0 16.54 7.403 16.54 16.534v3c0 9.131-7.41 16.534-16.54 16.534z" fill="#fff"/><path d="M1579.04 763.173c-8.14 0-14.76-6.239-14.76-13.907s6.62-13.907 14.76-13.907c8.13 0 14.76 6.239 14.76 13.907s-6.63 13.907-14.76 13.907zm0-23.948c-6.01 0-10.9 4.504-10.9 10.04s4.89 10.04 10.9 10.04c6 0 10.89-4.504 10.89-10.04s-4.89-10.04-10.89-10.04z" fill="url(#paint48_linear_1406_2213)"/><path d="M1628.99 763.173c-8.13 0-14.76-6.239-14.76-13.907s6.63-13.907 14.76-13.907c8.14 0 14.76 6.239 14.76 13.907s-6.62 13.907-14.76 13.907zm0-23.948c-6 0-10.89 4.504-10.89 10.04s4.89 10.04 10.89 10.04c6.01 0 10.9-4.504 10.9-10.04s-4.89-10.04-10.9-10.04z" fill="url(#paint49_linear_1406_2213)"/><path d="M1678.95 763.173c-8.14 0-14.76-6.239-14.76-13.907s6.62-13.907 14.76-13.907 14.76 6.239 14.76 13.907-6.62 13.907-14.76 13.907zm0-23.948c-6.01 0-10.89 4.504-10.89 10.04s4.88 10.04 10.89 10.04c6.01 0 10.9-4.504 10.9-10.04-.01-5.536-4.89-10.04-10.9-10.04z" fill="url(#paint50_linear_1406_2213)"/><path opacity=".43" d="M1528.02 756.706h-307.1a7.59 7.59 0 01-7.59-7.588 7.59 7.59 0 017.59-7.588h307.1a7.59 7.59 0 017.59 7.588 7.59 7.59 0 01-7.59 7.588z" fill="#fff"/><path d="M1219.32 767.831l-34.71 35.337a3.57 3.57 0 00.25 5.227l.26.219a3.311 3.311 0 004.68-.422l31.79-38.336-2.27-2.025z" fill="url(#paint51_linear_1406_2213)"/><path opacity=".2" d="M1254.98 739.523c5.37 11.246.43 24.794-11.02 30.26-11.45 5.466-25.09.78-30.45-10.466-5.37-11.246-.44-24.794 11.01-30.26 11.46-5.466 25.09-.781 30.46 10.466z" fill="url(#paint52_linear_1406_2213)"/><path d="M1223.43 726.761c-12.74 6.082-18.23 21.157-12.26 33.671 5.97 12.514 21.14 17.728 33.89 11.647 12.74-6.082 18.23-21.157 12.26-33.671-5.97-12.514-21.15-17.729-33.89-11.647zm20.04 41.988c-10.87 5.189-23.82.74-28.91-9.935-5.1-10.676-.41-23.536 10.46-28.725 10.87-5.189 23.81-.74 28.91 9.935 5.09 10.676.41 23.537-10.46 28.725z" fill="url(#paint53_linear_1406_2213)"/><path d="M1517.95 1093.23h-286.97c-4.89 0-8.86-3.97-8.86-8.86 0-4.89 3.97-8.86 8.86-8.86h286.97c4.9 0 8.87 3.97 8.87 8.86 0 4.89-3.97 8.86-8.87 8.86zm-.26 33.83h-286.97c-4.9 0-8.86-3.96-8.86-8.86 0-4.89 3.96-8.86 8.86-8.86h286.97c4.89 0 8.86 3.97 8.86 8.86 0 4.9-3.97 8.86-8.86 8.86z" fill="#7D97F4"/><path d="M1506.44 1274.96h-264.48c-11.1 0-20.1-9-20.1-20.1v-89.32c0-11.11 9-20.11 20.1-20.11h264.48c11.11 0 20.11 9 20.11 20.11v89.32c0 11.1-9 20.1-20.11 20.1z" fill="#BDD0FB"/><path opacity=".43" d="M1671.67 970.467h-105.6c-11.11 0-20.11-9.002-20.11-20.107V834.747c0-11.105 9-20.107 20.11-20.107h105.6c11.11 0 20.11 9.002 20.11 20.107v115.612c0 11.105-9 20.108-20.11 20.108zm0 191.303h-105.6c-11.11 0-20.11-9.01-20.11-20.11v-115.61c0-11.11 9-20.11 20.11-20.11h105.6c11.11 0 20.11 9 20.11 20.11v115.61c0 11.1-9 20.11-20.11 20.11zm0 113.19h-105.6c-11.11 0-20.11-9-20.11-20.11v-61.28c0-11.1 9-20.11 20.11-20.11h105.6c11.11 0 20.11 9.01 20.11 20.11v61.28c0 11.11-9 20.11-20.11 20.11zm12.61-279.748h-130.81c-4.15 0-7.51-3.36-7.51-7.504a7.506 7.506 0 017.51-7.504h130.81c4.14 0 7.5 3.36 7.5 7.504a7.504 7.504 0 01-7.5 7.504z" fill="#fff"/><path d="M2064.54 1494.89h-492.38c-23.95 0-43.37-19.42-43.37-43.37V927.08c0-23.954 19.42-43.373 43.37-43.373h492.38c23.96 0 43.38 19.419 43.38 43.373v524.44c-.01 23.95-19.42 43.37-43.38 43.37z" fill="url(#paint54_linear_1406_2213)"/><path d="M2037.65 1478.71h-437.59c-23.95 0-43.37-19.42-43.37-43.38V944.989c0-23.954 19.42-43.373 43.37-43.373h437.59c23.95 0 43.37 19.419 43.37 43.373v490.341c0 23.96-19.42 43.38-43.37 43.38z" fill="#BDD0FB"/><path d="M2005.96 1238.02h-368.85c-14.04 0-25.43-11.38-25.43-25.43v-185.96c0-14.04 11.39-25.42 25.43-25.42h368.85c14.04 0 25.42 11.38 25.42 25.42v185.96c0 14.05-11.38 25.43-25.42 25.43z" fill="url(#paint55_linear_1406_2213)"/><path d="M1903.81 953.37h-312.96c-9.13 0-16.53-7.403-16.53-16.534v-3c0-9.132 7.4-16.534 16.53-16.534h312.96c9.13 0 16.53 7.403 16.53 16.534v3c0 9.131-7.4 16.534-16.53 16.534z" fill="url(#paint56_linear_1406_2213)"/><path d="M1952.16 949.737c-8.14 0-14.76-6.239-14.76-13.907s6.62-13.907 14.76-13.907 14.76 6.239 14.76 13.907-6.62 13.907-14.76 13.907zm0-23.948c-6 0-10.89 4.504-10.89 10.04 0 5.537 4.89 10.04 10.89 10.04 6.01 0 10.9-4.504 10.9-10.04s-4.89-10.04-10.9-10.04z" fill="url(#paint57_linear_1406_2213)"/><path d="M2002.12 949.737c-8.14 0-14.76-6.239-14.76-13.907s6.62-13.907 14.76-13.907 14.76 6.239 14.76 13.907-6.62 13.907-14.76 13.907zm0-23.948c-6.01 0-10.89 4.504-10.89 10.04 0 5.537 4.88 10.04 10.89 10.04 6.01 0 10.9-4.504 10.9-10.04-.01-5.536-4.89-10.04-10.9-10.04z" fill="url(#paint58_linear_1406_2213)"/><path d="M2052.08 949.737c-8.14 0-14.76-6.239-14.76-13.907s6.62-13.907 14.76-13.907 14.76 6.239 14.76 13.907-6.62 13.907-14.76 13.907zm0-23.948c-6.01 0-10.89 4.504-10.89 10.04 0 5.537 4.88 10.04 10.89 10.04 6.01 0 10.89-4.504 10.89-10.04s-4.88-10.04-10.89-10.04z" fill="url(#paint59_linear_1406_2213)"/><path opacity=".43" d="M1901.15 943.27h-307.11c-4.19 0-7.58-3.398-7.58-7.588 0-4.191 3.39-7.589 7.58-7.589h307.11a7.59 7.59 0 017.59 7.588 7.59 7.59 0 01-7.59 7.589z" fill="#fff"/><path d="M1592.45 954.396l-34.71 35.336a3.562 3.562 0 00.25 5.227l.26.219a3.311 3.311 0 004.68-.422l31.78-38.336-2.26-2.024z" fill="url(#paint60_linear_1406_2213)"/><path opacity=".2" d="M1628.11 926.087c5.36 11.246.43 24.794-11.02 30.26-11.46 5.466-25.09.78-30.46-10.466-5.37-11.246-.43-24.794 11.02-30.26 11.45-5.466 25.09-.78 30.46 10.466z" fill="url(#paint61_linear_1406_2213)"/><path d="M1596.56 913.325c-12.75 6.082-18.24 21.157-12.26 33.671 5.97 12.514 21.14 17.728 33.88 11.646 12.75-6.082 18.24-21.157 12.26-33.671-5.97-12.514-21.14-17.728-33.88-11.646zm20.03 41.988c-10.87 5.189-23.81.74-28.91-9.935-5.09-10.676-.41-23.536 10.46-28.725 10.88-5.189 23.82-.74 28.91 9.935 5.1 10.677.42 23.537-10.46 28.725z" fill="url(#paint62_linear_1406_2213)"/><path d="M2033.56 1279.8h-426.43c-4.89 0-8.86-3.97-8.86-8.86 0-4.9 3.97-8.87 8.86-8.87h426.43c4.89 0 8.86 3.97 8.86 8.87 0 4.89-3.97 8.86-8.86 8.86zm-.39 33.83h-426.42c-4.9 0-8.87-3.97-8.87-8.86 0-4.9 3.97-8.86 8.87-8.86h426.42c4.89 0 8.86 3.96 8.86 8.86 0 4.89-3.97 8.86-8.86 8.86z" fill="#7D97F4"/><path d="M1867.97 1461.53h-264.48c-11.1 0-20.1-9.01-20.1-20.11v-89.32c0-11.1 9-20.1 20.1-20.1h264.48c11.11 0 20.11 9 20.11 20.1v89.32c0 11.1-9 20.11-20.11 20.11z" fill="url(#paint63_linear_1406_2213)"/><path d="M2033.2 1461.53h-105.6c-11.11 0-20.11-9.01-20.11-20.11v-89.32c0-11.1 9-20.1 20.11-20.1h105.6c11.11 0 20.11 9 20.11 20.1v89.32c0 11.1-9 20.11-20.11 20.11z" fill="url(#paint64_linear_1406_2213)"/><path d="M1874.78 1119.61c0 27.61-22.38 50-49.99 50-27.61 0-50-22.39-50-50s22.38-49.99 50-49.99c27.61 0 49.99 22.38 49.99 49.99zm-3.03 0c0-25.94-21.03-46.96-46.96-46.96-25.94 0-46.97 21.02-46.97 46.96s21.03 46.97 46.97 46.97c25.93 0 46.96-21.03 46.96-46.97z" fill="url(#paint65_linear_1406_2213)"/><path d="M1810.61 1145.38c-1.4 0-2.56-1.12-2.59-2.53l-1.19-44.27c-.04-1.46.67-2.81 1.89-3.61 1.22-.8 2.73-.91 4.06-.29l43.73 20.46c1.44.67 2.36 2.08 2.41 3.67.04 1.6-.81 3.05-2.22 3.8l-38.6 20.58c-1.26.67-2.83.19-3.51-1.07a2.6 2.6 0 011.07-3.51l36.82-19.63-40.42-18.9 1.15 42.63c.03 1.43-1.1 2.63-2.53 2.67h-.07z" fill="url(#paint66_linear_1406_2213)"/><path d="M1143.37 1055.82l-460.936 441.64c-19.333 18.52-18.788 49.58 1.179 67.42l3.279 2.92c17.668 15.78 44.804 14.16 60.468-3.6l424.4-481.4-28.39-26.98z" fill="url(#paint67_linear_1406_2213)"/><path opacity=".12" d="M1459.98 1090.5c149.66-65.95 218.49-238.534 153.74-385.493-64.75-146.958-238.56-212.636-388.22-146.696-149.66 65.941-218.49 238.53-153.74 385.488 64.75 146.961 238.57 212.641 388.22 146.701z" fill="#fff"/><path d="M1212.31 528.382c-166.54 73.365-243.141 265.408-171.1 428.938 72.04 163.53 265.44 236.63 431.98 163.26 166.54-73.36 243.14-265.405 171.1-428.937-72.04-163.53-265.45-236.626-431.98-163.261zm241.72 548.698c-142.07 62.59-307.07.24-368.53-139.274-61.45-139.509 3.9-303.341 145.97-365.928 142.07-62.588 307.07-.23 368.52 139.279 61.46 139.51-3.89 303.343-145.96 365.923z" fill="url(#paint68_linear_1406_2213)"/><path d="M1079.62 983.04c-.47.087-.97-.12-1.23-.554a298.28 298.28 0 01-11.19-20.334c-.3-.587-.06-1.298.53-1.592.59-.295 1.3-.054 1.59.53 3.42 6.835 7.16 13.62 11.1 20.171.34.562.15 1.291-.41 1.628-.12.077-.26.126-.39.151zm-34.41-83.706a1.192 1.192 0 01-1.37-.888 297.613 297.613 0 01-8.23-62.624c-1.43-59.692 14.88-118.304 47.16-169.498 33.05-52.415 80.78-93.451 138.03-118.673 53.84-23.718 112.78-31.821 170.42-23.427a1.186 1.186 0 11-.34 2.349c-57.21-8.33-115.69-.291-169.13 23.251-114.59 50.48-186.72 162.718-183.76 285.941.5 20.911 3.24 41.812 8.16 62.122a1.192 1.192 0 01-.94 1.447zM724.383 1563.99c-.039.01-.079.01-.12.02-19.38 1.59-32.43-4.13-38.786-17.02-6.398-12.97-3.488-28.91 7.24-39.67l54.59-54.73a1.182 1.182 0 011.677-.01c.464.47.465 1.22.002 1.68l-54.59 54.74c-10.009 10.04-12.738 24.89-6.792 36.94 5.883 11.93 18.151 17.21 36.464 15.7.653-.05 1.226.44 1.28 1.09.05.61-.374 1.15-.965 1.26zm40.802-126.27c-.37.07-.767-.04-1.055-.32a1.189 1.189 0 01-.002-1.68l7.075-7.1a1.189 1.189 0 011.679 1.68l-7.075 7.09a1.14 1.14 0 01-.622.33z" fill="#BDD0FB"/></g><defs><linearGradient id="paint0_linear_1406_2213" x1="245.586" y1="823.804" x2="2319.71" y2="823.804" gradientUnits="userSpaceOnUse"><stop stop-color="#DAE3FE"/><stop offset="1" stop-color="#E9EFFD"/></linearGradient><linearGradient id="paint1_linear_1406_2213" x1="1225.05" y1="1465.6" x2="1260.38" y2="393.687" gradientUnits="userSpaceOnUse"><stop stop-color="#09005D"/><stop offset="1" stop-color="#1A0F91"/></linearGradient><linearGradient id="paint2_linear_1406_2213" x1="1806.18" y1="350.163" x2="130.539" y2="2264.04" gradientUnits="userSpaceOnUse"><stop stop-color="#FE7062"/><stop offset="1" stop-color="#FF928E"/></linearGradient><linearGradient id="paint3_linear_1406_2213" x1="1259.28" y1="659.124" x2="1259.28" y2="1373.73" gradientUnits="userSpaceOnUse"><stop stop-color="#09005D"/><stop offset="1" stop-color="#1A0F91"/></linearGradient><linearGradient id="paint4_linear_1406_2213" x1="835.586" y1="6.681" x2="90.025" y2="1773.6" gradientUnits="userSpaceOnUse"><stop stop-color="#4042E2"/><stop offset="1" stop-color="#4F52FF"/></linearGradient><linearGradient id="paint5_linear_1406_2213" x1="374.703" y1="271.244" x2="720.728" y2="271.244" gradientUnits="userSpaceOnUse"><stop stop-color="#DAE3FE"/><stop offset="1" stop-color="#E9EFFD"/></linearGradient><linearGradient id="paint6_linear_1406_2213" x1="737.787" y1="271.739" x2="767.307" y2="271.739" gradientUnits="userSpaceOnUse"><stop stop-color="#DAE3FE"/><stop offset="1" stop-color="#E9EFFD"/></linearGradient><linearGradient id="paint7_linear_1406_2213" x1="787.746" y1="271.739" x2="817.266" y2="271.739" gradientUnits="userSpaceOnUse"><stop stop-color="#DAE3FE"/><stop offset="1" stop-color="#E9EFFD"/></linearGradient><linearGradient id="paint8_linear_1406_2213" x1="837.703" y1="271.739" x2="867.224" y2="271.739" gradientUnits="userSpaceOnUse"><stop stop-color="#DAE3FE"/><stop offset="1" stop-color="#E9EFFD"/></linearGradient><linearGradient id="paint9_linear_1406_2213" x1="432.633" y1="172.238" x2="338.896" y2="400.464" gradientUnits="userSpaceOnUse"><stop stop-color="#4042E2"/><stop offset="1" stop-color="#4F52FF"/></linearGradient><linearGradient id="paint10_linear_1406_2213" x1="387.017" y1="281.789" x2="428.492" y2="261.996" gradientUnits="userSpaceOnUse"><stop stop-color="#53D8FF"/><stop offset="1" stop-color="#3840F7"/></linearGradient><linearGradient id="paint11_linear_1406_2213" x1="446.367" y1="177.878" x2="352.631" y2="406.105" gradientUnits="userSpaceOnUse"><stop stop-color="#4042E2"/><stop offset="1" stop-color="#4F52FF"/></linearGradient><linearGradient id="paint12_linear_1406_2213" x1="398.17" y1="375.054" x2="842.317" y2="375.054" gradientUnits="userSpaceOnUse"><stop stop-color="#4042E2"/><stop offset="1" stop-color="#4F52FF"/></linearGradient><linearGradient id="paint13_linear_1406_2213" x1="460.01" y1="340.053" x2="774.495" y2="340.053" gradientUnits="userSpaceOnUse"><stop stop-color="#4042E2"/><stop offset="1" stop-color="#4F52FF"/></linearGradient><linearGradient id="paint14_linear_1406_2213" x1="2081.05" y1="179.376" x2="1606.47" y2="809.453" gradientUnits="userSpaceOnUse"><stop stop-color="#FE7062"/><stop offset="1" stop-color="#FF928E"/></linearGradient><linearGradient id="paint15_linear_1406_2213" x1="2081.05" y1="179.376" x2="1606.47" y2="809.452" gradientUnits="userSpaceOnUse"><stop stop-color="#FE7062"/><stop offset="1" stop-color="#FF928E"/></linearGradient><linearGradient id="paint16_linear_1406_2213" x1="1791.01" y1="564.449" x2="1316.44" y2="1194.53" gradientUnits="userSpaceOnUse"><stop stop-color="#E1473D"/><stop offset="1" stop-color="#E9605A"/></linearGradient><linearGradient id="paint17_linear_1406_2213" x1="1826.52" y1="402.13" x2="2096.09" y2="239.061" gradientUnits="userSpaceOnUse"><stop stop-color="#09005D"/><stop offset="1" stop-color="#1A0F91"/></linearGradient><linearGradient id="paint18_linear_1406_2213" x1="1896.41" y1="394.258" x2="1968.02" y2="394.258" gradientUnits="userSpaceOnUse"><stop stop-color="#4042E2"/><stop offset="1" stop-color="#4F52FF"/></linearGradient><linearGradient id="paint19_linear_1406_2213" x1="2171.09" y1="176.457" x2="2431.24" y2="-39.327" gradientUnits="userSpaceOnUse"><stop stop-color="#4042E2"/><stop offset="1" stop-color="#4F52FF"/></linearGradient><linearGradient id="paint20_linear_1406_2213" x1="2150.01" y1="155.381" x2="2365.8" y2="-104.77" gradientUnits="userSpaceOnUse"><stop stop-color="#4042E2"/><stop offset="1" stop-color="#4F52FF"/></linearGradient><linearGradient id="paint21_linear_1406_2213" x1="1088.85" y1="137.18" x2="343.289" y2="1904.09" gradientUnits="userSpaceOnUse"><stop stop-color="#4042E2"/><stop offset="1" stop-color="#4F52FF"/></linearGradient><linearGradient id="paint22_linear_1406_2213" x1="991.05" y1="402.237" x2="1020.57" y2="402.237" gradientUnits="userSpaceOnUse"><stop stop-color="#DAE3FE"/><stop offset="1" stop-color="#E9EFFD"/></linearGradient><linearGradient id="paint23_linear_1406_2213" x1="1041.01" y1="402.237" x2="1070.53" y2="402.237" gradientUnits="userSpaceOnUse"><stop stop-color="#DAE3FE"/><stop offset="1" stop-color="#E9EFFD"/></linearGradient><linearGradient id="paint24_linear_1406_2213" x1="1090.97" y1="402.237" x2="1120.49" y2="402.237" gradientUnits="userSpaceOnUse"><stop stop-color="#DAE3FE"/><stop offset="1" stop-color="#E9EFFD"/></linearGradient><linearGradient id="paint25_linear_1406_2213" x1="685.896" y1="302.736" x2="592.16" y2="530.962" gradientUnits="userSpaceOnUse"><stop stop-color="#4042E2"/><stop offset="1" stop-color="#4F52FF"/></linearGradient><linearGradient id="paint26_linear_1406_2213" x1="640.279" y1="412.287" x2="681.754" y2="392.494" gradientUnits="userSpaceOnUse"><stop stop-color="#53D8FF"/><stop offset="1" stop-color="#3840F7"/></linearGradient><linearGradient id="paint27_linear_1406_2213" x1="699.631" y1="308.377" x2="605.895" y2="536.603" gradientUnits="userSpaceOnUse"><stop stop-color="#4042E2"/><stop offset="1" stop-color="#4F52FF"/></linearGradient><linearGradient id="paint28_linear_1406_2213" x1="657.745" y1="753.598" x2="959.348" y2="753.598" gradientUnits="userSpaceOnUse"><stop stop-color="#DAE3FE"/><stop offset="1" stop-color="#E9EFFD"/></linearGradient><linearGradient id="paint29_linear_1406_2213" x1="657.482" y1="787.431" x2="959.086" y2="787.431" gradientUnits="userSpaceOnUse"><stop stop-color="#DAE3FE"/><stop offset="1" stop-color="#E9EFFD"/></linearGradient><linearGradient id="paint30_linear_1406_2213" x1="658.306" y1="823.399" x2="959.91" y2="823.399" gradientUnits="userSpaceOnUse"><stop stop-color="#DAE3FE"/><stop offset="1" stop-color="#E9EFFD"/></linearGradient><linearGradient id="paint31_linear_1406_2213" x1="658.045" y1="857.231" x2="959.648" y2="857.231" gradientUnits="userSpaceOnUse"><stop stop-color="#DAE3FE"/><stop offset="1" stop-color="#E9EFFD"/></linearGradient><linearGradient id="paint32_linear_1406_2213" x1="657.601" y1="888.164" x2="959.205" y2="888.164" gradientUnits="userSpaceOnUse"><stop stop-color="#DAE3FE"/><stop offset="1" stop-color="#E9EFFD"/></linearGradient><linearGradient id="paint33_linear_1406_2213" x1="656.184" y1="707.214" x2="956.044" y2="707.214" gradientUnits="userSpaceOnUse"><stop stop-color="#4042E2"/><stop offset="1" stop-color="#4F52FF"/></linearGradient><linearGradient id="paint34_linear_1406_2213" x1="651.35" y1="564.753" x2="956.043" y2="564.753" gradientUnits="userSpaceOnUse"><stop stop-color="#4042E2"/><stop offset="1" stop-color="#4F52FF"/></linearGradient><linearGradient id="paint35_linear_1406_2213" x1="692.334" y1="576.049" x2="897.96" y2="576.049" gradientUnits="userSpaceOnUse"><stop stop-color="#DAE3FE"/><stop offset="1" stop-color="#E9EFFD"/></linearGradient><linearGradient id="paint36_linear_1406_2213" x1="860.351" y1="504.266" x2="915.06" y2="504.266" gradientUnits="userSpaceOnUse"><stop stop-color="#DAE3FE"/><stop offset="1" stop-color="#E9EFFD"/></linearGradient><linearGradient id="paint37_linear_1406_2213" x1="1334.38" y1="333.41" x2="588.818" y2="2100.33" gradientUnits="userSpaceOnUse"><stop stop-color="#4042E2"/><stop offset="1" stop-color="#4F52FF"/></linearGradient><linearGradient id="paint38_linear_1406_2213" x1="1236.58" y1="598.467" x2="1266.1" y2="598.467" gradientUnits="userSpaceOnUse"><stop stop-color="#DAE3FE"/><stop offset="1" stop-color="#E9EFFD"/></linearGradient><linearGradient id="paint39_linear_1406_2213" x1="1286.54" y1="598.467" x2="1316.06" y2="598.467" gradientUnits="userSpaceOnUse"><stop stop-color="#DAE3FE"/><stop offset="1" stop-color="#E9EFFD"/></linearGradient><linearGradient id="paint40_linear_1406_2213" x1="1336.5" y1="598.467" x2="1366.02" y2="598.467" gradientUnits="userSpaceOnUse"><stop stop-color="#DAE3FE"/><stop offset="1" stop-color="#E9EFFD"/></linearGradient><linearGradient id="paint41_linear_1406_2213" x1="931.425" y1="498.967" x2="837.69" y2="727.193" gradientUnits="userSpaceOnUse"><stop stop-color="#4042E2"/><stop offset="1" stop-color="#4F52FF"/></linearGradient><linearGradient id="paint42_linear_1406_2213" x1="885.81" y1="608.518" x2="927.285" y2="588.725" gradientUnits="userSpaceOnUse"><stop stop-color="#53D8FF"/><stop offset="1" stop-color="#3840F7"/></linearGradient><linearGradient id="paint43_linear_1406_2213" x1="945.16" y1="504.607" x2="851.424" y2="732.834" gradientUnits="userSpaceOnUse"><stop stop-color="#4042E2"/><stop offset="1" stop-color="#4F52FF"/></linearGradient><linearGradient id="paint44_linear_1406_2213" x1="1664.52" y1="483.02" x2="910.549" y2="2269.87" gradientUnits="userSpaceOnUse"><stop stop-color="#4042E2"/><stop offset="1" stop-color="#4F52FF"/></linearGradient><linearGradient id="paint45_linear_1406_2213" x1="1222.12" y1="933.048" x2="1526.82" y2="933.048" gradientUnits="userSpaceOnUse"><stop stop-color="#4042E2"/><stop offset="1" stop-color="#4F52FF"/></linearGradient><linearGradient id="paint46_linear_1406_2213" x1="1263.11" y1="944.344" x2="1468.73" y2="944.344" gradientUnits="userSpaceOnUse"><stop stop-color="#DAE3FE"/><stop offset="1" stop-color="#E9EFFD"/></linearGradient><linearGradient id="paint47_linear_1406_2213" x1="1431.12" y1="872.561" x2="1485.83" y2="872.561" gradientUnits="userSpaceOnUse"><stop stop-color="#DAE3FE"/><stop offset="1" stop-color="#E9EFFD"/></linearGradient><linearGradient id="paint48_linear_1406_2213" x1="1564.28" y1="749.266" x2="1593.8" y2="749.266" gradientUnits="userSpaceOnUse"><stop stop-color="#DAE3FE"/><stop offset="1" stop-color="#E9EFFD"/></linearGradient><linearGradient id="paint49_linear_1406_2213" x1="1614.23" y1="749.266" x2="1643.75" y2="749.266" gradientUnits="userSpaceOnUse"><stop stop-color="#DAE3FE"/><stop offset="1" stop-color="#E9EFFD"/></linearGradient><linearGradient id="paint50_linear_1406_2213" x1="1664.19" y1="749.266" x2="1693.71" y2="749.266" gradientUnits="userSpaceOnUse"><stop stop-color="#DAE3FE"/><stop offset="1" stop-color="#E9EFFD"/></linearGradient><linearGradient id="paint51_linear_1406_2213" x1="1259.12" y1="649.765" x2="1165.39" y2="877.991" gradientUnits="userSpaceOnUse"><stop stop-color="#4042E2"/><stop offset="1" stop-color="#4F52FF"/></linearGradient><linearGradient id="paint52_linear_1406_2213" x1="1213.51" y1="759.316" x2="1254.98" y2="739.523" gradientUnits="userSpaceOnUse"><stop stop-color="#53D8FF"/><stop offset="1" stop-color="#3840F7"/></linearGradient><linearGradient id="paint53_linear_1406_2213" x1="1272.86" y1="655.406" x2="1179.12" y2="883.632" gradientUnits="userSpaceOnUse"><stop stop-color="#4042E2"/><stop offset="1" stop-color="#4F52FF"/></linearGradient><linearGradient id="paint54_linear_1406_2213" x1="2037.65" y1="669.584" x2="1283.68" y2="2456.44" gradientUnits="userSpaceOnUse"><stop stop-color="#4042E2"/><stop offset="1" stop-color="#4F52FF"/></linearGradient><linearGradient id="paint55_linear_1406_2213" x1="1611.68" y1="1119.61" x2="2031.38" y2="1119.61" gradientUnits="userSpaceOnUse"><stop stop-color="#4042E2"/><stop offset="1" stop-color="#4F52FF"/></linearGradient><linearGradient id="paint56_linear_1406_2213" x1="1574.32" y1="935.335" x2="1920.34" y2="935.335" gradientUnits="userSpaceOnUse"><stop stop-color="#DAE3FE"/><stop offset="1" stop-color="#E9EFFD"/></linearGradient><linearGradient id="paint57_linear_1406_2213" x1="1937.4" y1="935.83" x2="1966.92" y2="935.83" gradientUnits="userSpaceOnUse"><stop stop-color="#DAE3FE"/><stop offset="1" stop-color="#E9EFFD"/></linearGradient><linearGradient id="paint58_linear_1406_2213" x1="1987.36" y1="935.83" x2="2016.88" y2="935.83" gradientUnits="userSpaceOnUse"><stop stop-color="#DAE3FE"/><stop offset="1" stop-color="#E9EFFD"/></linearGradient><linearGradient id="paint59_linear_1406_2213" x1="2037.32" y1="935.83" x2="2066.84" y2="935.83" gradientUnits="userSpaceOnUse"><stop stop-color="#DAE3FE"/><stop offset="1" stop-color="#E9EFFD"/></linearGradient><linearGradient id="paint60_linear_1406_2213" x1="1632.25" y1="836.329" x2="1538.51" y2="1064.56" gradientUnits="userSpaceOnUse"><stop stop-color="#53D8FF"/><stop offset="1" stop-color="#3840F7"/></linearGradient><linearGradient id="paint61_linear_1406_2213" x1="1586.63" y1="945.88" x2="1628.11" y2="926.087" gradientUnits="userSpaceOnUse"><stop stop-color="#53D8FF"/><stop offset="1" stop-color="#3840F7"/></linearGradient><linearGradient id="paint62_linear_1406_2213" x1="1645.98" y1="841.97" x2="1552.25" y2="1070.2" gradientUnits="userSpaceOnUse"><stop stop-color="#53D8FF"/><stop offset="1" stop-color="#3840F7"/></linearGradient><linearGradient id="paint63_linear_1406_2213" x1="1583.39" y1="1396.76" x2="1888.08" y2="1396.76" gradientUnits="userSpaceOnUse"><stop stop-color="#DAE3FE"/><stop offset="1" stop-color="#E9EFFD"/></linearGradient><linearGradient id="paint64_linear_1406_2213" x1="1907.49" y1="1396.76" x2="2053.31" y2="1396.76" gradientUnits="userSpaceOnUse"><stop stop-color="#DAE3FE"/><stop offset="1" stop-color="#E9EFFD"/></linearGradient><linearGradient id="paint65_linear_1406_2213" x1="1774.79" y1="1119.61" x2="1874.78" y2="1119.61" gradientUnits="userSpaceOnUse"><stop stop-color="#DAE3FE"/><stop offset="1" stop-color="#E9EFFD"/></linearGradient><linearGradient id="paint66_linear_1406_2213" x1="1806.83" y1="1119.83" x2="1858.92" y2="1119.83" gradientUnits="userSpaceOnUse"><stop stop-color="#DAE3FE"/><stop offset="1" stop-color="#E9EFFD"/></linearGradient><linearGradient id="paint67_linear_1406_2213" x1="936.454" y1="954.028" x2="963.939" y2="365.064" gradientUnits="userSpaceOnUse"><stop stop-color="#09005D"/><stop offset="1" stop-color="#1A0F91"/></linearGradient><linearGradient id="paint68_linear_1406_2213" x1="1504.26" y1="382.654" x2="1162.66" y2="1317.14" gradientUnits="userSpaceOnUse"><stop stop-color="#09005D"/><stop offset="1" stop-color="#1A0F91"/></linearGradient><clipPath id="clip0_1406_2213"><path fill="#fff" transform="translate(.5)" d="M0 0h2475v1650H0z"/></clipPath></defs></svg>