<svg width="54" height="31" viewBox="0 0 54 31" fill="none" xmlns="http://www.w3.org/2000/svg">
<path d="M2 13.5C0.89543 13.5 0 14.3954 0 15.5C0 16.6046 0.89543 17.5 2 17.5V13.5ZM53.4142 16.9142C54.1953 16.1332 54.1953 14.8668 53.4142 14.0858L40.6863 1.35786C39.9052 0.576816 38.6389 0.576816 37.8579 1.35786C37.0768 2.13891 37.0768 3.40524 37.8579 4.18629L49.1716 15.5L37.8579 26.8137C37.0768 27.5948 37.0768 28.8611 37.8579 29.6421C38.6389 30.4232 39.9052 30.4232 40.6863 29.6421L53.4142 16.9142ZM2 17.5H52V13.5H2V17.5Z" fill="#000"/>
</svg>
