<svg width="312" height="299" fill="none" xmlns="http://www.w3.org/2000/svg"><path d="M74.105 61.781c-1.71-2.224-5.403-4.045-8.208-4.045H5.132c-2.806 0-5.1 1.48-5.1 3.289v69.582c0 2.805 2.294 5.1 5.1 5.1h80.56c2.805 0 5.1-2.295 5.1-5.1v-42c0-2.806-1.399-6.921-3.108-9.146l-13.58-17.68z" fill="#204863"/><path d="M215.681 76.28H4.521v150.903h211.16V76.281z" fill="#A7A9AC"/><path d="M217.211 78.15H6.051v150.903h211.16V78.151z" fill="#D1D3D4"/><path d="M219.506 80.19H8.346v150.902h211.16V80.191z" fill="#fff"/><path d="M95.892 67.944c-2.805 0-6.499 1.82-8.207 4.045l-13.58 17.68c-1.71 2.224-5.403 4.045-8.208 4.045H5.132a5.114 5.114 0 00-5.1 5.1v150.698c0 2.805 2.294 5.1 5.1 5.1H233.62c2.806 0 5.101-2.295 5.101-5.1V73.044c0-2.805-2.295-5.1-5.101-5.1H95.892z" fill="#2D5779"/><path d="M237.358 223.925c41.224-41.224 41.224-108.06 0-149.283-41.223-41.224-108.059-41.224-149.283 0-41.223 41.223-41.223 108.059 0 149.283 41.224 41.223 108.06 41.223 149.283 0z" fill="#FC7256"/><path d="M227.683 214.249c35.879-35.88 35.879-94.052 0-129.932-35.88-35.88-94.052-35.88-129.932 0-35.88 35.88-35.88 94.052 0 129.932 35.88 35.88 94.052 35.88 129.932 0z" fill="#fff"/><path d="M162.72 224.869c41.745 0 75.586-33.841 75.586-75.586s-33.841-75.585-75.586-75.585c-41.744 0-75.585 33.84-75.585 75.585 0 41.745 33.841 75.586 75.585 75.586z" fill="#FC7256"/><path d="M206.266 192.831c24.051-24.051 24.051-63.045 0-87.096-24.051-24.051-63.046-24.051-87.097 0-24.05 24.051-24.05 63.045 0 87.096 24.051 24.051 63.046 24.051 87.097 0z" fill="#fff"/><path d="M162.72 192.624c23.937 0 43.341-19.404 43.341-43.341s-19.404-43.341-43.341-43.341-43.341 19.404-43.341 43.341 19.404 43.341 43.341 43.341z" fill="#FC7256"/><path d="M162.719 174.258c13.794 0 24.976-11.181 24.976-24.975 0-13.793-11.182-24.975-24.976-24.975-13.793 0-24.975 11.182-24.975 24.975 0 13.794 11.182 24.975 24.975 24.975z" fill="#fff"/><path opacity=".1" d="M236.305 224.963l-72.61-72.61 4.838-4.838 72.525 72.524-4.753 4.924z" fill="#231F20"/><path d="M270.454 134.512h37.469l-8.688 11.35h-37.469l8.688-11.35zm.015 29.542h37.47l-8.688-11.35h-37.47l8.688 11.35z" fill="#036587"/><path d="M299.236 145.862H163.695v6.842h135.541v-6.842z" fill="#077EB3"/><path d="M57.158 238.634c24.855 0 45.005-20.149 45.005-45.004 0-24.855-20.15-45.005-45.005-45.005-24.855 0-45.004 20.15-45.004 45.005 0 24.855 20.15 45.004 45.004 45.004z" fill="#fff"/><path d="M100.937 183.158l-.735-.274h-3.536l-2.61-2.105-5.47 4.041-4.546-4.041-7.743 1.432-4.967.589-.842 9.342 2.02 8.922h8.25l4.587-.673 1.978 3.62 2.104 4.208-3.704 3.115 3.115 7.07-.505 2.778 2.747 2.024c6.902-7.909 11.085-18.254 11.085-29.577 0-3.605-.426-7.111-1.228-10.471zm-82.832 6.263l2.918.673 2.919 1.908 3.927 1.235 2.02.505 1.909.842-1.01 2.02-3.143 5.05 3.48 4.152 4.937 3.143v2.806l3.255 4.937s-.337 3.143 0 4.153c.336 1.01 2.245 6.285 2.245 6.285l1.908 2.469 4.601.561-2.918-4.714s4.265-6.509 4.602-6.734c.336-.224-1.347-2.805-1.01-3.142.336-.336 3.03-3.254 3.03-3.254l2.918-3.704 1.234-4.826-3.703-5.836s-4.153-2.918-4.153-3.255c0-.337-2.693-3.254-2.693-3.254l-7.52-.225-4.265-1.347-1.57 2.806-3.592-1.796.112-2.965h-2.805l-1.572-2.422 2.357-1.794 4.826 2.469 3.03-1.908 3.254-7.632 2.918-3.704h5.275l.786-1.795 3.478-1.684 1.46.968 1.57-2.315-3.03-4.264-2.357-.786-.869.816-2.834 2.663-6.622-1.571-.897 3.142-2.919-3.703 3.816-1.347 4.265 1.122 1.683-1.683 5.387-.786-4.377-4.601h-5.05l-2.02 3.254-2.02-2.581-4.884-.322c-9.459 7.01-16.071 17.641-17.79 29.845l3.594.62 1.91 1.506zm66.161-23.68v2.02l-5.948 1.683.561 4.265-3.367-2.062-3.254 2.623 2.132 3.142 3.255.45 5.499-4.378 1.571 2.02s-1.01 2.357 0 3.142c1.01.786 5.254 2.021 5.254 2.021v-3.816l-2.897-2.581 1.908-1.571 3.48 2.917-1.124 2.021 6.51 3.03s.713-.826 1.753-2.047c-3.269-9.241-9.468-17.096-17.484-22.446l-1.89 7.097 4.041 2.47z" fill="#6DBE45"/><path d="M262.097 245.889h-50.675v5.199h50.675v-5.199z" fill="#EAB763"/><path d="M260.805 245.167h-48.09v.722h48.09v-.722zm0 5.921h-48.09v.721h48.09v-.721z" fill="#FFE078"/><path d="M262.097 239.248h-50.675v5.198h50.675v-5.198z" fill="#EAB763"/><path d="M260.805 238.526h-48.09v.722h48.09v-.722zm0 5.92h-48.09v.721h48.09v-.721z" fill="#FFE078"/><path d="M262.097 232.606h-50.675v5.198h50.675v-5.198z" fill="#EAB763"/><path d="M260.805 231.884h-48.09v.722h48.09v-.722zm0 5.92h-48.09v.722h48.09v-.722z" fill="#FFE078"/><path d="M262.097 225.964h-50.675v5.199h50.675v-5.199z" fill="#EAB763"/><path d="M260.805 225.242h-48.09v.722h48.09v-.722zm0 5.921h-48.09v.721h48.09v-.721z" fill="#FFE078"/><path d="M262.07 219.303h-50.675v5.199h50.675v-5.199z" fill="#EAB763"/><path d="M260.779 218.581h-48.091v.722h48.091v-.722zm0 5.92h-48.091v.722h48.091v-.722z" fill="#FFE078"/><path d="M262.07 212.661h-50.675v5.199h50.675v-5.199z" fill="#EAB763"/><path d="M260.779 211.939h-48.091v.722h48.091v-.722zm0 5.921h-48.091v.721h48.091v-.721z" fill="#FFE078"/><path d="M262.07 206.019h-50.675v5.199h50.675v-5.199z" fill="#EAB763"/><path d="M260.779 205.298h-48.091v.721h48.091v-.721zm0 5.92h-48.091v.722h48.091v-.722z" fill="#FFE078"/><path d="M262.07 199.378h-50.675v5.198h50.675v-5.198z" fill="#EAB763"/><path d="M260.779 198.656h-48.091v.722h48.091v-.722zm0 5.921h-48.091v.721h48.091v-.721z" fill="#FFE078"/><path d="M208.596 210.256l-30.957 40.12 4.115 3.175 30.958-40.119-4.116-3.176z" fill="#EAB763"/><path d="M207.236 210.837l-29.379 38.073.572.441 29.378-38.074-.571-.44zm4.686 3.616l-29.379 38.074.572.441 29.379-38.074-.572-.441z" fill="#FFE078"/><path d="M276.762 106.227l18.086 18.858v-18.858h-18.086z" fill="#E6E7E8"/><path d="M271.065 66.48a46.41 46.41 0 00-10.472 1.18c-13.738 3.183-23.679 12.46-23.679 23.408 0 1.722.247 3.401.715 5.022 3.22 11.171 16.966 19.566 33.435 19.566 18.861 0 34.151-11.008 34.151-24.588 0-13.58-15.289-24.588-34.15-24.588z" fill="#fff"/><path d="M234.659 114.825l-11.641 12.138v-12.138h11.641z" fill="#D8B509"/><path d="M238.327 89.24c2.352 0 4.617.268 6.741.76 8.842 2.05 15.241 8.02 15.241 15.068 0 1.108-.159 2.188-.459 3.232-2.073 7.19-10.921 12.594-21.523 12.594-12.14 0-21.981-7.086-21.981-15.826 0-8.741 9.841-15.827 21.981-15.827z" fill="#FEDD18"/><path d="M89.78 219.634H40.696v28.462c0 .474.151.908.399 1.243.075.102.159.194.25.276.28.252.631.402 1.011.402h66.001c.913 0 1.659-.864 1.659-1.92v-28.462l-20.234-.001z" fill="#58CBF5"/><path d="M109.581 207.742a1.812 1.812 0 00-.217-.229 1.506 1.506 0 00-1.008-.403H42.355c-.913 0-1.66.864-1.66 1.92v10.604h69.32V209.03a2.08 2.08 0 00-.434-1.288z" fill="#7CD9F2"/><path d="M53.941 239.468c0 1.055-.864 1.92-1.92 1.92h-5.76a1.926 1.926 0 01-1.921-1.92v-2.058c0-1.056.864-1.92 1.92-1.92h5.761c1.056 0 1.92.864 1.92 1.92v2.058z" fill="#FBB040"/><path d="M44.34 216.355v-5.757h1.3c.342 0 .651.091.927.271.236.153.404.39.505.712.055.171.082.375.082.61 0 .386-.102.695-.307.928a.868.868 0 01-.303.225c.192.074.356.219.491.436.089.148.155.337.198.57.02.12.032.252.032.399 0 .364-.07.674-.207.928a1.236 1.236 0 01-.455.477c-.22.135-.439.202-.656.202H44.34v-.001zm.937-3.406h.362c.27 0 .45-.132.542-.395a1.12 1.12 0 00.05-.363c0-.239-.058-.419-.174-.542a.55.55 0 00-.418-.169h-.362v1.469zm0 2.548h.362c.294 0 .498-.151.611-.455a.996.996 0 00.06-.358c0-.321-.061-.556-.184-.702-.11-.135-.273-.202-.487-.202h-.362v1.717zm3.699-.464l-.21 1.323h-.905l.979-5.753h1.193l.964 5.753h-.912l-.203-1.323h-.906zm.456-3.113l-.322 2.269h.643l-.322-2.269zm3.271-1.322l1.152 3.87v-3.87h.867v5.757h-.931l-1.194-3.686v3.686h-.869v-5.757h.975zm3.663 3.933v1.824h-.868v-5.757h.868v2.053l1.06-2.053h.926l-1.188 2.349 1.393 3.409h-1.02l-.911-2.338-.26.513zm26 29.531c.195 0 .361.068.497.205a.68.68 0 01.205.496v1.6c0 .194-.069.36-.206.496a.68.68 0 01-.496.205.67.67 0 01-.495-.206.678.678 0 01-.203-.495v-1.6c0-.195.068-.36.205-.497a.676.676 0 01.493-.204zm.241.692a.241.241 0 00-.073-.179.244.244 0 00-.18-.074c-.07 0-.13.025-.18.074a.242.242 0 00-.074.179v1.604a.252.252 0 00.255.252c.07 0 .13-.024.179-.073a.243.243 0 00.073-.179v-1.604zm2.093-.66v.445l-.62 2.487h-.434l.62-2.487h-.895v-.445H84.7zm1.704 2.266a.67.67 0 01-.206.496.678.678 0 01-.493.203.677.677 0 01-.497-.204.673.673 0 01-.204-.495v-1.599c0-.195.068-.361.205-.497a.676.676 0 01.496-.205.67.67 0 01.496.206.68.68 0 01.203.496v1.599zm-.458-1.609c0-.07-.025-.13-.075-.18a.243.243 0 00-.18-.074c-.07 0-.13.025-.18.074a.248.248 0 00-.073.18v1.602c0 .07.025.13.074.18a.245.245 0 00.179.075.25.25 0 00.18-.075c.05-.05.075-.11.075-.18v-1.602zm2.24 1.609c0 .194-.069.36-.206.496a.678.678 0 01-.493.203.677.677 0 01-.497-.204.673.673 0 01-.205-.495v-1.599c0-.195.069-.361.206-.497a.674.674 0 01.496-.205.67.67 0 01.495.206.681.681 0 01.204.496v1.599zm-.458-1.609a.25.25 0 00-.075-.18.244.244 0 00-.18-.074c-.07 0-.13.025-.179.074a.247.247 0 00-.074.18v1.602c0 .07.025.13.074.18.05.049.109.075.18.075.07 0 .129-.026.179-.075.05-.05.075-.11.075-.18v-1.602zm1.31-.212v.629a.392.392 0 01.333-.171c.194 0 .337.068.43.203.08.117.119.282.119.496v.632a.724.724 0 01-.206.532.664.664 0 01-.495.201.625.625 0 01-.482-.21.698.698 0 01-.184-.491v-.07l.423-.033.009.101c.01.116.058.194.142.233a.17.17 0 00.08.019c.18 0 .271-.094.271-.282v-.719a.274.274 0 00-.094-.212.185.185 0 00-.124-.04c-.079 0-.137.03-.175.092a.323.323 0 00-.046.168v.079h-.442v-1.601h1.293v.444h-.852zm1.187.804h1.309v.445h-1.31v-.445zm1.989 1.685v-2.255h-.376v-.309a.657.657 0 00.303-.121.593.593 0 00.207-.246h.309v2.931h-.443zm.813-2.104c0-.276.075-.489.224-.635.13-.13.3-.194.51-.194a.66.66 0 01.495.217.718.718 0 01.204.508c0 .199-.044.392-.133.578a4.333 4.333 0 01-.34.53c-.047.069-.119.175-.214.32l-.08.12c-.051.077-.09.139-.117.184a.175.175 0 00-.018.042h.867v.432h-1.406v-.405c0-.009.033-.063.097-.161l.101-.15.115-.165c.068-.092.172-.239.316-.442.136-.19.238-.362.305-.517a.884.884 0 00.082-.352.351.351 0 00-.075-.227.261.261 0 00-.21-.099c-.124 0-.211.072-.262.213a.487.487 0 00-.026.168v.112h-.435v-.077zm1.743 0c0-.276.075-.489.225-.635.13-.13.3-.194.51-.194.193 0 .358.073.494.217a.718.718 0 01.205.508c0 .199-.045.392-.133.578a4.35 4.35 0 01-.34.53c-.048.069-.12.175-.215.32l-.079.12a3.96 3.96 0 00-.117.184.19.19 0 00-.019.042h.868v.432h-1.405v-.405c0-.009.032-.063.096-.161l.101-.15.115-.165c.067-.092.173-.239.316-.442.136-.19.237-.362.305-.517a.884.884 0 00.082-.352.352.352 0 00-.075-.227.26.26 0 00-.21-.099c-.124 0-.211.072-.262.213a.497.497 0 00-.026.168v.112h-.435v-.077zm2.114 2.104v-2.255h-.376v-.309a.658.658 0 00.303-.121.594.594 0 00.207-.246h.308v2.931h-.442zm.745-1.685h1.31v.445h-1.31v-.445zm1.99 1.685v-2.255h-.377v-.309a.655.655 0 00.303-.121.595.595 0 00.207-.246h.308v2.931h-.441zm.793-1.078l.781-1.856h.442v1.856h.283v.446h-.283v.63h-.442v-.63h-.781v-.446zm.781 0v-.915l-.366.915h.366zm1.03 0l.781-1.856h.441v1.856h.283v.446h-.283v.63h-.441v-.63h-.781v-.446zm.781 0v-.915l-.366.915h.366zm1.029 0l.781-1.856h.442v1.856h.283v.446h-.283v.63h-.442v-.63h-.781v-.446zm.781 0v-.915l-.365.915h.365z" fill="#fff"/></svg>