<svg width="375" height="250" viewBox="0 0 375 250" fill="none" xmlns="http://www.w3.org/2000/svg">
<rect width="375" height="250" rx="32" fill="white"/>
<rect x="39" y="185" width="297" height="32" rx="9" fill="#8F00FF"/>
<path d="M158.616 206.252C157.152 206.252 155.97 205.868 155.07 205.1C154.182 204.32 153.738 203.258 153.738 201.914H156.492C156.492 202.214 156.546 202.484 156.654 202.724C156.774 202.952 156.93 203.138 157.122 203.282C157.326 203.426 157.554 203.534 157.806 203.606C158.058 203.678 158.322 203.714 158.598 203.714C159.15 203.714 159.624 203.582 160.02 203.318C160.428 203.054 160.632 202.694 160.632 202.238C160.632 202.046 160.584 201.878 160.488 201.734C160.392 201.578 160.278 201.458 160.146 201.374C160.026 201.278 159.834 201.182 159.57 201.086C159.318 200.99 159.102 200.918 158.922 200.87C158.742 200.822 158.472 200.756 158.112 200.672C157.824 200.6 157.608 200.546 157.464 200.51C157.32 200.474 157.104 200.414 156.816 200.33C156.54 200.246 156.324 200.174 156.168 200.114C156.024 200.042 155.832 199.946 155.592 199.826C155.352 199.706 155.166 199.586 155.034 199.466C154.902 199.346 154.752 199.196 154.584 199.016C154.428 198.836 154.308 198.65 154.224 198.458C154.14 198.254 154.068 198.026 154.008 197.774C153.948 197.51 153.918 197.234 153.918 196.946C153.918 195.746 154.326 194.816 155.142 194.156C155.958 193.496 157.074 193.166 158.49 193.166C159.918 193.166 161.028 193.526 161.82 194.246C162.624 194.966 163.026 195.956 163.026 197.216H160.326C160.326 196.7 160.14 196.31 159.768 196.046C159.408 195.77 158.958 195.632 158.418 195.632C157.938 195.632 157.518 195.734 157.158 195.938C156.81 196.142 156.636 196.436 156.636 196.82C156.636 197 156.678 197.162 156.762 197.306C156.858 197.438 156.966 197.552 157.086 197.648C157.206 197.732 157.392 197.822 157.644 197.918C157.896 198.002 158.106 198.068 158.274 198.116C158.454 198.152 158.718 198.212 159.066 198.296C159.45 198.392 159.738 198.47 159.93 198.53C160.122 198.578 160.398 198.668 160.758 198.8C161.118 198.92 161.394 199.04 161.586 199.16C161.79 199.28 162.024 199.442 162.288 199.646C162.552 199.838 162.75 200.054 162.882 200.294C163.026 200.522 163.146 200.804 163.242 201.14C163.35 201.464 163.404 201.818 163.404 202.202C163.404 203.078 163.182 203.828 162.738 204.452C162.294 205.076 161.718 205.532 161.01 205.82C160.314 206.108 159.516 206.252 158.616 206.252ZM165.405 194.984V192.536H168.033V194.984H165.405ZM165.405 206V196.28H168.033V206H165.405ZM178.403 196.28H180.113V204.866C180.113 205.874 179.909 206.744 179.501 207.476C179.105 208.22 178.535 208.79 177.791 209.186C177.047 209.582 176.165 209.78 175.145 209.78C173.825 209.78 172.721 209.462 171.833 208.826C170.957 208.19 170.411 207.32 170.195 206.216H172.805C172.949 206.624 173.237 206.942 173.669 207.17C174.101 207.41 174.575 207.53 175.091 207.53C175.787 207.53 176.363 207.32 176.819 206.9C177.287 206.492 177.521 205.94 177.521 205.244V204.884C176.717 205.46 175.793 205.748 174.749 205.748C173.861 205.748 173.045 205.538 172.301 205.118C171.557 204.686 170.975 204.098 170.555 203.354C170.135 202.61 169.925 201.788 169.925 200.888C169.925 199.532 170.387 198.38 171.311 197.432C172.247 196.484 173.393 196.01 174.749 196.01C176.009 196.01 177.089 196.424 177.989 197.252L178.403 196.28ZM175.055 203.408C175.775 203.408 176.369 203.174 176.837 202.706C177.305 202.226 177.539 201.62 177.539 200.888C177.539 200.168 177.305 199.574 176.837 199.106C176.381 198.626 175.787 198.386 175.055 198.386C174.347 198.386 173.759 198.626 173.291 199.106C172.823 199.574 172.589 200.168 172.589 200.888C172.589 201.62 172.817 202.226 173.273 202.706C173.741 203.174 174.335 203.408 175.055 203.408ZM188.175 196.046C189.279 196.046 190.149 196.418 190.785 197.162C191.433 197.894 191.757 198.878 191.757 200.114V206H189.129V200.528C189.129 199.076 188.565 198.35 187.437 198.35C186.993 198.35 186.603 198.452 186.267 198.656C185.943 198.86 185.691 199.154 185.511 199.538C185.343 199.922 185.259 200.372 185.259 200.888V206H182.631V196.28H184.431L184.953 197.486C185.133 197.258 185.337 197.06 185.565 196.892C185.805 196.712 186.063 196.562 186.339 196.442C186.615 196.31 186.903 196.214 187.203 196.154C187.515 196.082 187.839 196.046 188.175 196.046ZM207.451 204.866C206.467 205.802 205.225 206.27 203.725 206.27C202.225 206.27 200.983 205.802 199.999 204.866C199.015 203.93 198.523 202.73 198.523 201.266V193.4H201.259V201.14C201.259 201.908 201.487 202.526 201.943 202.994C202.399 203.462 202.993 203.696 203.725 203.696C204.457 203.696 205.051 203.462 205.507 202.994C205.975 202.526 206.209 201.908 206.209 201.14V193.4H208.927V201.266C208.927 202.73 208.435 203.93 207.451 204.866ZM216.611 196.01C218.075 196.01 219.287 196.496 220.247 197.468C221.219 198.44 221.705 199.664 221.705 201.14C221.705 202.616 221.219 203.846 220.247 204.83C219.275 205.802 218.063 206.288 216.611 206.288C215.615 206.288 214.721 206.018 213.929 205.478V209.51H211.301V196.28H213.047L213.497 197.162C214.361 196.394 215.399 196.01 216.611 196.01ZM214.487 203.048C214.991 203.552 215.621 203.804 216.377 203.804C217.145 203.804 217.781 203.552 218.285 203.048C218.789 202.544 219.041 201.908 219.041 201.14C219.041 200.636 218.927 200.18 218.699 199.772C218.471 199.364 218.153 199.046 217.745 198.818C217.349 198.59 216.899 198.476 216.395 198.476C215.891 198.476 215.435 198.59 215.027 198.818C214.619 199.046 214.301 199.364 214.073 199.772C213.857 200.18 213.749 200.636 213.749 201.14C213.749 201.908 213.995 202.544 214.487 203.048Z" fill="white"/>
<g filter="url(#filter0_i_1065_2064)">
<rect x="39" y="62" width="297" height="32" rx="9" fill="#F9F9F9"/>
</g>
<g filter="url(#filter1_i_1065_2064)">
<rect x="39" y="135" width="297" height="32" rx="9" fill="#F9F9F9"/>
</g>
<path d="M150.246 106.4C151.434 106.4 152.424 106.784 153.216 107.552C154.02 108.32 154.422 109.28 154.422 110.432C154.422 111.584 154.02 112.544 153.216 113.312C152.424 114.08 151.434 114.464 150.246 114.464H147.294V119H145.728V106.4H150.246ZM150.156 112.934C150.924 112.934 151.554 112.7 152.046 112.232C152.55 111.752 152.802 111.152 152.802 110.432C152.802 109.712 152.55 109.118 152.046 108.65C151.554 108.17 150.924 107.93 150.156 107.93H147.294V112.934H150.156ZM164.709 109.28H165.933V119H164.655L164.493 117.524C164.037 118.064 163.479 118.484 162.819 118.784C162.171 119.072 161.457 119.216 160.677 119.216C159.249 119.216 158.055 118.736 157.095 117.776C156.135 116.804 155.655 115.592 155.655 114.14C155.655 112.688 156.135 111.482 157.095 110.522C158.055 109.55 159.249 109.064 160.677 109.064C161.469 109.064 162.189 109.214 162.837 109.514C163.497 109.814 164.055 110.234 164.511 110.774L164.709 109.28ZM158.229 116.714C158.913 117.398 159.771 117.74 160.803 117.74C161.835 117.74 162.687 117.398 163.359 116.714C164.031 116.03 164.367 115.172 164.367 114.14C164.367 113.108 164.031 112.25 163.359 111.566C162.687 110.882 161.835 110.54 160.803 110.54C159.771 110.54 158.913 110.888 158.229 111.584C157.557 112.268 157.221 113.12 157.221 114.14C157.221 115.16 157.557 116.018 158.229 116.714ZM172.093 119.216C171.325 119.216 170.653 119.09 170.077 118.838C169.501 118.574 169.051 118.202 168.727 117.722C168.403 117.23 168.229 116.66 168.205 116.012H169.699C169.735 116.576 169.975 117.014 170.419 117.326C170.863 117.638 171.433 117.794 172.129 117.794C172.813 117.794 173.365 117.662 173.785 117.398C174.205 117.122 174.415 116.75 174.415 116.282C174.415 116.102 174.385 115.94 174.325 115.796C174.277 115.652 174.187 115.526 174.055 115.418C173.923 115.31 173.791 115.22 173.659 115.148C173.527 115.076 173.347 115.01 173.119 114.95C172.903 114.89 172.711 114.848 172.543 114.824C172.387 114.788 172.171 114.746 171.895 114.698C171.583 114.65 171.343 114.608 171.175 114.572C171.007 114.536 170.779 114.482 170.491 114.41C170.203 114.326 169.975 114.242 169.807 114.158C169.639 114.074 169.453 113.96 169.249 113.816C169.045 113.672 168.889 113.516 168.781 113.348C168.673 113.18 168.577 112.97 168.493 112.718C168.421 112.466 168.385 112.184 168.385 111.872C168.385 111.464 168.469 111.086 168.637 110.738C168.817 110.39 169.063 110.096 169.375 109.856C169.699 109.604 170.089 109.412 170.545 109.28C171.001 109.136 171.499 109.064 172.039 109.064C173.143 109.064 174.025 109.334 174.685 109.874C175.345 110.414 175.687 111.146 175.711 112.07H174.271C174.247 111.722 174.139 111.428 173.947 111.188C173.767 110.936 173.509 110.75 173.173 110.63C172.849 110.498 172.465 110.432 172.021 110.432C171.577 110.432 171.193 110.492 170.869 110.612C170.545 110.72 170.293 110.882 170.113 111.098C169.945 111.314 169.861 111.56 169.861 111.836C169.861 112.028 169.909 112.202 170.005 112.358C170.101 112.502 170.209 112.622 170.329 112.718C170.449 112.802 170.635 112.886 170.887 112.97C171.139 113.042 171.349 113.096 171.517 113.132C171.697 113.156 171.949 113.198 172.273 113.258C172.609 113.306 172.855 113.348 173.011 113.384C173.179 113.408 173.413 113.462 173.713 113.546C174.025 113.618 174.265 113.696 174.433 113.78C174.601 113.864 174.793 113.984 175.009 114.14C175.237 114.284 175.405 114.452 175.513 114.644C175.621 114.824 175.717 115.052 175.801 115.328C175.885 115.592 175.927 115.886 175.927 116.21C175.927 117.122 175.573 117.854 174.865 118.406C174.169 118.946 173.245 119.216 172.093 119.216ZM181.321 119.216C180.553 119.216 179.881 119.09 179.305 118.838C178.729 118.574 178.279 118.202 177.955 117.722C177.631 117.23 177.457 116.66 177.433 116.012H178.927C178.963 116.576 179.203 117.014 179.647 117.326C180.091 117.638 180.661 117.794 181.357 117.794C182.041 117.794 182.593 117.662 183.013 117.398C183.433 117.122 183.643 116.75 183.643 116.282C183.643 116.102 183.613 115.94 183.553 115.796C183.505 115.652 183.415 115.526 183.283 115.418C183.151 115.31 183.019 115.22 182.887 115.148C182.755 115.076 182.575 115.01 182.347 114.95C182.131 114.89 181.939 114.848 181.771 114.824C181.615 114.788 181.399 114.746 181.123 114.698C180.811 114.65 180.571 114.608 180.403 114.572C180.235 114.536 180.007 114.482 179.719 114.41C179.431 114.326 179.203 114.242 179.035 114.158C178.867 114.074 178.681 113.96 178.477 113.816C178.273 113.672 178.117 113.516 178.009 113.348C177.901 113.18 177.805 112.97 177.721 112.718C177.649 112.466 177.613 112.184 177.613 111.872C177.613 111.464 177.697 111.086 177.865 110.738C178.045 110.39 178.291 110.096 178.603 109.856C178.927 109.604 179.317 109.412 179.773 109.28C180.229 109.136 180.727 109.064 181.267 109.064C182.371 109.064 183.253 109.334 183.913 109.874C184.573 110.414 184.915 111.146 184.939 112.07H183.499C183.475 111.722 183.367 111.428 183.175 111.188C182.995 110.936 182.737 110.75 182.401 110.63C182.077 110.498 181.693 110.432 181.249 110.432C180.805 110.432 180.421 110.492 180.097 110.612C179.773 110.72 179.521 110.882 179.341 111.098C179.173 111.314 179.089 111.56 179.089 111.836C179.089 112.028 179.137 112.202 179.233 112.358C179.329 112.502 179.437 112.622 179.557 112.718C179.677 112.802 179.863 112.886 180.115 112.97C180.367 113.042 180.577 113.096 180.745 113.132C180.925 113.156 181.177 113.198 181.501 113.258C181.837 113.306 182.083 113.348 182.239 113.384C182.407 113.408 182.641 113.462 182.941 113.546C183.253 113.618 183.493 113.696 183.661 113.78C183.829 113.864 184.021 113.984 184.237 114.14C184.465 114.284 184.633 114.452 184.741 114.644C184.849 114.824 184.945 115.052 185.029 115.328C185.113 115.592 185.155 115.886 185.155 116.21C185.155 117.122 184.801 117.854 184.093 118.406C183.397 118.946 182.473 119.216 181.321 119.216ZM199.122 109.28H200.67L197.358 119H196.116L193.362 112.376L190.626 119H189.384L186.09 109.28H187.692L190.104 116.444L193.092 109.424H193.65L196.638 116.498L199.122 109.28ZM206.787 119.216C205.827 119.216 204.951 119 204.159 118.568C203.367 118.124 202.749 117.518 202.305 116.75C201.861 115.97 201.639 115.1 201.639 114.14C201.639 112.676 202.125 111.464 203.097 110.504C204.081 109.544 205.311 109.064 206.787 109.064C207.759 109.064 208.635 109.286 209.415 109.73C210.207 110.162 210.825 110.768 211.269 111.548C211.725 112.316 211.953 113.18 211.953 114.14C211.953 115.592 211.461 116.804 210.477 117.776C209.493 118.736 208.263 119.216 206.787 119.216ZM204.213 116.732C204.897 117.404 205.755 117.74 206.787 117.74C207.831 117.74 208.689 117.404 209.361 116.732C210.045 116.048 210.387 115.184 210.387 114.14C210.387 113.096 210.045 112.238 209.361 111.566C208.689 110.882 207.831 110.54 206.787 110.54C205.755 110.54 204.897 110.882 204.213 111.566C203.541 112.238 203.205 113.096 203.205 114.14C203.205 115.184 203.541 116.048 204.213 116.732ZM218.706 109.226H219.57V110.684H218.58C217.704 110.684 217.02 110.954 216.528 111.494C216.048 112.022 215.808 112.766 215.808 113.726V119H214.278V109.28H215.358L215.61 110.756C216.318 109.736 217.35 109.226 218.706 109.226ZM228.753 105.806H230.283V119H229.113L228.897 117.614C227.937 118.682 226.695 119.216 225.171 119.216C223.707 119.216 222.501 118.736 221.553 117.776C220.617 116.804 220.149 115.592 220.149 114.14C220.149 112.676 220.617 111.464 221.553 110.504C222.501 109.544 223.707 109.064 225.171 109.064C226.611 109.064 227.805 109.544 228.753 110.504V105.806ZM222.723 116.714C223.395 117.398 224.241 117.74 225.261 117.74C226.293 117.74 227.151 117.398 227.835 116.714C228.519 116.018 228.861 115.16 228.861 114.14C228.861 113.108 228.519 112.25 227.835 111.566C227.163 110.882 226.311 110.54 225.279 110.54C224.775 110.54 224.301 110.636 223.857 110.828C223.413 111.008 223.035 111.254 222.723 111.566C222.411 111.878 222.165 112.262 221.985 112.718C221.805 113.162 221.715 113.636 221.715 114.14C221.715 115.172 222.051 116.03 222.723 116.714Z" fill="black"/>
<path d="M162.294 44.488H168.054V46H160.728V33.4H167.856V34.894H162.294V38.8H167.388V40.258H162.294V44.488ZM169.928 41.716V40.24H175.634V41.716H169.928ZM189.153 36.064C189.837 36.064 190.437 36.226 190.953 36.55C191.469 36.862 191.865 37.3 192.141 37.864C192.429 38.428 192.573 39.07 192.573 39.79V46H191.043V40.258C191.043 39.682 190.953 39.184 190.773 38.764C190.605 38.344 190.353 38.026 190.017 37.81C189.693 37.582 189.303 37.468 188.847 37.468C188.139 37.468 187.527 37.774 187.011 38.386C186.507 38.986 186.255 39.73 186.255 40.618V46H184.761V40.258C184.761 39.382 184.563 38.698 184.167 38.206C183.783 37.714 183.243 37.468 182.547 37.468C182.199 37.468 181.863 37.552 181.539 37.72C181.227 37.876 180.951 38.092 180.711 38.368C180.483 38.644 180.297 38.98 180.153 39.376C180.021 39.76 179.955 40.174 179.955 40.618V46H178.425V36.28H179.523L179.775 37.612C179.955 37.372 180.159 37.156 180.387 36.964C180.627 36.772 180.879 36.61 181.143 36.478C181.407 36.346 181.689 36.244 181.989 36.172C182.289 36.1 182.589 36.064 182.889 36.064C183.573 36.064 184.173 36.232 184.689 36.568C185.205 36.892 185.595 37.342 185.859 37.918C186.099 37.534 186.393 37.204 186.741 36.928C187.089 36.652 187.467 36.442 187.875 36.298C188.295 36.142 188.721 36.064 189.153 36.064ZM203.808 36.28H205.032V46H203.754L203.592 44.524C203.136 45.064 202.578 45.484 201.918 45.784C201.27 46.072 200.556 46.216 199.776 46.216C198.348 46.216 197.154 45.736 196.194 44.776C195.234 43.804 194.754 42.592 194.754 41.14C194.754 39.688 195.234 38.482 196.194 37.522C197.154 36.55 198.348 36.064 199.776 36.064C200.568 36.064 201.288 36.214 201.936 36.514C202.596 36.814 203.154 37.234 203.61 37.774L203.808 36.28ZM197.328 43.714C198.012 44.398 198.87 44.74 199.902 44.74C200.934 44.74 201.786 44.398 202.458 43.714C203.13 43.03 203.466 42.172 203.466 41.14C203.466 40.108 203.13 39.25 202.458 38.566C201.786 37.882 200.934 37.54 199.902 37.54C198.87 37.54 198.012 37.888 197.328 38.584C196.656 39.268 196.32 40.12 196.32 41.14C196.32 42.16 196.656 43.018 197.328 43.714ZM208.042 34.588V32.842H209.698V34.588H208.042ZM208.114 46V36.28H209.644V46H208.114ZM212.72 46V32.806H214.25V46H212.72Z" fill="black"/>
<defs>
<filter id="filter0_i_1065_2064" x="39" y="62" width="297" height="32" filterUnits="userSpaceOnUse" color-interpolation-filters="sRGB">
<feFlood flood-opacity="0" result="BackgroundImageFix"/>
<feBlend mode="normal" in="SourceGraphic" in2="BackgroundImageFix" result="shape"/>
<feColorMatrix in="SourceAlpha" type="matrix" values="0 0 0 0 0 0 0 0 0 0 0 0 0 0 0 0 0 0 127 0" result="hardAlpha"/>
<feMorphology radius="1" operator="erode" in="SourceAlpha" result="effect1_innerShadow_1065_2064"/>
<feOffset/>
<feGaussianBlur stdDeviation="0.5"/>
<feComposite in2="hardAlpha" operator="arithmetic" k2="-1" k3="1"/>
<feColorMatrix type="matrix" values="0 0 0 0 0 0 0 0 0 0 0 0 0 0 0 0 0 0 0.18 0"/>
<feBlend mode="normal" in2="shape" result="effect1_innerShadow_1065_2064"/>
</filter>
<filter id="filter1_i_1065_2064" x="39" y="135" width="297" height="32" filterUnits="userSpaceOnUse" color-interpolation-filters="sRGB">
<feFlood flood-opacity="0" result="BackgroundImageFix"/>
<feBlend mode="normal" in="SourceGraphic" in2="BackgroundImageFix" result="shape"/>
<feColorMatrix in="SourceAlpha" type="matrix" values="0 0 0 0 0 0 0 0 0 0 0 0 0 0 0 0 0 0 127 0" result="hardAlpha"/>
<feMorphology radius="1" operator="erode" in="SourceAlpha" result="effect1_innerShadow_1065_2064"/>
<feOffset/>
<feGaussianBlur stdDeviation="0.5"/>
<feComposite in2="hardAlpha" operator="arithmetic" k2="-1" k3="1"/>
<feColorMatrix type="matrix" values="0 0 0 0 0 0 0 0 0 0 0 0 0 0 0 0 0 0 0.18 0"/>
<feBlend mode="normal" in2="shape" result="effect1_innerShadow_1065_2064"/>
</filter>
</defs>
</svg>
