<svg width="312" height="299" viewBox="0 0 312 299" fill="none" xmlns="http://www.w3.org/2000/svg">
<path d="M74.1045 61.7813C72.3956 59.5565 68.7019 57.7362 65.8969 57.7362H5.13183C2.32641 57.7362 0.03125 59.2159 0.03125 61.0245C0.03125 62.8332 0.03125 66.608 0.03125 69.4135V78.4055C0.03125 81.2109 0.03125 85.8013 0.03125 88.6067V130.607C0.03125 133.412 2.32641 135.707 5.13183 135.707H85.6913C88.4967 135.707 90.7919 133.412 90.7919 130.607V88.6067C90.7919 85.8013 89.3934 81.6858 87.6845 79.461L74.1045 61.7813Z" fill="#204863"/>
<path d="M215.681 76.2805H4.52148V227.183H215.681V76.2805Z" fill="#A7A9AC"/>
<path d="M217.211 78.1508H6.05078V229.053H217.211V78.1508Z" fill="#D1D3D4"/>
<path d="M219.506 80.1906H8.3457V231.092H219.506V80.1906Z" fill="white"/>
<path d="M95.8921 67.9436C93.087 67.9436 89.3934 69.7635 87.6845 71.9887L74.1045 89.6688C72.3956 91.8932 68.7019 93.7139 65.8969 93.7139H5.13183C2.32641 93.7139 0.03125 96.0091 0.03125 98.8145V249.512C0.03125 252.317 2.32641 254.612 5.13183 254.612H233.621C236.427 254.612 238.722 252.317 238.722 249.512V73.0442C238.722 70.2388 236.427 67.9436 233.621 67.9436H95.8921Z" fill="#2D5779"/>
<path d="M237.358 223.925C278.582 182.701 278.582 115.865 237.358 74.6416C196.135 33.4182 129.299 33.4182 88.0752 74.6416C46.8518 115.865 46.8518 182.701 88.0752 223.925C129.299 265.148 196.135 265.148 237.358 223.925Z" fill="#FC7256"/>
<path d="M227.683 214.249C263.562 178.369 263.562 120.197 227.683 84.3174C191.803 48.4377 133.631 48.4378 97.751 84.3174C61.8713 120.197 61.8713 178.369 97.751 214.249C133.631 250.129 191.803 250.129 227.683 214.249Z" fill="white"/>
<path d="M162.72 224.869C204.465 224.869 238.306 191.028 238.306 149.283C238.306 107.538 204.465 73.6976 162.72 73.6976C120.976 73.6976 87.1348 107.538 87.1348 149.283C87.1348 191.028 120.976 224.869 162.72 224.869Z" fill="#FC7256"/>
<path d="M206.266 192.831C230.317 168.78 230.317 129.786 206.266 105.735C182.215 81.6838 143.22 81.6838 119.169 105.735C95.1183 129.786 95.1183 168.78 119.169 192.831C143.22 216.882 182.215 216.882 206.266 192.831Z" fill="white"/>
<path d="M162.72 192.624C186.657 192.624 206.061 173.22 206.061 149.283C206.061 125.346 186.657 105.942 162.72 105.942C138.783 105.942 119.379 125.346 119.379 149.283C119.379 173.22 138.783 192.624 162.72 192.624Z" fill="#FC7256"/>
<path d="M162.719 174.258C176.513 174.258 187.695 163.077 187.695 149.283C187.695 135.49 176.513 124.308 162.719 124.308C148.926 124.308 137.744 135.49 137.744 149.283C137.744 163.077 148.926 174.258 162.719 174.258Z" fill="white"/>
<path opacity="0.1" d="M236.305 224.963L163.695 152.353L168.533 147.515L241.058 220.039L236.305 224.963Z" fill="#231F20"/>
<path d="M270.454 134.512H307.923L299.235 145.862H261.766L270.454 134.512Z" fill="#036587"/>
<path d="M270.469 164.054H307.939L299.251 152.704H261.781L270.469 164.054Z" fill="#036587"/>
<path d="M299.236 145.862H163.695V152.704H299.236V145.862Z" fill="#077EB3"/>
<path d="M57.1584 238.634C82.0135 238.634 102.163 218.485 102.163 193.63C102.163 168.775 82.0135 148.625 57.1584 148.625C32.3033 148.625 12.1543 168.775 12.1543 193.63C12.1543 218.485 32.3033 238.634 57.1584 238.634Z" fill="white"/>
<path d="M100.937 183.158L100.202 182.884H96.6659L94.0567 180.779L88.5854 184.82L84.0401 180.779L76.2966 182.211L71.3303 182.8L70.4883 192.142L72.5084 201.064H80.7574L85.3449 200.391L87.3228 204.011L89.427 208.219L85.7233 211.334L88.8379 218.404L88.3329 221.182L91.08 223.206C97.9824 215.297 102.165 204.952 102.165 193.629C102.165 190.024 101.739 186.518 100.937 183.158Z" fill="#6DBE45"/>
<path d="M18.1054 189.421L21.0235 190.094L23.9415 192.002L27.8695 193.237L29.8897 193.742L31.7976 194.584L30.7875 196.604L27.6452 201.654L31.1245 205.806L36.0622 208.949V211.755L39.3168 216.692C39.3168 216.692 38.9802 219.835 39.3168 220.845C39.6534 221.855 41.5617 227.13 41.5617 227.13L43.4696 229.599L48.0712 230.16L45.1532 225.446C45.1532 225.446 49.4182 218.937 49.7548 218.712C50.0914 218.488 48.4078 215.907 48.7447 215.57C49.0813 215.234 51.7749 212.316 51.7749 212.316L54.6929 208.612L55.9274 203.786L52.2237 197.95C52.2237 197.95 48.0712 195.032 48.0712 194.695C48.0712 194.358 45.3776 191.441 45.3776 191.441L37.8584 191.216L33.5934 189.869L32.0224 192.675L28.4309 190.879L28.543 187.914H26.0742H25.7376L24.1662 185.492L26.5225 183.698L31.3485 186.167L34.3787 184.259L37.6332 176.627L40.5512 172.923H45.8259L46.6116 171.128L50.0905 169.444L51.5493 170.412L53.1203 168.097L50.0901 163.833L47.7335 163.047L46.8641 163.863L44.0298 166.526L37.408 164.955L36.5106 168.097L33.5922 164.394L37.408 163.047L41.6731 164.169L43.3562 162.486L48.7431 161.7L44.3659 157.099H39.3156L37.2955 160.353L35.2753 157.772L30.3923 157.45C20.933 164.46 14.3209 175.091 12.6016 187.295L16.1963 187.915L18.1054 189.421Z" fill="#6DBE45"/>
<path d="M84.2664 165.741V167.761L78.3182 169.444L78.8795 173.709L75.5124 171.647L72.2578 174.27L74.3901 177.412L77.6447 177.862L83.1437 173.484L84.7151 175.504C84.7151 175.504 83.7051 177.861 84.7151 178.646C85.7252 179.432 89.9689 180.667 89.9689 180.667V176.851L87.0718 174.27L88.9798 172.699L92.4591 175.616L91.3364 177.637L97.846 180.667C97.846 180.667 98.5593 179.841 99.5991 178.62C96.3305 169.379 90.131 161.524 82.1152 156.174L80.2257 163.271L84.2664 165.741Z" fill="#6DBE45"/>
<path d="M262.097 245.889H211.422V251.088H262.097V245.889Z" fill="#EAB763"/>
<path d="M260.805 245.167H212.715V245.889H260.805V245.167Z" fill="#FFE078"/>
<path d="M260.805 251.088H212.715V251.809H260.805V251.088Z" fill="#FFE078"/>
<path d="M262.097 239.248H211.422V244.446H262.097V239.248Z" fill="#EAB763"/>
<path d="M260.805 238.526H212.715V239.248H260.805V238.526Z" fill="#FFE078"/>
<path d="M260.805 244.446H212.715V245.167H260.805V244.446Z" fill="#FFE078"/>
<path d="M262.097 232.606H211.422V237.804H262.097V232.606Z" fill="#EAB763"/>
<path d="M260.805 231.884H212.715V232.606H260.805V231.884Z" fill="#FFE078"/>
<path d="M260.805 237.804H212.715V238.526H260.805V237.804Z" fill="#FFE078"/>
<path d="M262.097 225.964H211.422V231.163H262.097V225.964Z" fill="#EAB763"/>
<path d="M260.805 225.242H212.715V225.964H260.805V225.242Z" fill="#FFE078"/>
<path d="M260.805 231.163H212.715V231.884H260.805V231.163Z" fill="#FFE078"/>
<path d="M262.07 219.303H211.395V224.502H262.07V219.303Z" fill="#EAB763"/>
<path d="M260.779 218.581H212.688V219.303H260.779V218.581Z" fill="#FFE078"/>
<path d="M260.779 224.501H212.688V225.223H260.779V224.501Z" fill="#FFE078"/>
<path d="M262.07 212.661H211.395V217.86H262.07V212.661Z" fill="#EAB763"/>
<path d="M260.779 211.939H212.688V212.661H260.779V211.939Z" fill="#FFE078"/>
<path d="M260.779 217.86H212.688V218.581H260.779V217.86Z" fill="#FFE078"/>
<path d="M262.07 206.019H211.395V211.218H262.07V206.019Z" fill="#EAB763"/>
<path d="M260.779 205.298H212.688V206.019H260.779V205.298Z" fill="#FFE078"/>
<path d="M260.779 211.218H212.688V211.94H260.779V211.218Z" fill="#FFE078"/>
<path d="M262.07 199.378H211.395V204.576H262.07V199.378Z" fill="#EAB763"/>
<path d="M260.779 198.656H212.688V199.378H260.779V198.656Z" fill="#FFE078"/>
<path d="M260.779 204.577H212.688V205.298H260.779V204.577Z" fill="#FFE078"/>
<path d="M208.596 210.256L177.639 250.376L181.754 253.551L212.712 213.432L208.596 210.256Z" fill="#EAB763"/>
<path d="M207.236 210.837L177.857 248.91L178.429 249.351L207.807 211.277L207.236 210.837Z" fill="#FFE078"/>
<path d="M211.922 214.453L182.543 252.527L183.115 252.968L212.494 214.894L211.922 214.453Z" fill="#FFE078"/>
<path d="M276.762 106.227L294.848 125.085V106.227H276.762Z" fill="#E6E7E8"/>
<path d="M271.065 66.4801C267.411 66.4801 263.893 66.8947 260.593 67.6598C246.855 70.8432 236.914 80.1192 236.914 91.0682C236.914 92.7896 237.161 94.4692 237.629 96.0904C240.849 107.261 254.595 115.656 271.064 115.656C289.925 115.656 305.215 104.648 305.215 91.0682C305.215 77.4887 289.926 66.4801 271.065 66.4801Z" fill="white"/>
<path d="M234.659 114.825L223.018 126.963V114.825H234.659Z" fill="#D8B509"/>
<path d="M238.327 89.2408C240.679 89.2408 242.944 89.5078 245.068 90.0004C253.91 92.0495 260.309 98.0198 260.309 105.068C260.309 106.176 260.15 107.256 259.85 108.3C257.777 115.49 248.929 120.894 238.327 120.894C226.187 120.894 216.346 113.808 216.346 105.068C216.346 96.327 226.187 89.2408 238.327 89.2408Z" fill="#FEDD18"/>
<path d="M89.7807 219.634H40.6953V221.29V248.096C40.6953 248.57 40.8461 249.004 41.0938 249.339C41.169 249.441 41.253 249.533 41.3443 249.615C41.6246 249.867 41.9752 250.017 42.3552 250.017H108.356C109.269 250.017 110.015 249.153 110.015 248.097V221.29V219.635L89.7807 219.634Z" fill="#58CBF5"/>
<path d="M109.581 207.742C109.515 207.658 109.442 207.583 109.364 207.513C109.084 207.262 108.735 207.11 108.356 207.11H42.3548C41.442 207.11 40.6953 207.974 40.6953 209.03V213.9V219.634H89.7807H110.015V213.9V209.03C110.015 208.535 109.85 208.083 109.581 207.742Z" fill="#7CD9F2"/>
<path d="M53.9415 239.468C53.9415 240.523 53.0774 241.388 52.0211 241.388H46.2602C45.2039 241.388 44.3398 240.523 44.3398 239.468V237.41C44.3398 236.354 45.2039 235.49 46.2602 235.49H52.0211C53.0774 235.49 53.9415 236.354 53.9415 237.41V239.468Z" fill="#FBB040"/>
<path d="M44.3398 216.355V210.598H45.6394C45.9824 210.598 46.2912 210.689 46.5671 210.869C46.8027 211.022 46.9712 211.259 47.0721 211.581C47.1268 211.752 47.1545 211.956 47.1545 212.191C47.1545 212.577 47.052 212.886 46.8469 213.119C46.7613 213.217 46.6603 213.292 46.5437 213.344C46.7363 213.418 46.9004 213.563 47.0351 213.78C47.124 213.928 47.1899 214.117 47.2325 214.35C47.2538 214.47 47.2647 214.602 47.2647 214.749C47.2647 215.113 47.1959 215.423 47.058 215.677C46.9506 215.876 46.7991 216.035 46.6032 216.154C46.3829 216.289 46.1642 216.356 45.9466 216.356H44.3398V216.355ZM45.2767 212.949H45.6394C45.9084 212.949 46.0894 212.817 46.1814 212.554C46.2148 212.456 46.2317 212.335 46.2317 212.191C46.2317 211.952 46.1734 211.772 46.0572 211.649C45.9498 211.536 45.8107 211.48 45.6394 211.48H45.2767V212.949ZM45.2767 215.497H45.6394C45.9329 215.497 46.1368 215.346 46.2502 215.042C46.29 214.938 46.3097 214.819 46.3097 214.684C46.3097 214.363 46.2486 214.128 46.1259 213.982C46.0158 213.847 45.8533 213.78 45.6394 213.78H45.2767V215.497Z" fill="white"/>
<path d="M48.9759 215.033L48.7652 216.356H47.8613L48.8396 210.603H50.0334L50.9973 216.356H50.0849L49.8819 215.033H48.9759ZM49.4315 211.92L49.1102 214.189H49.7532L49.4315 211.92Z" fill="white"/>
<path d="M52.7032 210.598L53.8548 214.468V210.598H54.7225V216.355H53.7905L52.5966 212.669V216.355H51.7285V210.598H52.7032Z" fill="white"/>
<path d="M56.3662 214.531V216.355H55.498V210.598H56.3662V212.651L57.4269 210.598H58.3521L57.1643 212.947L58.5572 216.356H57.5375L56.6259 214.018L56.3662 214.531Z" fill="white"/>
<path d="M82.3664 244.062C82.5614 244.062 82.7271 244.13 82.8634 244.267C82.9997 244.405 83.0677 244.57 83.0677 244.763V246.363C83.0677 246.557 82.9993 246.723 82.8622 246.859C82.7251 246.995 82.5598 247.064 82.3664 247.064C82.1718 247.064 82.0061 246.995 81.871 246.858C81.7355 246.721 81.668 246.556 81.668 246.363V244.763C81.668 244.568 81.7363 244.403 81.8734 244.266C82.0106 244.13 82.175 244.062 82.3664 244.062ZM82.6073 244.754C82.6073 244.683 82.5831 244.624 82.5337 244.575C82.4846 244.526 82.4251 244.501 82.3548 244.501C82.2848 244.501 82.2245 244.526 82.1746 244.575C82.1252 244.624 82.1002 244.683 82.1002 244.754V246.358C82.1002 246.428 82.1252 246.488 82.1746 246.537C82.2245 246.585 82.2848 246.61 82.3548 246.61C82.4251 246.61 82.4846 246.586 82.5337 246.537C82.5831 246.488 82.6073 246.428 82.6073 246.358V244.754Z" fill="white"/>
<path d="M84.6996 244.094V244.539L84.08 247.026H83.6461L84.2658 244.539H83.3711V244.094H84.6996Z" fill="white"/>
<path d="M86.4044 246.36C86.4044 246.554 86.3357 246.72 86.1985 246.856C86.0614 246.991 85.897 247.059 85.7052 247.059C85.5102 247.059 85.3445 246.991 85.2082 246.855C85.0715 246.718 85.0039 246.554 85.0039 246.36V244.761C85.0039 244.566 85.0723 244.4 85.2094 244.264C85.3465 244.127 85.5118 244.059 85.7052 244.059C85.8998 244.059 86.065 244.128 86.2005 244.265C86.3361 244.402 86.404 244.568 86.404 244.761V246.36H86.4044ZM85.946 244.751C85.946 244.681 85.9207 244.621 85.8708 244.571C85.8214 244.521 85.7611 244.497 85.6907 244.497C85.6207 244.497 85.5608 244.522 85.5118 244.571C85.4627 244.621 85.4382 244.681 85.4382 244.751V246.353C85.4382 246.423 85.4627 246.483 85.5118 246.533C85.5608 246.582 85.6207 246.608 85.6907 246.608C85.7611 246.608 85.821 246.582 85.8708 246.533C85.9207 246.483 85.946 246.423 85.946 246.353V244.751Z" fill="white"/>
<path d="M88.1857 246.36C88.1857 246.554 88.1173 246.72 87.9798 246.856C87.8427 246.991 87.6782 247.059 87.4868 247.059C87.2918 247.059 87.1261 246.991 86.9898 246.855C86.8531 246.718 86.7852 246.554 86.7852 246.36V244.761C86.7852 244.566 86.8539 244.4 86.991 244.264C87.1278 244.127 87.293 244.059 87.4868 244.059C87.6814 244.059 87.8467 244.128 87.9822 244.265C88.1177 244.402 88.1857 244.568 88.1857 244.761V246.36ZM87.7277 244.751C87.7277 244.681 87.7023 244.621 87.6529 244.571C87.603 244.521 87.5431 244.497 87.4732 244.497C87.4028 244.497 87.3433 244.522 87.2942 244.571C87.2448 244.621 87.2202 244.681 87.2202 244.751V246.353C87.2202 246.423 87.2448 246.483 87.2942 246.533C87.3433 246.582 87.4028 246.608 87.4732 246.608C87.5431 246.608 87.603 246.582 87.6529 246.533C87.7027 246.483 87.7277 246.423 87.7277 246.353V244.751Z" fill="white"/>
<path d="M89.0385 244.539V245.168C89.0823 245.106 89.1442 245.058 89.2238 245.023C89.2657 245.006 89.3151 244.997 89.3714 244.997C89.5652 244.997 89.708 245.065 89.8004 245.2C89.8801 245.317 89.9199 245.482 89.9199 245.696V246.328C89.9199 246.544 89.8515 246.722 89.7144 246.86C89.5837 246.994 89.418 247.061 89.2186 247.061C89.0256 247.061 88.8648 246.991 88.7369 246.851C88.6139 246.717 88.5527 246.554 88.5527 246.36V246.29L88.9757 246.257L88.985 246.358C88.9958 246.474 89.0433 246.552 89.1273 246.591C89.1523 246.604 89.1788 246.61 89.2069 246.61C89.3879 246.61 89.478 246.516 89.478 246.328V245.609C89.478 245.524 89.4466 245.453 89.3843 245.397C89.3541 245.371 89.3127 245.357 89.2596 245.357C89.1812 245.357 89.1233 245.387 89.0855 245.449C89.0542 245.501 89.0385 245.558 89.0385 245.617V245.696H88.5966V244.095H89.8897V244.539L89.0385 244.539Z" fill="white"/>
<path d="M90.2246 245.343H91.5338V245.788H90.2246V245.343Z" fill="white"/>
<path d="M92.2143 247.028V244.773H91.8379V244.464C91.9436 244.451 92.045 244.411 92.1407 244.343C92.2368 244.275 92.3055 244.193 92.3478 244.097H92.6566V247.028H92.2143Z" fill="white"/>
<path d="M93.0268 244.924C93.0268 244.648 93.1016 244.435 93.2515 244.289C93.381 244.159 93.5507 244.095 93.7614 244.095C93.954 244.095 94.1193 244.168 94.2556 244.312C94.3919 244.457 94.4602 244.626 94.4602 244.82C94.4602 245.019 94.4156 245.212 94.3267 245.398C94.2785 245.5 94.1655 245.677 93.9878 245.928C93.9395 245.997 93.868 246.103 93.7727 246.248L93.693 246.368C93.6416 246.445 93.6026 246.507 93.5764 246.552C93.5636 246.576 93.5575 246.59 93.5575 246.594H94.4249V247.026H93.0195V246.621C93.0195 246.612 93.0517 246.558 93.116 246.46C93.1458 246.415 93.1796 246.365 93.217 246.31L93.3324 246.145C93.3995 246.053 93.5045 245.906 93.6484 245.703C93.7839 245.513 93.8857 245.341 93.9528 245.186C94.0075 245.061 94.0348 244.943 94.0348 244.834C94.0348 244.745 94.0099 244.669 93.96 244.607C93.9054 244.541 93.835 244.508 93.7497 244.508C93.6263 244.508 93.539 244.58 93.4876 244.721C93.4703 244.768 93.4618 244.824 93.4618 244.889V245.001H93.0268V244.924Z" fill="white"/>
<path d="M94.7709 244.924C94.7709 244.648 94.8453 244.435 94.9953 244.289C95.1247 244.159 95.2944 244.095 95.5051 244.095C95.6981 244.095 95.863 244.168 95.9993 244.312C96.1356 244.457 96.204 244.626 96.204 244.82C96.204 245.019 96.1593 245.212 96.0705 245.398C96.0222 245.5 95.9092 245.677 95.7315 245.928C95.6833 245.997 95.6117 246.103 95.5164 246.248L95.4372 246.368C95.3857 246.445 95.3467 246.507 95.3202 246.552C95.3077 246.576 95.3013 246.59 95.3013 246.594H96.169V247.026H94.7637V246.621C94.7637 246.612 94.7958 246.558 94.8602 246.46C94.8899 246.415 94.9237 246.365 94.9611 246.31L95.0761 246.145C95.1433 246.053 95.2486 245.906 95.3921 245.703C95.5281 245.513 95.6294 245.341 95.6965 245.186C95.7512 245.061 95.7786 244.943 95.7786 244.834C95.7786 244.745 95.7536 244.669 95.7038 244.607C95.6495 244.541 95.5791 244.508 95.4935 244.508C95.3704 244.508 95.2828 244.58 95.2317 244.721C95.2148 244.768 95.206 244.824 95.206 244.889V245.001H94.7713L94.7709 244.924Z" fill="white"/>
<path d="M96.8842 247.028V244.773H96.5078V244.464C96.614 244.451 96.7149 244.411 96.811 244.343C96.9067 244.275 96.9755 244.193 97.0177 244.097H97.3261V247.028H96.8842Z" fill="white"/>
<path d="M97.6289 245.343H98.9381V245.788H97.6289V245.343Z" fill="white"/>
<path d="M99.6186 247.028V244.773H99.2422V244.464C99.3479 244.451 99.4489 244.411 99.5446 244.343C99.6403 244.275 99.7094 244.193 99.7516 244.097H100.06V247.028H99.6186Z" fill="white"/>
<path d="M100.412 245.95L101.193 244.094H101.635V245.95H101.918V246.396H101.635V247.026H101.193V246.396H100.412V245.95ZM101.193 245.95V245.035L100.827 245.95H101.193Z" fill="white"/>
<path d="M102.223 245.95L103.004 244.094H103.445V245.95H103.728V246.396H103.445V247.026H103.004V246.396H102.223V245.95ZM103.004 245.95V245.035L102.638 245.95H103.004Z" fill="white"/>
<path d="M104.033 245.95L104.814 244.094H105.256V245.95H105.539V246.396H105.256V247.026H104.814V246.396H104.033V245.95ZM104.814 245.95V245.035L104.449 245.95H104.814Z" fill="white"/>
</svg>
