<svg xmlns="http://www.w3.org/2000/svg" viewBox="0 0 500 500"><path fill="#f5f5f5" d="M127.017 82.846h48.344v153.213h-48.344z"/><path fill="#ebebeb" d="M151.189 82.846h24.172v152.791h-24.172z"/><path fill="#f5f5f5" d="M132.538 67.804h17.071v15.042h-17.071z"/><path fill="#ebebeb" d="M145.54 67.804h4.069v15.042h-4.069z"/><path fill="#e0e0e0" d="M122.989 82.846v-.878h53.787v.878"/><path fill="#fafafa" d="M136.56 89.406h4.092v8.628h-4.092z"/><path d="M151.189 101.421c0 .091-5.412.165-12.085.165-6.676 0-12.087-.074-12.087-.165 0-.091 5.41-.165 12.087-.165 6.674 0 12.085.074 12.085.165zm9.753-12.015h4.092v8.628h-4.092zm14.63 12.015c0 .091-5.411.165-12.085.165-6.676 0-12.087-.074-12.087-.165 0-.091 5.41-.165 12.087-.165 6.673 0 12.085.074 12.085.165zm-14.63 5.116h4.092v8.628h-4.092zm14.63 12.015c0 .091-5.411.165-12.085.165-6.676 0-12.087-.074-12.087-.165 0-.091 5.41-.165 12.087-.165 6.673 0 12.085.074 12.085.165zm-14.63 5.633h4.092v8.628h-4.092zm14.63 12.015c0 .091-5.411.165-12.085.165-6.676 0-12.087-.074-12.087-.165 0-.091 5.41-.165 12.087-.165 6.673 0 12.085.074 12.085.165zm-14.63 5.633h4.092v8.628h-4.092zm14.63 12.015c0 .091-5.411.165-12.085.165-6.676 0-12.087-.074-12.087-.165 0-.091 5.41-.165 12.087-.165 6.673 0 12.085.074 12.085.165zm-14.63 5.128h4.092v8.628h-4.092zm14.63 12.015c0 .091-5.411.165-12.085.165-6.676 0-12.087-.074-12.087-.165 0-.091 5.41-.165 12.087-.165 6.673 0 12.085.074 12.085.165zm-14.63 5.198h4.092v8.628h-4.092zm0 17.437h4.092v8.629h-4.092zm14.63-5.422c0 .091-5.411.165-12.085.165-6.676 0-12.087-.074-12.087-.165s5.41-.165 12.087-.165c6.673 0 12.085.074 12.085.165z" fill="#e0e0e0"/><path fill="#fafafa" d="M136.56 106.798h4.092v8.628h-4.092z"/><path d="M151.189 118.813c0 .091-5.412.165-12.085.165-6.676 0-12.087-.074-12.087-.165 0-.091 5.41-.165 12.087-.165 6.674.001 12.085.075 12.085.165z" fill="#e0e0e0"/><path fill="#fafafa" d="M136.56 124.191h4.092v8.629h-4.092z"/><path d="M151.189 136.206c0 .091-5.412.165-12.085.165-6.676 0-12.087-.074-12.087-.165 0-.091 5.41-.165 12.087-.165 6.674 0 12.085.074 12.085.165z" fill="#e0e0e0"/><path fill="#fafafa" d="M136.56 141.584h4.092v8.628h-4.092z"/><path d="M151.189 153.598c0 .091-5.412.165-12.085.165-6.676 0-12.087-.074-12.087-.165 0-.091 5.41-.165 12.087-.165 6.674.001 12.085.075 12.085.165z" fill="#e0e0e0"/><path fill="#fafafa" d="M136.56 158.976h4.092v8.628h-4.092z"/><path d="M151.189 170.991c0 .091-5.412.165-12.085.165-6.676 0-12.087-.074-12.087-.165 0-.091 5.41-.165 12.087-.165 6.674 0 12.085.074 12.085.165z" fill="#e0e0e0"/><path fill="#fafafa" d="M136.56 176.369h4.092v8.629h-4.092z"/><path d="M151.189 188.384c0 .091-5.412.165-12.085.165-6.676 0-12.087-.074-12.087-.165 0-.091 5.41-.165 12.087-.165 6.674 0 12.085.074 12.085.165z" fill="#e0e0e0"/><path fill="#fafafa" d="M136.56 193.761h4.092v8.628h-4.092z"/><path fill="#f5f5f5" d="M304.065 115.332h48.344v153.213h-48.344z"/><path fill="#ebebeb" d="M328.237 115.332h24.172v152.791h-24.172z"/><path fill="#f5f5f5" d="M309.585 100.291h17.071v15.042h-17.071z"/><path fill="#ebebeb" d="M322.588 100.291h4.069v15.042h-4.069z"/><path fill="#e0e0e0" d="M300.036 115.332v-.877h53.787v.877"/><path fill="#fafafa" d="M313.608 121.892h4.092v8.628h-4.092z"/><path d="M328.237 133.907c0 .091-5.412.165-12.085.165-6.676 0-12.087-.074-12.087-.165 0-.091 5.41-.165 12.087-.165 6.673 0 12.085.074 12.085.165zm9.753-12.015h4.092v8.628h-4.092zm14.629 12.015c0 .091-5.411.165-12.085.165-6.676 0-12.087-.074-12.087-.165 0-.091 5.41-.165 12.087-.165 6.674 0 12.085.074 12.085.165zm-14.629 5.116h4.092v8.629h-4.092zm14.629 12.015c0 .091-5.411.165-12.085.165-6.676 0-12.087-.074-12.087-.165s5.41-.165 12.087-.165c6.674.001 12.085.074 12.085.165zm-14.629 5.633h4.092v8.628h-4.092zm14.629 12.015c0 .091-5.411.165-12.085.165-6.676 0-12.087-.074-12.087-.165 0-.091 5.41-.165 12.087-.165 6.674 0 12.085.074 12.085.165zm-14.629 5.633h4.092v8.628h-4.092zm14.629 12.015c0 .091-5.411.165-12.085.165-6.676 0-12.087-.074-12.087-.165 0-.091 5.41-.165 12.087-.165 6.674 0 12.085.074 12.085.165zm-14.629 5.128h4.092v8.628h-4.092zm14.629 12.015c0 .091-5.411.165-12.085.165-6.676 0-12.087-.074-12.087-.165 0-.091 5.41-.165 12.087-.165 6.674.001 12.085.075 12.085.165zm-14.629 5.198h4.092v8.628h-4.092zm0 17.438h4.092v8.628h-4.092zm14.629-5.423c0 .091-5.411.165-12.085.165-6.676 0-12.087-.074-12.087-.165s5.41-.165 12.087-.165c6.674 0 12.085.074 12.085.165z" fill="#e0e0e0"/><path fill="#fafafa" d="M313.608 139.285h4.092v8.628h-4.092z"/><path d="M328.237 151.3c0 .091-5.412.165-12.085.165-6.676 0-12.087-.074-12.087-.165 0-.091 5.41-.165 12.087-.165 6.673 0 12.085.074 12.085.165z" fill="#e0e0e0"/><path fill="#fafafa" d="M313.608 156.677h4.092v8.629h-4.092z"/><path d="M328.237 168.692c0 .091-5.412.165-12.085.165-6.676 0-12.087-.074-12.087-.165 0-.091 5.41-.165 12.087-.165 6.673.001 12.085.074 12.085.165z" fill="#e0e0e0"/><path fill="#fafafa" d="M313.608 174.07h4.092v8.629h-4.092z"/><path d="M328.237 186.085c0 .091-5.412.165-12.085.165-6.676 0-12.087-.074-12.087-.165 0-.091 5.41-.165 12.087-.165 6.673 0 12.085.074 12.085.165z" fill="#e0e0e0"/><path fill="#fafafa" d="M313.608 191.462h4.092v8.628h-4.092z"/><path d="M328.237 203.477c0 .091-5.412.165-12.085.165-6.676 0-12.087-.074-12.087-.165 0-.091 5.41-.165 12.087-.165 6.673.001 12.085.075 12.085.165z" fill="#e0e0e0"/><path fill="#fafafa" d="M313.608 208.855h4.092v8.629h-4.092z"/><path d="M328.237 220.87c0 .091-5.412.165-12.085.165-6.676 0-12.087-.074-12.087-.165 0-.091 5.41-.165 12.087-.165 6.673 0 12.085.074 12.085.165z" fill="#e0e0e0"/><path fill="#fafafa" d="M313.608 226.248h4.092v8.628h-4.092z"/><path fill="#ebebeb" d="M334.489 174.777h78.277v103.244h-78.277z"/><path fill="#e0e0e0" d="M376.063 174.777h36.703v103.244h-36.703z"/><path fill="#f5f5f5" d="M350.902 188.755h7.038v17.1h-7.038zm0 66.924h7.038v17.1h-7.038zm25.161-43.113c0 .192-9.307.348-20.786.348-11.483 0-20.788-.156-20.788-.348 0-.192 9.306-.348 20.788-.348 11.479 0 20.786.156 20.786.348zm-25.161 9.905h7.038v17.1h-7.038zm25.161 23.81c0 .192-9.307.348-20.786.348-11.483 0-20.788-.156-20.788-.348 0-.192 9.306-.348 20.788-.348 11.479.001 20.786.157 20.786.348zm7.795-57.526h7.038v17.1h-7.038zm15.269 0h7.038v17.1h-7.038zm-15.269 32.447h7.038v17.099h-7.038zm15.269 0h7.038v17.099h-7.038zm-15.269 32.447h7.038v17.099h-7.038zm15.269 0h7.038v17.099h-7.038z"/><path fill="#e0e0e0" d="M328.605 171.183h90.046v3.723h-90.046z"/><path d="M413.313 175.257c0 .192-17.496.348-39.073.348-21.584 0-39.076-.156-39.076-.348 0-.192 17.492-.348 39.076-.348 21.577 0 39.073.156 39.073.348zM157.427 280.085h-71.14l-.309-112.431h71.139z" fill="#ebebeb"/><path fill="#e0e0e0" d="M121.547 167.654h35.57v112.431h-35.57z"/><path fill="#ebebeb" d="M94.101 145.52h25.121v22.134H94.101z"/><path fill="#e0e0e0" d="M113.235 145.52h5.987v22.134h-5.987z"/><path fill="#e0e0e0" d="M80.049 166.363h79.15v1.291h-79.15z"/><path fill="#fff" d="M100.02 177.307h6.022v12.697h-6.022z"/><path d="M121.547 194.988c0 .134-7.963.242-17.784.242-9.824 0-17.786-.108-17.786-.242s7.961-.242 17.786-.242c9.821-.001 17.784.108 17.784.242z" fill="#e0e0e0"/><path fill="#f5f5f5" d="M135.899 177.307h6.022v12.697h-6.022z"/><path d="M157.427 194.988c0 .134-7.963.242-17.784.242-9.824 0-17.786-.108-17.786-.242s7.961-.242 17.786-.242c9.82-.001 17.784.108 17.784.242z" fill="#ebebeb"/><path fill="#f5f5f5" d="M135.899 202.516h6.022v12.697h-6.022z"/><path d="M157.427 220.196c0 .134-7.963.242-17.784.242-9.824 0-17.786-.108-17.786-.242s7.961-.242 17.786-.242c9.82 0 17.784.109 17.784.242z" fill="#ebebeb"/><path fill="#f5f5f5" d="M135.899 228.486h6.022v12.697h-6.022z"/><path d="M157.427 246.166c0 .134-7.963.242-17.784.242-9.824 0-17.786-.109-17.786-.242 0-.134 7.961-.242 17.786-.242 9.82-.001 17.784.108 17.784.242z" fill="#ebebeb"/><path fill="#f5f5f5" d="M135.899 254.455h6.022v12.697h-6.022z"/><path d="M157.427 272.135c0 .134-7.963.243-17.784.243-9.824 0-17.786-.109-17.786-.243s7.961-.242 17.786-.242c9.82 0 17.784.108 17.784.242z" fill="#ebebeb"/><path fill="#fff" d="M100.02 202.901h6.022v12.697h-6.022z"/><path d="M121.547 220.581c0 .134-7.963.243-17.784.243-9.824 0-17.786-.109-17.786-.243s7.961-.242 17.786-.242c9.821 0 17.784.108 17.784.242z" fill="#e0e0e0"/><path fill="#fff" d="M100.02 228.494h6.022v12.697h-6.022z"/><path d="M121.547 246.175c0 .134-7.963.242-17.784.242-9.824 0-17.786-.109-17.786-.242s7.961-.242 17.786-.242c9.821-.001 17.784.108 17.784.242z" fill="#e0e0e0"/><path fill="#fff" d="M100.02 254.088h6.022v12.697h-6.022z"/><path d="M121.547 271.768c0 .134-7.963.242-17.784.242-9.824 0-17.786-.108-17.786-.242s7.961-.242 17.786-.242c9.821 0 17.784.108 17.784.242z" fill="#e0e0e0"/><path d="M439.16 144.927c.376-2.733-3.481-4.981-6.379-5.214-1.382-.111-2.818.1-4.127-.356-2.837-.989-3.97-4.654-6.738-5.821-2.069-.873-4.452-.096-6.458.914-2.006 1.01-3.989 2.28-6.23 2.424-1.949.125-4.066-.598-5.772.354-1.271.71-1.937 2.174-3.108 3.038-1.146.845-2.641 1.024-4.063 1.102-1.422.077-2.894.092-4.189.685-1.295.593-2.366 1.962-2.097 3.36l49.161-.486z" fill="#f5f5f5"/><path d="M318.809 67.045c.589-4.277-5.448-7.796-9.984-8.162-2.163-.174-4.41.156-6.459-.558-4.44-1.548-6.214-7.284-10.546-9.111-3.239-1.366-6.968-.15-10.108 1.43-3.14 1.58-6.243 3.569-9.751 3.794-3.051.195-6.365-.936-9.035.554-1.99 1.111-3.032 3.403-4.865 4.756-1.794 1.323-4.134 1.603-6.36 1.724s-4.53.144-6.557 1.072-3.704 3.071-3.283 5.26l76.948-.759z" fill="#ebebeb"/><path d="M113.203 126.197c.469-3.41-4.343-6.215-7.96-6.507-1.725-.139-3.516.125-5.15-.445-3.54-1.234-4.954-5.807-8.408-7.264-2.582-1.089-5.555-.12-8.058 1.14-2.503 1.26-4.977 2.845-7.774 3.024-2.433.156-5.075-.746-7.203.442-1.586.886-2.417 2.713-3.879 3.791-1.43 1.055-3.296 1.278-5.07 1.375-1.774.097-3.611.115-5.227.854-1.616.74-2.953 2.448-2.617 4.194l61.346-.604z" fill="#f5f5f5"/><path d="M77.832 201.41c-11.334.263-20.576 9.5-20.846 20.834a21.27 21.27 0 004.015 12.987l-.006.002.208.283.029.04 15.124 20.571c1.331 1.811 4.056 1.754 5.31-.111l13.67-20.323c2.587-3.945 4.361-8.069 4.361-12.93.002-11.965-9.837-21.632-21.865-21.353zm.508 36.886c-8.869 0-16.058-7.189-16.058-16.058s7.189-16.058 16.058-16.058 16.058 7.189 16.058 16.058-7.19 16.058-16.058 16.058z" fill="#ff725e"/><path d="M77.832 201.41c-11.334.263-20.576 9.5-20.846 20.834a21.27 21.27 0 004.015 12.987l-.006.002.208.283.029.04 15.124 20.571c1.331 1.811 4.056 1.754 5.31-.111l13.67-20.323c2.587-3.945 4.361-8.069 4.361-12.93.002-11.965-9.837-21.632-21.865-21.353zm.508 36.886c-8.869 0-16.058-7.189-16.058-16.058s7.189-16.058 16.058-16.058 16.058 7.189 16.058 16.058-7.19 16.058-16.058 16.058z" opacity=".3"/><path d="M76.566 201.41c-11.334.263-20.576 9.5-20.846 20.834a21.263 21.263 0 004.015 12.987l-.006.002.208.283.029.04 15.124 20.571c1.331 1.811 4.056 1.754 5.31-.111l13.67-20.323c2.587-3.945 4.361-8.069 4.361-12.93.002-11.965-9.836-21.632-21.865-21.353zm.508 33.991c-6.717 0-12.162-5.445-12.162-12.162 0-6.717 5.445-12.162 12.162-12.162 6.717 0 12.162 5.445 12.162 12.162-.001 6.717-5.446 12.162-12.162 12.162zm335.788-54.237c-8.638.2-15.681 7.24-15.887 15.878a16.202 16.202 0 003.06 9.897l-.004.001.159.216.022.031 11.526 15.677a2.474 2.474 0 004.047-.085l10.418-15.488c1.971-3.007 3.324-6.149 3.324-9.854-.001-9.118-7.498-16.486-16.665-16.273zm.386 28.111c-6.759 0-12.238-5.479-12.238-12.238 0-6.759 5.479-12.238 12.238-12.238 6.759 0 12.238 5.479 12.238 12.238 0 6.759-5.479 12.238-12.238 12.238z" fill="#ff725e"/><path d="M412.862 181.164c-8.638.2-15.681 7.24-15.887 15.878a16.202 16.202 0 003.06 9.897l-.004.001.159.216.022.031 11.526 15.677a2.474 2.474 0 004.047-.085l10.418-15.488c1.971-3.007 3.324-6.149 3.324-9.854-.001-9.118-7.498-16.486-16.665-16.273zm.386 28.111c-6.759 0-12.238-5.479-12.238-12.238 0-6.759 5.479-12.238 12.238-12.238 6.759 0 12.238 5.479 12.238 12.238 0 6.759-5.479 12.238-12.238 12.238z" opacity=".3"/><path d="M411.897 181.164c-8.638.2-15.681 7.24-15.887 15.878a16.202 16.202 0 003.06 9.897l-.004.001.159.216.022.031 11.526 15.677a2.474 2.474 0 004.047-.085l10.418-15.488c1.971-3.007 3.324-6.149 3.324-9.854 0-9.118-7.498-16.486-16.665-16.273zm.387 25.905a9.268 9.268 0 110-18.536 9.268 9.268 0 010 18.536z" fill="#ff725e"/><path fill="#fff" d="M89.512 278.189L18.092 455.55l133.913-22.021 98.204 22.021 100.584-22.021 134.509 25.658-72.016-180.998-80.348-20.236-81.241 15.475-83.027-15.475z"/><path d="M89.512 278.189s.437-.123 1.312-.352l3.909-1.016 15.319-3.95 58.586-15.045.028-.007.029.005 83.035 15.426h-.066l81.235-15.505.046-.009.046.011 80.353 20.215.116.029.044.111 72.039 180.989.174.438-.463-.088-69.193-13.197-65.315-12.461.104-.001-100.586 22.012-.054.012-.054-.012-98.199-22.038.088.003-133.92 21.98-.335.055.127-.314 52.346-129.748 14.256-35.27 3.717-9.163c.837-2.064 1.276-3.11 1.276-3.11s-.415 1.074-1.242 3.15l-3.679 9.202-14.173 35.33-52.15 129.75-.208-.259L151.967 433.3l.045-.007.044.01 98.207 22.004h-.108l100.582-22.03.052-.011.052.01 65.316 12.458 69.193 13.201-.289.349-71.992-181.008.16.14-80.343-20.257.091.003-81.247 15.443-.033.006-.033-.006-83.017-15.522.056-.002-58.573 14.905-15.352 3.891-3.931.988c-.882.219-1.335.324-1.335.324z" fill="#263238"/><path fill="#fff" d="M93.679 282.95L30.59 446.623l120.82-19.641 100.287 23.212 99.096-23.807 123.201 23.807L409.12 282.95l-74.992-18.45-82.431 15.474L167.48 264.5z"/><path fill="#455a64" d="M37.6 428.436l96.033-22.241-3.546-20.688 7.979-5.024-12.413-48.316-38.402-32.542z"/><path fill="#ebebeb" d="M30.59 446.623l4.683-12.148 161.016-37.409 8.746 24.071-2.835 4.86-30.243 5.74-20.547-4.755zm174.445-51.887l6.389 23.816 18.541 8.06 26.387-11.724 55.344-16.121-17.27-26.014z"/><path fill="#e0e0e0" d="M140.717 403.557l29.919-6.491-5.97-19.439-21.796 5.267-5.802 4.094z"/><path fill="#455a64" d="M134.609 339.132l10.864 35.647 16.975-3.735-3.055-13.697 37.344-8.37z"/><path fill="#ebebeb" d="M90.077 292.295l46.991 37.726 62.385 11.827 66.54-16.542-30.374-48.286-68.139-12.52-73.801 18.45zm154.628-13.605l97.556 149.746 8.532-2.049-94.42-147.29-4.676.877z"/><path fill="#e0e0e0" d="M165.673 361.117l12.362 35.949 109.733-28.035-20.308-34.573zm61.048 83.296l1.068-1.588 7.207-10.714 17.296-5.499 11.894-8.961 51.575-14.094 16.017 27.398-80.081 19.239m66.379-182.681l25.848 28.752 65.196-13.315-74.992-18.45zm104.765 50.811l-47.883 13.303-24.165-32.002 59.962-12.459z"/><path fill="#ebebeb" d="M261.493 278.135l50.203 72.112 57.942-16.625-57.942-64.911z"/><path fill="#e0e0e0" d="M401.851 436.253l57.932-22.693 14.211 36.634z"/><path fill="#455a64" d="M341.264 345.935l31.477-8.205 33.25 39.897-32.363 10.747z"/><path fill="#e0e0e0" d="M379.834 334.458l35.023 40.157 26.386-8.853-17.348-44.722z"/><path fill="#455a64" d="M405.991 426.875l-26.157-36.283 63.222-20.155 12.847 33.12-8.239 8.297z"/><path fill="#e0e0e0" d="M314.774 355.552l48.06 72.884 29.594 5.996 5.583-2.555-60.897-83.059zm-196.961 54.307l-11.974-56.296-42.222 7.377L37.6 428.436z"/><path fill="#455a64" d="M156.634 267.211v25.774l9.039 1.142 25.239 29.404 21.696-2.491 10.328 14.97-23.483 5.838-62.385-11.827-46.991-37.726 3.602-9.345z"/><path fill="#e0e0e0" d="M288.593 273.268L324.043 325l30.535-8.25-42.882-48.039z"/><path fill="#ebebeb" d="M392.658 326.71l-12.824-20.053 34.68-9.801 8.327 21.468zm-51.394 69.015l16.786-5.801 32.558 44.14-27.774-5.628z"/><path fill="#455a64" d="M186.409 435.083l15.613-1.9 5.201-7.616 19.498 6.13-5.1 11.536z"/><path d="M93.679 282.95s1.644-.432 4.865-1.249l14.28-3.604 54.624-13.724.027-.007.028.005 84.226 15.423h-.066l82.425-15.507.046-.009.045.011 74.996 18.43.119.029.044.114 64.896 167.235.169.436-.46-.089-61.813-11.943-61.388-11.864.109-.003-99.098 23.798-.057.014-.057-.013-100.282-23.231.088.003-120.826 19.6-.324.053.118-.306L76.67 326.797l12.593-32.534 3.283-8.45c.744-1.899 1.133-2.863 1.133-2.863s-.365.991-1.094 2.906l-3.246 8.488-12.51 32.593L30.766 446.69l-.206-.253 120.813-19.681.045-.007.044.01 100.291 23.192h-.114l99.094-23.816.055-.013.055.011 61.389 11.861 61.812 11.946-.29.348-64.852-167.252.163.143-74.987-18.47.091.002-82.437 15.442-.033.006-.033-.006-84.207-15.526.055-.002-54.61 13.585-14.313 3.544a611.102 611.102 0 01-4.912 1.196z" fill="#263238"/><path d="M250.209 455.55l1.488-182.122-83.027-15.475-16.665 175.576zm82.729-197.597l17.855 175.576 134.509 25.658-72.016-180.998z" opacity=".2"/><path d="M252.339 101.092c-58.01 1.346-105.309 48.623-106.69 106.632-.591 24.843 7.134 47.843 20.551 66.469l-.029.009 1.065 1.449c.051.068.1.137.15.205l77.406 105.285c6.814 9.268 20.757 8.977 27.178-.569l69.965-104.015c13.24-20.192 22.321-41.297 22.321-66.175 0-61.24-50.354-110.718-111.917-109.29zm2.597 188.787c-45.391 0-82.188-36.797-82.188-82.188s36.797-82.188 82.188-82.188 82.188 36.797 82.188 82.188-36.796 82.188-82.188 82.188z" fill="#ff725e"/><path d="M252.339 101.092c-58.01 1.346-105.309 48.623-106.69 106.632-.591 24.843 7.134 47.843 20.551 66.469l-.029.009 1.065 1.449c.051.068.1.137.15.205l77.406 105.285c6.814 9.268 20.757 8.977 27.178-.569l69.965-104.015c13.24-20.192 22.321-41.297 22.321-66.175 0-61.24-50.354-110.718-111.917-109.29zm2.597 188.787c-45.391 0-82.188-36.797-82.188-82.188s36.797-82.188 82.188-82.188 82.188 36.797 82.188 82.188-36.796 82.188-82.188 82.188z" opacity=".3"/><path d="M245.859 101.092c-58.009 1.346-105.309 48.623-106.69 106.632-.591 24.843 7.134 47.843 20.551 66.469l-.029.009 1.065 1.449c.051.068.1.137.15.205l77.406 105.285c6.814 9.268 20.757 8.977 27.177-.569l69.965-104.015c13.24-20.192 22.321-41.297 22.321-66.175.002-61.24-50.353-110.718-111.916-109.29zm2.598 188.787c-45.391 0-82.188-36.797-82.188-82.188s36.797-82.188 82.188-82.188 82.188 36.797 82.188 82.188-36.797 82.188-82.188 82.188z" fill="#ff725e"/><path d="M295.739 269.68c-1.315 1.489-88.228 24.437-89.543 25.926 16.668 5.083 37.03 9.508 54.427 8.5 9.81-.569 20.038-2.317 27.793-8.351 7.755-6.036 12.044-17.458 7.323-26.075z" opacity=".3"/><path d="M212.742 103.82c-5.049 5.267-7.252 13.112-5.684 20.237.762 3.461 2.286 7.32.385 10.31-1.883 2.96-6.318 3.504-8.097 6.528-2.094 3.56.704 8.029.353 12.144-.33 3.863-3.892 7.175-7.768 7.223a31.894 31.894 0 0016.619 4.602l3.594-6.242c-1.385 2.203-.504 5.281 1.388 7.068s4.529 2.536 7.094 2.971c12.257 2.078 25.402-1.994 34.339-10.637" fill="#263238"/><path d="M282.865 125.518c-1.252-2.56-3.072-4.84-4.049-7.517-2.099-5.754-.145-12.836-3.771-17.773-2.581-3.513-7.206-4.763-11.51-5.455-4.304-.692-8.884-1.149-12.386-3.746-2.568-1.905-4.281-4.784-6.842-6.698-3.65-2.727-8.533-3.14-13.076-2.785-4.665.364-9.385 1.479-13.259 4.104-3.874 2.624-6.791 6.941-6.891 11.62-.049 2.281.552 4.58.15 6.826-.442 2.469-2.039 4.566-2.873 6.933-1.763 5 .426 11.093 4.968 13.828l37.503 36.565c7.024 1.585 22.759-3.728 27.225-9.377 4.464-5.651 7.975-20.057 4.811-26.525z" fill="#263238"/><path d="M213.434 119.524c.004-9.496 5.544-21.493 15.03-21.086l29.894 5.595a5.557 5.557 0 015.314 5.314l1.295 71.16.206.031s-5.405 20.446-25.247 15.594c-3.935-.962-5.968-5.066-7.014-9.354l-.197.038-.117-1.485c-.966-4.965-.747-9.735-.747-9.735-.426-5.725-.572-8.074-.573-8.021 0 0-12.209-1.249-15.7-16.859-1.736-7.762-2.148-20.642-2.144-31.192z" fill="#ffbe9d"/><path d="M240.821 129.254c.029 1.07.959 1.928 2.077 1.918 1.116-.01 1.999-.883 1.97-1.953-.029-1.07-.96-1.929-2.075-1.919-1.118.009-2.001.884-1.972 1.954zm-20.65 1.577c.029 1.07.959 1.928 2.077 1.918 1.116-.01 1.999-.883 1.97-1.954-.029-1.07-.959-1.929-2.075-1.919-1.118.009-2.002.884-1.972 1.955zm-4.337-4.473c.268.336 1.965-1.102 4.343-1.089 2.375-.027 4.097 1.401 4.36 1.063.129-.15-.14-.756-.889-1.401-.737-.642-2.003-1.269-3.484-1.266-1.481.006-2.737.638-3.463 1.286-.742.65-.999 1.256-.867 1.407zm21.973-.536c.322.298 1.968-1.287 4.488-1.531 2.516-.283 4.497.923 4.739.565.12-.16-.228-.722-1.096-1.27-.852-.548-2.261-1.021-3.832-.858-1.57.166-2.833.918-3.533 1.629-.713.713-.922 1.332-.766 1.465zm-6.638 15.912c.002-.124-1.365-.273-3.574-.416-.559-.023-1.092-.1-1.209-.473-.156-.393.039-1.006.268-1.67.439-1.377.897-2.821 1.378-4.333 1.904-6.166 3.246-11.223 2.997-11.297-.249-.075-1.995 4.863-3.899 11.029-.456 1.52-.893 2.969-1.307 4.355-.171.644-.487 1.383-.152 2.199.176.406.602.682.965.755.363.086.676.073.952.072 2.211-.021 3.58-.097 3.581-.221z" fill="#263238"/><path d="M231.278 167.575s10.649.02 20.762-6.955c0 0-4.444 11.151-20.316 10.664l-.446-3.709z" fill="#eb996e"/><path d="M232.417 146.92c.718-1.083 2.053-1.738 3.424-1.676.95.043 1.933.438 2.555 1.171.622.733.811 1.817.335 2.582-.535.863-1.75 1.13-2.807.9-1.057-.23-1.993-.858-2.885-1.486-.247-.174-.499-.355-.661-.605-.163-.249-.215-.585-.048-.81" fill="#ff725e"/><path d="M237.666 142.838c-.355.002-.212 2.363-2.128 4.166-1.912 1.808-4.447 1.701-4.444 2.032-.024.15.59.424 1.654.386 1.045-.029 2.546-.46 3.718-1.563 1.169-1.105 1.613-2.51 1.633-3.484.028-.992-.272-1.561-.433-1.537zm-.681-24.38c.251.578 2.406.162 4.978.31 2.575.096 4.68.714 4.986.162.135-.263-.258-.797-1.127-1.318-.861-.52-2.211-.981-3.754-1.056-1.543-.072-2.931.259-3.837.696-.913.436-1.356.931-1.246 1.206zm-19.929 1.231c.468.467 2.149-.153 4.208-.307 2.053-.216 3.825.094 4.194-.448.16-.262-.146-.74-.937-1.16-.78-.419-2.06-.721-3.474-.595-1.412.128-2.611.652-3.296 1.204-.696.553-.903 1.077-.695 1.306z" fill="#263238"/><path d="M264.987 105.391c-1.751-2.015-4.499-2.793-7.099-3.399a145.164 145.164 0 00-34.246-3.787c-1.083 2.518.662 5.494 3.023 6.885 2.361 1.392 5.184 1.676 7.86 2.271s5.487 1.694 6.885 4.051c1.487 2.507.989 5.793 2.348 8.371 2.339 4.437 9.07 5.03 11.383 9.479 1.749 3.366.227 7.423.235 11.215.01 4.298 2.196 8.537 5.692 11.036 2.758 1.971 6.271 2.802 9.631 2.396l-3.316-40.548c-.23-2.814-.544-5.838-2.396-7.97z" fill="#263238"/><path d="M296.745 135.476c-2.383-1.601-5.268-2.87-6.493-5.467-1.784-3.783.741-8.876-1.809-12.191-2.326-3.024-7.799-2.087-10.004-5.2-1.722-2.431-.491-4.968-1.329-7.198-.837-2.23-4.387-3.791-6.691-3.187l-14.591 29.104c-.453 9.14-1.499 14.119 1.142 19.059 1.449 2.71 3.206 5.303 4.039 8.26.833 2.957.542 6.481-1.673 8.61 11.068-.676 20.525-7.844 29.229-14.713l9.213-7.27c.958-.757 1.955-1.561 2.435-2.684 1.13-2.639-1.085-5.522-3.468-7.123z" fill="#263238"/><path d="M288.464 149.832s-.37.2-1.138.389c-.764.187-1.937.387-3.444.236a10.666 10.666 0 01-5.116-1.894c-1.767-1.23-3.344-3.315-4.028-5.961a10.805 10.805 0 01-.23-4.249c.222-1.487.829-2.923 1.463-4.354.623-1.432 1.316-2.909 1.506-4.516.189-1.578-.062-3.388-1.237-4.56-1.183-1.195-3.079-1.262-4.892-1.713-.912-.224-1.88-.635-2.577-1.401-.696-.765-1.037-1.778-1.155-2.765-.257-2.008.34-3.96.446-5.877.056-.96-.012-1.937-.375-2.799a3.943 3.943 0 00-1.891-1.999c-1.739-.907-3.781-.805-5.746-.704-1.973.133-4.075-.021-5.875-.869a10.721 10.721 0 01-4.448-3.645c-1.087-1.58-1.651-3.363-2.161-5.047-.507-1.69-.979-3.337-1.763-4.771-.783-1.427-1.89-2.607-3.119-3.52-2.502-1.791-5.448-2.519-8.055-2.368-2.626.145-4.884 1.162-6.583 2.363a15.15 15.15 0 00-3.767 3.803c-1.667 2.463-1.994 4.141-2.083 4.1-.011-.003.011-.104.065-.299.06-.192.124-.489.267-.856.258-.745.727-1.821 1.544-3.085a15.026 15.026 0 013.766-3.956c1.722-1.258 4.034-2.343 6.764-2.524 2.705-.185 5.765.537 8.396 2.39 1.292.945 2.466 2.177 3.302 3.68.833 1.504 1.321 3.191 1.835 4.871.514 1.677 1.074 3.394 2.097 4.868a10.13 10.13 0 004.199 3.419c1.709.793 3.623.936 5.592.806 1.945-.096 4.126-.236 6.072.773.963.478 1.777 1.319 2.186 2.32.419 1.001.48 2.075.422 3.084-.125 2.032-.701 3.921-.459 5.766.107.908.41 1.78.991 2.422.582.641 1.403 1.009 2.27 1.225.866.231 1.779.344 2.677.585.891.228 1.807.618 2.478 1.302 1.363 1.389 1.586 3.375 1.381 5.049-.219 1.731-.95 3.238-1.58 4.665-.645 1.425-1.238 2.809-1.46 4.214a10.4 10.4 0 00.181 4.061c.629 2.545 2.115 4.569 3.797 5.78 1.687 1.236 3.479 1.754 4.932 1.936 2.962.327 4.545-.49 4.553-.375z" fill="#455a64"/><path d="M300.424 128.919s.257.237.486.844c.23.595.355 1.614-.089 2.781-.233.57-.603 1.181-1.195 1.669a4.4 4.4 0 01-2.251.951c-1.741.263-3.941-.499-5.222-2.373-.644-.912-1.079-2.026-1.248-3.228-.167-1.209-.028-2.478.263-3.726.537-2.491 1.79-5.02 1.436-7.794-.158-1.346-.677-2.76-1.798-3.586-1.114-.852-2.655-.882-4.154-.685-1.507.16-3.116.581-4.809.173a4.167 4.167 0 01-2.179-1.368c-.562-.671-.92-1.477-1.139-2.303-.441-1.679-.268-3.35-.286-4.924a10.786 10.786 0 00-.886-4.475c-1.208-2.767-3.476-4.915-6.032-5.972-2.574-1.098-5.341-.868-7.835-.669-2.508.217-4.936.398-7.083-.121a14.584 14.584 0 01-5.338-2.399 14.46 14.46 0 01-3.171-3.074c-1.458-1.958-1.79-3.292-1.79-3.292.073-.04.494 1.262 1.987 3.137a14.72 14.72 0 003.18 2.933 14.39 14.39 0 005.227 2.248c2.075.474 4.426.276 6.942.035 2.491-.218 5.356-.496 8.107.653 2.708 1.104 5.099 3.347 6.385 6.269.64 1.453.973 3.098.948 4.723.015 1.612-.138 3.239.268 4.763.373 1.521 1.377 2.879 2.856 3.216 1.461.366 3.03-.009 4.575-.18 1.521-.196 3.281-.19 4.597.82 1.313.986 1.856 2.571 2.018 4.009.176 1.465-.063 2.915-.431 4.219-.357 1.315-.787 2.55-1.075 3.765-.295 1.21-.434 2.412-.291 3.54.146 1.127.542 2.176 1.129 3.032 1.165 1.753 3.174 2.483 4.805 2.276.82-.084 1.551-.4 2.102-.832.554-.434.919-.995 1.156-1.526.454-1.087.381-2.06.198-2.645-.181-.597-.395-.865-.363-.884zm-114.468 22.712c.101-.021-.445 1.133.437 2.858.435.808 1.294 1.748 2.599 1.989 1.271.245 2.915-.313 3.864-1.661.477-.663.688-1.525.62-2.425-.066-.899-.375-1.817-.807-2.712-.841-1.772-2.31-3.623-2.467-6.064-.196-2.362.656-4.927 2.443-6.794a10.449 10.449 0 013.16-2.275c1.2-.581 2.528-.858 3.821-1.107 1.297-.251 2.578-.466 3.73-.926 1.146-.451 2.138-1.21 2.689-2.244.554-1.032.691-2.238.611-3.389-.079-1.161-.376-2.271-.757-3.337-.755-2.125-1.708-4.16-1.879-6.268a9.802 9.802 0 011.21-5.593c.86-1.569 2.108-2.63 3.145-3.514 1.054-.885 1.95-1.647 2.577-2.371 1.29-1.44 1.385-2.596 1.471-2.556.011.002.004.069-.02.199-.03.127-.048.327-.144.567-.15.492-.49 1.195-1.116 1.952-.613.768-1.504 1.573-2.532 2.481-1.018.912-2.192 1.958-2.982 3.462a9.395 9.395 0 00-1.078 5.325c.18 1.984 1.117 3.956 1.907 6.119.395 1.083.721 2.258.811 3.491.091 1.225-.042 2.551-.669 3.732-.623 1.187-1.769 2.055-3.006 2.54-1.243.497-2.557.713-3.848.964-1.292.249-2.546.512-3.671 1.055a9.844 9.844 0 00-2.973 2.128c-1.675 1.737-2.476 4.119-2.311 6.316.116 2.237 1.485 4.017 2.357 5.881.44.938.762 1.919.821 2.91.065.985-.192 1.98-.744 2.719-1.093 1.49-2.897 2.053-4.305 1.751-1.445-.309-2.326-1.357-2.753-2.227a4.076 4.076 0 01-.418-2.214c.072-.52.207-.762.207-.762z" fill="#263238"/><path d="M189.652 212.606s1.68-13.444 8.162-20.166c6.482-6.722 33.6-15.139 33.6-15.139s1.12 9.59 7.614 11.902c6.889 2.454 14.671 1.532 19.715-4.32 4.878-5.658 6.302-12.934 6.302-12.934s32.387 2.98 37.668 11.863c5.282 8.883 12.112 43.287 12.112 43.287l-30.28 6.427 4.117 59.268h-80.465l1.575-55.619-21.905 3.128 1.785-27.697z" fill="#455a64"/><path d="M278.532 235.484c-.048-.001-.084-.477-.108-1.337-.024-.86-.036-2.104-.035-3.64 0-3.073.049-7.317.147-12.003.097-4.688.224-8.931.351-12.003.063-1.536.127-2.779.186-3.638.06-.859.115-1.334.163-1.334s.084.475.108 1.334c.024.859.036 2.102.035 3.639-.001 3.073-.05 7.319-.147 12.009a616.133 616.133 0 01-.351 12.005 141.754 141.754 0 01-.186 3.637c-.059.858-.115 1.332-.163 1.331zm-76.221-24.401c.185-.053 2.075 5.957 4.22 13.423 2.146 7.468 3.735 13.563 3.55 13.617-.185.053-2.074-5.956-4.22-13.424-2.146-7.467-3.735-13.563-3.55-13.616zm97.018-29.404c.024.124-1.436.392-3.646 1.233-2.209.831-5.134 2.36-7.859 4.719-2.715 2.372-4.635 5.058-5.764 7.13-1.139 2.073-1.607 3.481-1.726 3.44-.046-.015.037-.376.228-1.022.178-.649.536-1.56 1.06-2.646 1.039-2.174 2.952-4.99 5.744-7.428 2.801-2.426 5.855-3.93 8.151-4.658 1.148-.369 2.1-.597 2.768-.683.667-.1 1.036-.132 1.044-.085zm-102.004 13.476c.187-.047.823 1.822 1.421 4.174.598 2.354.932 4.299.745 4.346-.187.047-.823-1.821-1.421-4.175-.598-2.352-.931-4.298-.745-4.345z" fill="#263238"/><path d="M309.437 228.244s-9.07 46.059-10.108 50c-1.038 3.941-2.714 14.55-13.697 16.744-14.828 2.962-73.061.894-73.061.894l10.985-13.906 50.95-14.287 6.963-33.511 27.968-5.934z" fill="#ffbe9d"/><path d="M222.595 274.202c.041-.013.213.357.435 1.061.222.703.46 1.752.584 3.072.264 2.615-.102 6.438-2.081 10.032-.978 1.76-2.078 3.368-3.334 4.619-1.244 1.262-2.64 2.114-3.889 2.59-1.25.485-2.329.628-3.062.69-.74.032-1.146.007-1.148-.038-.023-.149 1.658-.097 4.021-1.108 1.169-.512 2.456-1.356 3.619-2.584 1.173-1.216 2.225-2.783 3.182-4.507 1.895-3.442 2.332-7.106 2.199-9.662-.116-2.583-.651-4.132-.526-4.165z" fill="#eb996e"/><path d="M173.836 219.69s8.211 27.628 11.618 39.566c3.62 12.685 11.529 41.488 28.391 36.371 12.826-3.892 9.051-20.514 9.051-20.514l-13.125-37.938-10.207 1.703-9.912-25.583-15.816 6.395z" fill="#ffbe9d"/><path d="M218.411 276.306c-.16-.008.891-2.413.005-6.25-.43-1.89-1.324-4.06-2.734-6.211-1.407-2.16-3.303-4.295-5.319-6.525-2.024-2.222-3.905-4.436-5.34-6.639a41.723 41.723 0 01-3.354-6.104 38 38 0 01-1.644-4.391c-.321-1.059-.438-1.661-.398-1.673.053-.016.257.559.655 1.585a55.8 55.8 0 001.834 4.271 46.129 46.129 0 003.439 5.952c1.444 2.151 3.3 4.307 5.326 6.532 2.015 2.229 3.928 4.408 5.341 6.643 1.42 2.232 2.295 4.49 2.676 6.457.401 1.969.27 3.623.056 4.713-.125.545-.237.962-.352 1.234-.103.275-.168.414-.191.406z" fill="#eb996e"/><path d="M189.652 213.293s.058-11.033-.912-14.144l-7.796-17.422s-2.008-1.231-2.967 2.243c-.944 3.419 2.083 7.044 2.083 7.044l.237 4.561-3.156-2.566-6.073-11.381s-4.183-8.286-5.27-6.971c-1.087 1.315-.728 3.979 1.077 7.555l4.095 8.111s.617 1.439-1.532-.65-6.819-12.208-7.785-13.472c-.966-1.263-2.291-4.972-4.385-4.134-2.094.838.588 5.285.588 5.285l6.699 15.005s-3.883-5.683-4.585-6.641c-.703-.958-2.316-4.212-3.589-5.868-1.273-1.655-2.661-2.302-3.584-1.903-1.663.719-1.159 2.287-1.159 2.287l7.151 12.409s3.576 5.566 3.57 5.987c-.006.422-3.117-1.838-3.117-1.838l-2.998-3.821s-3.243-5.724-4.946-5.412c-1.703.313-1.392 1.578-1.392 1.578l6.026 10.42 8.738 11.24 9.345 9.284 5.398-1.74 10.239-5.046z" fill="#ffbe9d"/><path d="M172.462 211.429c.141.008.228-1.35.559-3.477.349-2.067 1.063-5.15 3.592-7.145 1.106-.888 2.418-1.388 3.632-1.385l.447.001-.031-.485c-.138-2.139-.061-4.175-.139-5.529-.043-1.378-.191-2.203-.3-2.185-.079.016-.111.802-.213 2.178-.062 1.397-.268 3.258-.173 5.669l.415-.484c-1.423-.045-2.958.525-4.193 1.52-1.382 1.09-2.305 2.55-2.825 3.945-.531 1.398-.734 2.722-.838 3.819-.177 2.205-.038 3.554.067 3.558z" fill="#eb996e"/><path d="M315.953 354.587H186.737a4.856 4.856 0 01-4.856-4.856V314.49a4.855 4.855 0 014.856-4.855h129.216a4.856 4.856 0 014.856 4.855v35.241a4.856 4.856 0 01-4.856 4.856z" fill="#fff"/><path d="M315.953 354.587c-.002-.025.318.003.917-.116a4.834 4.834 0 002.361-1.236c.869-.794 1.62-2.201 1.5-3.958l-.024-6.043-.044-16.569-.02-10.345c-.025-.91.06-1.863-.096-2.747a4.755 4.755 0 00-1.289-2.396 4.708 4.708 0 00-2.474-1.283c-.929-.141-1.97-.048-2.976-.074l-127.062.076c-1.474-.005-2.915.737-3.754 1.939a4.503 4.503 0 00-.799 2.009c-.09.703-.036 1.506-.051 2.262l-.001 9.128-.004 17.846-.001 4.368-.001 2.169a4.6 4.6 0 00.404 1.995c.556 1.242 1.677 2.217 2.986 2.558.649.189 1.326.169 2.045.168l2.116.001 16.512.009 57.124.056 38.511.083 10.47.049 2.723.026c.613.007.927.025.927.025s-.314.018-.928.027l-2.723.026-10.47.049-38.511.083-57.124.056-16.512.009-2.116.001c-.69.001-1.452.026-2.177-.184-1.452-.378-2.696-1.456-3.314-2.835a5.117 5.117 0 01-.449-2.201l-.001-2.169-.001-4.368-.004-17.846-.001-9.128c.018-.773-.044-1.512.056-2.335.117-.799.41-1.582.89-2.238.932-1.337 2.54-2.166 4.178-2.158l127.062.076c1.022.031 2.003-.067 3.039.088a5.07 5.07 0 012.658 1.389 5.105 5.105 0 011.377 2.578c.165.977.068 1.897.093 2.813l-.02 10.345-.044 16.569-.024 6.043c.022.874-.101 1.712-.411 2.395a4.978 4.978 0 01-1.172 1.64 4.794 4.794 0 01-2.423 1.211 4.05 4.05 0 01-.693.065c-.156.004-.235-.001-.235-.001z" fill="#263238"/><path d="M195.745 328.533c0-2.178 1.667-3.722 3.936-3.722 1.319 0 2.382.48 3.077 1.35l-1.288 1.166c-.45-.542-1.002-.839-1.687-.839-1.176 0-1.994.818-1.994 2.045 0 1.227.818 2.045 1.994 2.045.685 0 1.237-.297 1.687-.839l1.288 1.166c-.695.869-1.758 1.35-3.077 1.35-2.27-.001-3.936-1.545-3.936-3.722zm7.767.388v-3.967h2.024v3.905c0 1.227.511 1.718 1.359 1.718.838 0 1.35-.491 1.35-1.718v-3.905h1.994v3.967c0 2.137-1.248 3.333-3.364 3.333s-3.363-1.196-3.363-3.333zm11.224 1.288h-1.104v1.901h-2.024v-7.156h3.271c1.953 0 3.179 1.012 3.179 2.647 0 1.054-.511 1.83-1.4 2.26l1.543 2.249h-2.167l-1.298-1.901zm.02-3.66h-1.124v2.096h1.124c.838 0 1.258-.389 1.258-1.043 0-.664-.42-1.053-1.258-1.053zm7.543 3.66h-1.104v1.901h-2.024v-7.156h3.271c1.953 0 3.179 1.012 3.179 2.647 0 1.054-.511 1.83-1.4 2.26l1.543 2.249h-2.167l-1.298-1.901zm.02-3.66h-1.124v2.096h1.124c.838 0 1.258-.389 1.258-1.043 0-.664-.419-1.053-1.258-1.053zm10.16 3.997v1.564h-5.745v-7.156h5.612v1.564h-3.609v1.206h3.18v1.513h-3.18v1.309h3.742zm7.932-5.592v7.156h-1.667l-3.159-3.813v3.813h-1.983v-7.156h1.666l3.159 3.814v-3.814h1.984zm2.952 1.605h-2.198v-1.604h6.41v1.604h-2.188v5.552h-2.024v-5.552zm7.941-1.605h2.025v5.551h3.414v1.605h-5.439v-7.156zm5.754 3.579c0-2.146 1.687-3.722 3.977-3.722s3.978 1.575 3.978 3.722c0 2.146-1.688 3.722-3.978 3.722s-3.977-1.576-3.977-3.722zm5.909 0c0-1.237-.849-2.045-1.933-2.045-1.083 0-1.932.808-1.932 2.045s.849 2.045 1.932 2.045c1.085 0 1.933-.808 1.933-2.045zm2.739 0c0-2.178 1.666-3.722 3.936-3.722 1.319 0 2.383.48 3.077 1.35l-1.288 1.166c-.449-.542-1.001-.839-1.686-.839-1.176 0-1.993.818-1.993 2.045 0 1.227.817 2.045 1.993 2.045.685 0 1.237-.297 1.686-.839l1.288 1.166c-.694.869-1.758 1.35-3.077 1.35-2.27-.001-3.936-1.545-3.936-3.722zm12.583 2.187h-3.026l-.563 1.391h-2.065l3.159-7.156h1.994l3.169 7.156h-2.107l-.561-1.391zm-.594-1.492l-.92-2.29-.92 2.29h1.84zm4.998-2.669h-2.198v-1.604h6.41v1.604h-2.188v5.552h-2.023v-5.552zm4.967-1.605h2.024v7.156h-2.024v-7.156zm3.097 3.579c0-2.146 1.686-3.722 3.977-3.722 2.29 0 3.978 1.575 3.978 3.722 0 2.146-1.688 3.722-3.978 3.722-2.291-.001-3.977-1.576-3.977-3.722zm5.909 0c0-1.237-.849-2.045-1.933-2.045-1.083 0-1.932.808-1.932 2.045s.849 2.045 1.932 2.045c1.084 0 1.933-.808 1.933-2.045zm9.914-3.579v7.156h-1.666l-3.159-3.813v3.813h-1.983v-7.156h1.666l3.159 3.814v-3.814h1.983z" fill="#263238"/><g fill="#e0e0e0"><path d="M211.366 340.47c0-2.051 1.575-3.518 3.694-3.518 1.176 0 2.158.428 2.799 1.206l-1.011.933c-.456-.525-1.03-.797-1.71-.797-1.273 0-2.177.895-2.177 2.177 0 1.283.904 2.178 2.177 2.178.68 0 1.254-.272 1.71-.807l1.011.933c-.642.788-1.624 1.215-2.809 1.215-2.109-.001-3.684-1.468-3.684-3.52zm7.548-3.401h1.575v6.804h-1.575v-6.804zm4.596 1.283h-2.177v-1.283h5.929v1.283h-2.177v5.521h-1.574v-5.521z"/><path d="M231.244 341.462v2.41h-1.575v-2.43l-2.634-4.374h1.672l1.818 3.022 1.817-3.022h1.545l-2.643 4.394zm4.342 1.535c0 .253-.039.438-.263.973l-.554 1.4h-.962l.428-1.546c-.321-.126-.525-.428-.525-.826 0-.564.408-.933.943-.933.543 0 .933.379.933.932zm3.457-2.527c0-2.051 1.575-3.518 3.694-3.518 1.176 0 2.158.428 2.799 1.206l-1.011.933c-.457-.525-1.031-.797-1.711-.797-1.273 0-2.177.895-2.177 2.177 0 1.283.904 2.178 2.177 2.178.68 0 1.254-.272 1.711-.807l1.011.933c-.642.788-1.624 1.215-2.809 1.215-2.11-.001-3.684-1.468-3.684-3.52zm6.974 0c0-2.021 1.575-3.518 3.723-3.518 2.139 0 3.723 1.487 3.723 3.518 0 2.032-1.584 3.519-3.723 3.519-2.148 0-3.723-1.497-3.723-3.519zm5.852 0c0-1.292-.914-2.177-2.129-2.177-1.215 0-2.129.885-2.129 2.177 0 1.293.914 2.178 2.129 2.178 1.215 0 2.129-.885 2.129-2.178zm2.717.408v-3.81h1.575v3.752c0 1.292.564 1.827 1.516 1.827.963 0 1.517-.535 1.517-1.827v-3.752h1.556v3.81c0 2.003-1.147 3.11-3.081 3.11-1.936.001-3.083-1.107-3.083-3.11zm13.954-3.809v6.804h-1.293l-3.392-4.131v4.131h-1.556v-6.804h1.303l3.383 4.131v-4.131h1.555zm3.018 1.283h-2.177v-1.283h5.929v1.283h-2.177v5.521h-1.575v-5.521zm8.929 5.52l-1.312-1.896h-1.448v1.896h-1.575v-6.804h2.945c1.817 0 2.955.942 2.955 2.469 0 1.02-.516 1.769-1.4 2.148l1.526 2.186h-1.691zm-1.478-5.52h-1.282v2.371h1.282c.963 0 1.448-.447 1.448-1.186.001-.748-.485-1.185-1.448-1.185zm7.452 3.11v2.41h-1.574v-2.43l-2.634-4.374h1.672l1.817 3.022 1.817-3.022h1.546l-2.644 4.394z"/></g></svg>