<svg width="375" height="250" fill="none" xmlns="http://www.w3.org/2000/svg"><rect width="375" height="250" rx="32" fill="#fff"/><rect x="39" y="185" width="297" height="32" rx="9" fill="#8F00FF"/><path d="M158.616 206.252c-1.464 0-2.646-.384-3.546-1.152-.888-.78-1.332-1.842-1.332-3.186h2.754c0 .3.054.57.162.81.12.228.276.414.468.558.204.144.432.252.684.324.252.072.516.108.792.108.552 0 1.026-.132 1.422-.396.408-.264.612-.624.612-1.08a.887.887 0 00-.144-.504 1.098 1.098 0 00-.342-.36c-.12-.096-.312-.192-.576-.288a6.777 6.777 0 00-.648-.216c-.18-.048-.45-.114-.81-.198l-.648-.162c-.144-.036-.36-.096-.648-.18a10.067 10.067 0 01-.648-.216l-.576-.288c-.24-.12-.426-.24-.558-.36a7.907 7.907 0 01-.45-.45 2.204 2.204 0 01-.36-.558 4.593 4.593 0 01-.216-.684c-.06-.264-.09-.54-.09-.828 0-1.2.408-2.13 1.224-2.79.816-.66 1.932-.99 3.348-.99 1.428 0 2.538.36 3.33 1.08.804.72 1.206 1.71 1.206 2.97h-2.7c0-.516-.186-.906-.558-1.17-.36-.276-.81-.414-1.35-.414-.48 0-.9.102-1.26.306-.348.204-.522.498-.522.882 0 .18.042.342.126.486.096.132.204.246.324.342.12.084.306.174.558.27.252.084.462.15.63.198.18.036.444.096.792.18.384.096.672.174.864.234.192.048.468.138.828.27.36.12.636.24.828.36.204.12.438.282.702.486.264.192.462.408.594.648.144.228.264.51.36.846.108.324.162.678.162 1.062 0 .876-.222 1.626-.666 2.25a3.87 3.87 0 01-1.728 1.368c-.696.288-1.494.432-2.394.432zm6.789-11.268v-2.448h2.628v2.448h-2.628zm0 11.016v-9.72h2.628V206h-2.628zm12.998-9.72h1.71v8.586c0 1.008-.204 1.878-.612 2.61a4.053 4.053 0 01-1.71 1.71c-.744.396-1.626.594-2.646.594-1.32 0-2.424-.318-3.312-.954-.876-.636-1.422-1.506-1.638-2.61h2.61c.144.408.432.726.864.954.432.24.906.36 1.422.36.696 0 1.272-.21 1.728-.63.468-.408.702-.96.702-1.656v-.36c-.804.576-1.728.864-2.772.864-.888 0-1.704-.21-2.448-.63a4.65 4.65 0 01-1.746-1.764 4.93 4.93 0 01-.63-2.466c0-1.356.462-2.508 1.386-3.456.936-.948 2.082-1.422 3.438-1.422 1.26 0 2.34.414 3.24 1.242l.414-.972zm-3.348 7.128c.72 0 1.314-.234 1.782-.702.468-.48.702-1.086.702-1.818 0-.72-.234-1.314-.702-1.782-.456-.48-1.05-.72-1.782-.72-.708 0-1.296.24-1.764.72-.468.468-.702 1.062-.702 1.782 0 .732.228 1.338.684 1.818.468.468 1.062.702 1.782.702zm13.12-7.362c1.104 0 1.974.372 2.61 1.116.648.732.972 1.716.972 2.952V206h-2.628v-5.472c0-1.452-.564-2.178-1.692-2.178a2.21 2.21 0 00-1.17.306 2.027 2.027 0 00-.756.882c-.168.384-.252.834-.252 1.35V206h-2.628v-9.72h1.8l.522 1.206c.18-.228.384-.426.612-.594.24-.18.498-.33.774-.45.276-.132.564-.228.864-.288a4.31 4.31 0 01.972-.108zm19.276 8.82c-.984.936-2.226 1.404-3.726 1.404s-2.742-.468-3.726-1.404c-.984-.936-1.476-2.136-1.476-3.6V193.4h2.736v7.74c0 .768.228 1.386.684 1.854.456.468 1.05.702 1.782.702s1.326-.234 1.782-.702c.468-.468.702-1.086.702-1.854v-7.74h2.718v7.866c0 1.464-.492 2.664-1.476 3.6zm9.16-8.856c1.464 0 2.676.486 3.636 1.458.972.972 1.458 2.196 1.458 3.672s-.486 2.706-1.458 3.69c-.972.972-2.184 1.458-3.636 1.458-.996 0-1.89-.27-2.682-.81v4.032h-2.628v-13.23h1.746l.45.882c.864-.768 1.902-1.152 3.114-1.152zm-2.124 7.038c.504.504 1.134.756 1.89.756.768 0 1.404-.252 1.908-.756s.756-1.14.756-1.908c0-.504-.114-.96-.342-1.368a2.431 2.431 0 00-.954-.954 2.656 2.656 0 00-1.35-.342c-.504 0-.96.114-1.368.342a2.431 2.431 0 00-.954.954 2.878 2.878 0 00-.324 1.368c0 .768.246 1.404.738 1.908z" fill="#fff"/><g filter="url(#filter0_i_1065_2064)"><rect x="39" y="62" width="297" height="32" rx="9" fill="#F9F9F9"/></g><g filter="url(#filter1_i_1065_2064)"><rect x="39" y="135" width="297" height="32" rx="9" fill="#F9F9F9"/></g><path d="M150.246 106.4c1.188 0 2.178.384 2.97 1.152.804.768 1.206 1.728 1.206 2.88s-.402 2.112-1.206 2.88c-.792.768-1.782 1.152-2.97 1.152h-2.952V119h-1.566v-12.6h4.518zm-.09 6.534c.768 0 1.398-.234 1.89-.702.504-.48.756-1.08.756-1.8s-.252-1.314-.756-1.782c-.492-.48-1.122-.72-1.89-.72h-2.862v5.004h2.862zm14.553-3.654h1.224V119h-1.278l-.162-1.476c-.456.54-1.014.96-1.674 1.26a5.215 5.215 0 01-2.142.432c-1.428 0-2.622-.48-3.582-1.44-.96-.972-1.44-2.184-1.44-3.636s.48-2.658 1.44-3.618c.96-.972 2.154-1.458 3.582-1.458.792 0 1.512.15 2.16.45.66.3 1.218.72 1.674 1.26l.198-1.494zm-6.48 7.434c.684.684 1.542 1.026 2.574 1.026 1.032 0 1.884-.342 2.556-1.026.672-.684 1.008-1.542 1.008-2.574 0-1.032-.336-1.89-1.008-2.574-.672-.684-1.524-1.026-2.556-1.026s-1.89.348-2.574 1.044c-.672.684-1.008 1.536-1.008 2.556s.336 1.878 1.008 2.574zm13.864 2.502c-.768 0-1.44-.126-2.016-.378-.576-.264-1.026-.636-1.35-1.116-.324-.492-.498-1.062-.522-1.71h1.494c.036.564.276 1.002.72 1.314.444.312 1.014.468 1.71.468.684 0 1.236-.132 1.656-.396.42-.276.63-.648.63-1.116 0-.18-.03-.342-.09-.486a.822.822 0 00-.27-.378 2.577 2.577 0 00-.396-.27 2.466 2.466 0 00-.54-.198 4.634 4.634 0 00-.576-.126 12.816 12.816 0 00-.648-.126 13.4 13.4 0 01-.72-.126c-.168-.036-.396-.09-.684-.162a4.22 4.22 0 01-.684-.252 4.398 4.398 0 01-.558-.342c-.204-.144-.36-.3-.468-.468a2.815 2.815 0 01-.288-.63 3.077 3.077 0 01-.108-.846c0-.408.084-.786.252-1.134.18-.348.426-.642.738-.882a3.442 3.442 0 011.17-.576 4.94 4.94 0 011.494-.216c1.104 0 1.986.27 2.646.81.66.54 1.002 1.272 1.026 2.196h-1.44a1.545 1.545 0 00-.324-.882 1.565 1.565 0 00-.774-.558c-.324-.132-.708-.198-1.152-.198-.444 0-.828.06-1.152.18-.324.108-.576.27-.756.486a1.17 1.17 0 00-.252.738c0 .192.048.366.144.522.096.144.204.264.324.36.12.084.306.168.558.252.252.072.462.126.63.162.18.024.432.066.756.126.336.048.582.09.738.126.168.024.402.078.702.162.312.072.552.15.72.234.168.084.36.204.576.36.228.144.396.312.504.504.108.18.204.408.288.684a2.9 2.9 0 01.126.882c0 .912-.354 1.644-1.062 2.196-.696.54-1.62.81-2.772.81zm9.228 0c-.768 0-1.44-.126-2.016-.378-.576-.264-1.026-.636-1.35-1.116-.324-.492-.498-1.062-.522-1.71h1.494c.036.564.276 1.002.72 1.314.444.312 1.014.468 1.71.468.684 0 1.236-.132 1.656-.396.42-.276.63-.648.63-1.116 0-.18-.03-.342-.09-.486a.822.822 0 00-.27-.378 2.577 2.577 0 00-.396-.27 2.466 2.466 0 00-.54-.198 4.634 4.634 0 00-.576-.126 12.816 12.816 0 00-.648-.126 13.4 13.4 0 01-.72-.126c-.168-.036-.396-.09-.684-.162a4.22 4.22 0 01-.684-.252 4.398 4.398 0 01-.558-.342c-.204-.144-.36-.3-.468-.468a2.815 2.815 0 01-.288-.63 3.077 3.077 0 01-.108-.846c0-.408.084-.786.252-1.134.18-.348.426-.642.738-.882a3.442 3.442 0 011.17-.576 4.94 4.94 0 011.494-.216c1.104 0 1.986.27 2.646.81.66.54 1.002 1.272 1.026 2.196h-1.44a1.545 1.545 0 00-.324-.882 1.565 1.565 0 00-.774-.558c-.324-.132-.708-.198-1.152-.198-.444 0-.828.06-1.152.18-.324.108-.576.27-.756.486a1.17 1.17 0 00-.252.738c0 .192.048.366.144.522.096.144.204.264.324.36.12.084.306.168.558.252.252.072.462.126.63.162.18.024.432.066.756.126.336.048.582.09.738.126.168.024.402.078.702.162.312.072.552.15.72.234.168.084.36.204.576.36.228.144.396.312.504.504.108.18.204.408.288.684a2.9 2.9 0 01.126.882c0 .912-.354 1.644-1.062 2.196-.696.54-1.62.81-2.772.81zm17.801-9.936h1.548l-3.312 9.72h-1.242l-2.754-6.624-2.736 6.624h-1.242l-3.294-9.72h1.602l2.412 7.164 2.988-7.02h.558l2.988 7.074 2.484-7.218zm7.665 9.936c-.96 0-1.836-.216-2.628-.648a4.82 4.82 0 01-1.854-1.818c-.444-.78-.666-1.65-.666-2.61 0-1.464.486-2.676 1.458-3.636.984-.96 2.214-1.44 3.69-1.44.972 0 1.848.222 2.628.666a4.66 4.66 0 011.854 1.818c.456.768.684 1.632.684 2.592 0 1.452-.492 2.664-1.476 3.636-.984.96-2.214 1.44-3.69 1.44zm-2.574-2.484c.684.672 1.542 1.008 2.574 1.008 1.044 0 1.902-.336 2.574-1.008.684-.684 1.026-1.548 1.026-2.592s-.342-1.902-1.026-2.574c-.672-.684-1.53-1.026-2.574-1.026-1.032 0-1.89.342-2.574 1.026-.672.672-1.008 1.53-1.008 2.574 0 1.044.336 1.908 1.008 2.592zm14.493-7.506h.864v1.458h-.99c-.876 0-1.56.27-2.052.81-.48.528-.72 1.272-.72 2.232V119h-1.53v-9.72h1.08l.252 1.476c.708-1.02 1.74-1.53 3.096-1.53zm10.047-3.42h1.53V119h-1.17l-.216-1.386c-.96 1.068-2.202 1.602-3.726 1.602-1.464 0-2.67-.48-3.618-1.44-.936-.972-1.404-2.184-1.404-3.636 0-1.464.468-2.676 1.404-3.636.948-.96 2.154-1.44 3.618-1.44 1.44 0 2.634.48 3.582 1.44v-4.698zm-6.03 10.908c.672.684 1.518 1.026 2.538 1.026 1.032 0 1.89-.342 2.574-1.026.684-.696 1.026-1.554 1.026-2.574 0-1.032-.342-1.89-1.026-2.574-.672-.684-1.524-1.026-2.556-1.026-.504 0-.978.096-1.422.288-.444.18-.822.426-1.134.738a3.337 3.337 0 00-.738 1.152c-.18.444-.27.918-.27 1.422 0 1.032.336 1.89 1.008 2.574zm-60.429-72.226h5.76V46h-7.326V33.4h7.128v1.494h-5.562V38.8h5.094v1.458h-5.094v4.23zm7.634-2.772V40.24h5.706v1.476h-5.706zm19.225-5.652c.684 0 1.284.162 1.8.486.516.312.912.75 1.188 1.314.288.564.432 1.206.432 1.926V46h-1.53v-5.742c0-.576-.09-1.074-.27-1.494-.168-.42-.42-.738-.756-.954-.324-.228-.714-.342-1.17-.342-.708 0-1.32.306-1.836.918-.504.6-.756 1.344-.756 2.232V46h-1.494v-5.742c0-.876-.198-1.56-.594-2.052-.384-.492-.924-.738-1.62-.738-.348 0-.684.084-1.008.252a2.68 2.68 0 00-.828.648 3.38 3.38 0 00-.558 1.008 3.796 3.796 0 00-.198 1.242V46h-1.53v-9.72h1.098l.252 1.332c.18-.24.384-.456.612-.648.24-.192.492-.354.756-.486a3.941 3.941 0 011.746-.414c.684 0 1.284.168 1.8.504.516.324.906.774 1.17 1.35a3.908 3.908 0 012.016-1.62c.42-.156.846-.234 1.278-.234zm14.655.216h1.224V46h-1.278l-.162-1.476c-.456.54-1.014.96-1.674 1.26a5.215 5.215 0 01-2.142.432c-1.428 0-2.622-.48-3.582-1.44-.96-.972-1.44-2.184-1.44-3.636s.48-2.658 1.44-3.618c.96-.972 2.154-1.458 3.582-1.458.792 0 1.512.15 2.16.45.66.3 1.218.72 1.674 1.26l.198-1.494zm-6.48 7.434c.684.684 1.542 1.026 2.574 1.026 1.032 0 1.884-.342 2.556-1.026.672-.684 1.008-1.542 1.008-2.574 0-1.032-.336-1.89-1.008-2.574-.672-.684-1.524-1.026-2.556-1.026s-1.89.348-2.574 1.044c-.672.684-1.008 1.536-1.008 2.556s.336 1.878 1.008 2.574zm10.714-9.126v-1.746h1.656v1.746h-1.656zM208.114 46v-9.72h1.53V46h-1.53zm4.606 0V32.806h1.53V46h-1.53z" fill="#000"/><defs><filter id="filter0_i_1065_2064" x="39" y="62" width="297" height="32" filterUnits="userSpaceOnUse" color-interpolation-filters="sRGB"><feFlood flood-opacity="0" result="BackgroundImageFix"/><feBlend in="SourceGraphic" in2="BackgroundImageFix" result="shape"/><feColorMatrix in="SourceAlpha" values="0 0 0 0 0 0 0 0 0 0 0 0 0 0 0 0 0 0 127 0" result="hardAlpha"/><feMorphology radius="1" in="SourceAlpha" result="effect1_innerShadow_1065_2064"/><feOffset/><feGaussianBlur stdDeviation=".5"/><feComposite in2="hardAlpha" operator="arithmetic" k2="-1" k3="1"/><feColorMatrix values="0 0 0 0 0 0 0 0 0 0 0 0 0 0 0 0 0 0 0.18 0"/><feBlend in2="shape" result="effect1_innerShadow_1065_2064"/></filter><filter id="filter1_i_1065_2064" x="39" y="135" width="297" height="32" filterUnits="userSpaceOnUse" color-interpolation-filters="sRGB"><feFlood flood-opacity="0" result="BackgroundImageFix"/><feBlend in="SourceGraphic" in2="BackgroundImageFix" result="shape"/><feColorMatrix in="SourceAlpha" values="0 0 0 0 0 0 0 0 0 0 0 0 0 0 0 0 0 0 127 0" result="hardAlpha"/><feMorphology radius="1" in="SourceAlpha" result="effect1_innerShadow_1065_2064"/><feOffset/><feGaussianBlur stdDeviation=".5"/><feComposite in2="hardAlpha" operator="arithmetic" k2="-1" k3="1"/><feColorMatrix values="0 0 0 0 0 0 0 0 0 0 0 0 0 0 0 0 0 0 0.18 0"/><feBlend in2="shape" result="effect1_innerShadow_1065_2064"/></filter></defs></svg>