<svg width="179" height="45" fill="none" xmlns="http://www.w3.org/2000/svg"><rect width="179" height="45" rx="18" fill="#228CDB"/><path d="M37.327 31.45c-2.816 0-5.133-.858-6.95-2.575-1.8-1.733-2.7-3.942-2.7-6.625s.9-4.883 2.7-6.6c1.817-1.733 4.134-2.6 6.95-2.6 2.8 0 5.1.867 6.9 2.6 1.8 1.717 2.7 3.917 2.7 6.6s-.9 4.892-2.7 6.625c-1.8 1.717-4.1 2.575-6.9 2.575zm-3.325-5.825c.884.883 1.992 1.325 3.325 1.325 1.334 0 2.425-.442 3.275-1.325.867-.883 1.3-2.008 1.3-3.375s-.433-2.492-1.3-3.375c-.85-.883-1.941-1.325-3.275-1.325-1.333 0-2.441.442-3.325 1.325-.866.883-1.3 2.008-1.3 3.375s.434 2.492 1.3 3.375zM58.803 31l-2.85-5.35h-1.725V31h-4.825V13.5h7.575c1.25 0 2.367.258 3.35.775a5.626 5.626 0 012.3 2.2c.567.95.85 2.025.85 3.225 0 .7-.108 1.367-.325 2a5.38 5.38 0 01-.95 1.675c-.417.5-.917.917-1.5 1.25L64.178 31h-5.375zm-4.575-13.225v3.8h2.2c.65 0 1.167-.175 1.55-.525.383-.35.575-.808.575-1.375 0-.367-.083-.692-.25-.975a1.747 1.747 0 00-.75-.675c-.316-.167-.691-.25-1.125-.25h-2.2zM66.298 31V13.5h4.875V31h-4.875zm16.301-9.35h9.6c0 1.883-.383 3.575-1.15 5.075-.767 1.483-1.85 2.642-3.25 3.475-1.4.833-3 1.25-4.8 1.25-2.7 0-4.933-.867-6.7-2.6-1.75-1.733-2.625-3.925-2.625-6.575 0-2.667.867-4.867 2.6-6.6 1.75-1.75 3.975-2.625 6.675-2.625 2.283 0 4.275.65 5.975 1.95 1.7 1.3 2.733 2.967 3.1 5h-5.05c-.317-.733-.842-1.317-1.575-1.75a4.42 4.42 0 00-2.4-.675c-1.317 0-2.383.433-3.2 1.3-.8.867-1.2 2-1.2 3.4 0 .9.175 1.708.525 2.425.367.7.883 1.25 1.55 1.65.667.383 1.442.575 2.325.575.917 0 1.733-.2 2.45-.6.733-.417 1.233-.967 1.5-1.65h-4.35V21.65zM94.642 31V13.5h4.875V31h-4.875zm19.202-17.5h4.675V31h-3.975l-6.95-9.5V31h-4.675V13.5h4.2l6.725 9.175V13.5zM133.513 31l-.975-2.85h-6.2l-.975 2.85h-5.15l6.875-17.5h4.7l7.025 17.5h-5.3zm-2.15-6.625l-1.925-5.425-1.925 5.425h3.85zm14.028 2.2h6.225V31h-11.1V13.5h4.875v13.075z" fill="#fff"/></svg>