<svg width="751" height="500" fill="none" xmlns="http://www.w3.org/2000/svg"><g clip-path="url(#clip0_1406_1471)"><path d="M673.505 296.908c-13.64-27.892-43.913-41.798-65.228-63.899-24.471-25.384-36.284-60.593-51.057-93.063-14.773-32.458-35.822-65.46-68.499-76.845-28.979-10.103-60.523-.902-90.889-3.895-47.45-4.658-89.063-32.285-133.947-5.18-55.368 33.442-101.339 82.498-135.496 138.618-14.288 23.466-31.708 53.508-42.793 84.868-11.813 33.429-16.425 68.349-2.37 98.403 22.517 48.121 67.251 55.333 112.517 45.508 51.958-11.282 105.731-14.946 158.58-6.693 40.34 6.303 80.079 18.836 120.013 25.361-17.303 1.872-27.971 4.422-27.971 7.234 0 5.744 44.443 10.401 99.266 10.401 54.823 0 99.266-4.657 99.266-10.401 0-4.742-30.301-8.741-71.714-9.992a177.533 177.533 0 0013.837-4.513c11.629-4.335 23.881-10.068 35.579-17.073a195.498 195.498 0 007.964-5.04c0-.012 0-.012.012-.012.139-.081.277-.173.405-.266.786-.52 1.56-1.052 2.335-1.595a166.782 166.782 0 006.947-5.063 142.743 142.743 0 004.358-3.479 95.368 95.368 0 002.404-2.023 124.348 124.348 0 004.104-3.664 101.03 101.03 0 002.277-2.161 117.024 117.024 0 006.924-7.282 102.98 102.98 0 002.763-3.26c6.381-7.86 11.513-16.391 14.865-25.546 6.448-17.639 6.252-37.578-4.452-59.448z" fill="url(#paint0_linear_1406_1471)"/><path d="M219.879 443.015c23.456 0 42.471-2.793 42.471-6.238 0-3.445-19.015-6.238-42.471-6.238-23.456 0-42.471 2.793-42.471 6.238 0 3.445 19.015 6.238 42.471 6.238z" fill="url(#paint1_linear_1406_1471)"/><path d="M346.827 441.287c33.481 0 60.622-4.217 60.622-9.418 0-5.202-27.141-9.418-60.622-9.418s-60.622 4.216-60.622 9.418c0 5.201 27.141 9.418 60.622 9.418z" fill="url(#paint2_linear_1406_1471)"/><path d="M285.573 76.215H252.77V91.57h32.803V76.215zm19.566 20.899h-32.803v15.356h32.803V97.114z" fill="#C1BED7"/><path d="M235.985 112.954c-14.537 0-26.364 11.827-26.364 26.364s11.827 26.364 26.364 26.364c14.539 0 26.366-11.827 26.366-26.364s-11.828-26.364-26.366-26.364zm2.055 4.537c2.852 1.167 5.345 4.69 6.948 9.504a45.602 45.602 0 01-6.948.793v-10.297zm-4.11 10.297a45.733 45.733 0 01-6.946-.795c1.602-4.813 4.095-8.335 6.946-9.502v10.297zm0 4.114v5.36h-8.776a41.15 41.15 0 01.777-6.284c2.522.515 5.203.822 7.999.924zm0 9.471v5.371c-2.766.102-5.482.408-7.997.923a41.138 41.138 0 01-.779-6.294h8.776zm0 9.48v10.291c-2.85-1.167-5.341-4.685-6.944-9.494a45.519 45.519 0 016.944-.797zm4.11 0c2.394.096 4.744.364 6.945.796-1.603 4.809-4.095 8.328-6.945 9.494v-10.29zm0-4.109v-5.371h8.778a41.016 41.016 0 01-.779 6.293c-2.523-.515-5.239-.82-7.999-.922zm0-9.482v-5.36c2.802-.102 5.487-.409 8.001-.923.405 1.979.673 4.089.777 6.283h-8.778zm-16.992 0h-7.212a22.06 22.06 0 013.048-9.304c1.5.778 3.201 1.455 5.06 2.02a44.706 44.706 0 00-.896 7.284zm0 4.111c.108 2.561.417 5.003.897 7.293-1.86.565-3.561 1.241-5.059 2.016a22.052 22.052 0 01-3.051-9.309h7.213zm29.876 0h7.212a22.052 22.052 0 01-3.05 9.306c-1.5-.777-3.201-1.452-5.059-2.016.48-2.289.789-4.73.897-7.29zm0-4.111a44.765 44.765 0 00-.895-7.282c1.861-.566 3.562-1.242 5.061-2.019a22.06 22.06 0 013.047 9.301h-7.213zm1.713-12.657c-1.095.526-2.333.988-3.663 1.399-.814-2.489-1.851-4.705-3.069-6.577a22.327 22.327 0 016.732 5.178zm-26.571-5.179c-1.218 1.872-2.255 4.088-3.069 6.577-1.328-.41-2.566-.873-3.662-1.4a22.332 22.332 0 016.731-5.177zm-6.727 34.61c1.094-.525 2.332-.986 3.661-1.396.813 2.486 1.849 4.699 3.066 6.569a22.343 22.343 0 01-6.727-5.173zm26.567 5.172c1.217-1.87 2.253-4.084 3.067-6.571 1.328.409 2.566.871 3.661 1.396a22.322 22.322 0 01-6.728 5.175z" fill="#fff"/><path d="M146.209 373.634h32.803v-15.356h-32.803v15.356zm-39.133 0h32.803v-15.356h-32.803v15.356zm19.566 20.9h32.803v-15.356h-32.803v15.356z" fill="#DFDEEE"/><path d="M543.207 359.118l-15.135.936 11.178 3.212c-3.968 3.946-7.166 6.955-11.916 11.062l-22.045-1.873 16.808 6.397c-5.476 4.486-8.333 6.902-14.34 10.637-9.673-2.621-20.115-4.859-20.115-4.859l12.916 9.29c-7.316 4.146-14.811 7.341-22.184 8.848-1.189.238-.049.038-1.189.238l-13.514-4.468 5.746 5.774c-31.121 4.205-39.671-7.274-39.671-7.274s.052-.592.31-1.73a31.07 31.07 0 011.053-3.497c2.024-5.715 7.059-15.74 19.432-28.357l.822 10.626 4.202-13.708a113.41 113.41 0 013.527-2.533c3.921-2.736 3.155-2.812 7.932-4.747l.997 14.819 5.85-17.707a102.237 102.237 0 018.785-2.911l-2.285 14.168 9.294-15.774c5.703-1.462 7.775-1.818 13.645-2.648l-2.533 14.718 10.317-15.492c8.84-1.062 8.482-.926 16.111-1.076l-3.742 12.271 9.824-12.815c12.751-.022 25.642.932 25.642.932s-5.219 6.827-15.722 17.541z" fill="#0797A7"/><path d="M509.849 297.532l-9.69 7.844 9.018-3.179c-.775 4.535-1.482 8.075-2.705 13.091l-15.658 9.259 14.307-3.731c-1.528 5.616-2.289 8.597-4.532 13.962-7.728 2.857-15.788 6.338-15.788 6.338l13.08.063c-2.923 6.265-6.419 11.979-10.637 16.505-.683.727-.015.048-.683.727l-11.181 3.452 6.601 1.127c-18.837 17.657-30.037 14.047-30.037 14.047s-.248-.421-.617-1.306a25.439 25.439 0 01-.962-2.844c-1.37-4.793-2.779-13.908-.509-28.258l5.618 6.725-3.723-11.184c.359-1.103.731-2.23 1.154-3.378 1.321-3.702.772-3.388 3.049-6.962l7.734 9.449-4.526-14.649a83.984 83.984 0 014.495-6.139l5.226 10.578-1.298-14.997c3.123-3.699 4.34-4.926 7.875-8.28l5.322 11.065-.478-15.296c5.414-4.927 5.239-4.665 10.277-8.403l3.346 10.003.468-13.267c8.529-6.095 17.617-11.604 17.617-11.604s-.238 7.057-2.163 19.242z" fill="#0CC3BE"/><path d="M76.204 289.767l13.525 6.856-11.536-1.48c2.079 5.196 3.823 9.225 6.557 14.878l20.983 7.015-17.967-.787c3.25 6.289 4.916 9.64 8.952 15.449 9.92 1.426 20.393 3.509 20.393 3.509l-15.54 3.412c5.074 6.705 10.69 12.608 16.862 16.914.998.69.03.054.998.69l14.178 1.252-7.563 3.025c26.907 16.192 39.306 9.041 39.306 9.041s.187-.564.401-1.711c.151-.865.33-2.08.418-3.628.406-6.049-.244-17.249-6.605-33.735l-4.965 9.431 1.574-14.251a112.449 112.449 0 00-2.235-3.723c-2.515-4.066-1.783-3.832-5.402-7.501l-6.787 13.211 1.645-18.576a102.213 102.213 0 00-6.912-6.154l-3.516 13.914-2.283-18.166c-4.657-3.602-6.418-4.75-11.479-7.838l-3.506 14.517-3.334-18.312c-7.696-4.477-7.421-4.211-14.366-7.371l-1.427 12.749-3.942-15.658c-11.698-5.073-23.912-9.304-23.912-9.304s2.087 8.333 7.485 22.332z" fill="#0797A7"/><path d="M93.466 196.351c4.055 5.458 5.95 12.898 5.06 19.572.37 1.154.794 2.475 1.273 3.959 2.514-6.143 6.921-11.424 12.202-15.378-1.564 6.669-6.08 12.964-11.814 16.578.792 2.444 1.71 5.246 2.765 8.369l1.536 4.51c.259.741.532 1.494.809 2.258 4.369-8.653 11.686-15.546 20.146-20.161-3.325 9.17-11.008 17.116-19.949 20.707.243.67.489 1.343.737 2.034 1.175 3.361 2.56 6.859 3.967 10.57a490.812 490.812 0 002.04 5.073c4.338-10.757 12.291-19.747 21.888-26.221-2.741 11.567-10.889 22.143-21.253 27.765 1.649 4 3.412 8.121 5.285 12.302.055.036.113.068.167.105-.037.007-.075.012-.112.02a403.15 403.15 0 001.964 4.32l.2.422c4.351-12.415 14.193-23.258 26.054-28.474-4.869 12.52-14.086 22.85-25.237 30.201a408.468 408.468 0 0010.064 19.733c.273.482.539.957.807 1.435 2.655-15.914 12.576-31.038 26.067-39.482-3.669 15.962-13.102 30.002-25.392 40.682 1.256 2.243 2.466 4.402 3.658 6.36.82 1.375 1.602 2.733 2.369 3.996l2.229 3.578.059.093c4.357-14.731 15.395-27.897 29.059-34.433-5.173 14.671-15.518 26.941-28.204 35.787 5.177 8.18 8.497 12.815 8.39 13.33-.062.34-2.713-2.504-6.969-8.338-11.468 5.571-24.61 6.801-37.123 4.649 10.515-6.803 24.421-8.914 36.405-5.641a196.646 196.646 0 01-2.124-3.016l-.093.065c.011-.048.027-.095.039-.142l-.123-.177-2.339-3.453c-.805-1.228-1.625-2.558-2.483-3.912-.309-.478-.621-.982-.932-1.484-15.38 4.705-32.001 3.775-47.236-1.208 14.19-6.481 31.625-6.738 45.972-.867-1.03-1.724-2.081-3.532-3.172-5.39a324.313 324.313 0 01-4.202-7.673c-16.161 1.894-32.517-2.129-46.707-9.96 15.279-3.744 32.621-.662 45.655 7.952a327.184 327.184 0 01-6.22-12.572 343.86 343.86 0 01-2.697-5.982c-13.106 2.039-26.584-.573-38.515-6.292 12.186-3.738 26.282-2.221 37.443 3.821a384.32 384.32 0 01-5.582-13.693c-11.754-.645-23.522-6.497-30.867-15.477 11.008 1.1 21.293 5.865 29.846 12.783-1.3-3.562-2.559-6.948-3.618-10.199-.578-1.731-1.151-3.393-1.669-5.007l-.618-2.002c-7.575.845-15.246-2.321-20.09-8.386 7.197-.365 13.956 2.251 19.582 6.738l-.313-1.014a309.986 309.986 0 01-2.412-8.377l-.034.02c.008-.021.016-.041.022-.061-.105-.386-.208-.767-.306-1.135-6.617-1.735-12.802-6.272-16.24-11.997 6.077 1.828 11.469 5.5 15.75 10.132-.213-.828-.401-1.585-.576-2.295-3.382-6.06-4.694-13.144-4.288-20.02zm53.571-68.216c4.948 4.662 12.118 7.412 18.85 7.305 1.103.503 2.366 1.077 3.783 1.725-6.394 1.781-12.153 5.543-16.694 10.327 6.805-.777 13.583-4.528 17.841-9.802a692.631 692.631 0 017.99 3.721l4.301 2.051c.706.344 1.422.702 2.148 1.066-9.103 3.332-16.801 9.796-22.37 17.66 9.495-2.234 18.281-8.939 22.89-17.4.637.32 1.277.642 1.935.968 3.201 1.558 6.514 3.342 10.036 5.172a498.99 498.99 0 014.801 2.617c-11.189 3.055-21.044 9.907-28.592 18.684 11.807-1.375 23.26-8.236 30.052-17.874a443.944 443.944 0 0111.603 6.682c.029.059.054.12.084.178.012-.036.021-.073.033-.109 1.351.806 2.704 1.621 4.062 2.454l.396.248c-12.838 2.876-24.753 11.387-31.315 22.56 13.002-3.377 24.335-11.328 32.935-21.547a407.84 407.84 0 0118.426 12.294c.447.327.888.646 1.331.968-16.115.783-32.292 8.875-42.249 21.29 16.281-1.785 31.324-9.518 43.363-20.48 2.081 1.509 4.085 2.962 5.891 4.374 1.27.974 2.528 1.909 3.693 2.819l3.294 2.63.086.069c-15.139 2.611-29.501 12.041-37.583 24.85 15.174-3.429 28.565-12.274 38.829-23.844 7.521 6.095 11.738 9.932 12.262 9.886.345-.022-2.171-2.987-7.469-7.893 6.869-10.741 9.621-23.65 8.941-36.329-7.982 9.651-11.698 23.216-9.844 35.5a198.6 198.6 0 00-2.748-2.461l.075-.085c-.049.006-.097.016-.146.022l-.161-.143a5379.95 5379.95 0 01-3.157-2.726c-1.126-.942-2.351-1.912-3.596-2.921-.438-.363-.903-.731-1.366-1.099 6.465-14.727 7.477-31.344 4.302-47.055-8.09 13.338-10.376 30.625-6.216 45.558-1.592-1.224-3.265-2.478-4.984-3.779a322.832 322.832 0 00-7.132-5.067c3.764-15.83 1.673-32.544-4.451-47.549-5.498 14.738-4.457 32.321 2.579 46.269a327.828 327.828 0 00-11.762-7.642 337.383 337.383 0 00-5.627-3.375c3.552-12.779 2.528-26.47-1.762-38.986-5.132 11.668-5.267 25.844-.566 37.633a383.885 383.885 0 00-12.95-7.139c.729-11.749-3.713-24.119-11.776-32.46-.189 11.062 3.345 21.831 9.219 31.132-3.387-1.707-6.602-3.351-9.708-4.782-1.651-.776-3.236-1.538-4.778-2.24l-1.916-.846c1.721-7.425-.529-15.413-5.988-20.929-1.201 7.104.609 14.124 4.411 20.233l-.971-.429a311.254 311.254 0 00-8.039-3.371l.023-.031-.063.015c-.371-.149-.737-.296-1.091-.436-.952-6.775-4.737-13.447-10.023-17.528 1.108 6.249 4.127 12.031 8.228 16.824-.798-.308-1.527-.584-2.212-.839-5.629-4.062-12.512-6.19-19.388-6.588z" fill="#0CC3BE"/><path d="M470.494 197.512v196.024c0 .994-.117 1.956-.352 2.875-1.283 5.119-5.92 8.912-11.434 8.912H146.014c-6.508 0-11.776-5.279-11.776-11.787V197.512c0-6.508 5.268-11.776 11.776-11.776h312.694c6.508 0 11.786 5.268 11.786 11.776z" fill="#FD7658"/><path d="M470.495 197.512v165.216c-20.848-2.511-41.462-9.382-57.416-22.889-17.653-14.939-28.585-38.972-23.862-61.605-11.947 31.844-50.695 48.461-84.003 41.558-33.308-6.903-60.258-33.03-75.486-63.454-8.057-16.093-20.143-45.116-21.853-70.602h250.833c6.509 0 11.787 5.268 11.787 11.776z" fill="#F88859"/><path d="M470.142 396.41c-1.283 5.119-5.92 8.912-11.434 8.912H146.014c-6.508 0-11.776-5.279-11.776-11.787v-24.503a43.202 43.202 0 007.288 8.292c12.342 10.836 29.418 14.886 45.843 14.8 16.414-.086 32.55-3.89 48.664-6.999a584.206 584.206 0 01156.924-8.688c26.48 2.128 54.595 7.097 77.185 19.973z" fill="#DE624C"/><path d="M206.639 264.587h-39.128a5.548 5.548 0 01-5.548-5.548v-39.128a5.548 5.548 0 015.548-5.548h39.128a5.548 5.548 0 015.548 5.548v39.128a5.548 5.548 0 01-5.548 5.548z" fill="#FDA859"/><path d="M205.575 262.45h-37a4.475 4.475 0 01-4.475-4.475v-37a4.475 4.475 0 014.475-4.475h37a4.475 4.475 0 014.475 4.475v37a4.475 4.475 0 01-4.475 4.475z" fill="#FCC700"/><path d="M195.302 255.504h-16.456a4.867 4.867 0 01-4.862-4.862v-22.334a4.867 4.867 0 014.862-4.862h16.456a4.867 4.867 0 014.862 4.862v22.334a4.867 4.867 0 01-4.862 4.862zm-16.456-27.783a.589.589 0 00-.588.587v22.334c0 .324.264.588.588.588h16.456a.589.589 0 00.588-.588v-22.334a.588.588 0 00-.588-.587h-16.456z" fill="#FDA859"/><path d="M176.122 229.323H164.1v4.274h12.022v-4.274zm0 8.015H164.1v4.274h12.022v-4.274zm0 8.014H164.1v4.274h12.022v-4.274zm33.927-16.029h-12.022v4.274h12.022v-4.274zm0 8.015h-12.022v4.274h12.022v-4.274zm0 8.014h-12.022v4.274h12.022v-4.274z" fill="#FDA859"/><path d="M168.299 288.017v13.968h-3.646v-10.979h-2.69v-2.989h6.336zm15.498 9.564c0 2.69-2.212 4.563-5.679 4.563-2.032 0-4.144-.677-5.499-1.714l1.475-2.81c1.096 1.137 2.411 1.734 3.746 1.734 1.534 0 2.391-.638 2.391-1.734 0-1.115-.857-1.694-2.411-1.694h-2.351v-1.952l3.267-3.128h-5.38l-.02-2.81h9.764v2.112l-3.766 3.507.698.099c2.21.341 3.765 1.695 3.765 3.827zm12.531-2.59c0 4.563-1.952 7.093-5.459 7.093-3.547 0-5.48-2.53-5.48-7.093 0-4.563 1.933-7.073 5.48-7.073 3.507 0 5.459 2.511 5.459 7.073zm-7.452 0c0 3.188.578 4.523 1.993 4.523 1.395 0 1.972-1.335 1.972-4.523 0-3.208-.578-4.523-1.972-4.523-1.415 0-1.993 1.315-1.993 4.523zm20-6.994v2.531l-5.261 11.457h-3.846l5.101-11.039h-3.906v1.953h-3.228v-4.902h11.14zm28.324 11.378c2.172 0 3.228-1.395 3.188-3.687-.657.937-1.733 1.514-3.248 1.514-2.71 0-4.423-1.813-4.423-4.543 0-2.949 2.032-4.801 5.121-4.801 3.686 0 5.918 2.63 5.918 6.914 0 4.463-2.471 7.373-6.336 7.373-1.534 0-3.268-.458-4.444-1.156l1.355-2.511c.797.578 1.813.897 2.869.897zm-1.215-6.695c0 1.196.697 1.913 1.933 1.913 1.355 0 2.092-.837 2.072-1.972.02-1.016-.617-1.913-2.012-1.913-1.236-.001-1.993.716-1.993 1.972zm16.673-4.663v13.968h-3.646v-10.979h-2.69v-2.989h6.336zm12.291 0v13.968h-3.646v-10.979h-2.69v-2.989h6.336zm15.499 9.564c0 2.69-2.212 4.563-5.678 4.563-2.032 0-4.145-.677-5.5-1.714l1.475-2.81c1.096 1.137 2.411 1.734 3.746 1.734 1.534 0 2.391-.638 2.391-1.734 0-1.115-.857-1.694-2.411-1.694h-2.351v-1.952l3.267-3.128h-5.379l-.02-2.81h9.763v2.112l-3.766 3.507.698.099c2.21.341 3.765 1.695 3.765 3.827zm35.436-2.59c0 4.563-1.952 7.093-5.459 7.093-3.547 0-5.48-2.53-5.48-7.093 0-4.563 1.933-7.073 5.48-7.073 3.507 0 5.459 2.511 5.459 7.073zm-7.452 0c0 3.188.578 4.523 1.993 4.523 1.395 0 1.972-1.335 1.972-4.523 0-3.208-.578-4.523-1.972-4.523-1.415 0-1.993 1.315-1.993 4.523zm14.282-1.933c3.288 0 5.42 1.733 5.42 4.224 0 2.949-2.252 4.862-5.699 4.862-1.873 0-4.025-.698-5.539-1.753l1.455-2.83c1.096 1.156 2.371 1.753 3.646 1.753 1.415 0 2.212-.638 2.212-1.773 0-1.056-.797-1.654-2.192-1.654-.737 0-3.028.02-3.905.08v-7.971h9.385v2.949h-6.037v2.132c.298-.019.975-.019 1.254-.019zm11.136 6.317c2.172 0 3.228-1.395 3.188-3.687-.657.937-1.733 1.514-3.248 1.514-2.71 0-4.423-1.813-4.423-4.543 0-2.949 2.032-4.801 5.121-4.801 3.686 0 5.918 2.63 5.918 6.914 0 4.463-2.471 7.373-6.337 7.373-1.534 0-3.268-.458-4.443-1.156l1.355-2.511c.797.578 1.813.897 2.869.897zm-1.215-6.695c0 1.196.697 1.913 1.933 1.913 1.355 0 2.092-.837 2.072-1.972.02-1.016-.617-1.913-2.013-1.913-1.235-.001-1.992.716-1.992 1.972zm15.838-.618c0-.757-.578-1.195-1.594-1.195-1.136 0-2.57.677-3.865 1.773l-1.375-2.69c1.793-1.315 3.746-2.112 5.778-2.112 2.83 0 4.882 1.475 4.882 3.687 0 1.514-1.156 3.088-2.71 4.663l-2.869 2.869h5.978v2.929h-10.64l-.02-2.411 5.081-5.221c.776-.798 1.354-1.694 1.354-2.292zm35.197 0c0-.757-.578-1.195-1.594-1.195-1.136 0-2.57.677-3.865 1.773l-1.375-2.69c1.793-1.315 3.746-2.112 5.778-2.112 2.83 0 4.882 1.475 4.882 3.687 0 1.514-1.156 3.088-2.71 4.663l-2.869 2.869h5.978v2.929h-10.64l-.02-2.411 5.081-5.221c.776-.798 1.354-1.694 1.354-2.292zm16.832-4.065v2.531l-5.26 11.457h-3.846l5.101-11.039h-3.906v1.953h-3.228v-4.902h11.139zm8.584.02v13.968h-3.646v-10.979h-2.69v-2.989h6.336zm12.291 0v13.968h-3.646v-10.979h-2.69v-2.989h6.336zM166.04 327.388v8.984h-2.345v-7.062h-1.73v-1.922h4.075zm7.912 0v8.984h-2.345v-7.062h-1.73v-1.922h4.075zm8.245-1.397l-4.152 11.791h-1.922l4.152-11.791h1.922zm3.68 3.999c0-.487-.372-.769-1.025-.769-.73 0-1.654.436-2.486 1.141l-.884-1.73c1.154-.845 2.41-1.359 3.717-1.359 1.82 0 3.14.949 3.14 2.371 0 .975-.743 1.987-1.743 2.999l-1.846 1.846h3.845v1.884h-6.844l-.013-1.551 3.268-3.358c.499-.513.871-1.09.871-1.474zm10.513 3.55c0 1.73-1.422 2.935-3.652 2.935-1.307 0-2.666-.435-3.537-1.102l.948-1.807c.705.73 1.551 1.116 2.41 1.116.987 0 1.538-.41 1.538-1.116 0-.717-.551-1.089-1.551-1.089h-1.512v-1.255l2.102-2.012h-3.46l-.012-1.807h6.28v1.359l-2.423 2.255.449.065c1.42.215 2.42 1.087 2.42 2.458zm-33.372-14.535l.936 2.712.941-2.712h1.005l-1.465 3.75h-1.017l-1.455-3.75h1.055zm5.436 3.087h-1.621l-.262.663h-1.005l1.61-3.75h1.005l1.572 3.75h-1.043l-.256-.663zm-.289-.749l-.513-1.337-.524 1.337h1.037zm2.9-2.338v2.916h1.588v.834h-2.567v-3.75h.979zm3.008 0v3.75h-.979v-3.75h.979zm4.336 1.873c0 1.118-.818 1.877-2.032 1.877h-1.578v-3.75h1.615c1.188 0 1.995.76 1.995 1.873zm-1 .01c0-.647-.423-1.085-1.016-1.085h-.615v2.16h.663c.567 0 .968-.433.968-1.075zm5.512-1.883l-.005.782h-1.818v.834h1.679v.781h-1.679v1.354h-.979v-3.75h2.802v-.001zm2.693 3.75l-.545-1.037h-.727v1.037h-.979v-3.75h1.685c.995 0 1.562.482 1.562 1.316 0 .567-.235.984-.669 1.208l.781 1.225h-1.108v.001zm-1.272-1.819h.711c.396 0 .626-.203.626-.582 0-.37-.23-.567-.626-.567h-.711v1.149zm6.702-.058c0 1.097-.866 1.92-2.027 1.92s-2.027-.823-2.027-1.92c0-1.091.866-1.898 2.027-1.898 1.16-.001 2.027.812 2.027 1.898zm-3.049.005c0 .611.476 1.08 1.032 1.08.561 0 1.011-.47 1.011-1.08 0-.609-.449-1.07-1.011-1.07-.561 0-1.032.46-1.032 1.07zm4.601-1.878l.995 2.187.995-2.187h1.07v3.75h-.867l-.005-2.374-.871 1.999h-.642l-.872-1.999v2.374h-.872v-3.75h1.069zm127.432 41.185H161.963v9.851h158.065v-9.851z" fill="#fff"/><path d="M370.184 412.225h-67.241v7.087c0 8.692 15.904 15.738 35.531 15.738 19.613 0 35.517-7.045 35.517-15.738v-7.087h-3.807z" fill="#FDA859"/><path d="M374.001 412.217c0 .097 0 .18-.014.277-.318 8.568-16.111 15.461-35.517 15.461-19.627 0-35.531-7.045-35.531-15.737 0-.955.194-1.896.581-2.81 2.976-7.35 17.495-12.928 34.949-12.928 17.44 0 31.973 5.578 34.949 12.928.346.817.54 1.675.568 2.533.015.097.015.18.015.276z" fill="#FCC700"/><path d="M338.471 425.019c15.957 0 28.893-5.731 28.893-12.8 0-7.069-12.936-12.8-28.893-12.8s-28.893 5.731-28.893 12.8c0 7.069 12.936 12.8 28.893 12.8z" fill="#FDA859"/><path d="M341.742 416.982v2.687h-5.274v-2.705c-3.726-.229-7.334-.914-9.991-1.88l2.815-2.512c2.856 1.089 7.176 1.862 10.071 1.862 2.141 0 3.489-.352 3.489-1.001 0-2.09-14.63-.826-14.63-5.181 0-1.95 3.171-3.302 8.245-3.671V402h5.274v2.564c3.251.158 6.343.65 8.681 1.318l-2.735 2.547c-2.934-.738-6.66-1.317-8.961-1.317-1.744 0-2.893.281-2.893.843 0 2.037 14.63.878 14.63 5.304.001 2.159-3.726 3.424-8.721 3.723z" fill="#FCC700"/><path d="M382.647 404.197h-67.241v7.087c0 8.692 15.904 15.738 35.531 15.738 19.613 0 35.517-7.045 35.517-15.738v-7.087h-3.807z" fill="#FDA859"/><path d="M386.464 404.19c0 .097 0 .18-.014.277-.318 8.568-16.111 15.461-35.517 15.461-19.627 0-35.531-7.045-35.531-15.738 0-.955.194-1.896.581-2.81 2.976-7.35 17.495-12.928 34.949-12.928 17.44 0 31.973 5.578 34.949 12.928.346.817.54 1.675.567 2.533.016.097.016.18.016.277z" fill="#FCC700"/><path d="M350.934 416.992c15.957 0 28.893-5.731 28.893-12.8 0-7.069-12.936-12.8-28.893-12.8s-28.893 5.731-28.893 12.8c0 7.069 12.936 12.8 28.893 12.8z" fill="#FDA859"/><path d="M354.204 408.954v2.687h-5.274v-2.705c-3.726-.229-7.334-.914-9.991-1.88l2.815-2.512c2.856 1.089 7.176 1.862 10.071 1.862 2.141 0 3.489-.352 3.489-1.001 0-2.09-14.63-.826-14.63-5.181 0-1.95 3.171-3.302 8.245-3.671v-2.582h5.274v2.564c3.251.158 6.343.65 8.681 1.318l-2.735 2.546c-2.934-.737-6.66-1.317-8.961-1.317-1.744 0-2.893.281-2.893.843 0 2.037 14.63.878 14.63 5.304.001 2.162-3.727 3.427-8.721 3.725z" fill="#FCC700"/><path d="M365.011 387.852H297.77v7.087c0 8.692 15.904 15.738 35.531 15.738 19.613 0 35.517-7.045 35.517-15.738v-7.087h-3.807z" fill="#FDA859"/><path d="M368.829 387.844c0 .097 0 .18-.014.277-.318 8.568-16.111 15.461-35.517 15.461-19.627 0-35.53-7.045-35.53-15.738 0-.955.194-1.896.581-2.81 2.976-7.35 17.495-12.928 34.949-12.928 17.44 0 31.973 5.578 34.949 12.928.346.817.54 1.675.567 2.533.015.097.015.18.015.277z" fill="#FCC700"/><path d="M333.297 400.646c15.957 0 28.893-5.731 28.893-12.8 0-7.069-12.936-12.8-28.893-12.8s-28.893 5.731-28.893 12.8c0 7.069 12.936 12.8 28.893 12.8z" fill="#FDA859"/><path d="M336.568 392.608v2.687h-5.274v-2.705c-3.726-.229-7.334-.914-9.991-1.88l2.815-2.512c2.856 1.089 7.176 1.862 10.071 1.862 2.141 0 3.489-.352 3.489-1.001 0-2.09-14.63-.826-14.63-5.181 0-1.95 3.171-3.302 8.245-3.671v-2.582h5.274v2.564c3.251.158 6.343.65 8.681 1.318l-2.735 2.547c-2.934-.737-6.66-1.317-8.961-1.317-1.744 0-2.893.281-2.893.843 0 2.037 14.63.878 14.63 5.304.001 2.161-3.726 3.426-8.721 3.724z" fill="#FCC700"/><path d="M389.284 372.471h-67.241v7.086c0 8.692 15.904 15.738 35.531 15.738 19.613 0 35.517-7.045 35.517-15.738v-7.086h-3.807z" fill="#FDA859"/><path d="M393.101 372.464c0 .097 0 .18-.014.277-.318 8.568-16.111 15.461-35.517 15.461-19.627 0-35.531-7.045-35.531-15.738 0-.955.194-1.896.581-2.81 2.976-7.35 17.495-12.928 34.949-12.928 17.44 0 31.973 5.578 34.949 12.928.346.817.54 1.675.567 2.533.016.097.016.18.016.277z" fill="#FCC700"/><path d="M357.571 385.266c15.957 0 28.893-5.731 28.893-12.8 0-7.069-12.936-12.8-28.893-12.8s-28.893 5.731-28.893 12.8c0 7.069 12.936 12.8 28.893 12.8z" fill="#FDA859"/><path d="M360.841 377.228v2.687h-5.274v-2.705c-3.726-.229-7.334-.914-9.991-1.88l2.815-2.512c2.856 1.089 7.176 1.862 10.071 1.862 2.14 0 3.489-.352 3.489-1.001 0-2.09-14.63-.826-14.63-5.181 0-1.95 3.171-3.302 8.245-3.671v-2.582h5.274v2.564c3.251.158 6.343.65 8.681 1.318l-2.735 2.546c-2.934-.737-6.66-1.317-8.961-1.317-1.744 0-2.893.281-2.893.843 0 2.037 14.63.878 14.63 5.304.002 2.162-3.726 3.427-8.721 3.725zm-121.826 51.381c16.65-10.433 21.689-32.388 11.256-49.038s-32.388-21.689-49.038-11.256-21.689 32.388-11.256 49.038c10.433 16.649 32.388 21.689 49.038 11.256z" fill="#FCC700"/><path d="M224.914 427.005c15.756-2.664 26.369-17.597 23.705-33.353-2.663-15.756-17.596-26.369-33.352-23.705-15.756 2.664-26.369 17.596-23.705 33.352 2.663 15.756 17.596 26.369 33.352 23.706z" fill="#FDA859"/><path d="M229.052 409.594l2.617 5.481-4.766 2.276-2.634-5.517c-3.59 1.141-7.518 1.301-10.859.477l.098-6.337c3.641.989 8.298.702 10.914-.548 1.934-.924 2.811-2.223 2.178-3.548-2.036-4.263-14.025 4.628-18.267-4.256-1.899-3.977-.351-8.104 3.876-11.046l-2.515-5.267 4.766-2.276 2.498 5.231c3.092-1.08 6.365-1.411 9.128-1.058l.009 6.374c-3.37-.238-7.301.187-9.38 1.18-1.576.753-2.341 1.822-1.793 2.968 1.984 4.156 14.076-4.521 18.387 4.507 2.102 4.407-.034 8.596-4.257 11.359z" fill="#FCC700"/><path d="M411.096 115.324c-21.137-21.137-55.53-21.137-76.666 0a3.097 3.097 0 004.379 4.379c18.723-18.723 49.186-18.723 67.909 0a3.097 3.097 0 004.378-4.379z" fill="#C1BED7"/><path d="M344.167 125.06a3.097 3.097 0 004.379 4.379c13.354-13.354 35.082-13.354 48.436 0a3.097 3.097 0 004.379-4.379c-15.768-15.768-41.425-15.768-57.194 0z" fill="#C1BED7"/><path d="M353.961 134.855a3.097 3.097 0 004.379 4.379c7.953-7.953 20.893-7.953 28.847 0a3.097 3.097 0 004.379-4.379c-10.368-10.368-27.237-10.368-37.605 0z" fill="#C1BED7"/><path d="M367.979 141.828a8.567 8.567 0 1012.117 12.115 8.567 8.567 0 00-12.117-12.115z" fill="#C1BED7"/><path d="M583.388 120.166l-1.317-3.899-1.317 3.899a21.105 21.105 0 01-9.867 11.761 21.102 21.102 0 019.867 11.761l1.317 3.899 1.317-3.899a21.102 21.102 0 019.867-11.761 21.105 21.105 0 01-9.867-11.761zm16.501 33.367l-.914-2.704-.914 2.704a14.637 14.637 0 01-6.844 8.158 14.645 14.645 0 016.844 8.158l.914 2.704.914-2.704a14.637 14.637 0 016.844-8.158 14.637 14.637 0 01-6.844-8.158z" fill="#FCC700"/><path d="M589.671 213.846c-1.375 4.693-3.687 9.039-6.022 13.339-.173-1.514-.659-2.924-1.352-4.242-1.769-3.329-4.913-6.034-8.161-8.103-4.104-2.635-8.519-4.728-12.068-8.138-4.439-4.265-6.612-10.114-7.144-16.16-.439-5.098-.15-10.6 2.462-14.969.381-.67.832-1.306 1.341-1.907a14.844 14.844 0 011.745-1.769c-.243.208-.092.728.289 1.399 1.075 1.919 3.942 5.04 4.416 5.502 2.971 2.855 6.693 4.265 10.265 5.965 6.184 2.947 12.195 7.999 14.426 14.645 1.56 4.636 1.179 9.745-.197 14.438z" fill="#343C4B"/><path d="M565.628 158.709c-.035 3.433-.104 6.993-1.514 10.114-.775 1.722-1.942 3.225-3.352 4.473a15.966 15.966 0 01-2.011 1.503c-.439.289-.89.543-1.364.775a17.83 17.83 0 01-3.722 1.387c-4.439 1.098-9.143.566-13.536-.694-3.942-1.133-7.826-2.936-10.646-5.93-2.404-2.578-3.907-5.895-4.797-9.317-1.11-4.196-1.318-8.681-.485-12.923.347-1.85.902-3.641 1.664-5.352.15-.335.312-.67.474-1.006.243-.474.497-.936.763-1.387a20.22 20.22 0 011.757-2.497c3.468-4.265 8.415-6.808 13.952-7.583a16.571 16.571 0 015.71.185c3.919.786 7.513 2.936 10.484 5.93 2.485 2.508 4.404 5.595 5.421 8.993 1.295 4.289 1.26 8.855 1.202 13.329z" fill="#343C4B"/><path d="M476.14 202.824c-.685-.37-1.552-.254-2.243.104-.692.358-1.245.928-1.787 1.487l-4.207 4.348c-.21.217-.427.444-.53.728-.277.763.418 1.598 1.209 1.78.791.182 1.608-.091 2.373-.361-.699.76-1.517 1.522-2.216 2.282-.139.151-.287.327-.271.531.017.218.211.374.399.486a4.026 4.026 0 003.64.215c-.557.544-.99 1.144-1.547 1.688-.191.187-.4.425-.341.685.046.204.243.335.427.434 1.308.7 2.903.842 4.314.383.218 2.197 1.025 4.448 3.121 5.141l10.54-8.116-4.702-9.096-8.179-2.719z" fill="#FF7D6F"/><path d="M475.99 203.781s4.693 4.381 6.589 4.496c0 0-2.393 8.415-.243 11.501l4.635-3.572 2.046-1.572s-1.214-8.75-2.589-10.068c-1.364-1.318-13.663-6.196-13.882-6.057-.035.012-.081.104-.139.231v.012c-.324.868-.682 3.746 3.583 5.029z" fill="#FFA07F"/><path d="M468.413 197.199l14.963 11.522-1.121 2.601-15.435-12.485 1.593-1.638z" fill="#343C4B"/><path d="M484.088 218.438s-2.952-9.81-3.424-10.121c-.472-.311-2.506-4.148-3.49-4.464-.984-.317-2.875.226-2.996 1.143s1.563 3.97 1.563 3.97 1.897 7.795 2.067 8.612c.171.816.672 5.179.672 5.179l5.608-4.319z" fill="#FFA07F"/><path d="M478.475 222.762s.416 1.399 2.081 2.705c1.653 1.306 4.127 2.994 4.127 2.994l5.976-4.936 1.445-1.191-1.965-2.555-1.121-5.144-2.046 1.572-4.635 3.572-3.862 2.983z" fill="#FFA07F"/><path d="M472.408 198.742v.012c3.491 1.907 12.53 6.855 12.888 6.993.289.115 1.121 6.138 1.676 10.461.312 2.427.543 4.323.543 4.323l3.144 2.994 1.445-1.191-1.965-2.555-1.121-5.144s-1.214-8.75-2.589-10.068c-1.364-1.318-13.663-6.196-13.882-6.057-.035.012-.082.104-.139.232z" fill="#FFBF90"/><path d="M529.567 427.01h12.355s5.331-52.674 4.384-57.558c-.469-2.425-1.335-5.642-2.247-8.758l-18.995.877c1.818 17.717 4.503 65.439 4.503 65.439zm55.752-5.989s-2.358-43.99-2.655-47.905c-.307-4.075-3.289-11.413-5.959-17.286l-17.605 4.695c3.794 11.564 13.712 61.926 13.712 61.926l12.507-1.43z" fill="#FFA07F"/><path d="M503.992 441.888c.121-.748.476-1.62 1.429-2.044 2.781-1.239 12.987-5.076 15.755-7.269 2.149-1.703 4.047-5.415 4.788-6.989l18.963.994c1.085 4.937 1.776 14.445 1.913 16.435l-42.848-1.127z" fill="#456997"/><path d="M503.863 446.199l42.848 1.127.129-4.311-42.849-1.127-.128 4.311zm20.886-12.322c.029.05.056.101.083.152.198.383.316.967-.188 1.181-.257.109-.551.067-.823.007-.937-.208-1.794-.637-2.61-1.13-.878-.531-1.813-1.105-2.37-1.997-.576-.923.275-1.748 1.289-1.51 1.752.411 3.712 1.695 4.619 3.297zm-3.286 2.225c.029.05.056.101.082.152.198.383.316.967-.188 1.181-.257.109-.551.067-.823.007-.937-.208-1.794-.637-2.61-1.13-.878-.531-1.813-1.105-2.37-1.997-.576-.923.275-1.748 1.289-1.51 1.753.411 3.713 1.695 4.62 3.297zm-4.012 1.418c.029.05.056.101.082.152.198.383.316.967-.188 1.181-.257.109-.551.067-.823.007-.937-.208-1.794-.637-2.61-1.13-.878-.531-1.813-1.105-2.37-1.997-.576-.923.275-1.748 1.289-1.51 1.752.411 3.713 1.695 4.62 3.297z" fill="#fff"/><path d="M566.684 447.098c0 1.728 13.305 5.183 15.849 4.964 2.535-.211 11.832-6.903 11.832-6.903s-.369-1.368-.947-3.491c-1.622-5.92-4.955-17.673-6.902-21.918l-14.97 2.037c-.796 2.493-3.414 15.198-4.168 19.987-.405 2.578-.694 4.718-.694 5.324z" fill="#456997"/><path d="M594.363 445.161s-9.299 6.689-11.835 6.905c-2.536.213-15.846-3.238-15.846-4.965 0-.605.287-2.746.693-5.328 4.332 1.734 13.609 5.167 16.669 4.044 2.076-.763 6.027-2.574 9.374-4.151.582 2.124.945 3.495.945 3.495zm-11.862-13.114c.052.023.104.046.155.071.384.184.823.578.547 1.058-.141.245-.4.392-.653.511-.871.41-1.808.594-2.751.702-1.014.116-2.099.233-3.07-.137-1.004-.382-.811-1.565.138-1.997 1.642-.749 3.965-.929 5.634-.208zm0 3.739c.052.023.104.046.155.071.384.184.823.578.547 1.058-.141.245-.4.392-.653.511-.871.41-1.808.594-2.751.702-1.014.116-2.099.233-3.07-.137-1.004-.383-.811-1.565.138-1.997 1.642-.748 3.965-.929 5.634-.208zm.359 3.424c.052.023.104.046.156.071.384.184.823.578.547 1.058-.141.245-.4.392-.653.511-.871.41-1.808.594-2.751.702-1.014.116-2.099.233-3.07-.137-1.004-.383-.811-1.565.138-1.997 1.642-.749 3.964-.929 5.633-.208z" fill="#fff"/><path d="M589.914 402.294l-71.262 4.242s-.301-2.913-.763-7.513c-1.364-13.559-4.092-41.821-4.427-53.345-.486-16.241 1.965-64.558 1.965-64.558l48.907-.52 5.93-.058 1.953 6.404 1.919 32.897s11.536 36.989 11.178 40.85c-.347 3.872 4.6 41.601 4.6 41.601z" fill="#414C5B"/><path d="M589.914 402.294l-71.262 4.242s-.301-2.913-.763-7.513l62.639-5.167s-1.017-23.546-4.115-33.163c-3.086-9.617-11.478-39.694-11.478-39.694l-.601-40.399 5.93-.058 1.953 6.404 1.919 32.897s11.536 36.989 11.178 40.85c-.347 3.872 4.6 41.601 4.6 41.601z" fill="#343C4B"/><path d="M610.107 188.476s-1.586-3.757-3.609-3.901c-2.023-.145.867 9.538.867 9.538l2.742-5.637zm1.891 22.645l8.299-8.052-9.554-7.585-2.799 8.539-2.469 2.754 6.523 4.344z" fill="#FFA07F"/><path d="M630.631 184.77c-.712-4.002-9.789-10.138-11.057-9.98-1.267.158-15.556 18.85-15.714 20.91-.158 2.059 8.528 9.764 10.93 9.754 1.229-.285 16.474-17.12 15.841-20.684z" fill="#456997"/><path d="M620.297 203.069s2.794-1.252 1.686-3.323c-1.108-2.071-3.5-4.286-4.351-3.709-.851.578 0 6.979 0 6.979l2.665.053z" fill="#FFA07F"/><path d="M622.242 201.143s3.342-1.926 2.235-3.997c-1.108-2.071-3.5-4.286-4.351-3.709-.851.578 0 6.979 0 6.979l2.116.727z" fill="#FFA07F"/><path d="M624.506 198.012s3.342-1.926 2.235-3.997c-1.108-2.071-3.5-4.286-4.351-3.709-.851.578 0 6.979 0 6.979l2.116.727z" fill="#FFA07F"/><path d="M626.741 194.014s3.474-3.22 3.11-4.744c-.364-1.524-2.835-3.468-3.485-2.962-.65.506.6 5.616.6 5.616l-1.042 1.419.817.671z" fill="#FFA07F"/><path d="M606.177 191.221c-.323.728 6.288 6.358 7.41 6.496 1.029.139 10.669-10.785 12.449-12.819l.023-.023.266-.301s-8.519-7.802-9.097-7.652c-.116.023-.624.601-1.364 1.514-2.925 3.549-9.433 12.219-9.687 12.785z" fill="#DFDEEE"/><path d="M615.863 178.437l8.843 7.652 1.329-1.191.023-.023.266-.301s-8.519-7.802-9.097-7.652c-.115.023-.624.601-1.364 1.515zm-9.686 12.784c-.323.728 6.288 6.358 7.41 6.496.578.081 3.826-3.294 6.901-6.635l-8.357-7.906c-.22.277-.439.566-.659.855-.335.439-.659.855-.994 1.295v.011c-.127.162-.243.324-.37.486-.335.451-.671.89-.983 1.306-.127.173-.254.335-.37.497-.358.474-.682.925-.971 1.318-.127.173-.254.335-.37.497-.404.555-.728 1.017-.948 1.329a3.656 3.656 0 00-.289.451z" fill="#C1BED7"/><path d="M625.065 180.384l-4.392-3.467-.593.686 4.409 3.359.576-.578z" fill="#698BB1"/><path d="M615.518 190.079l2.086 1.948 1.109-1.188-2.086-1.948-1.109 1.188zm-2.596-2.45l2.086 1.948 1.11-1.188-2.086-1.948-1.11 1.188zm-2.443-2.303v.011l1.931 1.792 1.11-1.179-2.046-1.919c-.337.439-.66.856-.995 1.295zm3.513 6.389l2.086 1.948 1.109-1.188-2.086-1.948-1.109 1.188zm-2.613-2.44l2.086 1.948 1.109-1.188-2.086-1.948-1.109 1.188zm-2.254-2.146l1.757 1.641 1.11-1.191-1.884-1.757c-.336.452-.671.891-.983 1.307zm3.336 6.224l2.086 1.948 1.109-1.188-2.086-1.948-1.109 1.188zm-2.613-2.441l2.086 1.948 1.109-1.188-2.086-1.948-1.109 1.188zm-2.065-1.968l1.572 1.468 1.11-1.191-1.711-1.595c-.358.474-.682.925-.971 1.318z" fill="#DFDEEE"/><path d="M610.934 194.989l2.086 1.948 1.109-1.189-2.086-1.948-1.109 1.189z" fill="#FCC700"/><path d="M608.32 192.549l2.086 1.948 1.109-1.188-2.086-1.948-1.109 1.188z" fill="#DFDEEE"/><path d="M606.467 190.77l1.364 1.271 1.11-1.191-1.526-1.41c-.405.556-.729 1.018-.948 1.33zm6.727 9.229l-2.108-1.843-1.135 1.351 2.047 1.792 1.196-1.3z" fill="#FD7658"/><path d="M610.304 197.514l-2.108-1.842-1.135 1.35 2.047 1.792 1.196-1.3z" fill="#FCC700"/><path d="M607.786 195.186l-2.108-1.843-1.135 1.35 2.046 1.793 1.197-1.3z" fill="#0CC3BE"/><path d="M629.58 184.573s-2.58.11-3.259.724c-.679.614-10.829 12.534-10.973 12.859-.145.325-.431 5.873-.812 6.007-.381.134-.753-6.499-.753-6.499s11.483-13.378 12.538-13.487c1.056-.108 4.018-.039 3.259.396z" fill="#254F79"/><path d="M616.338 186.178l-.352.384-.334-.307.355-.386a1.766 1.766 0 01-.386-.849l.508-.195c.037.322.21.683.393.851.135.125.267.153.352.06.274-.299-.817-.968-.245-1.59.256-.278.634-.287 1.003-.045l.339-.369.334.307-.337.366c.185.211.316.461.377.693l-.507.205c-.089-.276-.249-.575-.394-.709-.11-.101-.22-.128-.294-.048-.267.291.81.976.229 1.608-.285.308-.686.272-1.041.024zm2.688.159c.088-.095.065-.217-.063-.335-.143-.131-.402-.212-.691-.224l.138-.497c.378.042.716.167.971.402.356.327.444.75.188 1.029-.175.191-.503.255-.88.273l-.693.029.752.691-.339.369-1.339-1.231.276-.306 1.243-.07c.192-.009.368-.055.437-.13zm1.284 1.411c.414.38.482.845.194 1.159-.341.371-.846.351-1.28-.047a1.755 1.755 0 01-.494-.861l.51-.188c.004.272.096.495.256.642.178.163.352.176.484.033.122-.133.091-.3-.085-.462a15.063 15.063 0 00-.501-.441l.922-1.003 1.181 1.085-.341.371-.76-.698-.247.268c.041.031.126.11.161.142z" fill="#343C4B"/><path d="M625.065 184.412l-4.28-3.793-.506.542 4.262 3.829.524-.578z" fill="#DFDEEE"/><path d="M508.638 226.775c-1.316-3.763-3.588-10.357-8.589-9.939-4.899.409-8.644 6.553-10.451 10.518-3.117 6.842-3.399 14.489-3.662 21.876-.044 1.24 1.882 1.182 1.926-.053.195-5.468.38-11.006 1.818-16.316 1.355-5.002 5.004-13.808 10.951-13.546 2.81.123 2.759.925 4.032 3.178.736 1.302 1.324 2.708 1.856 4.104.846 2.222 1.437 4.546 1.862 6.884.945 5.196.948 10.506.708 15.763-.056 1.239 1.87 1.181 1.926-.053.343-7.507.13-15.247-2.377-22.416z" fill="#343C4B"/><path d="M572.212 286.946c-6.885-5.098-54.328.476-54.328.476s-.932-2.175-2.457-6.302c-.146-.398-.214-.922-.214-1.534 0-5.758 5.855-19.828 5.855-19.828-.505-9.759-2.389-19.197-2.69-21.003-.641-3.884-4.748-24.916-2.049-30.422 1.36-2.748 4.477-7.438 7.263-11.438 2.787-3.991 5.234-7.302 5.234-7.302l10.603-5.777 11.672.427 7.273 3.709s.009.01.039.019l8.166 4.175s.301 4.282.699 11.089c.592 10.031 1.398 25.548 1.758 40.938.136 5.283.204 10.555.204 15.585 0 .01 4.03 10.196 4.758 13.837.729 3.631-1.786 13.351-1.786 13.351z" fill="#0CC3BE"/><path d="M553.383 185.416s-10.713 2.166-12.308 1.481c-1.596-.676-3.784-1.793-3.784-1.793.359-.399 2.834-4.145 2.779-5.417-.13-2.932-.995-7.053-.995-7.053l9.958-2.883s.265 2.821.683 5.814c.42 3.032 3.069 9.361 3.667 9.851z" fill="#FFA07F"/><path d="M538.662 183.019l-8.748 5.98s2.195 8.842 5.425 7.686c3.23-1.156 6.818-5.346 6.818-5.346s3.448 7.803 7.082 7.369c3.634-.434 9.136-10.758 9.136-10.758l-5.891-4.137s-11.561 6.779-13.822-.794z" fill="#fff"/><path d="M549.713 175.561c-2.791 1.874-6.215 4.087-7.314 4.401-.897.254-1.711.034-2.327-.275-.135-2.935-1-7.051-1-7.051l9.958-2.883s.269 2.825.683 5.808z" fill="#FF7D6F"/><path d="M555.797 142.572c-5.064-6.414-13.973-8.709-21.245-4.98-1.672.857-3.024 1.858-3.667 3.001-2.569 4.575-6.757 21.67-3.594 30.145 3.164 8.475 8.852 7.619 10.887 7.135s11.656-3.943 13.989-6.909c2.332-2.965 7.796-18.596 6.961-22.782-.279-1.396-1.641-3.469-3.331-5.61z" fill="#FFBF90"/><path d="M556.502 141.36c-5.064-6.414-13.973-8.708-21.245-4.98-1.672.857-3.023 1.858-3.666 3.001-2.569 4.575-6.759 21.67-3.595 30.145 3.164 8.475 8.852 7.619 10.887 7.135s11.656-3.944 13.989-6.909c2.332-2.965 7.796-18.596 6.961-22.782-.279-1.396-1.641-3.469-3.331-5.61z" fill="#FFA07F"/><path d="M562.403 160.986c-.139.358-.289.717-.451 1.075-2.323-1.803-6.022-1.503-8.022.671-.936-3.583-.219-7.56 1.919-10.577a17.174 17.174 0 01-7.375-8.507c-3.086 2.531-7.167 3.803-11.143 3.503a13.133 13.133 0 002.462-5.999c-4.45 3.664-9.906 6.08-15.593 6.947-1.387.22-2.797.347-4.208.37a36.887 36.887 0 012.277-6.265c3.052-6.427 8.219-12.195 15.397-13.085 3.595-.439 7.375.069 10.854 1.341 3.26 1.191 6.277 3.063 8.646 5.456 6.335 6.413 8.439 16.655 5.237 25.07z" fill="#343C4B"/><path d="M589.742 213.58c-.023.093-.046.173-.069.266-1.375 4.693-3.687 9.039-6.022 13.339-.173-1.514-.659-2.924-1.352-4.242 2.219-5.19 3.121-10.947 2.346-16.553-1.179 1.618-2.358 3.225-3.526 4.843.231-6.08-2.405-11.952-6.023-16.842-3.607-4.89-8.172-8.97-12.461-13.27-1.78-1.792-3.617-3.907-3.883-6.323a4.127 4.127 0 01-.023-1.133v-.035c.335-3.375 3.872-5.745 4.277-9.108.15-1.225-.139-2.393-.601-3.537-.566-1.41-1.41-2.774-2.046-4.15-1.167-2.497-1.364-6.103 1.063-7.398-5.976-1.376-10.889-6.566-11.918-12.6-2.786 1.075-5.583 2.161-8.369 3.236.509-1.953 1.005-3.907 1.513-5.872-4.647 3.895-10.344 6.496-16.309 7.536a31.888 31.888 0 01-4.069.462c1.503-3.179 3.537-6.184 6.057-8.542 2.589-2.393 5.71-4.092 9.34-4.543 2.624-.324 5.341-.139 7.964.474.289.069.567.139.844.22.693.185 1.375.404 2.046.647 1.491.301 2.923.786 4.299 1.457.277.127.556.277.833.428 1.93 1.04 3.734 2.416 5.352 4.046 2.485 2.508 4.404 5.595 5.421 8.993.046.139.081.289.115.428.312 1.075.532 2.161.682 3.26.474 3.167.451 6.427.404 9.64-.035 3.433-.104 6.993-1.514 10.114a12.382 12.382 0 01-1.676 2.716 14.128 14.128 0 01-1.677 1.757c1.075 1.919 3.943 5.04 4.417 5.502.497.474 1.017.913 1.549 1.318 2.659 2.011 5.745 3.236 8.716 4.647 6.184 2.947 12.195 7.999 14.426 14.645 1.526 4.545 1.191 9.55-.126 14.174z" fill="#414C5B"/><path d="M545.632 129.591c-5.063 3.294-11.305 4.739-17.304 4.069 2.589-2.393 5.71-4.092 9.34-4.543 2.623-.323 5.34-.138 7.964.474zm2.889.867c1.491.301 2.924.786 4.3 1.457a18.068 18.068 0 01-8.901 2.566c.855-1.561 1.699-3.109 2.555-4.67.693.185 1.375.404 2.046.647zm16.02 15.351c-3.017-.636-5.93-1.745-8.184-3.826-2.589-2.416-3.907-6.439-2.705-9.64 1.93 1.04 3.734 2.416 5.352 4.046 2.485 2.508 4.404 5.595 5.421 8.993.047.138.082.288.116.427zm.683 3.259c.474 3.167.451 6.427.404 9.64-.035 3.433-.104 6.993-1.514 10.114a12.382 12.382 0 01-1.676 2.716 11.153 11.153 0 01-.092-2.566c.22-2.578 1.329-4.993 1.688-7.56.393-2.693-.069-5.444.115-8.172.092-1.421.427-2.912 1.075-4.172zm24.518 64.512c.3-5.791-.347-11.64-2.023-13.709-.913.798-1.838 1.595-2.763 2.393-.162-4.647-3.075-8.762-6.473-11.941-3.398-3.167-7.375-5.699-10.646-9.005a21.962 21.962 0 01-1.11-1.202c2.659 2.011 5.745 3.236 8.716 4.647 6.184 2.947 12.195 7.999 14.426 14.645 1.525 4.543 1.19 9.548-.127 14.172z" fill="#495969"/><path d="M537.363 162.103c.435-.047.887-.166 1.299-.019a4.19 4.19 0 01-2.74 1.587.614.614 0 01-.249-.003.619.619 0 01-.251-.171 4.947 4.947 0 01-1.091-1.59.953.953 0 01-.097-.378c.005-.434.264-.275.484-.118a3.886 3.886 0 002.645.692z" fill="#FF7D6F"/><path d="M535.892 163.414c-.195-.285-.429-.544-.631-.825a6.57 6.57 0 01-.65-1.103c1.559-.589 1.889-1.984 2.215-3.578a4.717 4.717 0 00-.506-3.246 4.819 4.819 0 00-.317-.494 1.71 1.71 0 00-.398-.37c.059.114.088.237.138.352.132.3.276.585.376.899.1.314.172.637.217.963.09.652.073 1.322-.063 1.967a4.763 4.763 0 01-.756 1.772c-.427.603-1.055 1.152-1.759 1.391-.006.002.649 1.286.717 1.395.177.28.379.544.608.783.224.234.481.51.81.577a.557.557 0 00.311-.014 1.053 1.053 0 01-.125-.165l-.046-.078a3.058 3.058 0 00-.141-.226z" fill="#FC5B68"/><path d="M553.511 162.428c.515-.214 3.227-3.403 4.899-1.286 1.672 2.118 1.97 5.484.189 7.268-1.626 1.628-3.861 3.359-6.431 2.555l1.343-8.537z" fill="#FFA07F"/><path d="M558.216 163.691c.079.452-.018.91-.184 1.341-.703 1.829-2.546 3.142-4.307 4.358a4.945 4.945 0 00.774-2.885c-.014-.349-.062-.697-.043-1.045.076-1.401 3.293-4.439 3.76-1.769z" fill="#FF7D6F"/><path d="M552.85 169.867l.099-.051c.063-.035.165-.081.281-.154.235-.145.562-.382.878-.743.315-.36.611-.848.775-1.439a3.282 3.282 0 00-.194-2.227l-.03-.062c-.007-.016-.004-.007-.004-.007v.002l-.002-.001.005-.009.031-.052.063-.103c.043-.067.086-.135.13-.2a8.586 8.586 0 011.135-1.362c.195-.188.381-.364.564-.491a1.15 1.15 0 01.559-.221.82.82 0 01.457.111c.112.069.17.151.193.211.025.06.021.096.024.096-.003 0 .011-.033.001-.1a.446.446 0 00-.157-.265.905.905 0 00-.518-.211 1.42 1.42 0 00-.733.173 4.639 4.639 0 00-.685.457c-.228.177-.46.377-.685.603a6.694 6.694 0 00-.646.749c-.051.068-.099.138-.148.209l-.072.108-.095.153-.066.107c.013.038.034.076.051.114l.075.164c.034.072.069.144.091.219.225.597.245 1.209.161 1.751a3.894 3.894 0 01-1.221 2.207c-.096.09-.181.15-.234.196l-.083.068z" fill="#CF4A57"/><path d="M528.943 149.087s2.585-1.784 4.129-1.554c1.544.23 1.936 1.679 1.31 1.929-.626.251-5.439-.375-5.439-.375zm21.813 3.577s-3.413-3.337-5.798-3.923c-2.385-.585-3.361.775-2.485 1.386.876.612 8.283 2.537 8.283 2.537z" fill="#343C4B"/><path d="M543.859 163.331c.059.743 1.698 1.22 3.661 1.065 1.963-.155 3.507-.883 3.449-1.627-.059-.743-1.698-1.22-3.661-1.065-1.963.156-3.507.884-3.449 1.627zm-18.802-4.786c-.267.497.731 1.554 2.23 2.36 1.499.806 2.931 1.055 3.198.558.267-.498-.731-1.554-2.23-2.36-1.499-.805-2.93-1.055-3.198-.558z" fill="#FF7D6F"/><path d="M549.114 154.724c-.382.555-1.291.844-1.913.983-.208-.395-.51-.672-.888-.762-.963-.228-2.04.84-2.407 2.386-.367 1.546.117 2.984 1.079 3.213.963.228 2.04-.84 2.407-2.386.113-.479.145-.947.107-1.372.889-.472 1.615-2.062 1.615-2.062z" fill="#343C4B"/><path d="M533.399 167.086l11.652-.607s-1.192 5.92-6.388 5.887c-6.38-.04-5.264-5.28-5.264-5.28z" fill="#fff"/><path d="M529.695 151.892c.092.534.66 1.053 1.067 1.363.285-.219.6-.32.906-.258.781.158 1.209 1.302.956 2.556-.253 1.254-1.091 2.143-1.872 1.985-.781-.158-1.209-1.302-.956-2.556.078-.388.213-.741.384-1.039-.489-.644-.485-2.051-.485-2.051z" fill="#343C4B"/><path d="M531.147 155.422s-.846.108-1.526-.327-.937-1.248-.937-1.248.846-.108 1.526.326c.68.435.937 1.249.937 1.249zm14.496 2.529s.898.562 1.891.425c.993-.137 1.706-.921 1.706-.921s-.898-.562-1.891-.425c-.994.137-1.706.921-1.706.921z" fill="#fff"/><path d="M492.919 218.489l-10.317 10.438 3.421 4.248s2.163 7.525 5.44 13.109c3.277 5.583 15.9 5.572 20.148 4.844l10.438 10.328 9.589-66.757-2.811-5.104s-8.477 5.104-8.842 6.56c-.364 1.456-9.467 29.98-9.103 30.708.364.728-6.554-6.074-9.103-6.8-2.549-.725-6.797 0-6.797 0l-2.063-1.574z" fill="#0CC3BE"/><path d="M522.204 203.218c.285-.686-.833-.986-1.115-.307-4.533 10.903-9.344 24.575-.754 34.814-.178 4.916-.108 9.822.216 14.731.049.738 1.205.744 1.156 0a144.106 144.106 0 01-.209-15.031.5.5 0 00-.35-.523c-8.267-9.878-3.283-23.25 1.056-33.684zm-26.399 19.199c-.039-.209-.357-.297-.495-.13-.431.523-.749 1.129-1.037 1.76l-.142-.079a21.053 21.053 0 00-1.568-.822c-.44-.21-.751.354-.375.642.473.363.949.702 1.45 1.024.078.05.155.102.232.154-.163.381-.329.761-.514 1.131-.174-.1-.348-.195-.499-.285a14.77 14.77 0 00-1.754-.885c-.43-.186-.79.379-.375.642.552.351 1.099.713 1.643 1.076.158.105.314.226.471.345-.049.074-.092.151-.144.223-.25.346-.524.673-.808.992-.236-.212-.575-.356-.819-.501a9.394 9.394 0 01-1.405-1.023c-.437-.383-1.072.236-.644.644.458.437.951.837 1.479 1.186.199.132.443.306.698.418-.504.488-1.042.943-1.607 1.362-.133-.247-.415-.377-.675-.559l-1.333-.934c-.389-.272-.735.353-.368.629l1.229.922c.182.137.351.296.537.396-.508.341-1.031.656-1.569.935-.203.105-.063.452.158.374 2.308-.811 4.215-2.092 5.785-3.984.694-.836 1.259-1.766 1.829-2.688.486-.786.797-2.017.62-2.965zm16.671 7.414c-.271-.559-.61-1.27-1.329-1.273-.794-.005-1.105.861-1.404 1.453-.561 1.112-1.103 2.235-1.654 3.352-.257.522.512.982.786.459l1.04-1.984c.223-.426.797-2.003 1.24-2.02.375-.015.387.336.533.668.137.312.268.626.413.935.252.539.443 1.034.945 1.362.188.122.376-.046.399-.229.117-.894-.587-1.936-.969-2.723z" fill="#0797A7"/><path d="M521.329 248.857l3.298 45.269.598 8.308a112.497 112.497 0 01-25.611 2.757 112.753 112.753 0 01-25.577-3.122l.209-2.423 4.455-51.1 37.39.273 5.238.038z" fill="#FCC700"/><path d="M521.329 248.857l3.298 45.269.598 8.308a112.497 112.497 0 01-25.611 2.757 112.753 112.753 0 01-25.577-3.122l.209-2.423c12.263 2.146 25.724-1.028 33.775-10.376 5.204-6.036 7.724-14.01 8.482-21.945.585-6.152.195-12.335-.411-18.507l5.237.039z" fill="#FDA859"/><path d="M508.634 226.778a58.566 58.566 0 00-.922-2.525c-1.408-3.602-3.661-7.749-7.661-7.418-2.039.165-3.884 1.34-5.467 2.923l.398.311s1.437-.243 3.137-.311a5.913 5.913 0 012.515-.447c2.253.097 2.67.641 3.399 2.02.185.34.379.718.631 1.165.738 1.301 1.33 2.709 1.855 4.098.845 2.224 1.437 4.544 1.865 6.885.942 5.195.952 10.506.709 15.769-.058 1.233 1.874 1.175 1.923-.058.346-7.507.133-15.246-2.382-22.412z" fill="#343C4B"/><path d="M488.128 169.867l11.195 5.223-13.194 18.626 1.999-23.849zM504.43 185.4l1.943 6.921-13.225 1.245 11.282-8.166zm-30.59-9.884l6.72-2.556 2.425 13.06-9.145-10.504zm67.938 25.121a1.845 1.845 0 11-3.688-.13 1.845 1.845 0 013.688.13zm-.29 8.205a1.845 1.845 0 11-3.688-.13 1.845 1.845 0 013.688.13zm.29 8.269a1.846 1.846 0 11-3.69-.13 1.846 1.846 0 013.69.13z" fill="#fff"/><path d="M565.55 276.913c-3.595-.738-7.256-1.237-10.907-1.588-7.949-.763-15.941-.631-23.87.286-.73.084-.739 1.241 0 1.156 6.306-.729 12.649-.972 18.991-.645 3.386.175 6.766.501 10.121.99 1.614.235 3.222.507 4.824.814.506.097 1.738.121 2.116.5.734.086.709.341-.073.764-.381.669-.948.834-1.698.497-3.047.253-6.383-.371-9.452-.427a175.546 175.546 0 00-9.461.087c-6.36.231-12.694.837-18.992 1.739-.734.105-.421 1.219.307 1.115 8.402-1.204 16.875-1.83 25.363-1.814 4.087.008 8.157.21 12.235.455 1.256.075 3.692.415 3.951-1.411.258-1.823-2.207-2.262-3.455-2.518z" fill="#0797A7"/><path d="M566.58 192.146s5.414 3.234 6.57 5.26c1.156 2.026 4.816 17.116 4.816 17.116l7.513 9.955s5.587-14.522 9.44-16.797c3.853-2.275 8.669-3.09 8.669-3.09l3.66-2.422 8.681 6.315-1.36 5.036s-3.612 18.545-5.924 22.757c-1.146 2.087-14.593 20.239-23.552 20.229-2.945-.004-16.192-17.43-16.192-17.43l-6.926-35.954 4.605-10.975z" fill="#0CC3BE"/><path d="M567.899 194.943a10.714 10.714 0 00-3.691 5.646c-.194.719.921 1.026 1.115.307.558-2.067 1.72-3.805 3.394-5.136.582-.462-.241-1.275-.818-.817zm-3.784 14.01c-.093-.728-1.25-.737-1.156 0l3.487 27.343c.093.728 1.25.737 1.156 0l-3.487-27.343zm24.664 22.997l-2.092-6.266c-.167-.5-.762-.538-1.056-.138a21.323 21.323 0 00-2.979 5.71c-.243.705.873 1.007 1.115.307a20.101 20.101 0 012.185-4.438l1.714 5.132c.232.702 1.349.401 1.113-.307zm24.199-20.093a36.632 36.632 0 00-1.981-1.66l1.819-1.682c.547-.506-.271-1.322-.817-.817l-1.877 1.735c-.028.026-.038.055-.059.082-.407-.299-.807-.607-1.224-.89.16.03.332 0 .485-.137l1.45-1.295c.556-.497-.264-1.312-.817-.817l-1.45 1.295c-.229.205-.218.46-.095.658a37.832 37.832 0 00-1.663-1.035l2.023-1.666c.575-.473-.247-1.287-.817-.817l-2.291 1.886c-.311-.169-.614-.352-.93-.512-.662-.336-1.248.661-.584.998a36.803 36.803 0 018.011 5.492c.551.496 1.371-.319.817-.818z" fill="#0797A7"/><path d="M564.242 176.169a34.106 34.106 0 01-5.145 1.641 13.015 13.015 0 003.879-4.521c.26-.5-.274-1.095-.791-.791a27.045 27.045 0 01-6.935 2.881c-.719.188-.414 1.303.307 1.115a28.087 28.087 0 005.251-1.953 11.754 11.754 0 01-5.363 3.936c-.562.206-.54 1.221.154 1.135.052-.006.102-.017.153-.024v.003l.013-.005c3.037-.39 5.947-1.137 8.784-2.303.679-.278.381-1.397-.307-1.114zm-69.35-38.737h-63.906a4.986 4.986 0 01-4.986-4.986V88.788a4.986 4.986 0 014.986-4.986h63.906a4.986 4.986 0 014.986 4.986v43.658a4.986 4.986 0 01-4.986 4.986z" fill="#fff"/><path d="M442.611 112.287v3.555h-3.09v-3.579c-2.184-.302-4.298-1.208-5.855-2.485l1.65-3.322c1.673 1.44 4.205 2.462 5.901 2.462 1.255 0 2.044-.465 2.044-1.324 0-2.765-8.573-1.092-8.573-6.854 0-2.578 1.859-4.368 4.832-4.855v-3.416h3.09v3.393c1.905.209 3.717.859 5.088 1.742l-1.603 3.369c-1.719-.977-3.903-1.743-5.25-1.743-1.022 0-1.696.372-1.696 1.115 0 2.695 8.573 1.162 8.573 7.016 0 2.858-2.184 4.531-5.111 4.926z" fill="#0CC3BE"/><path d="M492.212 92.469H452.84v3.746h39.372v-3.746zm0 6.569H452.84v3.746h39.372v-3.746zm0 6.569H452.84v3.746h39.372v-3.746zm-18.758 6.569H452.84v3.746h20.614v-3.746z" fill="#C1BED7"/><path d="M440.478 125.358a3.405 3.405 0 11-6.81 0 3.405 3.405 0 016.81 0zm11.564 0a3.405 3.405 0 11-6.81 0 3.405 3.405 0 016.81 0zm11.569 0a3.405 3.405 0 11-6.81 0 3.405 3.405 0 016.81 0z" fill="#FD7658"/><path d="M499.878 125.358l7.029 23.484-25.798-11.64 18.769-11.844z" fill="#fff"/><path d="M607.783 313.955c14.216 0 25.74-11.524 25.74-25.74s-11.524-25.74-25.74-25.74-25.74 11.524-25.74 25.74 11.524 25.74 25.74 25.74z" fill="#C1BED7"/><path d="M600.502 287.639a6.71 6.71 0 01-6.703-6.703 6.712 6.712 0 016.703-6.704 6.712 6.712 0 016.703 6.704 6.71 6.71 0 01-6.703 6.703zm0-9.756a3.056 3.056 0 00-3.051 3.052 3.054 3.054 0 003.051 3.051 3.054 3.054 0 003.051-3.051 3.054 3.054 0 00-3.051-3.052zm-3.161 22.6a1.826 1.826 0 01-1.291-3.117l20.883-20.883a1.826 1.826 0 112.582 2.582l-20.883 20.883a1.818 1.818 0 01-1.291.535zm17.721 1.717a6.71 6.71 0 01-6.703-6.703 6.712 6.712 0 016.703-6.704 6.712 6.712 0 016.704 6.704c.001 3.696-3.007 6.703-6.704 6.703zm0-9.756a3.056 3.056 0 00-3.051 3.052 3.054 3.054 0 003.051 3.051 3.055 3.055 0 003.052-3.051 3.056 3.056 0 00-3.052-3.052z" fill="#fff"/><path d="M677.955 356.357c-3.352 9.155-8.484 17.685-14.865 25.546a102.98 102.98 0 01-2.763 3.26 117.024 117.024 0 01-6.924 7.282 101.03 101.03 0 01-2.277 2.161 122.103 122.103 0 01-4.104 3.664 95.368 95.368 0 01-2.404 2.023 141.528 141.528 0 01-4.358 3.479 166.535 166.535 0 01-6.947 5.063c-.555.485-1.098.959-1.653 1.422-.231.012-.463.07-.682.173a4.712 4.712 0 01-.405.266c-.011 0-.011 0-.011.011a196.594 196.594 0 01-7.964 5.04 123.72 123.72 0 01-11.12-1.272c-3.456-.555-7.028-1.306-9.848-3.364-2.844-2.046-4.763-5.745-3.745-9.097.913-2.959 3.757-4.855 6.519-6.277a57.222 57.222 0 0124.297-6.253c-13.016-5.525-24.529-14.542-33.048-25.846-2.67-3.56-5.109-7.444-6.126-11.779-1.029-4.346-.474-9.236 2.335-12.703 5.283-6.543 15.651-5.444 23.269-1.919 11.316 5.248 20.714 14.541 26.077 25.8a117.178 117.178 0 01-5.722-44.237c.3-4.681.994-9.617 3.988-13.224 4.971-6.011 14.819-5.872 21.246-1.468 6.45 4.369 10.068 11.848 12.518 19.258 3.481 10.601 5.064 21.825 4.717 32.991z" fill="#0CC3BE"/><path d="M627.882 402.674c4.126.358 8.253.728 12.38 1.098a166.535 166.535 0 01-6.947 5.063c.902-.763 1.803-1.538 2.705-2.312l-16.853-1.503c-2.011-.162-1.329-3.225.659-3.052 1.283.104 2.566.208 3.849.335-1.006-1.352-2.023-2.693-3.029-4.046-1.225-1.618 1.399-3.329 2.624-1.734 1.526 2.059 3.075 4.094 4.612 6.151zm16.205-7.351a678.65 678.65 0 002.936 2.948 95.368 95.368 0 01-2.404 2.023c-.867-.878-1.734-1.745-2.601-2.624-1.433-1.423.659-3.781 2.069-2.347zm6.752-5.468c.855.867 1.711 1.722 2.566 2.589a101.03 101.03 0 01-2.277 2.161c-4.82-4.866-9.64-9.721-14.461-14.588-4.219.439-8.427.878-12.634 1.329-2.011.22-2.162-2.924-.15-3.133l9.952-1.052a14126.69 14126.69 0 00-18.876-19.05c-4.08.174-8.149.335-12.23.497-2.011.104-2.173-3.052-.15-3.121 3.132-.139 6.254-.266 9.375-.393-.358-.37-.717-.728-1.075-1.098-1.422-1.41.659-3.78 2.092-2.346 3.468 3.514 6.947 7.016 10.426 10.519l-1.144-7.999c-.277-1.988 2.855-2.138 3.144-.15.543 3.803 1.075 7.606 1.607 11.397a.738.738 0 01-.023.393c6.889 6.936 13.778 13.883 20.668 20.829l-.543-12.761c-.093-2.023 3.04-2.185 3.133-.15.231 5.225.439 10.461.67 15.686.011.187-.024.314-.07.441zm18.736-18.344c-2 3.017-4 6.057-5.999 9.074-.162.254-.37.416-.578.543l.093.774a102.98 102.98 0 01-2.763 3.26l-2.635-21.743a1.592 1.592 0 01-.555-.254l-11.212-7.675c-1.664-1.133.439-3.479 2.081-2.346 3.075 2.092 6.138 4.196 9.201 6.3l-3.202-26.401a2264.02 2264.02 0 00-10.484-4.809c-1.838-.844-.416-3.641 1.434-2.809 2.855 1.329 5.733 2.647 8.612 3.965l-.624-5.178c-.243-2.011 2.901-2.162 3.144-.162.89 7.409 1.803 14.819 2.693 22.205l7.883-10.299c1.237-1.618 3.572.474 2.347 2.069-3.214 4.207-6.427 8.415-9.652 12.623a.221.221 0 00-.046.058c1.052 8.646 2.092 17.292 3.144 25.939 1.445-2.173 2.878-4.369 4.323-6.554 1.096-1.678 3.905-.268 2.795 1.42z" fill="#0797A7"/><path d="M340.407 67.806c-8.181 0-8.195 12.715 0 12.715 8.182 0 8.196-12.715 0-12.715zm96.031 87.85c-8.181 0-8.195 12.715 0 12.715 8.182-.001 8.195-12.715 0-12.715zm-155.182-.579c-8.181 0-8.195 12.715 0 12.715 8.182.001 8.196-12.715 0-12.715zm33.522-11.848c-2.975 0-2.98 4.624 0 4.624 2.975 0 2.98-4.624 0-4.624zm89.357-62.159c-2.975 0-2.98 4.625 0 4.625 2.975-.001 2.98-4.624 0-4.624zm64.379 73.718c-2.975 0-2.98 4.624 0 4.624 2.975 0 2.98-4.624 0-4.624zm47.393-50.86c-2.975 0-2.98 4.624 0 4.624 2.975 0 2.98-4.624 0-4.624z" fill="#fff"/><path d="M407.449 210.673L376.59 270.46c-2.569 4.977-8.659 6.921-13.607 4.367l-52.885-27.297c-4.948-2.554-6.892-8.644-4.323-13.621l40.309-78.096c2.554-4.948 8.644-6.892 13.592-4.338l34.547 17.832 13.226 41.366z" fill="url(#paint3_linear_1406_1471)"/><path d="M414.078 208.463l-30.859 59.787c-2.569 4.977-8.659 6.921-13.607 4.367l-52.885-27.297c-4.948-2.554-6.892-8.644-4.323-13.621l40.309-78.096c2.554-4.948 8.644-6.892 13.592-4.338l34.547 17.831 13.226 41.367z" fill="#fff"/><path d="M414.078 208.463l-27.303-14.092 14.078-27.274 13.225 41.366z" fill="#DFDEEE"/><path d="M376.976 190.409l-25.165-12.99-7.858 15.221 25.166 12.99 7.857-15.221z" fill="#456997"/><path d="M393.952 225.365L341.135 198.1l-2.724 5.276 52.818 27.264 2.723-5.275zm-5.166 10.005l-52.817-27.265-2.724 5.276 52.818 27.265 2.723-5.276zm-5.164 10.006l-52.817-27.265-2.724 5.276 52.818 27.265 2.723-5.276zm-5.164 10.004l-52.817-27.264-2.724 5.275 52.818 27.265 2.723-5.276z" fill="#DFDEEE"/></g><defs><linearGradient id="paint0_linear_1406_1471" x1="378.409" y1="192.006" x2="378.409" y2="514.509" gradientUnits="userSpaceOnUse"><stop stop-color="#DFDEEE"/><stop offset="1" stop-color="#C1BED7"/></linearGradient><linearGradient id="paint1_linear_1406_1471" x1="219.88" y1="192.006" x2="219.88" y2="514.51" gradientUnits="userSpaceOnUse"><stop stop-color="#DFDEEE"/><stop offset="1" stop-color="#C1BED7"/></linearGradient><linearGradient id="paint2_linear_1406_1471" x1="346.827" y1="192.005" x2="346.827" y2="514.508" gradientUnits="userSpaceOnUse"><stop stop-color="#DFDEEE"/><stop offset="1" stop-color="#C1BED7"/></linearGradient><linearGradient id="paint3_linear_1406_1471" x1="356.045" y1="199.778" x2="356.045" y2="271.919" gradientUnits="userSpaceOnUse"><stop stop-color="#E1E0F0" stop-opacity="0"/><stop offset="1" stop-color="#C3C0D9"/></linearGradient><clipPath id="clip0_1406_1471"><path fill="#fff" transform="translate(.5)" d="M0 0h750v500H0z"/></clipPath></defs></svg>